<?xml version="1.0" encoding="UTF-8"?>
<svg width="40px" height="40px" viewBox="0 0 40 40" version="1.1" xmlns="http://www.w3.org/2000/svg" xmlns:xlink="http://www.w3.org/1999/xlink">
    <!-- Generator: Sketch 52.4 (67378) - http://www.bohemiancoding.com/sketch -->
    <title>instagram</title>
    <desc>Created with Sketch.</desc>
    <g id="Symbols" stroke="none" stroke-width="1" fill="none" fill-rule="evenodd">
        <g id="Footer/Mobile" transform="translate(-228.000000, -190.000000)">
            <g id="Footer">
                <g id="social" transform="translate(108.000000, 190.000000)">
                    <g id="instagram" transform="translate(120.000000, 0.000000)">
                        <rect id="Rectangle" stroke="#FFFFFF" stroke-width="2" x="1" y="1" width="38" height="38"></rect>
                        <path d="M12.57,10 L27.454,10 C28.868,10 30.026,11.156 30.026,12.57 L30.026,27.454 C30.026,28.868 28.868,30.024 27.454,30.024 L12.57,30.024 C11.158,30.024 10,28.868 10,27.454 L10,12.57 C10,11.156 11.158,10 12.57,10 Z M24.588,12.224 C24.092,12.224 23.688,12.63 23.688,13.126 L23.688,15.284 C23.688,15.78 24.092,16.186 24.588,16.186 L26.852,16.186 C27.348,16.186 27.754,15.78 27.754,15.284 L27.754,13.126 C27.754,12.63 27.348,12.224 26.852,12.224 L24.588,12.224 Z M27.762,18.468 L26,18.468 C26.168,19.014 26.258,19.588 26.258,20.188 C26.258,23.518 23.468,26.218 20.03,26.218 C16.596,26.218 13.806,23.518 13.806,20.188 C13.806,19.588 13.898,19.014 14.064,18.468 L12.226,18.468 L12.226,26.928 C12.226,27.366 12.584,27.722 13.022,27.722 L26.964,27.722 C27.404,27.722 27.762,27.366 27.762,26.928 L27.762,18.468 Z M20.03,16.072 C17.81,16.072 16.012,17.816 16.012,19.97 C16.012,22.12 17.81,23.866 20.03,23.866 C22.254,23.866 24.052,22.12 24.052,19.97 C24.052,17.816 22.254,16.072 20.03,16.072 Z" id="Fill-8" fill="#FEFEFE"></path>
                    </g>
                </g>
            </g>
        </g>
    </g>
</svg>