<?xml version="1.0" encoding="UTF-8"?>
<svg width="40px" height="40px" viewBox="0 0 40 40" version="1.1" xmlns="http://www.w3.org/2000/svg" xmlns:xlink="http://www.w3.org/1999/xlink">
    <!-- Generator: Sketch 52.4 (67378) - http://www.bohemiancoding.com/sketch -->
    <title>linkedin</title>
    <desc>Created with Sketch.</desc>
    <g id="Symbols" stroke="none" stroke-width="1" fill="none" fill-rule="evenodd">
        <g id="Footer/Desktop" transform="translate(-1180.000000, -30.000000)">
            <g id="Footer">
                <g id="social" transform="translate(1180.000000, 30.000000)">
                    <g id="linkedin">
                        <rect id="Rectangle" stroke="#FFFFFF" stroke-width="2" x="1" y="1" width="38" height="38"></rect>
                        <g id="Group-4" transform="translate(14.000000, 14.000000)" fill="#FFFFFF">
                            <path d="M0.2,12.3 L3,12.3 L3,3.9 L0.2,3.9 L0.2,12.3 Z M1.6,2.8 C2.6,2.8 3.2,2.2 3.2,1.4 C3.2,0.6 2.6,0 1.6,0 C0.6,0 0,0.5 0,1.3 C0,2.2 0.6,2.8 1.6,2.8 Z" id="Fill-1"></path>
                            <path d="M4.4998,12.3 L7.2998,12.3 L7.2998,7.6 C7.2998,7.4 7.2998,7.1 7.3998,6.9 C7.5998,6.4 8.0998,5.9 8.7998,5.9 C9.7998,5.9 10.1998,6.7 10.1998,7.8 L10.1998,12.3 L12.9998,12.3 L12.9998,7.5 C12.9998,4.9 11.5998,3.7 9.7998,3.7 C8.2998,3.7 7.5998,4.5 7.2998,5.1 L7.2998,3.9 L4.4998,3.9 L4.4998,12.3" id="Fill-3"></path>
                        </g>
                    </g>
                </g>
            </g>
        </g>
    </g>
</svg>