<?xml version="1.0" standalone="no"?>
<!DOCTYPE svg PUBLIC "-//W3C//DTD SVG 20010904//EN"
 "http://www.w3.org/TR/2001/REC-SVG-20010904/DTD/svg10.dtd">
<svg version="1.0" xmlns="http://www.w3.org/2000/svg"
 width="260.000000pt" height="260.000000pt" viewBox="0 0 260.000000 260.000000"
 preserveAspectRatio="xMidYMid meet">
<metadata>
Created by potrace 1.11, written by Peter Selinger 2001-2013
</metadata>
<g transform="translate(0.000000,260.000000) scale(0.100000,-0.100000)"
fill="#000000" stroke="none">
<path d="M1235 2554 c-33 -25 -61 -49 -61 -55 -1 -5 -2 -42 -3 -81 l-1 -73
-42 42 -42 42 -46 -51 -47 -52 88 -84 c48 -46 102 -96 120 -111 l32 -29 -23
-38 c-13 -22 -25 -40 -26 -42 -1 -2 -16 4 -33 13 -18 9 -36 13 -41 10 -5 -3
-23 -30 -40 -60 -17 -30 -35 -55 -39 -55 -4 0 -18 50 -32 112 l-24 112 -94 60
-93 60 -37 -20 -36 -19 2 -113 1 -114 57 -51 c91 -81 115 -105 115 -111 0 -3
-35 -6 -77 -8 l-77 -3 1 -37 c0 -34 -2 -36 -33 -40 -40 -5 -67 4 -70 23 -1 8
-14 61 -29 119 -25 97 -33 129 -38 155 -4 17 -16 18 -78 5 l-61 -13 7 -31 c20
-87 26 -82 -54 -41 l-72 36 -70 -32 -69 -32 6 -61 c8 -89 10 -92 75 -131 32
-20 59 -40 59 -45 0 -4 -22 -13 -49 -20 l-48 -11 19 -62 c10 -33 21 -63 23
-65 3 -3 71 14 152 38 82 24 152 43 157 44 5 1 20 -17 32 -39 l23 -40 -34 -19
-34 -19 34 -63 c19 -35 35 -67 35 -72 0 -5 -39 4 -87 19 -139 46 -136 46 -243
-10 l-95 -49 1 -39 c1 -21 2 -41 3 -45 1 -4 45 -30 100 -57 l98 -50 108 35
c59 19 110 33 112 30 3 -3 -11 -34 -31 -70 l-37 -66 36 -17 c19 -9 34 -19 32
-22 -1 -3 -11 -23 -22 -43 -22 -44 -10 -45 -199 12 -76 22 -139 40 -141 38
-10 -12 -35 -122 -28 -128 4 -3 28 -12 51 -19 l44 -12 -30 -23 c-17 -12 -47
-31 -66 -41 -37 -20 -42 -35 -49 -139 l-2 -39 68 -30 69 -31 66 35 c37 18 70
35 74 37 3 2 0 -21 -7 -50 -9 -34 -11 -56 -5 -62 6 -6 10 -7 10 -4 0 3 26 -1
57 -8 31 -7 58 -12 59 -11 1 1 18 73 38 160 l38 157 49 0 49 0 0 -40 0 -40 58
-1 c31 -1 65 -1 75 0 9 1 17 -1 17 -6 0 -4 -38 -44 -85 -88 l-85 -80 -3 -108
-4 -107 32 -20 c18 -11 38 -20 45 -20 8 0 162 94 187 114 1 1 26 110 48 210 3
10 6 20 8 22 2 2 20 -26 41 -61 21 -36 42 -65 47 -65 5 0 21 8 35 17 25 16 27
16 45 -8 41 -52 39 -55 -87 -175 l-119 -113 49 -49 48 -50 39 40 c21 22 39 39
40 37 2 -9 6 -67 8 -111 1 -45 3 -48 63 -91 l61 -44 31 18 c17 11 46 32 65 47
32 27 33 32 35 100 0 41 5 72 11 72 6 0 23 -14 39 -30 16 -17 32 -30 36 -30 3
0 26 21 50 46 l45 46 -119 113 c-125 120 -127 123 -87 174 l18 24 32 -19 c28
-17 33 -17 41 -4 5 8 24 39 43 68 l34 54 16 -69 c8 -37 21 -90 27 -118 11 -48
14 -52 94 -102 107 -68 107 -68 148 -44 32 20 34 24 32 68 -1 27 -2 76 -3 110
-1 60 -3 64 -43 100 -23 21 -64 59 -92 85 l-51 47 70 2 c39 1 76 1 83 0 8 -1
12 12 12 38 0 38 1 39 40 43 23 2 45 1 50 -2 5 -3 25 -72 45 -154 19 -82 38
-152 40 -156 4 -7 108 15 127 26 3 2 0 27 -7 54 -7 28 -11 50 -9 50 3 0 36
-16 73 -35 l69 -34 67 30 68 30 -6 72 c-4 40 -7 75 -7 78 0 4 -29 24 -65 45
-35 22 -65 42 -65 46 0 3 23 11 50 18 28 7 50 15 50 19 0 23 -43 130 -51 125
-5 -3 -75 -24 -156 -48 l-148 -43 -23 40 c-25 44 -25 43 24 73 16 10 15 15
-19 78 -20 36 -37 68 -37 70 0 2 28 -5 63 -16 34 -11 87 -26 118 -35 l56 -15
94 49 94 49 3 46 3 45 -100 52 -100 51 -109 -35 c-60 -19 -112 -35 -116 -35
-4 0 9 30 30 67 l37 66 -22 18 c-12 10 -26 19 -32 21 -12 4 25 88 39 88 7 0
46 -11 222 -63 47 -14 88 -23 91 -19 3 4 13 33 22 65 l16 58 -25 9 c-14 6 -31
10 -37 10 -7 0 -18 4 -26 9 -10 7 3 20 53 51 47 30 66 48 66 63 1 12 3 47 6
77 l6 55 -64 28 c-34 15 -69 27 -76 27 -8 0 -43 -16 -79 -36 l-65 -35 7 33 c4
18 9 43 12 55 5 22 1 24 -99 48 -31 8 -23 26 -73 -180 l-31 -130 -49 0 -50 0
1 38 c0 41 6 39 -108 40 -42 0 -46 2 -37 18 5 10 15 22 23 26 7 4 42 34 76 67
l63 58 5 112 4 111 -39 22 -38 22 -60 -39 c-141 -90 -129 -74 -154 -199 -13
-61 -26 -111 -30 -111 -4 0 -23 27 -42 60 -18 33 -38 60 -42 60 -4 0 -21 -7
-37 -15 -28 -14 -30 -14 -48 13 -10 15 -22 33 -26 39 -4 8 7 26 27 45 19 18
73 70 120 115 l85 82 -47 50 -48 50 -41 -42 -42 -42 -2 65 c0 36 -2 70 -3 75
-2 6 -3 15 -4 21 -1 8 -114 95 -123 94 -2 0 -30 -21 -63 -46z m581 -426 c-3
-40 -6 -85 -6 -99 0 -21 -12 -33 -61 -62 l-60 -36 35 65 c30 54 33 66 21 71
-19 7 -17 9 -48 -47 -13 -24 -29 -46 -34 -47 -6 -2 -9 23 -8 59 1 34 6 63 11
65 6 2 41 25 80 52 38 27 71 50 73 50 2 1 1 -32 -3 -71z m-946 9 l74 -52 2
-64 c1 -63 1 -63 -17 -40 -10 13 -26 39 -36 57 -18 33 -43 43 -43 17 0 -8 14
-37 30 -63 17 -27 30 -52 30 -55 0 -3 -27 10 -60 30 -57 34 -60 37 -61 77 0
22 -3 65 -5 94 -3 28 -1 52 3 52 4 -1 42 -24 83 -53z m1313 -753 c3 -4 42 -23
86 -44 l80 -37 -92 -43 -92 -43 -52 29 c-29 16 -53 31 -53 34 0 3 28 5 62 5
52 0 63 3 66 18 3 15 -5 17 -70 17 l-73 1 60 34 c64 37 68 39 78 29z m-1678
-35 c30 -17 55 -32 55 -33 0 -1 -31 -1 -70 -1 -38 0 -70 -3 -70 -7 0 -5 0 -11
0 -15 0 -5 29 -10 66 -13 l66 -5 -56 -32 -56 -32 -91 44 -91 44 83 40 c46 22
90 40 97 40 7 1 37 -13 67 -30z m1302 -744 c2 -1 5 -28 8 -61 3 -32 8 -76 10
-96 2 -21 1 -38 -3 -38 -3 0 -41 24 -84 53 l-77 52 -1 63 c0 34 2 62 4 62 3 0
19 -25 36 -55 31 -54 43 -64 55 -46 5 9 -33 87 -59 120 -8 11 77 -31 111 -54z
m-926 0 c-29 -52 -33 -75 -11 -75 5 0 25 28 44 63 l36 62 0 -71 0 -71 -57 -39
c-32 -21 -71 -47 -86 -56 l-28 -18 6 42 c3 24 6 69 8 100 2 57 2 57 52 86 28
17 54 31 58 31 5 1 -5 -24 -22 -54z"/>
</g>
</svg>
