<?xml version="1.0" encoding="UTF-8"?>
<svg width="316px" height="171px" viewBox="0 0 316 171" version="1.1" xmlns="http://www.w3.org/2000/svg" xmlns:xlink="http://www.w3.org/1999/xlink">
    <!-- Generator: Sketch 52.4 (67378) - http://www.bohemiancoding.com/sketch -->
    <title>Group 18</title>
    <desc>Created with Sketch.</desc>
    <defs>
        <polygon id="path-1" points="0.716092002 0.208798146 54.4711812 0.208798146 54.4711812 82.4087308 0.716092002 82.4087308"></polygon>
        <polygon id="path-3" points="0.000376086957 1.02671739 200.758718 1.02671739 200.758718 129.619247 0.000376086957 129.619247"></polygon>
    </defs>
    <g id="Mobile" stroke="none" stroke-width="1" fill="none" fill-rule="evenodd">
        <g id="Holiday-LP---Slide-11" transform="translate(-30.000000, -16.000000)">
            <g id="Group-18" transform="translate(30.000000, 15.000000)">
                <path d="M0.453310145,83.9233029 L21.7235348,84.0336217 C39.2266217,84.122629 48.9359333,91.7057957 49.4988101,111.871578 L49.3721942,136.463904 C48.6024696,156.622165 38.8154333,164.106296 21.3136,164.016035 L0.0433753623,163.90697 L0.453310145,83.9233029 Z M15.4002594,150.47189 L20.7156217,150.498216 C29.1349551,150.542093 34.0328609,146.578136 34.0930348,134.613557 L34.2008464,113.566477 C34.258513,102.266317 30.5151942,97.5928101 20.987658,97.5439188 L15.671042,97.5175928 L15.4002594,150.47189 Z" id="Fill-1" fill="#CEAA79"></path>
                <path d="M56.2036884,164.194551 L76.4409275,84.3136812 L96.0488478,84.413971 L114.914623,164.496674 L100.292362,164.421457 L96.5001522,147.562732 L75.3415,147.45492 L70.9337609,164.269768 L56.2036884,164.194551 Z M78.1784493,133.952145 L93.3573188,134.032377 L86.1000942,101.645022 L85.8782029,101.643768 L78.1784493,133.952145 Z" id="Fill-3" fill="#CEAA79"></path>
                <polygon id="Fill-4" fill="#CEAA79" points="141.526536 116.885193 154.654478 84.7147152 170.939043 84.7974543 148.870261 132.321056 148.704783 164.669549 133.416848 164.59057 133.582326 132.243331 112.002457 84.4953312 128.287022 84.5805775"></polygon>
                <g id="Group-17" transform="translate(0.000000, 0.226906)">
                    <path d="M237.611488,102.627612 L225.314699,102.56493 L225.359829,93.8121333 C237.115054,91.5468362 239.128372,87.5678362 242.920583,82.7138072 L251.67338,82.7589377 L251.257177,163.8483 L237.298083,163.779351 L237.611488,102.627612 Z" id="Fill-5" fill="#CEAA79"></path>
                    <g id="Group-9" transform="translate(260.753623, 82.739130)">
                        <mask id="mask-2" fill="white">
                            <use xlink:href="#path-1"></use>
                        </mask>
                        <g id="Clip-8"></g>
                        <path d="M0.853341304,27.7665 C0.941094928,10.705942 10.5237906,0.120347826 27.8037326,0.209355072 C45.0849283,0.297108696 54.5560514,10.9817391 54.4708051,28.0422971 L54.3316529,54.851029 C54.2451529,71.911587 44.6624572,82.4971812 27.380008,82.4081739 C10.1000659,82.3191667 0.628942754,71.6357899 0.716696377,54.5752319 L0.853341304,27.7665 Z M15.346479,52.9893986 C15.280037,65.9493551 19.2465007,69.7378043 27.4451964,69.7791739 C35.6426384,69.8205435 39.6504717,66.0747174 39.7156601,53.1135072 L39.8372616,29.6281304 C39.9037036,16.6669203 35.9359862,12.8797246 27.7385442,12.8383551 C19.5398486,12.7944783 15.5332688,16.5428116 15.4668268,29.5027681 L15.346479,52.9893986 Z" id="Fill-7" fill="#CEAA79" mask="url(#mask-2)"></path>
                    </g>
                    <path d="M213.052007,148.288204 L212.889036,148.288204 L212.889036,134.329109 L212.872739,134.329109 C212.873993,134.265175 212.877754,134.199986 212.877754,134.136051 C212.877754,125.379493 205.779739,118.281479 197.024435,118.281479 C188.267877,118.281479 181.169862,125.379493 181.169862,134.136051 C181.169862,134.199986 181.173623,134.265175 181.174877,134.329109 L181.15858,134.329109 L181.15858,148.288204 L180.995609,148.288204 C179.841022,148.288204 178.897043,149.232182 178.897043,150.386769 L178.897043,157.36945 C178.897043,158.524037 179.841022,159.468015 180.995609,159.468015 L189.818609,159.468015 L189.818609,171.746001 L191.434529,171.746001 L191.434529,159.468015 L202.614341,159.468015 L202.614341,171.746001 L204.229007,171.746001 L204.229007,159.468015 L213.052007,159.468015 C214.206594,159.468015 215.150572,158.524037 215.150572,157.36945 L215.150572,150.386769 C215.150572,149.232182 214.206594,148.288204 213.052007,148.288204" id="Fill-10" fill="#24466E"></path>
                    <g id="Group-14">
                        <mask id="mask-4" fill="white">
                            <use xlink:href="#path-3"></use>
                        </mask>
                        <g id="Clip-13"></g>
                        <path d="M193.589883,81.4050246 C190.764217,75.4227348 187.145007,71.5289812 179.415166,68.5892348 C174.915912,66.8780391 170.06063,66.0042638 165.150188,65.5855536 C166.451449,56.4140464 167.359072,46.7824594 168.913564,39.4989087 C169.574224,38.0961043 170.316369,35.9499014 170.316369,33.9691768 C170.316369,30.9140971 168.830825,28.1059812 163.959246,28.1059812 L163.629543,31.6574957 C162.472449,30.0879594 160.243507,28.8506333 157.108195,28.8506333 C150.848854,28.8506333 146.220478,37.5934014 144.981898,46.1029957 C143.439941,50.3715826 140.693253,54.3606116 138.119564,54.3606116 C136.056101,54.3606116 135.312702,52.1316696 135.312702,49.1605826 C135.312702,46.3524667 135.890622,42.8849449 136.632767,39.8298652 C137.458905,37.5181841 138.036825,35.4547203 138.036825,33.8036986 C138.036825,30.9140971 136.632767,29.0975971 132.340362,28.6024159 C128.046702,45.6090681 124.413702,54.2778725 121.773572,54.2778725 C120.452253,54.2778725 120.038557,52.792329 120.038557,50.563387 C120.038557,45.7745464 122.267499,38.2615826 123.424593,34.5470971 C123.507333,34.2161406 123.588818,33.8036986 123.588818,33.5554812 C123.588818,30.4176623 118.88397,28.7678942 118.057833,28.7678942 L117.975093,28.7678942 C116.683862,31.6913435 114.219238,39.9878217 113.388086,47.2513145 C113.378057,47.2914304 113.359253,47.3165029 113.349224,47.3578725 C112.301195,51.7280029 108.216891,68.4362928 104.405876,63.6813 C103.020622,60.6512928 102.455238,56.2573435 102.455238,51.2240464 L102.455238,48.9951043 C111.122789,37.0242565 115.994369,20.0163507 115.994369,9.77926377 C115.994369,4.49524203 114.426086,1.02646667 111.042557,1.02646667 C102.703456,1.02646667 94.9422746,31.2438 94.4470935,52.6268507 C91.14505,55.5991913 87.3465717,57.6626551 83.2183906,58.241829 C86.7699051,54.5248362 88.7506297,48.0034884 88.7506297,42.1415464 C88.7506297,40.4905246 88.666637,39.0049812 88.3381877,37.5181841 C87.5947891,33.8864377 83.0541659,30.1719522 81.0721877,30.1719522 C77.6046659,30.1719522 75.0447674,33.7209594 73.0640428,38.0133652 L72.7330862,37.9306261 C73.3937457,34.4631043 73.9729196,32.2354159 73.9729196,32.1526768 C74.9620283,30.1719522 75.3757239,28.6024159 75.3757239,27.2823507 C75.3757239,22.9046986 71.1648036,21.5018942 69.7607457,21.5018942 C69.5150355,21.5018942 69.3495572,21.5846333 69.3495572,21.6673725 C68.6763616,29.1728145 67.0554268,37.5658217 65.3718109,45.7030899 C65.3454848,45.7018362 65.3329486,45.6918072 65.3053688,45.6918072 C65.3053688,45.6918072 62.4157674,55.8474087 57.6269268,55.8474087 C55.3152457,55.8474087 54.5718471,53.4529884 54.5718471,50.1496913 C54.5718471,43.4628652 57.7096659,33.472742 57.7096659,33.3085174 C57.7096659,31.4920174 54.489108,28.3541986 52.7553471,28.3541986 C50.1967022,28.3541986 44.3347601,36.280858 40.5375355,46.0227638 C40.3720572,46.0227638 40.206579,45.9400246 40.1238399,45.9400246 C41.1154558,39.4186768 42.1058181,33.3900029 42.1058181,32.5663725 C42.1058181,28.1887203 39.8756225,25.5473362 35.3349993,26.3734739 C31.9514703,50.3151696 22.2095645,62.9466768 22.2095645,49.2408145 C22.2095645,45.1966261 23.5296297,39.8298652 23.5296297,39.8298652 C24.9324341,35.7844232 26.9984051,29.1803362 19.2372239,28.6024159 C18.7407891,30.4176623 18.0801297,32.7293435 17.5862022,35.1237638 C14.6138616,46.1055029 10.7326442,54.2778725 8.66918043,54.2778725 C7.34911522,54.2778725 6.93541957,52.792329 6.93541957,50.563387 C6.93541957,45.7745464 9.16436159,38.2615826 10.3214558,34.5470971 C10.4041949,34.2161406 10.4844268,33.8036986 10.4844268,33.5554812 C10.4844268,30.4176623 5.78083261,28.7678942 4.95469493,28.7678942 L4.8719558,28.7678942 C3.30241957,32.3181551 0.000376086957,43.7938217 0.000376086957,51.7179739 C0.000376086957,56.5908072 1.5686587,60.5535101 5.78083261,60.5535101 C9.74102826,60.5535101 12.9615862,54.8557928 15.5214848,48.0034884 L15.686963,48.0034884 C15.2732674,55.1040101 16.5945862,60.9659522 22.29105,60.9659522 C26.3352384,60.9659522 31.4562891,54.9385319 34.344637,42.0588072 L34.5101152,42.1415464 C33.5197529,49.0778435 32.2811732,55.3509739 32.2811732,57.3329522 C32.2811732,61.5426188 34.344637,62.9466768 36.4093543,62.9466768 C36.986021,62.9466768 37.5651949,62.8639377 38.1431152,62.5342348 C38.7210355,52.9578072 47.3898399,36.5278217 51.105579,33.0603 L51.26855,33.1430391 C50.0312239,35.8671623 47.4713254,44.2050101 47.4713254,50.563387 C47.4713254,56.9192565 49.2878254,62.6169739 55.563463,62.6169739 C58.6160355,62.6169739 61.2235717,59.8677783 63.1165428,56.578271 C61.5670645,64.2040609 60.35105,71.063887 60.35105,75.9906261 C60.35105,84.2469884 64.9744123,85.5670536 67.6145428,85.5670536 C68.6061587,85.5670536 69.3495572,85.3213435 69.3495572,85.3213435 C68.6061587,82.431742 68.3579413,78.7974884 68.3579413,74.8360391 C68.3579413,66.5796768 69.5952674,56.6735464 70.9178399,48.4171841 C73.3122601,40.738742 77.2737094,33.5554812 80.24605,33.5554812 C81.4858833,33.5554812 82.06255,35.6201986 82.06255,38.5098 C82.06255,43.6283435 79.9990862,53.2875101 77.0279993,57.250213 C75.9536442,56.6735464 74.9620283,55.7646696 74.2198833,54.6075754 C74.2198833,54.6075754 72.3206442,56.2585971 72.3206442,58.5715319 C72.3206442,61.8735754 76.4475717,63.6060826 79.9163471,63.6060826 C84.7866732,63.6060826 90.5671297,61.0486913 94.4470935,56.9192565 C94.7767964,66.4969377 97.5836587,73.9271623 103.198637,73.9271623 C105.579267,73.9271623 108.142927,71.9301406 109.425383,69.8842275 C110.30292,68.8374522 111.063869,67.6189304 111.694441,66.2549884 C112.979405,63.4757058 113.63505,60.4482058 114.146528,57.3718145 C115.039108,59.299887 116.540949,60.5535101 118.88397,60.5535101 C122.76268,60.5535101 125.983238,54.8557928 128.543137,47.9207493 L128.791354,48.0034884 C128.791354,48.746887 128.708615,49.4890319 128.708615,50.2324304 C128.708615,56.175858 130.276898,60.9659522 135.312702,60.9659522 C139.617644,60.9659522 142.804354,56.7550319 144.732427,52.6017783 C145.19376,58.0011333 147.49792,62.2860174 152.402093,62.2860174 C156.694499,62.2860174 159.665586,56.4240754 161.48334,50.4806478 L161.730304,50.563387 C160.986905,56.175858 160.163275,60.9659522 159.254398,65.1756188 C158.42826,65.0928797 157.520637,65.0928797 156.777238,65.0928797 C145.715267,65.0928797 133.165246,68.7271333 133.165246,78.4677855 C133.165246,88.5393942 145.46705,95.8881333 150.749818,95.8881333 C158.849478,95.8881333 162.245543,84.2093797 164.475738,70.5022638 L164.584804,69.756358 C169.740956,70.6552058 174.923434,72.3124957 178.844767,74.7495391 C184.33313,78.1619014 186.919354,84.0677203 188.609238,89.5234884 C192.563166,102.292894 193.380528,114.746387 193.227586,127.916952 C193.202514,130.167206 200.707956,130.206068 200.734282,127.916952 C200.909789,112.758141 200.298021,95.6085754 193.589883,81.4050246 M111.619224,6.06477826 C112.114405,6.06477826 112.279883,6.97114783 112.279883,8.53943043 C112.279883,14.5668507 109.390282,30.6658797 102.783688,43.0504232 C104.188999,25.8770391 109.224804,6.06477826 111.619224,6.06477826 M153.804898,55.433713 C152.236615,55.433713 151.575956,53.7012058 151.575956,51.0585681 C151.575956,44.5372203 155.785622,32.7293435 159.997796,32.7293435 C162.226738,32.7293435 163.134362,33.5554812 163.464064,34.3816188 L163.134362,37.7664014 C161.400601,47.0118725 157.437898,55.433713 153.804898,55.433713 M158.345521,69.0555826 C154.382818,84.8249087 149.429753,89.448271 144.475434,89.448271 C139.934811,89.448271 136.715507,85.4843145 136.715507,81.0264304 C136.715507,75.415213 141.832796,68.9753507 155.942325,68.9728435 C156.507709,68.9753507 157.08563,68.9903942 157.669818,69.0154667 C157.894217,69.0267493 158.112347,69.0317638 158.345521,69.0555826" id="Fill-12" fill="#24466E" mask="url(#mask-4)"></path>
                    </g>
                    <path d="M197.31352,139.708657 C197.31352,140.008273 197.070317,140.25273 196.768194,140.25273 C196.468578,140.25273 196.224122,140.008273 196.224122,139.708657 C196.224122,139.409041 196.468578,139.164585 196.768194,139.164585 C197.070317,139.164585 197.31352,139.409041 197.31352,139.708657 Z M206.021187,139.708657 C206.021187,144.817172 201.877962,148.959143 196.768194,148.959143 C191.65968,148.959143 187.516455,144.817172 187.516455,139.708657 C187.516455,134.600143 191.65968,130.456918 196.768194,130.456918 C197.763571,130.456918 198.720086,130.618636 199.61768,130.908222 L202.758006,139.539418 L202.037172,141.085136 L201.899274,141.01744 C201.683651,140.913389 201.42039,141.004904 201.316339,141.220527 L200.171781,143.592382 C200.068984,143.808005 200.160499,144.068759 200.374868,144.172809 L202.023383,144.967607 C202.237752,145.070404 202.499759,144.978889 202.60381,144.763266 L203.748368,142.393918 C203.853672,142.177041 203.762158,141.916288 203.545281,141.812237 L203.421172,141.752063 L204.284919,139.899208 C204.370165,139.714925 204.380194,139.503063 204.309991,139.312512 L201.583361,131.82086 C204.242296,133.444302 206.021187,136.365244 206.021187,139.708657 Z M190.695643,137.290418 C191.360064,135.625607 192.685143,134.29802 194.351209,133.634853 L193.660462,131.954998 C191.546854,132.802447 189.863238,134.487317 189.013281,136.600925 L190.695643,137.290418 Z M193.190354,138.314628 C193.58023,137.312983 194.373774,136.51944 195.375419,136.129563 L194.643303,134.345657 C193.169042,134.932353 191.993143,136.108251 191.406448,137.582512 L193.190354,138.314628 Z M199.766861,139.708657 C199.766861,138.052621 198.425484,136.709991 196.768194,136.709991 C195.113412,136.709991 193.770781,138.052621 193.770781,139.708657 C193.770781,141.362186 195.113412,142.707324 196.768194,142.707324 C198.425484,142.707324 199.766861,141.362186 199.766861,139.708657 Z" id="Fill-15" fill="#FEFEFE"></path>
                </g>
            </g>
        </g>
    </g>
</svg>