<?xml version="1.0" encoding="UTF-8"?>
<svg width="281px" height="171px" viewBox="0 0 281 171" version="1.1" xmlns="http://www.w3.org/2000/svg" xmlns:xlink="http://www.w3.org/1999/xlink">
    <!-- Generator: Sketch 52.4 (67378) - http://www.bohemiancoding.com/sketch -->
    <title>Group 20</title>
    <desc>Created with Sketch.</desc>
    <defs>
        <polygon id="path-1" points="0.735272595 1.22586264 53.6889203 1.22586264 53.6889203 83.4258117 0.735272595 83.4258117"></polygon>
        <polygon id="path-3" points="0 1.02746957 200.758824 1.02746957 200.758824 129.618683 0 129.618683"></polygon>
    </defs>
    <g id="Mobile" stroke="none" stroke-width="1" fill="none" fill-rule="evenodd">
        <g id="Holiday-LP---Slide-7" transform="translate(-30.000000, -16.000000)">
            <g id="Group-20" transform="translate(30.000000, 15.000000)">
                <path d="M0.453310145,83.9225507 L21.7235348,84.0328696 C39.2266217,84.1218768 48.9359333,91.7050435 49.4988101,111.870826 L49.3721942,136.464406 C48.6024696,156.622667 38.816687,164.105543 21.3136,164.015283 L0.0433753623,163.906217 L0.453310145,83.9225507 Z M15.4002594,150.471138 L20.7156217,150.497464 C29.1349551,150.541341 34.0328609,146.577384 34.0930348,134.612804 L34.2008464,113.565725 C34.2597667,102.265565 30.5151942,97.592058 20.987658,97.5444203 L15.671042,97.5168406 L15.4002594,150.471138 Z" id="Fill-1" fill="#CEAA79"></path>
                <path d="M56.2036884,164.194927 L76.4409275,84.3128036 L96.0488478,84.4143471 L114.915877,164.495796 L100.292362,164.420579 L96.5001522,147.563108 L75.3415,147.454043 L70.9337609,164.270144 L56.2036884,164.194927 Z M78.1797029,133.952521 L93.3573188,134.031499 L86.1000942,101.645398 L85.8794565,101.644144 L78.1797029,133.952521 Z" id="Fill-3" fill="#CEAA79"></path>
                <polygon id="Fill-4" fill="#CEAA79" points="141.526912 116.88557 154.654854 84.7138377 170.93942 84.7978304 148.870637 132.321432 148.705159 164.668671 133.417224 164.590946 133.582702 132.243707 112.002833 84.4957072 128.287398 84.5797"></polygon>
                <g id="Group-19" transform="translate(0.000000, 0.226906)">
                    <g id="Group-7" transform="translate(226.905797, 81.485507)">
                        <mask id="mask-2" fill="white">
                            <use xlink:href="#path-1"></use>
                        </mask>
                        <g id="Clip-6"></g>
                        <path d="M37.790471,23.3227819 C37.597413,17.8933399 33.1871667,13.8817457 27.7589783,13.8541659 C19.5602826,13.8115428 15.5524493,17.5586225 15.4860072,30.5198326 L15.4483986,37.9425355 C20.4528623,34.2017239 26.3373696,31.7947674 32.6518696,31.8273616 C46.6109638,31.8988181 53.7553623,42.79155 53.6889203,55.6424413 C53.6036739,72.038579 45.5717101,83.5192601 27.4029493,83.4252384 C10.1217536,83.3362312 0.648123188,72.6528543 0.735876812,55.5922964 L0.872521739,28.7835645 C0.960275362,11.7230065 10.5417174,1.13741232 27.8241667,1.22641957 C41.6704348,1.29662246 51.381,8.99010797 52.4152391,23.3979993 L37.790471,23.3227819 Z M15.3656594,54.0052094 C15.2992174,66.9664196 19.269442,70.7548688 27.4681377,70.7962384 C35.1114783,70.8363543 39.0152609,65.3166514 39.0641522,56.122579 C39.1092826,47.259463 34.3668261,43.1350428 27.6097971,43.1011949 C22.9563478,43.0773761 19.1741667,46.1600355 15.3894783,49.5749051 L15.3656594,54.0052094 Z" id="Fill-5" fill="#CEAA79" mask="url(#mask-2)"></path>
                    </g>
                    <path d="M213.052258,148.287953 L212.888033,148.287953 L212.888033,134.328859 L212.87299,134.328859 C212.874243,134.264924 212.878004,134.200989 212.878004,134.135801 C212.878004,125.379243 205.77999,118.281228 197.023432,118.281228 C188.268128,118.281228 181.170113,125.379243 181.170113,134.135801 C181.170113,134.200989 181.173874,134.264924 181.175128,134.328859 L181.15883,134.328859 L181.15883,148.287953 L180.995859,148.287953 C179.841272,148.287953 178.897294,149.231931 178.897294,150.386518 L178.897294,157.369199 C178.897294,158.523786 179.841272,159.467764 180.995859,159.467764 L189.818859,159.467764 L189.818859,171.74575 L191.433526,171.74575 L191.433526,159.467764 L202.613338,159.467764 L202.613338,171.74575 L204.229258,171.74575 L204.229258,159.467764 L213.052258,159.467764 C214.205591,159.467764 215.150823,158.523786 215.150823,157.369199 L215.150823,150.386518 C215.150823,149.231931 214.205591,148.287953 213.052258,148.287953" id="Fill-8" fill="#24466E"></path>
                    <g id="Group-12">
                        <mask id="mask-4" fill="white">
                            <use xlink:href="#path-3"></use>
                        </mask>
                        <g id="Clip-11"></g>
                        <path d="M193.590259,81.4047739 C190.764593,75.4224841 187.144129,71.5299841 179.415542,68.5889841 C174.916288,66.8777884 170.061006,66.004013 165.148057,65.5853029 C166.451825,56.4137957 167.358194,46.7822087 168.911433,39.4999116 C169.5746,38.0958536 170.316745,35.9496507 170.316745,33.9689261 C170.316745,30.9138464 168.831201,28.1057304 163.959622,28.1057304 L163.628665,31.6559913 C162.472825,30.0877087 160.243883,28.8503826 157.106064,28.8503826 C150.84923,28.8503826 146.222107,37.5918971 144.982274,46.1002377 C143.440317,50.3700783 140.694883,54.3603609 138.119941,54.3603609 C136.05397,54.3603609 135.310571,52.1314188 135.310571,49.1590783 C135.310571,46.3522159 135.890999,42.8846942 136.633143,39.8296145 C137.459281,37.519187 138.037201,35.4544696 138.037201,33.8034478 C138.037201,30.9138464 136.633143,29.0973464 132.339484,28.6021652 C128.047078,45.6088174 124.414078,54.2776217 121.771441,54.2776217 C120.451375,54.2776217 120.038933,52.7920783 120.038933,50.5631362 C120.038933,45.7742957 122.267875,38.2613319 123.423716,34.5455928 C123.505201,34.2158899 123.589194,33.8034478 123.589194,33.5552304 C123.589194,30.4174116 118.881839,28.7676435 118.056955,28.7676435 L117.974216,28.7676435 C116.68173,31.6910928 114.219614,39.9863174 113.388462,47.2510638 C113.37718,47.2911797 113.359629,47.3162522 113.3496,47.3576217 C112.300317,51.7277522 108.216013,68.4410565 104.404999,63.6797957 C103.019745,60.6497884 102.453107,56.2570928 102.453107,51.222542 L102.453107,48.9936 C111.123165,37.0227522 115.993491,20.0161 115.993491,9.77901304 C115.993491,4.4949913 114.426462,1.02746957 111.040426,1.02746957 C102.701325,1.02746957 94.9401435,31.2435493 94.4462159,52.6266 C91.1429188,55.5989406 87.3456942,57.6624043 83.2187667,58.2415783 C86.7677739,54.5245855 88.7497522,48.0032377 88.7497522,42.1412957 C88.7497522,40.4902739 88.667013,39.0047304 88.3360565,37.519187 C87.5939116,33.886187 83.0520348,30.1704478 81.0725638,30.1704478 C77.6037884,30.1704478 75.0451435,33.7207087 73.0619116,38.0131145 L72.7334623,37.9303754 C73.3941217,34.4641072 73.9707884,32.2351652 73.9707884,32.1524261 C74.9624043,30.1704478 75.3748464,28.6021652 75.3748464,27.2808464 C75.3748464,22.9057014 71.1651797,21.5016435 69.7611217,21.5016435 C69.5129043,21.5016435 69.3474261,21.5843826 69.3474261,21.6671217 C68.6742304,29.1725638 67.0532957,37.565571 65.3696797,45.7028391 C65.3433536,45.7015855 65.332071,45.6915565 65.3032377,45.6915565 C65.3032377,45.6915565 62.4136362,55.8459043 57.6247957,55.8459043 C55.3143681,55.8459043 54.5722232,53.4514841 54.5722232,50.1494406 C54.5722232,43.4626145 57.7075348,33.4724913 57.7075348,33.3082667 C57.7075348,31.4917667 54.4894841,28.3539478 52.7544696,28.3539478 C50.194571,28.3539478 44.3338826,36.2806072 40.5354043,46.022513 C40.3699261,46.022513 40.2069551,45.9397739 40.1242159,45.9397739 C41.1133246,39.4171725 42.1049406,33.3897522 42.1049406,32.5648681 C42.1049406,28.1884696 39.8759986,25.5470855 35.3353754,26.3732232 C31.9493391,50.3149188 22.2074333,62.9464261 22.2074333,49.2418174 C22.2074333,45.1963754 23.5300058,39.8296145 23.5300058,39.8296145 C24.9328101,35.7841725 26.9962739,29.1800855 19.2350928,28.6021652 C18.7399116,30.4174116 18.0805058,32.7290928 17.5853246,35.1247667 C14.6117304,46.1052522 10.7330203,54.2776217 8.6683029,54.2776217 C7.34698406,54.2776217 6.93579565,52.7920783 6.93579565,50.5631362 C6.93579565,45.7742957 9.16348406,38.2613319 10.3193246,34.5455928 C10.4020638,34.2158899 10.4848029,33.8034478 10.4848029,33.5552304 C10.4848029,30.4174116 5.77870145,28.7676435 4.95256377,28.7676435 L4.86982464,28.7676435 C3.30154203,32.3166507 -0.000501449275,43.7923174 -0.000501449275,51.7189768 C-0.000501449275,56.5893029 1.56903478,60.5532594 5.77870145,60.5532594 C9.74140435,60.5532594 12.9619623,54.855542 15.5206072,48.0032377 L15.6860855,48.0032377 C15.2736435,55.1037594 16.5949623,60.9644478 22.2901725,60.9644478 C26.3356145,60.9644478 31.454158,54.9382812 34.3437594,42.0598101 L34.5092377,42.1412957 C33.5176217,49.0763391 32.2802957,55.3507232 32.2802957,57.3327014 C32.2802957,61.5436217 34.3437594,62.9464261 36.4084768,62.9464261 C36.9863971,62.9464261 37.5643174,62.863687 38.1409841,62.5339841 C38.720158,52.9575565 47.3889623,36.527571 51.1034478,33.0600493 L51.2689261,33.1427884 C50.0316,35.8669116 47.4717014,44.206013 47.4717014,50.5631362 C47.4717014,56.9190058 49.2882014,62.6167232 55.5613319,62.6167232 C58.6139043,62.6167232 61.2214406,59.8687812 63.1144116,56.5817812 C61.5649333,64.2063174 60.3489188,71.0648899 60.3489188,75.991629 C60.3489188,84.2467377 64.9722812,85.5680565 67.6149188,85.5680565 C68.6052812,85.5680565 69.3474261,85.3198391 69.3474261,85.3198391 C68.6052812,82.4314913 68.3583174,78.7972377 68.3583174,74.8357884 C68.3583174,66.5794261 69.5956435,56.672042 70.9169623,48.4169333 C73.3113826,40.7384913 77.2740855,33.5552304 80.2464261,33.5552304 C81.4837522,33.5552304 82.0616725,35.6199478 82.0616725,38.5095493 C82.0616725,43.6268391 79.9982087,53.2872594 77.0258681,57.2499623 C75.9540203,56.672042 74.9624043,55.7644188 74.2190058,54.6073246 C74.2190058,54.6073246 72.3197667,56.2596 72.3197667,58.5712812 C72.3197667,61.8733246 76.4479478,63.6070855 79.9154696,63.6070855 C84.7870493,63.6070855 90.5649986,61.047187 94.4462159,56.9190058 C94.7771725,66.496687 97.5840348,73.9269116 103.196506,73.9269116 C105.577136,73.9269116 108.140796,71.9311435 109.421999,69.8864841 C110.300788,68.8397087 111.062991,67.6199333 111.694817,66.2547377 C112.978528,63.4754551 113.635426,60.4479551 114.146904,57.3715638 C115.03823,59.2996362 116.540071,60.5532594 118.881839,60.5532594 C122.763057,60.5532594 125.983614,54.855542 128.541006,47.9204986 L128.789223,48.0032377 C128.789223,48.7466362 128.706484,49.4900348 128.706484,50.2321797 C128.706484,56.1768609 130.27602,60.9644478 135.310571,60.9644478 C139.61802,60.9644478 142.805984,56.7522739 144.732803,52.5977667 C145.192883,57.999629 147.497042,62.2857667 152.399962,62.2857667 C156.694875,62.2857667 159.665962,56.4238246 161.481209,50.4803971 L161.729426,50.5631362 C160.987281,56.1768609 160.161143,60.9644478 159.252267,65.1753681 C158.427383,65.092629 157.521013,65.092629 156.777614,65.092629 C145.713136,65.092629 133.165622,68.725629 133.165622,78.4675348 C133.165622,88.5391435 145.464919,95.8878826 150.748941,95.8878826 C158.864897,95.8878826 162.255948,84.169013 164.486143,70.4293029 L164.58518,69.7561072 C169.740078,70.6549551 174.92381,72.3122449 178.84389,74.750542 C184.333506,78.1616507 186.91973,84.0674696 188.609614,89.5232377 C192.562288,102.292643 193.379651,114.746136 193.227962,127.915448 C193.20289,130.166955 200.708332,130.205817 200.734658,127.915448 C200.908912,112.75789 200.298397,95.6083246 193.590259,81.4047739 M111.618346,6.06327391 C112.114781,6.06327391 112.277752,6.9708971 112.277752,8.53917971 C112.277752,14.5666 109.388151,30.665629 102.784064,43.0501725 C104.188122,25.8767884 109.222672,6.06327391 111.618346,6.06327391 M153.80402,55.4334623 C152.236991,55.4334623 151.575078,53.6997014 151.575078,51.0583174 C151.575078,44.5357159 155.785999,32.7290928 159.995665,32.7290928 C162.224607,32.7290928 163.133484,33.5552304 163.464441,34.3813681 L163.133484,37.7661507 C161.399723,47.0128754 157.43702,55.4334623 153.80402,55.4334623 M158.344643,69.0553319 C154.383194,84.824658 149.427622,89.4480203 144.47581,89.4480203 C139.935187,89.4480203 136.714629,85.4853174 136.714629,81.0261797 C136.714629,75.4124551 141.833172,68.9725928 155.951477,68.9725928 C156.509339,68.9751 157.078484,68.9901435 157.656404,69.0139623 C157.884564,69.0264986 158.107709,69.031513 158.344643,69.0553319" id="Fill-10" fill="#24466E" mask="url(#mask-4)"></path>
                    </g>
                    <path d="M197.721951,151.082279 L197.721951,143.371243 L195.792625,143.371243 L195.792625,151.082279 C193.860791,151.223938 192.67361,151.946025 192.67361,152.245641 C192.67361,152.575344 192.923081,153.237257 193.228965,153.237257 L196.756661,153.237257 L200.28561,153.237257 C200.591494,153.237257 200.840965,152.575344 200.840965,152.245641 C200.840965,151.946025 199.653784,151.223938 197.721951,151.082279" id="Fill-13" fill="#FEFEFE"></path>
                    <path d="M206.517747,140.333212 L203.244537,137.760778 C202.991305,137.563959 202.528718,137.400988 202.215312,137.400988 L191.251124,137.400988 C190.937718,137.400988 190.681979,137.675531 190.681979,138.012756 L190.681979,143.375756 C190.681979,143.71298 190.937718,143.987524 191.251124,143.987524 L202.215312,143.987524 C202.528718,143.987524 202.991305,143.825807 203.244537,143.625227 L206.517747,141.055299 C206.769725,140.855973 206.769725,140.531285 206.517747,140.333212 M196.757037,142.018082 C196.077573,142.018082 195.524725,141.423864 195.524725,140.694256 C195.524725,139.963393 196.077573,139.37043 196.757037,139.37043 C197.437754,139.37043 197.989349,139.963393 197.989349,140.694256 C197.989349,141.423864 197.437754,142.018082 196.757037,142.018082" id="Fill-15" fill="#FEFEFE"></path>
                    <path d="M202.295168,129.066525 L191.33098,129.066525 C191.017574,129.066525 190.554987,129.228242 190.303009,129.426314 L187.028545,131.997496 C186.776567,132.196822 186.776567,132.52151 187.028545,132.719583 L190.303009,135.293271 C190.554987,135.491343 191.017574,135.654314 191.33098,135.654314 L202.295168,135.654314 C202.608574,135.654314 202.864313,135.378517 202.864313,135.042546 L202.864313,129.677039 C202.864313,129.341068 202.608574,129.066525 202.295168,129.066525 M196.756661,133.683619 C196.078451,133.683619 195.524349,133.089401 195.524349,132.358539 C195.524349,131.630184 196.078451,131.034713 196.756661,131.034713 C197.437378,131.034713 197.988972,131.630184 197.988972,132.358539 C197.988972,133.089401 197.437378,133.683619 196.756661,133.683619" id="Fill-17" fill="#FEFEFE"></path>
                </g>
            </g>
        </g>
    </g>
</svg>