<?xml version="1.0" encoding="UTF-8"?>
<svg width="276px" height="171px" viewBox="0 0 276 171" version="1.1" xmlns="http://www.w3.org/2000/svg" xmlns:xlink="http://www.w3.org/1999/xlink">
    <!-- Generator: Sketch 52.4 (67378) - http://www.bohemiancoding.com/sketch -->
    <title>Group 17</title>
    <desc>Created with Sketch.</desc>
    <g id="Mobile" stroke="none" stroke-width="1" fill="none" fill-rule="evenodd">
        <g id="Holiday-LP---Slide-8" transform="translate(-30.000000, -16.000000)">
            <g id="Group-17" transform="translate(30.000000, 15.000000)">
                <path d="M0.451805797,83.9226761 L21.7220304,84.0329949 C39.2251174,84.1220022 48.9356826,91.7051688 49.4985594,111.870951 L49.3731971,136.464531 C48.6034725,156.622792 38.813929,164.105669 21.3120957,164.015408 L0.0418710145,163.906343 L0.451805797,83.9226761 Z M15.4000087,150.471263 L20.7166246,150.497589 C29.135958,150.541466 34.0313565,146.577509 34.0915304,134.61293 L34.199342,113.56585 C34.2595159,102.265691 30.5149435,97.5921833 20.9874072,97.5445457 L15.6720449,97.5169659 L15.4000087,150.471263 Z" id="Fill-1" fill="#CEAA79"></path>
                <path d="M56.2040645,164.194927 L76.4413036,84.3128036 L96.0492239,84.4143471 L114.914999,164.495796 L100.292738,164.420579 L96.5005283,147.563108 L75.3418761,147.454043 L70.934137,164.270144 L56.2040645,164.194927 Z M78.1788254,133.952521 L93.3576949,134.031499 L86.1004703,101.645398 L85.878579,101.644144 L78.1788254,133.952521 Z" id="Fill-3" fill="#CEAA79"></path>
                <polygon id="Fill-4" fill="#CEAA79" points="141.526912 116.88557 154.654854 84.7138377 170.93942 84.7978304 148.870637 132.321432 148.705159 164.668671 133.417224 164.590946 133.582702 132.243707 112.002833 84.4957072 128.287398 84.5797"></polygon>
                <polygon id="Fill-5" fill="#CEAA79" points="225.340774 96.5343761 260.459774 96.7148978 237.957238 163.954231 253.909593 164.03697 275.884354 91.4760065 275.92447 84.1636225 225.404709 83.9041225"></polygon>
                <g id="Group-16" transform="translate(0.000000, 0.226906)">
                    <path d="M213.052007,148.288078 L212.889036,148.288078 L212.889036,134.328984 L212.872739,134.328984 C212.873993,134.265049 212.877754,134.201114 212.877754,134.135926 C212.877754,125.379368 205.779739,118.281354 197.024435,118.281354 C188.267877,118.281354 181.169862,125.379368 181.169862,134.135926 C181.169862,134.201114 181.173623,134.265049 181.174877,134.328984 L181.15858,134.328984 L181.15858,148.288078 L180.995609,148.288078 C179.841022,148.288078 178.897043,149.232057 178.897043,150.386643 L178.897043,157.369325 C178.897043,158.523912 179.841022,159.46789 180.995609,159.46789 L189.818609,159.46789 L189.818609,171.745875 L191.433275,171.745875 L191.433275,159.46789 L202.613087,159.46789 L202.613087,171.745875 L204.229007,171.745875 L204.229007,159.46789 L213.052007,159.46789 C214.206594,159.46789 215.150572,158.523912 215.150572,157.369325 L215.150572,150.386643 C215.150572,149.232057 214.206594,148.288078 213.052007,148.288078" id="Fill-6" fill="#24466E"></path>
                    <path d="M193.589883,81.4048993 C190.764217,75.4226094 187.143753,71.5301094 179.415166,68.5891094 C174.915912,66.8779138 170.06063,66.0041384 165.148934,65.5854283 C166.451449,56.413921 167.359072,46.7823341 168.912311,39.500037 C169.574224,38.095979 170.317622,35.9497761 170.317622,33.9690514 C170.317622,30.9139717 168.830825,28.1058558 163.959246,28.1058558 L163.628289,31.6561167 C162.473702,30.0878341 160.24476,28.850508 157.106941,28.850508 C150.850108,28.850508 146.221731,37.5920225 144.983151,46.100363 C143.439941,50.3702036 140.694507,54.3604862 138.119564,54.3604862 C136.053593,54.3604862 135.311449,52.1315442 135.311449,49.1592036 C135.311449,46.3523413 135.890622,42.8848196 136.634021,39.8297399 C137.458905,37.5193123 138.036825,35.4545949 138.036825,33.8035732 C138.036825,30.9139717 136.634021,29.0974717 132.339108,28.6022906 C128.046702,45.6089428 124.414956,54.2777471 121.771064,54.2777471 C120.450999,54.2777471 120.039811,52.7922036 120.039811,50.5632616 C120.039811,45.774421 122.268753,38.2614572 123.42334,34.5457181 C123.506079,34.2160152 123.588818,33.8035732 123.588818,33.5553558 C123.588818,30.417537 118.882717,28.7677688 118.056579,28.7677688 L117.97384,28.7677688 C116.682608,31.6899645 114.219238,39.9851891 113.38934,47.2499355 C113.378057,47.2900514 113.359253,47.3151239 113.349224,47.3577471 C112.299941,51.7278775 108.215637,68.4386746 104.404622,63.6811746 C103.019369,60.6511674 102.453985,56.2572181 102.453985,51.2226674 L102.453985,48.9937254 C111.122789,37.0228775 115.993115,20.0162254 115.993115,9.77913841 C115.993115,4.49511667 114.426086,1.02759493 111.04005,1.02759493 C102.702202,1.02759493 94.941021,31.2436746 94.4458399,52.6267254 C91.1437964,55.5990659 87.3453181,57.6625297 83.2183906,58.2417036 C86.7673978,54.5247109 88.7506297,48.003363 88.7506297,42.141421 C88.7506297,40.4903993 88.6678906,39.0048558 88.3369341,37.5193123 C87.5935355,33.8863123 83.0529123,30.1705732 81.0721877,30.1705732 C77.6034123,30.1705732 75.0447674,33.7208341 73.0627891,38.0132399 L72.7330862,37.9305007 C73.3937457,34.4642326 73.9716659,32.2352906 73.9716659,32.1525514 C74.9620283,30.1705732 75.3744703,28.6022906 75.3744703,27.2809717 C75.3744703,22.9058268 71.1648036,21.5017688 69.7619993,21.5017688 C69.5137819,21.5017688 69.3483036,21.584508 69.3483036,21.6672471 C68.6738543,29.1726891 67.0529196,37.5656964 65.3705572,45.7029645 C65.3429775,45.7017109 65.3316949,45.6916819 65.3028616,45.6916819 C65.3028616,45.6916819 62.4145138,55.8460297 57.6244196,55.8460297 C55.3152457,55.8460297 54.5718471,53.4516094 54.5718471,50.1495659 C54.5718471,43.4627399 57.7084123,33.4726167 57.7084123,33.308392 C57.7084123,31.491892 54.489108,28.3540732 52.7553471,28.3540732 C50.1954486,28.3540732 44.3335065,36.2807326 40.5362819,46.0226384 C40.3708036,46.0226384 40.206579,45.9398993 40.1238399,45.9398993 C41.1142022,39.4172978 42.1045645,33.3898775 42.1045645,32.5649935 C42.1045645,28.1885949 39.8756225,25.5472109 35.3349993,26.3733486 C31.948963,50.3150442 22.2070572,62.9465514 22.2070572,49.2419428 C22.2070572,45.1965007 23.5296297,39.8297399 23.5296297,39.8297399 C24.9324341,35.7842978 26.9958978,29.1802109 19.2359703,28.6022906 C18.7407891,30.417537 18.0801297,32.7292181 17.5862022,35.124892 C14.6113543,46.1053775 10.7326442,54.2777471 8.66792681,54.2777471 C7.34786159,54.2777471 6.93541957,52.7922036 6.93541957,50.5632616 C6.93541957,45.774421 9.16436159,38.2614572 10.3189486,34.5457181 C10.4016877,34.2160152 10.4844268,33.8035732 10.4844268,33.5553558 C10.4844268,30.417537 5.77832536,28.7677688 4.9534413,28.7677688 L4.86944855,28.7677688 C3.30116594,32.3167761 0.000376086957,43.7924428 0.000376086957,51.7191022 C0.000376086957,56.5894283 1.5686587,60.5533848 5.77832536,60.5533848 C9.74228188,60.5533848 12.9628399,54.8556674 15.5202312,48.003363 L15.6857094,48.003363 C15.274521,55.1038848 16.5945862,60.9645732 22.2897964,60.9645732 C26.336492,60.9645732 31.4550355,54.9384065 34.3433833,42.0599355 L34.5088616,42.141421 C33.5172457,49.0764645 32.2799196,55.3508486 32.2799196,57.3328268 C32.2799196,61.5437471 34.3433833,62.9465514 36.4093543,62.9465514 C36.986021,62.9465514 37.5639413,62.8638123 38.1418616,62.5341094 C38.7210355,52.9576819 47.3885862,36.5276964 51.1030717,33.0601746 L51.26855,33.1429138 C50.0312239,35.867037 47.4713254,44.2061384 47.4713254,50.5632616 C47.4713254,56.9191312 49.2878254,62.6168486 55.5609558,62.6168486 C58.6147819,62.6168486 61.2210645,59.8689065 63.1140355,56.5819065 C61.5658109,64.2064428 60.3485428,71.0650152 60.3485428,75.9917543 C60.3485428,84.246863 64.9719051,85.5681819 67.6145428,85.5681819 C68.6049051,85.5681819 69.3483036,85.3199645 69.3483036,85.3199645 C68.6049051,82.4316167 68.3579413,78.797363 68.3579413,74.8359138 C68.3579413,66.5795514 69.596521,56.6721674 70.9165862,48.4170587 C73.3110065,40.7386167 77.274963,33.5553558 80.24605,33.5553558 C81.4833761,33.5553558 82.0612964,35.6200732 82.0612964,38.5096746 C82.0612964,43.6269645 79.9978326,53.2873848 77.025492,57.2500877 C75.9536442,56.6721674 74.9620283,55.7645442 74.2198833,54.60745 C74.2198833,54.60745 72.3193906,56.2597254 72.3193906,58.5714065 C72.3193906,61.87345 76.4488254,63.6072109 79.9150935,63.6072109 C84.7866732,63.6072109 90.5658761,61.0473123 94.4458399,56.9191312 C94.7767964,66.4968123 97.5836587,73.927037 103.197383,73.927037 C105.57676,73.927037 108.141673,71.9300152 109.422876,69.8853558 C110.301666,68.8385804 111.063869,67.6200587 111.694441,66.254863 C112.979405,63.4755804 113.63505,60.4468268 114.146528,57.3704355 C115.039108,59.2997616 116.539695,60.5533848 118.882717,60.5533848 C122.76268,60.5533848 125.983238,54.8556674 128.541883,47.9206239 L128.790101,48.003363 C128.790101,48.7467616 128.707362,49.4901601 128.707362,50.2323051 C128.707362,56.1769862 130.275644,60.9645732 135.311449,60.9645732 C139.617644,60.9645732 142.805608,56.7523993 144.732427,52.597892 C145.192507,57.9997543 147.496666,62.285892 152.40084,62.285892 C156.694499,62.285892 159.66684,56.42395 161.482086,50.4805225 L161.730304,50.5632616 C160.986905,56.1769862 160.160767,60.9645732 159.253144,65.1754935 C158.427007,65.0927543 157.520637,65.0927543 156.777238,65.0927543 C145.714014,65.0927543 133.165246,68.7257543 133.165246,78.4676601 C133.165246,88.5392688 145.465796,95.888008 150.748564,95.888008 C158.86076,95.888008 162.254318,84.1779138 164.48326,70.4444717 L164.584804,69.7562326 C169.739702,70.6550804 174.923434,72.3123703 178.844767,74.7506674 C184.33313,78.1617761 186.919354,84.0675949 188.609238,89.523363 C192.561912,102.292769 193.380528,114.746262 193.22884,127.915573 C193.202514,130.16708 200.707956,130.205943 200.734282,127.915573 C200.908536,112.758015 200.298021,95.60845 193.589883,81.4048993 M111.61797,6.06339928 C112.114405,6.06339928 112.27863,6.97102246 112.27863,8.53930507 C112.27863,14.5667254 109.389028,30.6657543 102.784941,43.0502978 C104.187746,25.8769138 109.22355,6.06339928 111.61797,6.06339928 M153.803644,55.4335877 C152.236615,55.4335877 151.574702,53.6998268 151.574702,51.0584428 C151.574702,44.5358413 155.785622,32.7292181 159.996543,32.7292181 C162.225485,32.7292181 163.133108,33.5553558 163.464064,34.3814935 L163.133108,37.7662761 C161.399347,47.0130007 157.437898,55.4335877 153.803644,55.4335877 M158.344267,69.0554572 C154.382818,84.8247833 149.428499,89.4481457 144.475434,89.4481457 C139.934811,89.4481457 136.714253,85.4854428 136.714253,81.0263051 C136.714253,75.4125804 141.832796,68.9739717 155.951101,68.9727181 C156.508963,68.9752254 157.079362,68.9902688 157.657282,69.0140877 C157.885441,69.0266239 158.108586,69.032892 158.344267,69.0554572" id="Fill-8" fill="#24466E"></path>
                    <path d="M197.447031,127.422774 C197.60248,128.123549 196.980683,128.512172 196.643459,129.368397 C196.199676,130.495404 196.440372,131.494542 197.032082,131.805441 C197.093509,131.838035 197.142401,131.854332 197.180009,131.854332 C197.464582,131.854332 197.136133,130.95423 197.811836,129.906201 C198.577799,128.71902 197.888307,127.630875 197.447031,127.422774" id="Fill-10" fill="#FEFEFE"></path>
                    <path d="M195.124945,124.186922 C195.294184,125.815378 194.664865,125.568414 193.646923,127.477683 C192.674112,129.305465 194.525713,131.193422 195.232757,131.193422 C195.264097,131.193422 195.294184,131.189661 195.32051,131.182139 C195.943561,131.000364 195.269112,129.705371 196.09901,128.486849 C197.317532,126.696675 196.072684,124.673328 195.124945,124.186922" id="Fill-12" fill="#FEFEFE"></path>
                    <path d="M205.126601,141.505851 C204.449645,141.505851 203.899304,140.955511 203.899304,140.278554 C203.899304,139.601598 204.449645,139.051257 205.126601,139.051257 C205.803558,139.051257 206.353899,139.601598 206.353899,140.278554 C206.353899,140.955511 205.803558,141.505851 205.126601,141.505851 Z M192.758355,143.76112 C192.52142,143.76112 192.328362,143.568062 192.328362,143.329873 L192.328362,140.17325 C192.328362,139.936315 192.52142,139.743257 192.758355,139.743257 L193.431551,139.743257 L193.431551,137.55067 C193.431551,137.237264 193.479188,136.967736 193.556913,136.738322 C191.421993,136.562815 190.148312,136.156641 189.843681,135.835714 C190.242333,135.41575 192.283232,134.846605 195.753261,134.846605 C199.224543,134.846605 201.264188,135.41575 201.662841,135.835714 C201.265442,136.255678 199.224543,136.824822 195.753261,136.824822 C195.422304,136.824822 195.117674,136.814793 194.81179,136.806018 C194.705232,136.91383 194.571094,137.130707 194.571094,137.55067 L194.571094,139.743257 L195.245543,139.743257 C195.483732,139.743257 195.67679,139.936315 195.67679,140.17325 L195.67679,143.329873 C195.67679,143.568062 195.483732,143.76112 195.245543,143.76112 L192.758355,143.76112 Z M195.753261,132.997511 C192.88121,132.997511 188.103652,133.387388 188.103652,135.296656 C188.103652,142.958801 191.341761,148.330576 193.927986,148.330576 L194.573601,148.330576 L196.931667,148.330576 L197.57979,148.330576 C199.011428,148.330576 200.642391,146.677047 201.814529,143.901525 C202.26458,143.110489 202.604312,142.819649 202.994188,142.819649 C203.208558,142.819649 203.437971,142.907402 203.708754,143.047808 L203.710007,143.047808 C204.137493,143.268446 204.61387,143.403837 205.126601,143.403837 C206.84908,143.403837 208.251884,142.002286 208.251884,140.278554 C208.251884,138.554822 206.84908,137.152018 205.126601,137.152018 C204.862087,137.152018 204.611362,137.194641 204.366906,137.257322 L204.360638,137.257322 C204.21271,137.296185 204.086094,137.314989 203.977029,137.314989 C203.537007,137.314989 203.399109,137.009105 203.371529,136.517685 C203.38908,136.116525 203.40287,135.712859 203.40287,135.296656 C203.40287,133.387388 198.625312,132.997511 195.753261,132.997511 Z" id="Fill-14" fill="#FEFEFE"></path>
                </g>
            </g>
        </g>
    </g>
</svg>