<?xml version="1.0" encoding="UTF-8"?>
<svg width="252px" height="171px" viewBox="0 0 252 171" version="1.1" xmlns="http://www.w3.org/2000/svg" xmlns:xlink="http://www.w3.org/1999/xlink">
    <!-- Generator: Sketch 52.4 (67378) - http://www.bohemiancoding.com/sketch -->
    <title>day 1</title>
    <desc>Created with Sketch.</desc>
    <defs>
        <polygon id="path-1" points="0.915646377 1.22804928 27.2738261 1.22804928 27.2738261 82.362542 0.915646377 82.362542"></polygon>
        <polygon id="path-3" points="0.000250724638 1.02671739 200.758322 1.02671739 200.758322 129.618587 0.000250724638 129.618587"></polygon>
    </defs>
    <g id="Mobile" stroke="none" stroke-width="1" fill="none" fill-rule="evenodd">
        <g id="Holiday-LP---Slide-2" transform="translate(-30.000000, -16.000000)">
            <g id="day-1" transform="translate(30.000000, 15.000000)">
                <path d="M0.452557971,83.9230522 L21.7227826,84.033371 C39.2271232,84.1223783 48.9351812,91.7055449 49.4993116,111.871328 L49.3726957,136.463654 C48.602971,156.624422 38.8159348,164.106045 21.3128478,164.015784 L0.0426231884,163.906719 L0.452557971,83.9230522 Z M15.3995072,150.471639 L20.7161232,150.497965 C29.1354565,150.541842 34.0321087,146.577886 34.0935362,134.614559 L34.2013478,113.566226 C34.2590145,102.266067 30.5156957,97.593813 20.9881594,97.5436681 L15.6715435,97.5185957 L15.3995072,150.471639 Z" id="Fill-1" fill="#CEAA79"></path>
                <path d="M56.2036884,164.1943 L76.4409275,84.3134304 L96.0488478,84.4137203 L114.914623,164.496423 L100.292362,164.421206 L96.5001522,147.563735 L75.3427536,147.45467 L70.9337609,164.269517 L56.2036884,164.1943 Z M78.1784493,133.953148 L93.3573188,134.032126 L86.1000942,101.646025 L85.8794565,101.646025 L78.1784493,133.953148 Z" id="Fill-3" fill="#CEAA79"></path>
                <polygon id="Fill-4" fill="#CEAA79" points="141.526411 116.886823 154.654353 84.7150913 170.938918 84.7990841 148.870136 132.322686 148.704657 164.668671 133.416722 164.589693 133.582201 132.243707 112.002331 84.4969609 128.286896 84.5797"></polygon>
                <g id="Group-15" transform="translate(0.000000, 0.226906)">
                    <g id="Group-7" transform="translate(224.398551, 81.485507)">
                        <mask id="mask-2" fill="white">
                            <use xlink:href="#path-1"></use>
                        </mask>
                        <g id="Clip-6"></g>
                        <path d="M13.2124362,21.1418536 L0.915646377,21.0804261 L0.962030435,12.3263754 C12.7147478,10.0623319 14.7293203,6.08458551 18.5215304,1.22804928 L27.2743275,1.27317971 L26.856871,82.362542 L12.8977768,82.2923391 L13.2124362,21.1418536 Z" id="Fill-5" fill="#CEAA79" mask="url(#mask-2)"></path>
                    </g>
                    <path d="M213.051506,148.288078 L212.888535,148.288078 L212.888535,134.328984 L212.872238,134.328984 C212.873491,134.265049 212.877252,134.201114 212.877252,134.135926 C212.877252,125.379368 205.779238,118.281354 197.023933,118.281354 C188.267375,118.281354 181.169361,125.379368 181.169361,134.135926 C181.169361,134.201114 181.173122,134.265049 181.174375,134.328984 L181.159332,134.328984 L181.159332,148.288078 L180.995107,148.288078 C179.84052,148.288078 178.896542,149.232057 178.896542,150.386643 L178.896542,157.369325 C178.896542,158.523912 179.84052,159.46789 180.995107,159.46789 L189.818107,159.46789 L189.818107,171.745875 L191.434028,171.745875 L191.434028,159.46789 L202.612586,159.46789 L202.612586,171.745875 L204.228506,171.745875 L204.228506,159.46789 L213.051506,159.46789 C214.206093,159.46789 215.150071,158.523912 215.150071,157.369325 L215.150071,150.386643 C215.150071,149.232057 214.206093,148.288078 213.051506,148.288078" id="Fill-8" fill="#24466E"></path>
                    <g id="Group-12">
                        <mask id="mask-4" fill="white">
                            <use xlink:href="#path-3"></use>
                        </mask>
                        <g id="Clip-11"></g>
                        <path d="M193.589758,81.40515 C190.764091,75.4228601 187.143628,71.5303601 179.415041,68.5893601 C174.915787,66.8781645 170.060504,66.0043891 165.147555,65.585679 C166.451323,56.4141717 167.357693,46.7825848 168.910932,39.4990341 C169.574099,38.0962297 170.316243,35.9500268 170.316243,33.9693022 C170.316243,30.9142225 168.8307,28.1061065 163.95912,28.1061065 L163.628164,31.657621 C162.472323,30.0880848 160.243381,28.8507587 157.105562,28.8507587 C150.848729,28.8507587 146.221606,37.5922732 144.981772,46.1018674 C143.439816,50.3704543 140.694381,54.360737 138.119439,54.360737 C136.053468,54.360737 135.311323,52.1317949 135.311323,49.1594543 C135.311323,46.3513384 135.890497,42.8850703 136.632642,39.8299906 C137.45878,37.5183094 138.0367,35.4548457 138.0367,33.8038239 C138.0367,30.9142225 136.632642,29.0977225 132.338983,28.6025413 C128.046577,45.6091935 124.413577,54.2779978 121.770939,54.2779978 C120.450874,54.2779978 120.038432,52.7924543 120.038432,50.5635123 C120.038432,45.7746717 122.267374,38.261708 123.423214,34.5459688 C123.505954,34.2150123 123.588693,33.8038239 123.588693,33.5556065 C123.588693,30.4177877 118.881338,28.7680196 118.056454,28.7680196 L117.973714,28.7680196 C116.681229,31.6914688 114.219113,39.9866935 113.389214,47.2514399 C113.377932,47.2915558 113.359128,47.3166283 113.349099,47.3592514 C112.299816,51.7281283 108.215512,68.440179 104.404497,63.6814254 C103.019243,60.6501645 102.453859,56.2574688 102.453859,51.2241717 L102.453859,48.9939761 C111.122664,37.0243819 115.99299,20.0152225 115.99299,9.77938913 C115.99299,4.49536739 114.425961,1.02659203 111.039925,1.02659203 C102.702077,1.02659203 94.9408957,31.2439254 94.4457145,52.6269761 C91.1424174,55.5993167 87.3451928,57.6627804 83.2182652,58.2419543 C86.7672725,54.5249616 88.7505043,48.0036138 88.7505043,42.1416717 C88.7505043,40.49065 88.6677652,39.0038529 88.3368087,37.5183094 C87.5934101,33.886563 83.052787,30.1708239 81.0720623,30.1708239 C77.603287,30.1708239 75.044642,33.7210848 73.0626638,38.0134906 L72.7329609,37.9307514 C73.3936203,34.4632297 73.9715406,32.2342877 73.9715406,32.1515486 C74.9619029,30.1708239 75.3743449,28.6025413 75.3743449,27.2824761 C75.3743449,22.9048239 71.1646783,21.5020196 69.7606203,21.5020196 C69.5124029,21.5020196 69.3469246,21.5847587 69.3469246,21.6674978 C68.6749826,29.1729399 67.0527942,37.5659471 65.3704319,45.7032152 C65.3441058,45.7019616 65.3315696,45.6919326 65.3027362,45.6919326 C65.3027362,45.6919326 62.4143884,55.8475341 57.6242942,55.8475341 C55.3151203,55.8475341 54.5717217,53.4531138 54.5717217,50.1498167 C54.5717217,43.4629906 57.708287,33.4728674 57.708287,33.3086428 C57.708287,31.4921428 54.4889826,28.3543239 52.7552217,28.3543239 C50.1953232,28.3543239 44.3333812,36.2809833 40.5361565,46.0228891 C40.3706783,46.0228891 40.2064536,45.94015 40.1237145,45.94015 C41.1128232,39.4188022 42.1044391,33.3901283 42.1044391,32.5652442 C42.1044391,28.1888457 39.8754971,25.5474616 35.3348739,26.3735993 C31.9488377,50.3152949 22.2081855,62.9455486 22.2081855,49.2409399 C22.2081855,45.1967514 23.5295043,39.8299906 23.5295043,39.8299906 C24.9323087,35.7845486 26.9970261,29.1804616 19.2358449,28.6025413 C18.7406638,30.4177877 18.0800043,32.7294688 17.5860768,35.1238891 C14.6124826,46.1056283 10.7325188,54.2779978 8.66905507,54.2779978 C7.34773623,54.2779978 6.9352942,52.7924543 6.9352942,50.5635123 C6.9352942,45.7746717 9.16423623,38.261708 10.3200768,34.5459688 C10.4028159,34.2150123 10.4843014,33.8038239 10.4843014,33.5556065 C10.4843014,30.4177877 5.77945362,28.7680196 4.95331594,28.7680196 L4.87057681,28.7680196 C3.3022942,32.3170268 0.000250724638,43.7939471 0.000250724638,51.7180993 C0.000250724638,56.589679 1.56853333,60.5536355 5.77945362,60.5536355 C9.74215652,60.5536355 12.9627145,54.8559181 15.5213594,48.0036138 L15.6868377,48.0036138 C15.2743957,55.1041355 16.5944609,60.9648239 22.2909246,60.9648239 C26.3363667,60.9648239 31.4549101,54.9386572 34.343258,42.0589326 L34.5087362,42.1416717 C33.5183739,49.0767152 32.2797942,55.3510993 32.2797942,57.3330775 C32.2797942,61.5427442 34.343258,62.9455486 36.409229,62.9455486 C36.9858957,62.9455486 37.5638159,62.8628094 38.1417362,62.5343601 C38.7209101,52.9579326 47.3884609,36.5266935 51.1029464,33.0604254 L51.2684246,33.1431645 C50.0310986,35.8672877 47.4712,44.2051355 47.4712,50.5635123 C47.4712,56.9193819 49.2877,62.6170993 55.5608304,62.6170993 C58.6146565,62.6170993 61.2209391,59.8704109 63.1139101,56.5821572 C61.5656855,64.2066935 60.3484174,71.0640123 60.3484174,75.9907514 C60.3484174,84.2471138 64.9717797,85.567179 67.6144174,85.567179 C68.6047797,85.567179 69.3469246,85.3202152 69.3469246,85.3202152 C68.6047797,82.4318674 68.3578159,78.7976138 68.3578159,74.8361645 C68.3578159,66.5798022 69.5963957,56.6724181 70.9164609,48.4173094 C73.3108812,40.7388674 77.2735841,33.5556065 80.2459246,33.5556065 C81.4832507,33.5556065 82.061171,35.6203239 82.061171,38.5099254 C82.061171,43.6284688 79.9977072,53.2876355 77.0253667,57.2503384 C75.9535188,56.6724181 74.9619029,55.7647949 74.219758,54.6077007 C74.219758,54.6077007 72.3192652,56.2587225 72.3192652,58.5704036 C72.3192652,61.8737007 76.4487,63.606208 79.9149681,63.606208 C84.7865478,63.606208 90.5657507,61.047563 94.4457145,56.9193819 C94.776671,66.497063 97.5835333,73.9272877 103.196004,73.9272877 C105.576635,73.9272877 108.140294,71.9315196 109.422751,69.8868601 C110.301541,68.8400848 111.06249,67.621563 111.694316,66.2551138 C112.97928,63.4758312 113.634925,60.4483312 114.146403,57.3719399 C115.038983,59.3000123 116.53957,60.5536355 118.881338,60.5536355 C122.762555,60.5536355 125.983113,54.8559181 128.540504,47.9208746 L128.789975,48.0036138 C128.789975,48.7457587 128.705983,49.4891572 128.705983,50.2325558 C128.705983,56.1759833 130.275519,60.9648239 135.311323,60.9648239 C139.617519,60.9648239 142.805483,56.75265 144.732301,52.5993964 C145.193635,58.0000051 147.496541,62.2861428 152.399461,62.2861428 C156.694374,62.2861428 159.665461,56.4242007 161.480707,50.4807732 L161.728925,50.5635123 C160.98678,56.1759833 160.160642,60.9648239 159.251765,65.1744906 C158.426881,65.0917514 157.520512,65.0917514 156.777113,65.0917514 C145.712635,65.0917514 133.16512,68.7260051 133.16512,78.4679109 C133.16512,88.5395196 145.464417,95.8882587 150.748439,95.8882587 C158.863142,95.8882587 162.255446,84.1718964 164.484388,70.4346935 L164.584678,69.7564833 C169.739577,70.6553312 174.923309,72.312621 178.844642,74.7509181 C184.333004,78.1620268 186.919229,84.0678457 188.609113,89.5236138 C192.561787,102.29302 193.379149,114.746512 193.227461,127.915824 C193.202388,130.167331 200.70783,130.20494 200.734157,127.915824 C200.90841,112.758266 200.297896,95.6087007 193.589758,81.40515 M111.617845,6.06365 C112.11428,6.06365 112.277251,6.97127319 112.277251,8.5395558 C112.277251,14.5669761 109.388903,30.6660051 102.784816,43.0505486 C104.18762,25.8771645 109.223425,6.06365 111.617845,6.06365 M153.803519,55.4338384 C152.23649,55.4338384 151.574577,53.7013312 151.574577,51.0574399 C151.574577,44.536092 155.785497,32.7294688 159.995164,32.7294688 C162.224106,32.7294688 163.132983,33.5556065 163.463939,34.3804906 L163.132983,37.7665268 C161.399222,47.0119978 157.436519,55.4338384 153.803519,55.4338384 M158.344142,69.055708 C154.382693,84.8237804 149.42712,89.4471428 144.475309,89.4471428 C139.934686,89.4471428 136.714128,85.4844399 136.714128,81.0265558 C136.714128,75.4153384 141.82891,68.9779833 155.935932,68.9729688 C156.50633,68.9754761 157.088012,68.9905196 157.678468,69.015592 C157.899106,69.0268746 158.114729,69.0318891 158.344142,69.055708" id="Fill-10" fill="#24466E" mask="url(#mask-4)"></path>
                    </g>
                    <path d="M189.749033,131.488901 L190.036112,130.685328 C190.497446,130.635183 191.807482,130.617633 194.34983,131.455053 C196.032192,132.010408 196.75804,132.762582 196.774337,132.780133 C196.780605,132.787654 196.788127,132.792669 196.795649,132.798937 C196.796902,132.800191 196.798156,132.801444 196.799409,132.802698 C196.801917,132.805205 196.804424,132.806459 196.806931,132.808966 C196.825736,132.825263 196.84454,132.840307 196.864598,132.852843 C196.868359,132.85535 196.873373,132.857857 196.877134,132.860364 C196.897192,132.871647 196.918504,132.881676 196.941069,132.890451 C196.94483,132.891705 196.949844,132.892959 196.953605,132.894212 C196.97617,132.901734 196.998736,132.908002 197.021301,132.911763 C197.026315,132.913017 197.030076,132.913017 197.033837,132.913017 C197.057656,132.916778 197.081475,132.918031 197.10404,132.918031 C197.109054,132.918031 197.112815,132.916778 197.116576,132.916778 C197.140395,132.915524 197.16296,132.913017 197.185525,132.908002 C197.19054,132.906749 197.195554,132.905495 197.200569,132.904241 C197.22188,132.899227 197.243192,132.891705 197.26325,132.88293 C197.269518,132.880422 197.27704,132.876662 197.283308,132.872901 C197.300859,132.865379 197.317156,132.85535 197.334707,132.844067 C197.343482,132.839053 197.352257,132.831531 197.361033,132.825263 C197.368554,132.817741 197.378583,132.812727 197.386105,132.806459 C197.39112,132.801444 197.39488,132.79643 197.398641,132.791415 C197.402402,132.787654 197.407417,132.785147 197.411178,132.780133 C197.418699,132.772611 198.14204,132.014169 199.836938,131.455053 C202.385554,130.615125 203.695591,130.635183 204.149402,130.684075 L204.436482,131.488901 C204.633301,131.478872 204.817583,131.473857 204.978047,131.473857 C205.114692,131.473857 205.237547,131.476364 205.355388,131.481379 L204.882772,130.157553 C204.837641,130.030937 204.737351,129.933154 204.609482,129.890531 C204.466569,129.842893 203.108895,129.461792 199.564902,130.631422 C198.286207,131.053893 197.493917,131.584176 197.092757,131.905104 C196.692851,131.584176 195.900562,131.053893 194.621866,130.631422 C191.07662,129.461792 189.718946,129.842893 189.576033,129.890531 C189.449417,129.933154 189.349127,130.030937 189.303996,130.157553 L188.830127,131.481379 C188.947967,131.476364 189.072076,131.473857 189.208721,131.473857 C189.367931,131.473857 189.552214,131.478872 189.749033,131.488901" id="Fill-13" fill="#FEFEFE"></path>
                </g>
                <polygon id="Fill-16" fill="#FEFEFE" points="195.921246 147.396 198.264268 147.396 198.264268 134.087536 195.921246 134.087536"></polygon>
                <g id="Group-21" transform="translate(186.789855, 131.857341)" fill="#FEFEFE">
                    <path d="M2.68074783,0.286954348 C1.88845797,0.286954348 1.44592899,0.38599058 1.3982913,0.397273188 C1.14255217,0.458700725 0.960776812,0.686860145 0.960776812,0.951374638 L0.960776812,12.9673529 C0.960776812,13.1253094 1.02721884,13.2769978 1.1438058,13.3835558 C1.26039275,13.4913674 1.41584203,13.5452732 1.57505217,13.5339906 C1.58633478,13.532737 1.68537101,13.5264688 1.8684,13.5264688 C2.39492174,13.5264688 3.86166087,13.5866428 6.10313913,14.1394906 C6.96437826,14.3526065 7.48463188,14.7224254 7.98733478,15.0784543 C8.17537826,15.212592 8.35464638,15.339208 8.54770435,15.4557949 C8.54895797,15.4570486 8.55146522,15.4583022 8.55271884,15.4583022 L8.55271884,1.93797609 C7.98608116,1.58946884 7.13361739,1.10557029 6.47045072,0.903736957 C4.79435652,0.393512319 3.48432029,0.286954348 2.68074783,0.286954348" id="Fill-17"></path>
                    <path d="M19.2078891,0.397649275 C19.1602514,0.386366667 18.7177225,0.287330435 17.9254326,0.287330435 C17.1218601,0.287330435 15.8130775,0.393888406 14.1369833,0.904113043 C13.4399688,1.11597536 12.6088167,1.5885913 12.0534616,1.93208406 L12.0534616,15.4599319 C12.0534616,15.4599319 12.0534616,15.4599319 12.0547152,15.4586783 C12.2502804,15.3433449 12.4370703,15.2129681 12.6338891,15.0763232 C13.1553964,14.7140261 13.6932007,14.3404464 14.5030413,14.1398667 C16.7457732,13.5857652 18.2112587,13.5268449 18.7377804,13.5268449 C18.9208094,13.5268449 19.0198457,13.533113 19.0298746,13.5343667 C19.1890848,13.5456493 19.3457877,13.4929971 19.4623746,13.3851855 C19.5789616,13.2773739 19.6454036,13.1256855 19.6454036,12.9664754 L19.6454036,0.950497101 C19.6454036,0.687236232 19.4648819,0.457823188 19.2078891,0.397649275" id="Fill-19"></path>
                </g>
            </g>
        </g>
    </g>
</svg>