<?xml version="1.0" encoding="UTF-8"?>
<svg width="286px" height="171px" viewBox="0 0 286 171" version="1.1" xmlns="http://www.w3.org/2000/svg" xmlns:xlink="http://www.w3.org/1999/xlink">
    <!-- Generator: Sketch 52.4 (67378) - http://www.bohemiancoding.com/sketch -->
    <title>Group 14</title>
    <desc>Created with Sketch.</desc>
    <defs>
        <polygon id="path-1" points="0 1.02759493 200.759094 1.02759493 200.759094 129.618336 0 129.618336"></polygon>
    </defs>
    <g id="Mobile" stroke="none" stroke-width="1" fill="none" fill-rule="evenodd">
        <g id="Holiday-LP---Slide-5" transform="translate(-30.000000, -16.000000)">
            <g id="Group-14" transform="translate(30.000000, 15.000000)">
                <path d="M0.45356087,83.9228014 L21.7237855,84.0318667 C39.2256188,84.1221275 48.9361841,91.7052942 49.4990609,111.871077 L49.3724449,136.464657 C48.6027203,156.622917 38.8156841,164.105794 21.3138507,164.015533 L0.043626087,163.906468 L0.45356087,83.9228014 Z M15.3992565,150.471388 L20.7158725,150.497714 C29.1352058,150.541591 34.0331116,146.577635 34.0932855,134.613055 L34.2010971,113.565975 C34.2587638,102.265816 30.5154449,97.5923087 20.9879087,97.544671 L15.6712928,97.5170913 L15.3992565,150.471388 Z" id="Fill-1" fill="#CEAA79"></path>
                <path d="M56.2040645,164.194927 L76.4413036,84.3128036 L96.0492239,84.4143471 L114.914999,164.495796 L100.292738,164.420579 L96.5005283,147.563108 L75.3418761,147.454043 L70.934137,164.270144 L56.2040645,164.194927 Z M78.1788254,133.952521 L93.3576949,134.031499 L86.1004703,101.645398 L85.878579,101.644144 L78.1788254,133.952521 Z" id="Fill-3" fill="#CEAA79"></path>
                <polygon id="Fill-4" fill="#CEAA79" points="141.526912 116.88557 154.654854 84.7138377 170.93942 84.7978304 148.870637 132.321432 148.705159 164.668671 133.417224 164.590946 133.582702 132.243707 112.002833 84.4957072 128.287398 84.5797"></polygon>
                <path d="M225.532578,129.972643 L225.468643,142.823535 L260.585136,143.004057 L260.477325,164.05239 L274.436419,164.122593 L274.54423,143.075513 L285.731564,143.13318 L285.78923,132.049897 L285.78923,131.83302 L274.604404,131.775354 L274.846354,84.1389261 L259.669991,84.0612014 L225.532578,129.972643 Z M237.711528,131.586057 L260.581375,100.462354 L260.805774,100.463607 L260.642803,131.705151 L237.711528,131.586057 Z" id="Fill-5" fill="#CEAA79"></path>
                <g id="Group-13" transform="translate(0.000000, 0.226906)">
                    <path d="M213.052634,148.288078 L212.889663,148.288078 L212.889663,134.328984 L212.873366,134.328984 C212.87462,134.265049 212.87838,134.199861 212.87838,134.135926 C212.87838,125.379368 205.780366,118.281354 197.023808,118.281354 C188.268504,118.281354 181.170489,125.379368 181.170489,134.135926 C181.170489,134.199861 181.17425,134.265049 181.175504,134.328984 L181.159207,134.328984 L181.159207,148.288078 L180.996236,148.288078 C179.841649,148.288078 178.89767,149.232057 178.89767,150.386643 L178.89767,157.369325 C178.89767,158.523912 179.841649,159.46789 180.996236,159.46789 L189.819236,159.46789 L189.819236,171.745875 L191.433902,171.745875 L191.433902,159.46789 L202.613714,159.46789 L202.613714,171.745875 L204.229634,171.745875 L204.229634,159.46789 L213.052634,159.46789 C214.207221,159.46789 215.151199,158.523912 215.151199,157.369325 L215.151199,150.386643 C215.151199,149.232057 214.207221,148.288078 213.052634,148.288078" id="Fill-6" fill="#24466E"></path>
                    <g id="Group-10">
                        <mask id="mask-2" fill="white">
                            <use xlink:href="#path-1"></use>
                        </mask>
                        <g id="Clip-9"></g>
                        <path d="M193.590259,81.4048993 C190.764593,75.4226094 187.145383,71.5288558 179.415542,68.5891094 C174.916288,66.8779138 170.061006,66.0041384 165.150564,65.5866819 C166.451825,56.413921 167.359448,46.7810804 168.913941,39.500037 C169.5746,38.095979 170.316745,35.9497761 170.316745,33.9690514 C170.316745,30.9139717 168.831201,28.1058558 163.959622,28.1058558 L163.629919,31.6561167 C162.472825,30.0878341 160.243883,28.850508 157.108571,28.850508 C150.84923,28.850508 146.220854,37.5932761 144.982274,46.1028703 C143.440317,50.3727109 140.693629,54.3604862 138.119941,54.3604862 C136.056477,54.3604862 135.313078,52.1315442 135.313078,49.1592036 C135.313078,46.3523413 135.890999,42.8848196 136.633143,39.8297399 C137.459281,37.5193123 138.037201,35.4545949 138.037201,33.8035732 C138.037201,30.9139717 136.633143,29.0974717 132.340738,28.6022906 C128.047078,45.6089428 124.414078,54.2777471 121.773948,54.2777471 C120.452629,54.2777471 120.038933,52.7922036 120.038933,50.5632616 C120.038933,45.774421 122.267875,38.2614572 123.42497,34.5457181 C123.507709,34.2160152 123.589194,33.8035732 123.589194,33.5553558 C123.589194,30.4187906 118.884346,28.7677688 118.058209,28.7677688 L117.97547,28.7677688 C116.684238,31.6899645 114.219614,39.9864428 113.388462,47.2511891 C113.378433,47.2913051 113.359629,47.3163775 113.3496,47.3577471 C112.301571,51.7266239 108.217267,68.4361674 104.406252,63.6824283 C103.020999,60.652421 102.455614,56.2584717 102.455614,51.2226674 L102.455614,48.9937254 C111.123165,37.0228775 115.994745,20.0162254 115.994745,9.77913841 C115.994745,4.49511667 114.426462,1.02759493 111.042933,1.02759493 C102.703832,1.02759493 94.9426507,31.2436746 94.4474696,52.6267254 C91.1454261,55.5990659 87.3469478,57.6625297 83.2187667,58.2417036 C86.7702812,54.5247109 88.7510058,48.003363 88.7510058,42.141421 C88.7510058,40.4903993 88.667013,39.0048558 88.3385638,37.5193123 C87.5951652,33.8863123 83.054542,30.1705732 81.0725638,30.1705732 C77.605042,30.1705732 75.0451435,33.7208341 73.0644188,38.0132399 L72.7334623,37.9305007 C73.3941217,34.4642326 73.9732957,32.2352906 73.9732957,32.1525514 C74.9624043,30.1705732 75.3761,28.6022906 75.3761,27.2809717 C75.3761,22.9058268 71.1651797,21.5017688 69.7611217,21.5017688 C69.5154116,21.5017688 69.3499333,21.584508 69.3499333,21.6672471 C68.6767377,29.1726891 67.0545493,37.5656964 65.372187,45.7029645 C65.3458609,45.7017109 65.3333246,45.6916819 65.3057449,45.6916819 C65.3057449,45.6916819 62.4161435,55.8472833 57.6273029,55.8472833 C55.3156217,55.8472833 54.5722232,53.4516094 54.5722232,50.1495659 C54.5722232,43.4627399 57.710042,33.4726167 57.710042,33.308392 C57.710042,31.491892 54.4894841,28.3540732 52.7544696,28.3540732 C50.1970783,28.3540732 44.3351362,36.2807326 40.5379116,46.0226384 C40.3724333,46.0226384 40.2069551,45.9386457 40.1242159,45.9386457 C41.1158319,39.4172978 42.1061942,33.3898775 42.1061942,32.5649935 C42.1061942,28.1885949 39.8759986,25.5472109 35.3353754,26.3733486 C31.9518464,50.3150442 22.2099406,62.9465514 22.2099406,49.2419428 C22.2099406,45.1965007 23.5300058,39.8297399 23.5300058,39.8297399 C24.9328101,35.7842978 26.9987812,29.1802109 19.2376,28.6022906 C18.7411652,30.4187906 18.0805058,32.7292181 17.5853246,35.124892 C14.6142377,46.1053775 10.7330203,54.2777471 8.66955652,54.2777471 C7.3494913,54.2777471 6.93579565,52.7922036 6.93579565,50.5632616 C6.93579565,45.774421 9.16473768,38.2614572 10.3218319,34.5457181 C10.404571,34.2160152 10.4848029,33.8035732 10.4848029,33.5553558 C10.4848029,30.4187906 5.7812087,28.7677688 4.95507101,28.7677688 L4.87233188,28.7677688 C3.30279565,32.3167761 -0.000501449275,43.7924428 -0.000501449275,51.7191022 C-0.000501449275,56.5894283 1.56903478,60.5533848 5.7812087,60.5533848 C9.74140435,60.5533848 12.9619623,54.856921 15.5218609,48.003363 L15.6873391,48.003363 C15.2736435,55.1038848 16.5949623,60.9645732 22.2914261,60.9645732 C26.3356145,60.9645732 31.4566652,54.9384065 34.345013,42.0599355 L34.5104913,42.141421 C33.520129,49.0764645 32.2815493,55.3508486 32.2815493,57.3328268 C32.2815493,61.5437471 34.345013,62.9465514 36.4084768,62.9465514 C36.9863971,62.9465514 37.565571,62.8638123 38.1434913,62.5341094 C38.7214116,52.9576819 47.3902159,36.5276964 51.1059551,33.0601746 L51.2689261,33.1429138 C50.0316,35.867037 47.4717014,44.2061384 47.4717014,50.5632616 C47.4717014,56.9191312 49.2882014,62.6168486 55.5638391,62.6168486 C58.6164116,62.6168486 61.2239478,59.8676529 63.1169188,56.5781457 C61.5674406,64.2039355 60.3514261,71.0637616 60.3514261,75.9917543 C60.3514261,84.246863 64.9747884,85.5681819 67.6149188,85.5681819 C68.6065348,85.5681819 69.3499333,85.3199645 69.3499333,85.3199645 C68.6065348,82.430363 68.3583174,78.797363 68.3583174,74.8359138 C68.3583174,66.5795514 69.5956435,56.6721674 70.9182159,48.4170587 C73.3126362,40.7386167 77.2740855,33.5553558 80.2464261,33.5553558 C81.4862594,33.5553558 82.0629261,35.6200732 82.0629261,38.5096746 C82.0629261,43.6282181 79.9994623,53.2873848 77.0283754,57.2500877 C75.9540203,56.6721674 74.9624043,55.7645442 74.2190058,54.60745 C74.2190058,54.60745 72.3210203,56.2597254 72.3210203,58.5714065 C72.3210203,61.87345 76.4479478,63.6072109 79.9167232,63.6072109 C84.7870493,63.6072109 90.5675058,61.0473123 94.4474696,56.9191312 C94.7771725,66.4968123 97.5840348,73.927037 103.199013,73.927037 C105.579643,73.927037 108.143303,71.9300152 109.424506,69.8841022 C110.303296,68.8385804 111.064245,67.6200587 111.694817,66.254863 C112.979781,63.4755804 113.63668,60.4480804 114.146904,57.3716891 C115.039484,59.2997616 116.541325,60.5533848 118.884346,60.5533848 C122.763057,60.5533848 125.983614,54.856921 128.543513,47.9206239 L128.79173,48.003363 C128.79173,48.7467616 128.708991,49.4901601 128.708991,50.2323051 C128.708991,56.1769862 130.277274,60.9645732 135.313078,60.9645732 C139.61802,60.9645732 142.805984,56.7536529 144.732803,52.6003993 C145.194136,58.0022616 147.498296,62.285892 152.40247,62.285892 C156.694875,62.285892 159.667216,56.42395 161.483716,50.4805225 L161.73068,50.5632616 C160.987281,56.1769862 160.163651,60.9645732 159.254774,65.1754935 C158.428636,65.0927543 157.521013,65.0927543 156.777614,65.0927543 C145.715643,65.0927543 133.165622,68.7257543 133.165622,78.4676601 C133.165622,88.5392688 145.467426,95.888008 150.750194,95.888008 C158.849854,95.888008 162.247172,84.2080007 164.476114,70.4983775 L164.58518,69.7562326 C169.740078,70.6538268 174.92381,72.3123703 178.845143,74.7494138 C184.333506,78.1617761 186.91973,84.0675949 188.609614,89.523363 C192.563542,102.292769 193.380904,114.746262 193.229216,127.915573 C193.20289,130.16708 200.709586,130.204689 200.734658,127.915573 C200.910165,112.758015 200.298397,95.60845 193.590259,81.4048993 M111.6196,6.06339928 C112.114781,6.06339928 112.280259,6.97102246 112.280259,8.5405587 C112.280259,14.5667254 109.390658,30.6657543 102.784064,43.0502978 C104.189375,25.8769138 109.22518,6.06339928 111.6196,6.06339928 M153.805274,55.4335877 C152.236991,55.4335877 151.576332,53.6998268 151.576332,51.0584428 C151.576332,44.5358413 155.785999,32.7292181 159.998172,32.7292181 C162.227114,32.7292181 163.134738,33.5553558 163.464441,34.3814935 L163.134738,37.7662761 C161.400977,47.0130007 157.438274,55.4335877 153.805274,55.4335877 M158.345897,69.0554572 C154.383194,84.8247833 149.430129,89.4481457 144.47581,89.4481457 C139.935187,89.4481457 136.715883,85.4854428 136.715883,81.0263051 C136.715883,75.4125804 141.834426,68.9739717 155.951477,68.9739717 C156.510593,68.9752254 157.079738,68.9902688 157.658912,69.0140877 C157.885817,69.0266239 158.108962,69.032892 158.345897,69.0554572" id="Fill-8" fill="#24466E" mask="url(#mask-2)"></path>
                    </g>
                    <path d="M202.989926,133.76711 L197.511593,128.489357 C197.269643,128.256183 196.887288,128.257436 196.644086,128.489357 L191.163245,133.787168 C185.832839,139.390864 189.359281,143.358581 189.390622,143.393683 C190.274426,144.381538 191.267296,144.884241 192.335383,144.884241 C193.903665,144.884241 195.293933,143.78732 196.293071,142.694161 C195.806665,145.847023 193.92247,148.344241 193.899904,148.37182 C193.743201,148.578668 193.714368,148.855719 193.828448,149.0914 C193.943781,149.324574 194.18197,149.469994 194.440216,149.469994 L199.729252,149.469994 C199.990006,149.469994 200.225687,149.324574 200.34102,149.0914 C200.456354,148.855719 200.430028,148.578668 200.269564,148.37182 C200.248252,148.344241 198.36531,145.855799 197.877651,142.694161 C198.875535,143.78732 200.265803,144.884241 201.834086,144.884241 C202.903426,144.884241 203.893788,144.381538 204.772578,143.398697 C204.810187,143.358581 208.34039,139.390864 202.989926,133.76711" id="Fill-11" fill="#FEFEFE"></path>
                </g>
            </g>
        </g>
    </g>
</svg>