<?xml version="1.0" encoding="UTF-8"?>
<svg width="316px" height="171px" viewBox="0 0 316 171" version="1.1" xmlns="http://www.w3.org/2000/svg" xmlns:xlink="http://www.w3.org/1999/xlink">
    <!-- Generator: Sketch 52.4 (67378) - http://www.bohemiancoding.com/sketch -->
    <title>Group 19</title>
    <desc>Created with Sketch.</desc>
    <defs>
        <polygon id="path-1" points="0 1.02558913 200.761582 1.02558913 200.761582 129.618838 0 129.618838"></polygon>
    </defs>
    <g id="Mobile" stroke="none" stroke-width="1" fill="none" fill-rule="evenodd">
        <g id="Holiday-LP---Slide-13" transform="translate(-30.000000, -16.000000)">
            <g id="Group-19" transform="translate(30.000000, 15.000000)">
                <path d="M0.453310145,83.923679 L21.7235348,84.0339978 C39.2266217,84.1230051 48.9384406,91.7061717 49.4988101,111.871954 L49.3734478,136.465534 C48.6037232,156.623795 38.816687,164.107925 21.3136,164.017664 L0.0433753623,163.907346 L0.453310145,83.923679 Z M15.4002594,150.472266 L20.718129,150.499846 C29.1374623,150.542469 34.0328609,146.579766 34.0942884,134.613933 L34.2021,113.566853 C34.2610203,102.266693 30.5151942,97.5931862 20.987658,97.5442949 L15.6735493,97.5179688 L15.4002594,150.472266 Z" id="Fill-1" fill="#CEAA79"></path>
                <path d="M56.2061957,164.195804 L76.4421812,84.3136812 L96.0513551,84.4152246 L114.91713,164.497928 L100.293616,164.42271 L96.5014058,147.563986 L75.3440072,147.456174 L70.9362681,164.271022 L56.2061957,164.195804 Z M78.1797029,133.953399 L93.3598261,134.032377 L86.1026014,101.646275 L85.8794565,101.643768 L78.1797029,133.953399 Z" id="Fill-3" fill="#CEAA79"></path>
                <polygon id="Fill-4" fill="#CEAA79" points="141.528166 116.88582 154.657362 84.715342 170.94318 84.7980812 148.871891 132.321683 148.706412 164.670175 133.418478 164.591197 133.583956 132.243958 112.00534 84.495958 128.291159 84.5799507"></polygon>
                <g id="Group-18" transform="translate(0.000000, 0.228159)">
                    <path d="M237.61387,102.626985 L225.31708,102.564304 L225.362211,93.8115065 C237.117436,91.5462094 239.130754,87.5672094 242.922964,82.7131804 L251.675762,82.7583109 L251.259559,163.848927 L237.300464,163.778724 L237.61387,102.626985 Z" id="Fill-5" fill="#CEAA79"></path>
                    <path d="M263.993612,163.915494 L264.060054,150.955538 C296.11896,120.763277 301.245025,115.029204 301.287649,106.609871 C301.320243,100.183799 297.800069,95.6231174 290.709576,95.5867623 C283.286873,95.5491536 279.275279,100.070972 279.243938,106.052009 L279.230149,108.932835 L264.609141,108.858871 L264.626692,105.091733 C264.68812,93.3490449 274.157989,82.8737696 289.666562,82.9527478 C305.285453,83.0329797 315.991395,91.0649435 315.912417,106.351625 C315.819649,124.852596 294.141996,139.032328 282.558518,151.38177 L314.463228,151.544741 L314.39804,164.172487 L263.993612,163.915494 Z" id="Fill-7" fill="#CEAA79"></path>
                    <path d="M213.054765,148.288078 L212.891794,148.288078 L212.891794,134.328984 L212.875497,134.328984 C212.876751,134.265049 212.880512,134.199861 212.880512,134.134672 C212.880512,125.379368 205.782497,118.281354 197.025939,118.281354 C188.270635,118.281354 181.17262,125.379368 181.17262,134.134672 C181.17262,134.199861 181.176381,134.265049 181.177635,134.328984 L181.161338,134.328984 L181.161338,148.288078 L180.998367,148.288078 C179.84378,148.288078 178.899801,149.232057 178.899801,150.386643 L178.899801,157.369325 C178.899801,158.523912 179.84378,159.46789 180.998367,159.46789 L189.821367,159.46789 L189.821367,171.745875 L191.437287,171.745875 L191.437287,159.46789 L202.617099,159.46789 L202.617099,171.745875 L204.231765,171.745875 L204.231765,159.46789 L213.054765,159.46789 C214.209352,159.46789 215.15333,158.523912 215.15333,157.369325 L215.15333,150.386643 C215.15333,149.232057 214.209352,148.288078 213.054765,148.288078" id="Fill-9" fill="#24466E"></path>
                    <g id="Group-13">
                        <mask id="mask-2" fill="white">
                            <use xlink:href="#path-1"></use>
                        </mask>
                        <g id="Clip-12"></g>
                        <path d="M193.593017,81.4041471 C190.767351,75.4218572 187.146887,71.5281036 179.4183,68.5883572 C174.919046,66.8771616 170.063764,66.0033862 165.152068,65.5846761 C166.453329,56.4131688 167.360952,46.7815819 168.915445,39.4980312 C169.576104,38.0952268 170.318249,35.9490239 170.318249,33.9682993 C170.318249,30.9132196 168.832706,28.1051036 163.961126,28.1051036 L163.631423,31.6553645 C162.474329,30.0870819 160.245387,28.8497558 157.110075,28.8497558 C150.850735,28.8497558 146.222358,37.5925239 144.983778,46.1021181 C143.441822,50.3707051 140.695133,54.3597341 138.120191,54.3597341 C136.056728,54.3597341 135.314583,52.130792 135.314583,49.1584514 C135.314583,46.3503355 135.891249,42.8840674 136.634648,39.8289877 C137.460786,37.5173065 138.038706,35.4538428 138.038706,33.8015674 C138.038706,30.9132196 136.634648,29.0954659 132.342242,28.6015384 C128.048583,45.6081906 124.415583,54.2769949 121.774199,54.2769949 C120.454133,54.2769949 120.040438,52.7914514 120.040438,50.5625094 C120.040438,45.7736688 122.26938,38.2607051 123.426474,34.5449659 C123.509213,34.2140094 123.589445,33.8015674 123.589445,33.5546036 C123.589445,30.4167848 118.884597,28.7670167 118.059713,28.7670167 L117.976974,28.7670167 C116.684488,31.6904659 114.219865,39.9869442 113.389967,47.2529442 C113.378684,47.2918065 113.361133,47.3156254 113.351104,47.3569949 C112.303075,51.7258717 108.217517,68.4391761 104.406503,63.6791688 C103.021249,60.6491616 102.455865,56.2564659 102.455865,51.2219152 L102.455865,48.9929732 C111.12467,37.0221254 115.996249,20.0142196 115.996249,9.77713261 C115.996249,4.49436449 114.426713,1.02558913 111.043184,1.02558913 C102.705336,1.02558913 94.9429014,31.2416688 94.4489739,52.6259732 C91.1456768,55.5983138 87.3484522,57.6617775 83.2190174,58.2409514 C86.7705319,54.5239587 88.7512565,48.0026109 88.7512565,42.1406688 C88.7512565,40.4896471 88.6685174,39.00285 88.3388145,37.5173065 C87.5966696,33.8855601 83.0547928,30.169821 81.0728145,30.169821 C77.6065464,30.169821 75.0453942,33.7200819 73.0646696,38.0124877 L72.733713,37.9297486 C73.3943725,34.4622268 73.9735464,32.2332848 73.9735464,32.1505457 C74.9626551,30.169821 75.3763507,28.6015384 75.3763507,27.2802196 C75.3763507,22.903821 71.1654304,21.499763 69.7613725,21.499763 C69.5156623,21.499763 69.3501841,21.5825022 69.3501841,21.6652413 C68.6769884,29.171937 67.0560536,37.5649442 65.3724377,45.7022123 C65.3461116,45.7009587 65.3335754,45.6909297 65.3059957,45.6909297 C65.3059957,45.6909297 62.4163942,55.8465312 57.6275536,55.8465312 C55.3158725,55.8465312 54.5724739,53.4521109 54.5724739,50.1488138 C54.5724739,43.4619877 57.7102928,33.4706109 57.7102928,33.3076399 C57.7102928,31.4898862 54.4897348,28.353321 52.7559739,28.353321 C50.197329,28.353321 44.335387,36.2799804 40.5381623,46.0218862 C40.3726841,46.0218862 40.2072058,45.9391471 40.1244667,45.9391471 C41.1160826,39.4165457 42.1064449,33.3878717 42.1064449,32.5642413 C42.1064449,28.1878428 39.8762493,25.5464587 35.3356261,26.3725964 C31.9508435,50.314292 22.2089377,62.9457993 22.2089377,49.239937 C22.2089377,45.1957486 23.5302565,39.8289877 23.5302565,39.8289877 C24.9330609,35.7835457 26.9990319,29.1782051 19.2378507,28.6015384 C18.7401623,30.4167848 18.0807565,32.7284659 17.5855754,35.1228862 C14.6132348,46.1046254 10.733271,54.2769949 8.66980725,54.2769949 C7.34974203,54.2769949 6.93479275,52.7914514 6.93479275,50.5625094 C6.93479275,45.7736688 9.16498841,38.2607051 10.320829,34.5449659 C10.4035681,34.2140094 10.4850536,33.8015674 10.4850536,33.5546036 C10.4850536,30.4167848 5.7802058,28.7670167 4.95406812,28.7670167 L4.87132899,28.7670167 C3.30304638,32.3160239 -0.000250724638,43.7929442 -0.000250724638,51.7170964 C-0.000250724638,56.5886761 1.56928551,60.5526326 5.7802058,60.5526326 C9.74165507,60.5526326 12.962213,54.8549152 15.5221116,48.0026109 L15.6875899,48.0026109 C15.2738942,55.1031326 16.595213,60.963821 22.2916768,60.963821 C26.3371188,60.963821 31.4569159,54.9376543 34.3452638,42.0579297 L34.5119957,42.1406688 C33.5203797,49.0757123 32.2818,55.3500964 32.2818,57.3320746 C32.2818,61.5417413 34.3452638,62.9457993 36.4087275,62.9457993 C36.9866478,62.9457993 37.5658217,62.8618065 38.143742,62.5333572 C38.7216623,52.9569297 47.3904667,36.5256906 51.1062058,33.0594225 L51.2691768,33.1421616 C50.0318507,35.8662848 47.4719522,44.2041326 47.4719522,50.5625094 C47.4719522,56.918379 49.2884522,62.6160964 55.5640899,62.6160964 C58.6166623,62.6160964 61.2241986,59.8669007 63.1171696,56.5773935 C61.5689449,64.2031833 60.3516768,71.0630094 60.3516768,75.9897486 C60.3516768,84.2461109 64.9750391,85.5661761 67.6164232,85.5661761 C68.6067855,85.5661761 69.3501841,85.3204659 69.3501841,85.3204659 C68.6067855,82.4308645 68.3585681,78.7966109 68.3585681,74.8351616 C68.3585681,66.5787993 69.5971478,56.6714152 70.9184667,48.4163065 C73.312887,40.7378645 77.2743362,33.5546036 80.2466768,33.5546036 C81.4865101,33.5546036 82.0644304,35.619321 82.0644304,38.5089225 C82.0644304,43.6274659 80.0009667,53.2866326 77.0286261,57.2493355 C75.954271,56.6714152 74.9626551,55.763792 74.2205101,54.6066978 C74.2205101,54.6066978 72.3225246,56.2577196 72.3225246,58.5694007 C72.3225246,61.8726978 76.4494522,63.6052051 79.9182275,63.6052051 C84.7873,63.6052051 90.5677565,61.0465601 94.4489739,56.918379 C94.7786768,66.4960601 97.5842855,73.9262848 103.199264,73.9262848 C105.579894,73.9262848 108.143554,71.929263 109.42601,69.8846036 C110.303546,68.8378283 111.065749,67.6193065 111.696322,66.2541109 C112.981286,63.4748283 113.63693,60.4473283 114.148409,57.3721906 C115.040988,59.2990094 116.541575,60.5526326 118.884597,60.5526326 C122.764561,60.5526326 125.983865,54.8549152 128.545017,47.9198717 L128.793235,48.0026109 C128.793235,48.7447558 128.710496,49.4881543 128.710496,50.2315529 C128.710496,56.1749804 130.278778,60.963821 135.314583,60.963821 C139.619525,60.963821 142.806235,56.7541543 144.734307,52.5996471 C145.195641,58.0002558 147.4998,62.2851399 152.403974,62.2851399 C156.69638,62.2851399 159.667467,56.4231978 161.48522,50.4797703 L161.73093,50.5625094 C160.988786,56.1749804 160.165155,60.963821 159.256278,65.1747413 C158.430141,65.0920022 157.522517,65.0920022 156.779119,65.0920022 C145.715894,65.0920022 133.165872,68.7250022 133.165872,78.466908 C133.165872,88.5385167 145.467677,95.8872558 150.751699,95.8872558 C158.855119,95.8872558 162.251184,84.1959659 164.48138,70.4800746 L164.587938,69.7554804 C169.742836,70.6530746 174.926568,72.3116181 178.846648,74.7486616 C184.336264,78.1610239 186.922488,84.0668428 188.612372,89.5226109 C192.565046,102.292017 193.382409,114.745509 193.23072,127.916075 C193.205648,130.167582 200.71109,130.205191 200.737416,127.916075 C200.91167,112.757263 200.301155,95.6076978 193.593017,81.4041471 M111.621104,6.0626471 C112.115032,6.0626471 112.28051,6.96901667 112.28051,8.5385529 C112.28051,14.5647196 109.392162,30.6650022 102.785568,43.0495457 C104.19088,25.8761616 109.226684,6.0626471 111.621104,6.0626471 M153.806778,55.4328355 C152.238496,55.4328355 151.577836,53.7003283 151.577836,51.056437 C151.577836,44.5350891 155.787503,32.7284659 159.999677,32.7284659 C162.228619,32.7284659 163.136242,33.5546036 163.465945,34.3794877 L163.136242,37.7655239 C161.402481,47.0109949 157.438525,55.4328355 153.806778,55.4328355 M158.347401,69.0547051 C154.384699,84.8240312 149.431633,89.4473935 144.477314,89.4473935 C139.935438,89.4473935 136.717387,85.483437 136.717387,81.0255529 C136.717387,75.4143355 141.834677,68.9744732 155.944206,68.9719659 C156.50959,68.9744732 157.086257,68.9895167 157.671699,69.0133355 C157.894843,69.0258717 158.114228,69.0308862 158.347401,69.0547051" id="Fill-11" fill="#24466E" mask="url(#mask-2)"></path>
                    </g>
                    <path d="M208.253764,133.800958 C207.040257,132.90211 203.080062,130.253204 197.497678,130.253204 C196.371924,130.253204 195.317627,130.363523 194.334786,130.545299 C193.99004,130.609233 193.858409,131.032958 194.106627,131.279922 L203.054989,140.220762 C203.238018,140.402538 203.537634,140.386241 203.699351,140.185661 L208.330236,134.417741 C208.484431,134.225936 208.451837,133.947632 208.253764,133.800958" id="Fill-14" fill="#FEFEFE"></path>
                    <path d="M205.616392,145.205544 L189.17387,128.763022 C188.801544,128.390696 188.197298,128.390696 187.824972,128.763022 C187.451392,129.135349 187.451392,129.740849 187.824972,130.113175 L189.570015,131.858218 L189.731733,132.017428 L189.373196,132.204218 C189.370689,132.205472 189.370689,132.207979 189.368182,132.207979 C188.119573,132.832283 187.220725,133.451573 186.743095,133.803841 C186.546276,133.950515 186.511175,134.231327 186.66537,134.421878 C186.66537,134.421878 196.92753,147.132363 197.041609,147.250204 C197.213356,147.426964 197.496675,147.423204 197.66466,147.245189 L197.803812,147.099769 L201.129675,143.420385 L204.26624,146.555696 C204.45303,146.741233 204.697486,146.835254 204.941943,146.835254 C205.185146,146.835254 205.429602,146.741233 205.616392,146.555696 C205.988718,146.182117 205.988718,145.57787 205.616392,145.205544" id="Fill-16" fill="#FEFEFE"></path>
                </g>
            </g>
        </g>
    </g>
</svg>