<?xml version="1.0" encoding="UTF-8"?>
<svg width="280px" height="171px" viewBox="0 0 280 171" version="1.1" xmlns="http://www.w3.org/2000/svg" xmlns:xlink="http://www.w3.org/1999/xlink">
    <!-- Generator: Sketch 52.4 (67378) - http://www.bohemiancoding.com/sketch -->
    <title>Group 15</title>
    <desc>Created with Sketch.</desc>
    <defs>
        <polygon id="path-1" points="0 1.02759493 200.585344 1.02759493 200.585344 129.618808 0 129.618808"></polygon>
    </defs>
    <g id="Mobile" stroke="none" stroke-width="1" fill="none" fill-rule="evenodd">
        <g id="Holiday-LP---Slide-9" transform="translate(-30.000000, -16.000000)">
            <g id="Group-15" transform="translate(30.000000, 15.000000)">
                <path d="M0.452918373,83.9226761 L21.7047603,84.0329949 C39.1927202,84.1220022 48.8936406,91.7051688 49.4560309,111.870951 L49.3307769,136.464531 C48.560465,156.622792 38.7831397,164.105669 21.2951798,164.015408 L0.0433378753,163.906343 L0.452918373,83.9226761 Z M15.3869498,150.471263 L20.6977183,150.497589 C29.1097752,150.541466 34.003448,146.577509 34.06357,134.61293 L34.1725409,113.56585 C34.2301577,102.265691 30.4888215,97.5921833 20.9695194,97.5445457 L15.6574984,97.5169659 L15.3869498,150.471263 Z" id="Fill-1" fill="#CEAA79"></path>
                <path d="M56.1554903,164.194927 L76.3752394,84.3128036 L95.9662136,84.4143471 L114.815684,164.495796 L100.206061,164.420579 L96.4171279,147.563108 L75.276762,147.454043 L70.8728323,164.270144 L56.1554903,164.194927 Z M78.1112595,133.952521 L93.2770107,134.031499 L86.0260581,101.645398 L85.8043586,101.644144 L78.1112595,133.952521 Z" id="Fill-3" fill="#CEAA79"></path>
                <polygon id="Fill-4" fill="#CEAA79" points="141.404598 116.88557 154.521194 84.7138377 170.791686 84.7978304 148.741976 132.321432 148.576641 164.668671 133.301918 164.590946 133.467254 132.243707 111.906034 84.4957072 128.176526 84.5797"></polygon>
                <g id="Group-14" transform="translate(0.000000, 0.226906)">
                    <path d="M252.246725,164.910746 C237.083479,164.833021 225.501244,156.797296 225.582659,140.95526 C225.629003,131.981825 228.76411,125.019202 237.303926,121.739724 C231.011166,118.494093 227.727007,111.275731 227.763331,104.296811 C227.838483,89.4514051 238.832024,82.6404703 252.668831,82.7119268 C266.504385,82.7833833 277.426532,89.7058906 277.350127,104.551296 C277.313803,111.530217 273.956997,118.714731 267.631671,121.895173 C276.136416,125.261151 279.20138,132.257622 279.155037,141.231057 C279.073621,157.07184 267.409971,164.98847 252.246725,164.910746 M252.433354,128.35384 C245.017066,128.314978 240.233616,133.165246 240.194788,140.586695 C240.160969,147.455296 243.346178,152.236615 252.311857,152.282999 C261.277537,152.32813 264.511594,147.580659 264.545413,140.712057 C264.584242,133.289354 259.848389,128.391449 252.433354,128.35384 M252.604951,95.3396732 C246.627832,95.3095862 242.396753,99.9404703 242.367944,105.59055 C242.339136,111.24063 246.852036,115.694753 252.498486,115.723586 C258.14243,115.75242 262.704179,111.34468 262.732988,105.695854 C262.761796,100.045775 258.580819,95.3710138 252.604951,95.3396732" id="Fill-5" fill="#CEAA79"></path>
                    <path d="M212.868128,148.288078 L212.705298,148.288078 L212.705298,134.328984 L212.689015,134.328984 C212.690267,134.265049 212.694025,134.201114 212.694025,134.135926 C212.694025,125.379368 205.602145,118.281354 196.854407,118.281354 C188.105417,118.281354 181.013537,125.379368 181.013537,134.135926 C181.013537,134.201114 181.017295,134.265049 181.018547,134.328984 L181.002264,134.328984 L181.002264,148.288078 L180.839434,148.288078 C179.685845,148.288078 178.742683,149.232057 178.742683,150.386643 L178.742683,157.369325 C178.742683,158.523912 179.685845,159.46789 180.839434,159.46789 L189.654809,159.46789 L189.654809,171.745875 L191.269333,171.745875 L191.269333,159.46789 L202.439482,159.46789 L202.439482,171.745875 L204.052753,171.745875 L204.052753,159.46789 L212.868128,159.46789 C214.021717,159.46789 214.96488,158.523912 214.96488,157.369325 L214.96488,150.386643 C214.96488,149.232057 214.021717,148.288078 212.868128,148.288078" id="Fill-7" fill="#24466E"></path>
                    <g id="Group-11">
                        <mask id="mask-2" fill="white">
                            <use xlink:href="#path-1"></use>
                        </mask>
                        <g id="Clip-10"></g>
                        <path d="M193.422949,81.4048993 C190.599725,75.4226094 186.983643,71.5301094 179.260483,68.5891094 C174.765117,66.8779138 169.914031,66.0041384 165.005328,65.5854283 C166.307969,56.413921 167.214808,46.7823341 168.767957,39.500037 C169.428046,38.095979 170.169549,35.9497761 170.169549,33.9690514 C170.169549,30.9139717 168.685289,28.1058558 163.81792,28.1058558 L163.487249,31.6561167 C162.332408,30.0878341 160.105392,28.850508 156.97279,28.850508 C150.718859,28.850508 146.095735,37.5920225 144.856973,46.100363 C143.316349,50.3702036 140.573287,54.3604862 138.000571,54.3604862 C135.93889,54.3604862 135.194882,52.1315442 135.194882,49.1592036 C135.194882,46.3523413 135.773555,42.8848196 136.515059,39.8297399 C137.340482,37.5193123 137.917903,35.4545949 137.917903,33.8035732 C137.917903,30.9139717 136.515059,29.0974717 132.22511,28.6022906 C127.936414,45.6089428 124.306554,54.2777471 121.6662,54.2777471 C120.347276,54.2777471 119.93519,52.7922036 119.93519,50.5632616 C119.93519,45.774421 122.162206,38.2614572 123.317047,34.5457181 C123.399715,34.2160152 123.482383,33.8035732 123.482383,33.5553558 C123.482383,30.417537 118.779096,28.7677688 117.956177,28.7677688 L117.87351,28.7677688 C116.583394,31.6912181 114.1209,39.9864428 113.291719,47.2511891 C113.280446,47.2913051 113.261658,47.3163775 113.251638,47.3577471 C112.203262,51.7278775 108.122488,68.4424355 104.313514,63.6786674 C102.93071,60.6486601 102.365815,56.2559645 102.365815,51.2226674 L102.365815,48.9937254 C111.027127,37.0228775 115.893244,20.0162254 115.893244,9.77913841 C115.893244,4.49511667 114.327569,1.02759493 110.946965,1.02759493 C102.613818,1.02759493 94.8593442,31.2436746 94.3658435,52.6267254 C91.0666538,55.5990659 87.2702059,57.6625297 83.146845,58.2417036 C86.6952901,54.5247109 88.6743029,48.003363 88.6743029,42.141421 C88.6743029,40.4903993 88.5903828,39.0048558 88.2622174,37.5193123 C87.5182087,33.8863123 82.9815098,30.1705732 81.002497,30.1705732 C77.537972,30.1705732 74.9802859,33.7208341 73.0012731,38.0132399 L72.6706026,37.9305007 C73.330691,34.4642326 73.9068593,32.2352906 73.9068593,32.1525514 C74.8976183,30.1705732 75.3097038,28.6022906 75.3097038,27.2809717 C75.3097038,22.9058268 71.1036754,21.5017688 69.7008308,21.5017688 C69.452828,21.5017688 69.2874927,21.584508 69.2874927,21.6672471 C68.6148789,29.1726891 66.995345,37.5656964 65.3144366,45.7029645 C65.2868808,45.7017109 65.2756079,45.6916819 65.2467995,45.6916819 C65.2467995,45.6916819 62.3609479,55.8460297 57.5749935,55.8460297 C55.2678153,55.8460297 54.5250593,53.4516094 54.5250593,50.1495659 C54.5250593,43.4627399 57.6576612,33.4726167 57.6576612,33.308392 C57.6576612,31.491892 54.4423916,28.3540732 52.7088766,28.3540732 C50.1511905,28.3540732 44.2955671,36.2807326 40.5028768,46.0226384 C40.3375415,46.0226384 40.1722063,45.9398993 40.0895387,45.9398993 C41.0777925,39.4172978 42.069804,33.3898775 42.069804,32.5649935 C42.069804,28.1885949 39.8415358,25.5472109 35.3048368,26.3733486 C31.921727,50.3150442 22.1907457,62.9465514 22.1907457,49.2419428 C22.1907457,45.1965007 23.50967,39.8297399 23.50967,39.8297399 C24.911262,35.7842978 26.9754475,29.1802109 19.2209739,28.6022906 C18.7249682,30.417537 18.0648798,32.7292181 17.5701266,35.124892 C14.6016074,46.1053775 10.7237443,54.2777471 8.66206388,54.2777471 C7.34313952,54.2777471 6.92980141,52.7922036 6.92980141,50.5632616 C6.92980141,45.774421 9.15681708,38.2614572 10.3129113,34.5457181 C10.3955789,34.2160152 10.4757414,33.8035732 10.4757414,33.5553558 C10.4757414,30.417537 5.77495976,28.7677688 4.94828353,28.7677688 L4.8656159,28.7677688 C3.29868868,32.3167761 -0.000501015899,43.7924428 -0.000501015899,51.7191022 C-0.000501015899,56.5894283 1.56767875,60.5533848 5.77495976,60.5533848 C9.73298536,60.5533848 12.95076,54.8556674 15.5071936,48.003363 L15.6725288,48.003363 C15.2604433,55.1038848 16.5806202,60.9645732 22.2721608,60.9645732 C26.312854,60.9645732 31.4294789,54.9384065 34.3153304,42.0599355 L34.4806657,42.141421 C33.4886542,49.0764645 32.2523975,55.3508486 32.2523975,57.3328268 C32.2523975,61.5437471 34.3153304,62.9465514 36.3770109,62.9465514 C36.9544317,62.9465514 37.5331051,62.8638123 38.1080208,62.5341094 C38.6879467,52.9576819 47.3480065,36.5276964 51.0617869,33.0601746 L51.224617,33.1429138 C49.9883603,35.867037 47.4306741,44.2061384 47.4306741,50.5632616 C47.4306741,56.9191312 49.2456042,62.6168486 55.5158182,62.6168486 C58.5644999,62.6168486 61.1685301,59.8701601 63.0598651,56.5819065 C61.5129785,64.2064428 60.2967624,71.0650152 60.2967624,75.9917543 C60.2967624,84.246863 64.916129,85.5681819 67.5564828,85.5681819 C68.5472417,85.5681819 69.2874927,85.3199645 69.2874927,85.3199645 C68.5472417,82.4316167 68.2992389,78.797363 68.2992389,74.8359138 C68.2992389,66.5795514 69.5354956,56.6721674 70.8556725,48.4170587 C73.2492759,40.7386167 77.2073015,33.5553558 80.1770733,33.5553558 C81.41333,33.5553558 81.9920034,35.6200732 81.9920034,38.5096746 C81.9920034,43.6269645 79.9290704,53.2873848 76.9592987,57.2500877 C75.8883772,56.6721674 74.8976183,55.7645442 74.1548622,54.60745 C74.1548622,54.60745 72.2572645,56.2597254 72.2572645,58.5714065 C72.2572645,61.87345 76.3818779,63.6072109 79.8464028,63.6072109 C84.7137722,63.6072109 90.4879805,61.0473123 94.3658435,56.9191312 C94.6952615,66.4968123 97.499698,73.927037 103.109824,73.927037 C105.487144,73.927037 108.047335,71.9312688 109.328683,69.8866094 C110.206714,68.8398341 110.968258,67.6200587 111.598285,66.254863 C112.882139,63.4755804 113.537217,60.4480804 114.048253,57.3716891 C114.940061,59.2997616 116.439352,60.5533848 118.779096,60.5533848 C122.656959,60.5533848 125.874733,54.8556674 128.43242,47.9206239 L128.680422,48.003363 C128.680422,48.7467616 128.597755,49.4901601 128.597755,50.2323051 C128.597755,56.1769862 130.164682,60.9645732 135.194882,60.9645732 C139.496103,60.9645732 142.682564,56.7536529 144.607718,52.6003993 C145.068653,58.001008 147.370821,62.285892 152.270756,62.285892 C156.559452,62.285892 159.529224,56.42395 161.344154,50.4805225 L161.590904,50.5632616 C160.848148,56.1769862 160.02523,60.9645732 159.115886,65.1754935 C158.291715,65.0927543 157.384876,65.0927543 156.64212,65.0927543 C145.587204,65.0927543 133.050534,68.7257543 133.050534,78.4676601 C133.050534,88.5392688 145.339201,95.888008 150.619909,95.888008 C158.712568,95.888008 162.104446,84.2092543 164.333966,70.5008848 L164.442937,69.7562326 C169.593381,70.6550804 174.772633,72.3123703 178.690577,74.7506674 C184.174196,78.1617761 186.758185,84.0675949 188.446609,89.523363 C192.395867,102.292769 193.213775,114.746262 193.062218,127.915573 C193.035915,130.16708 200.53487,130.205943 200.561173,127.915573 C200.735276,112.758015 200.126542,95.60845 193.422949,81.4048993 M111.52188,6.06339928 C112.017886,6.06339928 112.183221,6.97102246 112.183221,8.53930507 C112.183221,14.5667254 109.296117,30.6657543 102.695233,43.0502978 C104.098077,25.8769138 109.130782,6.06339928 111.52188,6.06339928 M153.672348,55.4335877 C152.105421,55.4335877 151.44408,53.6998268 151.44408,51.0584428 C151.44408,44.5358413 155.651361,32.7292181 159.859894,32.7292181 C162.084405,32.7292181 162.995001,33.5553558 163.323167,34.3814935 L162.995001,37.7662761 C161.261486,47.0130007 157.302208,55.4335877 153.672348,55.4335877 M158.209047,69.0554572 C154.249769,84.8247833 149.300984,89.4481457 144.350947,89.4481457 C139.814248,89.4481457 136.596474,85.4854428 136.596474,81.0263051 C136.596474,75.4125804 141.711846,68.9727181 155.816696,68.9727181 C156.375329,68.9752254 156.945234,68.9902688 157.522655,69.0140877 C157.749365,69.0266239 157.972317,69.032892 158.209047,69.0554572" id="Fill-9" fill="#24466E" mask="url(#mask-2)"></path>
                    </g>
                    <path d="M193.7932,146.214084 L193.649158,146.182743 L191.658872,145.283896 C191.481012,145.204917 191.402102,144.995562 191.482264,144.817548 C191.542386,144.687171 191.671398,144.609446 191.804167,144.609446 C191.853016,144.609446 191.901865,144.619475 191.948209,144.640787 L193.938495,145.539635 C194.116355,145.619867 194.195265,145.829222 194.115103,146.005983 C194.056234,146.137613 193.928474,146.214084 193.7932,146.214084 Z M199.855493,146.214084 C199.720218,146.214084 199.592459,146.137613 199.53359,146.005983 C199.453427,145.829222 199.532337,145.619867 199.710198,145.539635 L201.699231,144.640787 C201.746828,144.619475 201.795677,144.609446 201.843273,144.609446 C201.977295,144.609446 202.106307,144.687171 202.165176,144.817548 C202.245338,144.995562 202.166428,145.204917 201.98982,145.283896 L199.999535,146.182743 L199.855493,146.214084 Z M196.824346,140.636714 C196.429796,140.636714 196.109146,140.317041 196.109146,139.922149 C196.109146,139.527258 196.429796,139.20633 196.824346,139.20633 C197.218896,139.20633 197.538294,139.527258 197.538294,139.922149 C197.538294,140.317041 197.218896,140.636714 196.824346,140.636714 Z M196.824346,138.139497 C196.429796,138.139497 196.109146,137.81857 196.109146,137.423678 C196.109146,137.030041 196.429796,136.709113 196.824346,136.709113 C197.218896,136.709113 197.538294,137.030041 197.538294,137.423678 C197.538294,137.81857 197.218896,138.139497 196.824346,138.139497 Z M196.824346,135.641026 C196.429796,135.641026 196.109146,135.322606 196.109146,134.927714 C196.109146,134.53157 196.429796,134.211896 196.824346,134.211896 C197.218896,134.211896 197.538294,134.53157 197.538294,134.927714 C197.538294,135.322606 197.218896,135.641026 196.824346,135.641026 Z M189.945398,133.829541 L189.7738,133.78441 C189.603455,133.690388 189.543333,133.474765 189.637273,133.304272 L190.565405,131.64949 C190.629285,131.534157 190.748276,131.468968 190.872278,131.468968 C190.931147,131.468968 190.990016,131.482758 191.045128,131.514099 C191.215473,131.609374 191.274343,131.823743 191.180402,131.994236 L190.253523,133.649019 C190.188391,133.764352 190.068147,133.829541 189.945398,133.829541 Z M203.703295,133.829541 C203.580546,133.829541 203.460302,133.764352 203.39517,133.649019 L202.46829,131.994236 C202.37435,131.823743 202.433219,131.609374 202.603565,131.514099 C202.658677,131.482758 202.717546,131.468968 202.776415,131.468968 C202.899164,131.468968 203.019408,131.534157 203.083288,131.64949 L204.011419,133.304272 C204.10536,133.474765 204.045238,133.690388 203.874893,133.78441 L203.703295,133.829541 Z M196.824346,131.091628 C197.335383,131.091628 197.803832,130.8572 198.111957,130.447265 C198.180847,130.354497 198.287313,130.306859 198.393779,130.306859 C198.467679,130.306859 198.541578,130.329425 198.605458,130.377062 C198.760773,130.494903 198.792086,130.715541 198.6756,130.87099 C198.232201,131.460193 197.558335,131.797417 196.824346,131.797417 C196.089106,131.797417 195.415239,131.460193 194.97184,130.87099 C194.855354,130.715541 194.886667,130.494903 195.043235,130.377062 C195.105862,130.329425 195.181014,130.306859 195.253662,130.306859 C195.36138,130.306859 195.467846,130.354497 195.536736,130.447265 C195.843608,130.8572 196.31331,131.091628 196.824346,131.091628 Z M195.402714,129.268859 C195.099599,129.268859 194.852849,129.021896 194.852849,128.718519 C194.852849,128.413888 195.099599,128.166925 195.402714,128.166925 C195.707081,128.166925 195.953831,128.413888 195.953831,128.718519 C195.953831,129.021896 195.707081,129.268859 195.402714,129.268859 Z M198.244726,129.268859 C197.940359,129.268859 197.693609,129.021896 197.693609,128.718519 C197.693609,128.413888 197.940359,128.166925 198.244726,128.166925 C198.549094,128.166925 198.795844,128.413888 198.795844,128.718519 C198.795844,129.021896 198.549094,129.268859 198.244726,129.268859 Z M194.207791,128.239635 L194.122618,128.22083 C194.021162,128.173193 193.979829,128.052845 194.026173,127.952555 C194.196518,127.596526 194.48836,127.314461 194.850344,127.157758 C195.054508,127.070004 195.273702,127.026128 195.492897,127.026128 C195.660737,127.026128 195.828577,127.0512 195.991407,127.102599 C196.096621,127.1377 196.154238,127.25178 196.121672,127.357084 C196.094116,127.44233 196.013953,127.49749 195.92878,127.49749 C195.90874,127.49749 195.888699,127.494983 195.867406,127.487461 C195.74591,127.448599 195.618151,127.428541 195.492897,127.428541 C195.327561,127.428541 195.163479,127.462388 195.009416,127.52883 C194.738868,127.645417 194.518421,127.858533 194.390662,128.125555 L194.207791,128.239635 Z M197.719912,127.49749 C197.63474,127.49749 197.554577,127.44233 197.527021,127.357084 C197.493203,127.25178 197.550819,127.1377 197.657285,127.102599 C197.818863,127.0512 197.987956,127.026128 198.154544,127.026128 C198.374991,127.026128 198.594185,127.070004 198.798349,127.157758 C199.160333,127.314461 199.452175,127.596526 199.621268,127.952555 C199.668864,128.052845 199.62753,128.173193 199.526075,128.22083 L199.440902,128.239635 L199.256779,128.125555 C199.130272,127.858533 198.911078,127.645417 198.639276,127.52883 C198.485214,127.462388 198.321131,127.428541 198.155796,127.428541 C198.02929,127.428541 197.902783,127.448599 197.780034,127.487461 C197.759994,127.494983 197.739953,127.49749 197.719912,127.49749 Z M196.824346,124.805961 C194.50339,124.805961 192.61456,126.695171 192.61456,129.019388 C192.61456,130.308113 193.214527,131.527888 194.209043,132.321432 L191.096482,130.581403 C190.769569,130.398374 190.407585,130.304352 190.041844,130.304352 C189.845195,130.304352 189.647294,130.331932 189.45315,130.385838 C188.898275,130.543794 188.436088,130.907345 188.153014,131.411301 C187.570583,132.453062 187.942587,133.774381 188.983448,134.357316 L192.387851,136.272852 C192.432942,136.305446 192.823734,136.57999 192.817472,137.014997 C192.637106,138.785113 191.821703,141.415214 190.39005,144.835099 C189.871498,146.110033 190.486495,147.569251 191.760328,148.089504 C192.065948,148.214867 192.384093,148.273787 192.697228,148.273787 C193.681724,148.273787 194.616119,147.685838 195.011921,146.718041 L196.722891,142.465751 L196.783013,142.429396 L196.86568,142.429396 L196.925802,142.465751 L198.638024,146.713026 C199.032574,147.682077 199.968221,148.27128 200.952717,148.27128 C201.265852,148.27128 201.582745,148.212359 201.888365,148.086997 C203.162198,147.566743 203.775942,146.107526 203.256138,144.830084 C201.82699,141.412707 201.011587,138.783859 200.831221,137.014997 C200.823706,136.577483 201.214498,136.305446 201.260842,136.272852 L204.666498,134.357316 C205.706106,133.774381 206.07811,132.453062 205.494427,131.411301 C205.099877,130.704258 204.362131,130.305606 203.605597,130.305606 C203.24737,130.305606 202.885386,130.394613 202.552211,130.581403 L199.439649,132.321432 C200.434166,131.527888 201.034132,130.308113 201.034132,129.019388 C201.034132,126.695171 199.145303,124.805961 196.824346,124.805961 Z" id="Fill-12" fill="#FEFEFE"></path>
                </g>
            </g>
        </g>
    </g>
</svg>