<?xml version="1.0" encoding="UTF-8"?>
<svg width="281px" height="171px" viewBox="0 0 281 171" version="1.1" xmlns="http://www.w3.org/2000/svg" xmlns:xlink="http://www.w3.org/1999/xlink">
    <!-- Generator: Sketch 52.4 (67378) - http://www.bohemiancoding.com/sketch -->
    <title>Group 21</title>
    <desc>Created with Sketch.</desc>
    <defs>
        <polygon id="path-1" points="0 1.02721884 200.758824 1.02721884 200.758824 129.619214 0 129.619214"></polygon>
    </defs>
    <g id="Mobile" stroke="none" stroke-width="1" fill="none" fill-rule="evenodd">
        <g id="Holiday-LP---Slide-6" transform="translate(-30.000000, -16.000000)">
            <g id="Group-21" transform="translate(30.000000, 15.000000)">
                <path d="M0.453310145,83.9226761 L21.7210275,84.0329949 C39.2266217,84.1220022 48.9359333,91.7051688 49.4988101,111.870951 L49.3721942,136.464531 C48.6024696,156.622792 38.816687,164.105669 21.3110928,164.016662 L0.0433753623,163.906343 L0.453310145,83.9226761 Z M15.4002594,150.471263 L20.7156217,150.497589 C29.1349551,150.541466 34.0303536,146.577509 34.0917812,134.61293 L34.1995928,113.56585 C34.258513,102.265691 30.5151942,97.5921833 20.987658,97.5445457 L15.671042,97.5169659 L15.4002594,150.471263 Z" id="Fill-1" fill="#CEAA79"></path>
                <path d="M56.2036884,164.195052 L76.4409275,84.312929 L96.0488478,84.4132188 L114.915877,164.495922 L100.292362,164.420704 L96.5001522,147.563233 L75.3415,147.454168 L70.9337609,164.27027 L56.2036884,164.195052 Z M78.1797029,133.952646 L93.3573188,134.031625 L86.1000942,101.645523 L85.8794565,101.64427 L78.1797029,133.952646 Z" id="Fill-3" fill="#CEAA79"></path>
                <polygon id="Fill-4" fill="#CEAA79" points="141.527163 116.885695 154.655105 84.713963 170.93967 84.7979558 148.870888 132.321557 148.705409 164.668796 133.417475 164.591072 133.582953 132.243833 112.003083 84.4958326 128.287649 84.5798254"></polygon>
                <g id="Group-20" transform="translate(0.000000, 0.226906)">
                    <path d="M242.135062,140.809088 C241.76399,148.229283 246.287062,152.240878 253.48662,152.278486 C263.01541,152.326124 265.926323,146.13824 265.982736,134.948399 C266.032881,125.088653 262.739613,119.533849 254.429345,119.489972 C249.444939,119.464899 245.443374,121.881885 242.655316,125.632725 L230.579164,125.571298 L230.796041,83.6952688 L276.992055,83.9334572 L276.926867,96.5624572 L243.359852,96.3907109 L243.273352,113.006233 C247.499316,110.037653 251.939649,108.17853 257.810367,108.207363 C274.872178,108.29637 280.68899,118.960943 280.603743,135.355827 C280.508468,153.856798 272.808714,165.005269 253.643323,164.907486 C233.703193,164.804689 227.448867,152.808769 227.510294,140.73387 L242.135062,140.809088 Z" id="Fill-5" fill="#CEAA79"></path>
                    <path d="M213.052258,148.288078 L212.889287,148.288078 L212.889287,134.328984 L212.87299,134.328984 C212.874243,134.265049 212.878004,134.199861 212.878004,134.135926 C212.878004,125.379368 205.77999,118.281354 197.023432,118.281354 C188.268128,118.281354 181.170113,125.379368 181.170113,134.135926 C181.170113,134.199861 181.173874,134.265049 181.175128,134.328984 L181.15883,134.328984 L181.15883,148.288078 L180.995859,148.288078 C179.841272,148.288078 178.897294,149.232057 178.897294,150.386643 L178.897294,157.369325 C178.897294,158.523912 179.841272,159.46789 180.995859,159.46789 L189.818859,159.46789 L189.818859,171.745875 L191.433526,171.745875 L191.433526,159.46789 L202.613338,159.46789 L202.613338,171.745875 L204.229258,171.745875 L204.229258,159.46789 L213.052258,159.46789 C214.205591,159.46789 215.150823,158.523912 215.150823,157.369325 L215.150823,150.386643 C215.150823,149.232057 214.205591,148.288078 213.052258,148.288078" id="Fill-7" fill="#24466E"></path>
                    <g id="Group-11">
                        <mask id="mask-2" fill="white">
                            <use xlink:href="#path-1"></use>
                        </mask>
                        <g id="Clip-10"></g>
                        <path d="M193.590259,81.4045232 C190.764593,75.4222333 187.144129,71.5297333 179.415542,68.589987 C174.916288,66.8775377 170.059752,66.0037623 165.14931,65.5850522 C166.451825,56.4135449 167.359448,46.781958 168.912687,39.4996609 C169.5746,38.0968565 170.316745,35.9494 170.316745,33.9686754 C170.316745,30.9135957 168.831201,28.1067333 163.959622,28.1067333 L163.628665,31.6569942 C162.472825,30.087458 160.243883,28.8501319 157.107317,28.8501319 C150.84923,28.8501319 146.222107,37.5916464 144.982274,46.1012406 C143.440317,50.3698275 140.694883,54.3601101 138.119941,54.3601101 C136.05397,54.3601101 135.311825,52.1311681 135.311825,49.1600812 C135.311825,46.3519652 135.890999,42.8844435 136.633143,39.8293638 C137.459281,37.5189362 138.037201,35.4542188 138.037201,33.8031971 C138.037201,30.9135957 136.633143,29.0970957 132.339484,28.6019145 C128.047078,45.6085667 124.414078,54.277371 121.771441,54.277371 C120.451375,54.277371 120.038933,52.7918275 120.038933,50.5628855 C120.038933,45.7740449 122.267875,38.2623348 123.423716,34.545342 C123.506455,34.2156391 123.589194,33.8031971 123.589194,33.5549797 C123.589194,30.4184145 118.881839,28.7673928 118.056955,28.7673928 L117.974216,28.7673928 C116.68173,31.6895884 114.219614,39.984813 113.389716,47.2495594 C113.378433,47.2896754 113.359629,47.3147478 113.3496,47.357371 C112.300317,51.7275014 108.216013,68.4395522 104.403745,63.6795449 C103.019745,60.6495377 102.454361,56.256842 102.454361,51.2222913 L102.454361,48.9933493 C111.123165,37.0237551 115.993491,20.0158493 115.993491,9.77876232 C115.993491,4.49474058 114.426462,1.02721884 111.040426,1.02721884 C102.702578,1.02721884 94.9413971,31.2432986 94.4462159,52.6276029 C91.1429188,55.5986899 87.3456942,57.6621536 83.2187667,58.2413275 C86.7677739,54.5255884 88.7510058,48.002987 88.7510058,42.1410449 C88.7510058,40.4912768 88.667013,39.0044797 88.3373101,37.5189362 C87.5939116,33.8859362 83.0532884,30.1701971 81.0725638,30.1701971 C77.6037884,30.1701971 75.0451435,33.720458 73.0631652,38.0141174 L72.7334623,37.9313783 C73.3941217,34.4638565 73.9707884,32.2349145 73.9707884,32.1521754 C74.9624043,30.1701971 75.3748464,28.6019145 75.3748464,27.2818493 C75.3748464,22.9054507 71.1651797,21.5013928 69.7611217,21.5013928 C69.5129043,21.5013928 69.3474261,21.5841319 69.3474261,21.666871 C68.6742304,29.1735667 67.0532957,37.5665739 65.3709333,45.7025884 C65.3433536,45.7025884 65.332071,45.6913058 65.3032377,45.6913058 C65.3032377,45.6913058 62.4136362,55.8469072 57.6247957,55.8469072 C55.3156217,55.8469072 54.5722232,53.452487 54.5722232,50.1504435 C54.5722232,43.4623638 57.7075348,33.4722406 57.7075348,33.3080159 C57.7075348,31.4915159 54.4894841,28.3549507 52.7544696,28.3549507 C50.194571,28.3549507 44.3338826,36.2803565 40.5354043,46.0222623 C40.3699261,46.0222623 40.2069551,45.9395232 40.1242159,45.9395232 C41.1133246,39.4181754 42.1049406,33.3895014 42.1049406,32.5646174 C42.1049406,28.1894725 39.8759986,25.5468348 35.3353754,26.3729725 C31.9493391,50.3159217 22.2074333,62.9461754 22.2074333,49.2415667 C22.2074333,45.1961246 23.5300058,39.8293638 23.5300058,39.8293638 C24.9328101,35.7839217 26.9962739,29.1798348 19.2350928,28.6019145 C18.7411652,30.4184145 18.0805058,32.7300957 17.5853246,35.1245159 C14.6117304,46.1050014 10.7330203,54.277371 8.6683029,54.277371 C7.34698406,54.277371 6.93579565,52.7918275 6.93579565,50.5628855 C6.93579565,45.7740449 9.16473768,38.2623348 10.3193246,34.545342 C10.4020638,34.2156391 10.4848029,33.8031971 10.4848029,33.5549797 C10.4848029,30.4184145 5.77870145,28.7673928 4.95256377,28.7673928 L4.86982464,28.7673928 C3.30154203,32.3164 -0.000501449275,43.7933203 -0.000501449275,51.7187261 C-0.000501449275,56.5890522 1.56903478,60.5530087 5.77870145,60.5530087 C9.74140435,60.5530087 12.9619623,54.8565449 15.5206072,48.002987 L15.6860855,48.002987 C15.2736435,55.1035087 16.5949623,60.9641971 22.2901725,60.9641971 C26.3356145,60.9641971 31.454158,54.9380304 34.3437594,42.0595594 L34.5092377,42.1410449 C33.5176217,49.077342 32.2802957,55.3504725 32.2802957,57.3324507 C32.2802957,61.543371 34.3437594,62.9461754 36.4084768,62.9461754 C36.9863971,62.9461754 37.5643174,62.8634362 38.1409841,62.5337333 C38.7214116,52.9573058 47.3889623,36.5273203 51.1034478,33.0597986 L51.2689261,33.1425377 C50.0316,35.8666609 47.4717014,44.2057623 47.4717014,50.5628855 C47.4717014,56.9200087 49.2882014,62.6164725 55.5613319,62.6164725 C58.6139043,62.6164725 61.2214406,59.8697841 63.1144116,56.5815304 C61.566187,64.2060667 60.3489188,71.0646391 60.3489188,75.9913783 C60.3489188,84.2477406 64.9722812,85.5678058 67.6149188,85.5678058 C68.6052812,85.5678058 69.3474261,85.320842 69.3474261,85.320842 C68.6052812,82.4312406 68.3583174,78.7982406 68.3583174,74.8355377 C68.3583174,66.5791754 69.5956435,56.6717913 70.9169623,48.4166826 C73.3113826,40.7382406 77.2740855,33.5549797 80.2464261,33.5549797 C81.4837522,33.5549797 82.0616725,35.6196971 82.0616725,38.5092986 C82.0616725,43.627842 79.9982087,53.2870087 77.0258681,57.2497116 C75.9540203,56.6717913 74.9624043,55.7641681 74.2190058,54.6083275 C74.2190058,54.6083275 72.3197667,56.2593493 72.3197667,58.5710304 C72.3197667,61.8730739 76.4479478,63.6068348 79.9154696,63.6068348 C84.7870493,63.6068348 90.5662522,61.0481899 94.4462159,56.9200087 C94.7771725,66.4964362 97.5840348,73.9266609 103.196506,73.9266609 C105.577136,73.9266609 108.142049,71.9308928 109.423252,69.8849797 C110.302042,68.8382043 111.062991,67.6196826 111.693564,66.254487 C112.978528,63.4752043 113.635426,60.4477043 114.146904,57.371313 C115.03823,59.2993855 116.540071,60.5530087 118.881839,60.5530087 C122.763057,60.5530087 125.983614,54.8565449 128.542259,47.9202478 L128.790477,48.002987 C128.790477,48.7463855 128.707738,49.4897841 128.707738,50.231929 C128.707738,56.1766101 130.27602,60.9641971 135.311825,60.9641971 C139.61802,60.9641971 142.805984,56.7520232 144.732803,52.5975159 C145.192883,57.9993783 147.497042,62.2867696 152.401216,62.2867696 C156.694875,62.2867696 159.667216,56.4235739 161.482462,50.4801464 L161.73068,50.5628855 C160.987281,56.1766101 160.161143,60.9641971 159.25352,65.1751174 C158.427383,65.0923783 157.521013,65.0923783 156.777614,65.0923783 C145.713136,65.0923783 133.165622,68.7253783 133.165622,78.4672841 C133.165622,88.5401464 145.464919,95.8876319 150.748941,95.8876319 C158.86239,95.8876319 162.254694,84.1762841 164.483636,70.442842 L164.58518,69.7558565 C169.740078,70.6547043 174.92381,72.3119942 178.845143,74.7502913 C184.333506,78.1626536 186.91973,84.0672188 188.609614,89.5242406 C192.562288,102.292393 193.379651,114.745886 193.227962,127.916451 C193.20289,130.167958 200.708332,130.205567 200.734658,127.916451 C200.908912,112.757639 200.298397,95.6080739 193.590259,81.4045232 M111.618346,6.06302319 C112.114781,6.06302319 112.277752,6.97064638 112.277752,8.54018261 C112.277752,14.5663493 109.389404,30.6666319 102.784064,43.0499217 C104.188122,25.8765377 109.223926,6.06302319 111.618346,6.06302319 M153.80402,55.4332116 C152.236991,55.4332116 151.575078,53.7007043 151.575078,51.0580667 C151.575078,44.5354652 155.785999,32.7300957 159.995665,32.7300957 C162.224607,32.7300957 163.133484,33.5549797 163.464441,34.3811174 L163.133484,37.7659 C161.399723,47.0126246 157.438274,55.4332116 153.80402,55.4332116 M158.344643,69.0563348 C154.383194,84.8244072 149.428875,89.4477696 144.47581,89.4477696 C139.935187,89.4477696 136.714629,85.4850667 136.714629,81.0271826 C136.714629,75.413458 141.833172,68.9735957 155.951477,68.9735957 C155.956491,68.9735957 155.960252,68.9735957 155.965267,68.9735957 C156.516861,68.9761029 157.079738,68.9911464 157.65139,69.0137116 C157.880803,69.0262478 158.106455,69.0325159 158.344643,69.0563348" id="Fill-9" fill="#24466E" mask="url(#mask-2)"></path>
                    </g>
                    <path d="M206.666301,145.909704 C206.691374,145.809414 206.706417,145.706617 206.706417,145.598806 L206.706417,133.91253 L199.886707,140.895212 L206.666301,145.909704 Z" id="Fill-12" fill="#FEFEFE"></path>
                    <path d="M186.84,133.913533 L186.84,145.598555 C186.84,145.705113 186.855043,145.810417 186.880116,145.909454 L193.65971,140.896214 L186.84,133.913533 Z" id="Fill-14" fill="#FEFEFE"></path>
                    <path d="M196.773209,141.558629 C197.383723,141.557375 197.930303,141.309158 198.325194,140.904238 L206.20547,132.837172 C205.993607,132.675455 205.729093,132.577672 205.440759,132.577672 L188.105658,132.577672 C187.817325,132.577672 187.55281,132.675455 187.339694,132.837172 L195.21997,140.904238 C195.616114,141.309158 196.162694,141.557375 196.773209,141.558629" id="Fill-16" fill="#FEFEFE"></path>
                    <path d="M199.101563,141.697154 C198.509853,142.295133 197.683715,142.668712 196.774838,142.668712 L196.773585,142.668712 C195.863454,142.668712 195.036063,142.296386 194.444353,141.697154 L187.59957,146.758031 C187.75502,146.825727 187.925512,146.864589 188.10478,146.864589 L205.441136,146.864589 C205.621657,146.864589 205.79215,146.825727 205.946346,146.758031 L199.101563,141.697154 Z" id="Fill-18" fill="#FEFEFE"></path>
                </g>
            </g>
        </g>
    </g>
</svg>