<?xml version="1.0" encoding="UTF-8"?>
<svg width="282px" height="172px" viewBox="0 0 282 172" version="1.1" xmlns="http://www.w3.org/2000/svg" xmlns:xlink="http://www.w3.org/1999/xlink">
    <!-- Generator: Sketch 52.4 (67378) - http://www.bohemiancoding.com/sketch -->
    <title>day 3</title>
    <desc>Created with Sketch.</desc>
    <defs>
        <polygon id="path-1" points="0 1.03084075 201.564706 1.03084075 201.564706 130.13968 0 130.13968"></polygon>
    </defs>
    <g id="Mobile" stroke="none" stroke-width="1" fill="none" fill-rule="evenodd">
        <g id="Holiday-LP---Slide-4" transform="translate(-30.000000, -16.000000)">
            <g id="day-3" transform="translate(30.000000, 15.000000)">
                <path d="M0.455130668,84.2594632 L21.8107779,84.3702251 C39.3828997,84.4595898 49.1324632,92.073211 49.6976005,112.319981 L49.5704761,137.01233 C48.7976602,157.251547 38.9713186,164.764476 21.3991968,164.673853 L0.0435495606,164.564349 L0.455130668,84.2594632 Z M15.4608492,151.075314 L20.798817,151.101745 C29.2519629,151.145798 34.1682804,147.165922 34.2299546,135.153292 L34.3381992,114.021686 C34.3960974,102.676144 30.6377452,97.9838681 21.0719458,97.9360391 L15.7339779,97.9083486 L15.4608492,151.075314 Z" id="Fill-1" fill="#CEAA79"></path>
                <path d="M56.429406,164.854218 L76.7479192,84.6512834 L96.4345862,84.751976 L115.376128,165.156296 L100.695143,165.080777 L96.887703,148.155605 L75.6440763,148.046102 L71.2186354,164.929738 L56.429406,164.854218 Z M78.492419,134.490357 L93.7322478,134.569653 L86.4458777,102.053486 L86.2230953,102.052228 L78.492419,134.490357 Z" id="Fill-3" fill="#CEAA79"></path>
                <polygon id="Fill-4" fill="#CEAA79" points="142.094916 117.354738 155.275581 85.0538022 171.625546 85.1381322 149.468133 132.852592 149.301991 165.329739 133.952658 165.251702 134.118801 132.774555 112.452266 84.8347957 128.802231 84.9191258"></polygon>
                <g id="Group-12" transform="translate(0.000000, 0.227817)">
                    <path d="M242.998367,140.817001 C242.956831,149.047364 246.606939,152.848511 254.838561,152.891305 C262.401836,152.930323 266.54282,147.94478 266.579321,141.048594 C266.625891,132.039121 261.524551,128.566484 250.401792,128.397824 L250.467242,115.718105 C260.813409,115.770969 264.831045,112.898712 264.870064,105.446199 C264.899013,99.8854483 261.250164,95.752016 254.574243,95.7167736 C249.126772,95.6890831 245.100325,99.5619733 244.849852,105.011962 L230.168867,104.935183 C230.356408,90.1434368 241.295403,82.9690872 254.751713,83.0383134 C269.212433,83.1125742 279.627827,90.7287127 279.554824,104.96665 C279.519582,111.973598 276.14512,119.185707 269.788898,122.380181 C278.333926,125.759677 281.304359,132.782988 281.25653,141.79246 C281.173458,157.698119 269.455354,165.645285 254.995893,165.571024 C236.975689,165.479142 228.239345,155.868031 228.317382,140.741481 L242.998367,140.817001 Z" id="Fill-5" fill="#CEAA79"></path>
                    <path d="M213.907638,148.883613 L213.744012,148.883613 L213.744012,134.868458 L213.72765,134.868458 C213.728908,134.804266 213.732684,134.738816 213.732684,134.674625 C213.732684,125.8829 206.606164,118.756379 197.815698,118.756379 C189.023973,118.756379 181.897452,125.8829 181.897452,134.674625 C181.897452,134.738816 181.901228,134.804266 181.902487,134.868458 L181.886124,134.868458 L181.886124,148.883613 L181.722499,148.883613 C180.564533,148.883613 179.615506,149.831382 179.615506,150.990606 L179.615506,158.00133 C179.615506,159.160554 180.564533,160.108323 181.722499,160.108323 L190.580932,160.108323 L190.580932,172.435618 L192.202084,172.435618 L192.202084,160.108323 L203.428053,160.108323 L203.428053,172.435618 L205.049204,172.435618 L205.049204,160.108323 L213.907638,160.108323 C215.066862,160.108323 216.014631,159.160554 216.014631,158.00133 L216.014631,150.990606 C216.014631,149.831382 215.066862,148.883613 213.907638,148.883613" id="Fill-7" fill="#24466E"></path>
                    <g id="Group-11">
                        <mask id="mask-2" fill="white">
                            <use xlink:href="#path-1"></use>
                        </mask>
                        <g id="Clip-10"></g>
                        <path d="M194.367353,81.7318266 C191.530338,75.7255115 187.896593,71.8161203 180.135709,68.8645677 C175.618386,67.1464998 170.743604,66.2692153 165.813441,65.8500822 C167.119928,56.6404829 168.031197,46.9689563 169.589415,39.6586716 C170.255245,38.2489749 171.00037,36.0941527 171.00037,34.1042147 C171.00037,31.0381242 169.508861,28.2187307 164.617717,28.2187307 L164.28669,31.7832497 C163.124948,30.2086687 160.887055,28.9663735 157.736634,28.9663735 C151.454673,28.9663735 146.807708,37.7442531 145.564154,46.2880224 C144.016005,50.5737523 141.258286,54.5788014 138.674262,54.5788014 C136.599993,54.5788014 135.856127,52.3409078 135.856127,49.3566301 C135.856127,46.5384953 136.436368,43.0570478 137.181493,39.9896986 C138.010949,37.6687336 138.59119,35.5969829 138.59119,33.9380719 C138.59119,31.0381242 137.181493,29.2143291 132.871849,28.7171592 C128.560946,45.7921112 124.913356,54.49573 122.262622,54.49573 C120.935997,54.49573 120.52064,53.0029618 120.52064,50.7663269 C120.52064,45.958254 122.758533,38.4151177 123.920275,34.6844559 C124.003346,34.3534289 124.085159,33.9380719 124.085159,33.6901163 C124.085159,30.5396957 119.361416,28.883302 118.530702,28.883302 L118.44763,28.883302 C117.149954,31.8172334 114.67795,40.1482895 113.84346,47.4422116 C113.833391,47.4824887 113.814511,47.5064031 113.804442,47.5479389 C112.750945,51.9343614 108.651497,68.7097528 104.825177,63.938181 C103.43436,60.896005 102.866705,56.4844094 102.866705,51.4283809 L102.866705,49.1904873 C111.569065,37.1715638 116.46021,20.0966118 116.46021,9.8171534 C116.46021,4.51316934 114.885629,1.03046316 111.485994,1.03046316 C103.115919,1.03046316 95.3235689,31.3691512 94.8251404,52.8380777 C91.5085771,55.8223554 87.6973612,57.8941061 83.552601,58.4743474 C87.1158613,54.7436856 89.1057993,48.1961476 89.1057993,42.3106637 C89.1057993,40.6530113 89.0227279,39.1615018 88.6904422,37.6687336 C87.9465754,34.0211433 83.3877168,30.2917401 81.3977788,30.2917401 C77.9150726,30.2917401 75.346152,33.8562591 73.356214,38.1659035 L73.025187,38.0828321 C73.6884997,34.6026432 74.2699996,32.3647496 74.2699996,32.2816782 C75.2630806,30.2917401 75.6784377,28.7171592 75.6784377,27.3905339 C75.6784377,22.9965594 71.450606,21.5881213 70.0409093,21.5881213 C69.7942124,21.5881213 69.6280695,21.6711927 69.6280695,21.7542642 C68.9521703,29.2898485 67.3234671,37.7165626 65.6343483,45.8865105 C65.6066578,45.8852519 65.5953299,45.8751826 65.5676394,45.8751826 C65.5676394,45.8751826 62.6664331,56.070311 57.8583603,56.070311 C55.5373952,56.070311 54.7910111,53.6662745 54.7910111,50.3509698 C54.7910111,43.637289 57.9414317,33.6070448 57.9414317,33.4421607 C57.9414317,31.6183655 54.7079397,28.467945 52.9659573,28.467945 C50.3982954,28.467945 44.5128114,36.4251797 40.6990782,46.2062096 C40.5329354,46.2062096 40.3680512,46.1231382 40.2849798,46.1231382 C41.2805781,39.5756002 42.2736591,33.5239734 42.2736591,32.6957766 C42.2736591,28.3018021 40.0357655,25.6498101 35.4769069,26.4792656 C32.0785308,50.5171127 22.2962422,63.1993488 22.2962422,49.4384429 C22.2962422,45.3780128 23.6241262,39.9896986 23.6241262,39.9896986 C25.0325643,35.9280099 27.1043151,29.2974005 19.3119645,28.7171592 C18.8160533,30.5396957 18.1527407,32.8606608 17.6555708,35.2646972 C14.6700345,46.289281 10.7757472,54.49573 8.70273776,54.49573 C7.37611242,54.49573 6.96327266,53.0029618 6.96327266,50.7663269 C6.96327266,45.958254 9.20116626,38.4151177 10.3603901,34.6844559 C10.4434615,34.3534289 10.5265329,33.9380719 10.5265329,33.6901163 C10.5265329,30.5396957 5.80153149,28.883302 4.9745933,28.883302 L4.89152188,28.883302 C3.31568229,32.4465623 -0.000881060474,43.968316 -0.000881060474,51.9268094 C-0.000881060474,56.816695 1.57495853,60.7953124 5.80153149,60.7953124 C9.78014886,60.7953124 13.0136408,55.0759713 15.5838201,48.1961476 L15.7499629,48.1961476 C15.3346058,55.3251855 16.6612312,61.2094108 22.3793136,61.2094108 C26.4410024,61.2094108 31.5801023,55.1590427 34.4813086,42.2288509 L34.6474514,42.3106637 C33.6543704,49.2735587 32.4108165,55.5731411 32.4108165,57.5630791 C32.4108165,61.7896521 34.4813086,63.1993488 36.554318,63.1993488 C37.1345593,63.1993488 37.7148005,63.1162774 38.2963004,62.7839918 C38.8765417,53.1703633 47.5801605,36.674394 51.308305,33.1929464 L51.4744478,33.2760178 C50.2321525,36.0110813 47.6619733,44.3836731 47.6619733,50.7663269 C47.6619733,57.147722 49.4857684,62.8670632 55.7840922,62.8670632 C58.8501826,62.8670632 61.4681909,60.1068266 63.3700228,56.8041085 C61.8143218,64.4617826 60.592165,71.3491582 60.592165,76.2969421 C60.592165,84.5852039 65.2353537,85.9105705 67.8860871,85.9105705 C68.8804268,85.9105705 69.6280695,85.662615 69.6280695,85.662615 C68.8804268,82.7614087 68.6324712,79.1138183 68.6324712,75.1364596 C68.6324712,66.8469392 69.8747665,56.8997665 71.2026505,48.6102461 C73.6054282,40.9022256 77.5840456,33.6901163 80.5683233,33.6901163 C81.8131359,33.6901163 82.3908598,35.7631257 82.3908598,38.664332 C82.3908598,43.8021732 80.3203677,53.5013903 77.3373487,57.4800077 C76.2586789,56.8997665 75.2630806,55.9872395 74.5166965,54.826757 C74.5166965,54.826757 72.6110886,56.485668 72.6110886,58.8066331 C72.6110886,62.1219378 76.7545901,63.8614029 80.2372963,63.8614029 C85.1271819,63.8614029 90.9308531,61.2924822 94.8251404,57.147722 C95.1574261,66.7638678 97.9755609,74.2239327 103.610572,74.2239327 C106.000763,74.2239327 108.574718,72.2188908 109.863584,70.1660199 C110.744645,69.1150406 111.509908,67.8916252 112.143013,66.5209468 C113.433138,63.7305024 114.091416,60.6908438 114.604948,57.6020975 C115.501112,59.5379132 117.008984,60.7953124 119.361416,60.7953124 C123.255703,60.7953124 126.489195,55.0759713 129.056857,48.1130762 L129.306071,48.1961476 C129.306071,48.9425317 129.223,49.6889158 129.223,50.4340412 C129.223,56.4025966 130.79884,61.2094108 135.856127,61.2094108 C140.178358,61.2094108 143.379124,56.9803206 145.313682,52.8091285 C145.776868,58.2326851 148.089022,62.5360362 153.011633,62.5360362 C157.323794,62.5360362 160.306813,56.6505522 162.12935,50.6832555 L162.379823,50.7663269 C161.633439,56.4025966 160.803983,61.2094108 159.893974,65.4372424 C159.06326,65.354171 158.15325,65.354171 157.406866,65.354171 C146.300469,65.354171 133.700046,69.0017614 133.700046,78.7827913 C133.700046,88.8948482 146.051255,96.2731004 151.35398,96.2731004 C159.505048,96.2731004 162.912235,84.4983565 165.14887,70.6971735 L165.247045,70.0363781 C170.422646,70.9375771 175.625938,72.6027814 179.563019,75.0496122 C185.073423,78.4756788 187.670034,84.4052158 189.366705,89.8828946 C193.335253,102.703583 194.157157,115.20709 194.004859,128.430549 C193.978427,130.68984 201.514012,130.728858 201.540444,128.430549 C201.715397,113.210859 201.102431,95.9924197 194.367353,81.7318266 M112.067494,6.08775028 C112.564664,6.08775028 112.728289,6.99901854 112.728289,8.57359947 C112.728289,14.6252263 109.827083,30.78891 103.196474,43.2231906 C104.607429,25.9808371 109.662199,6.08775028 112.067494,6.08775028 M154.42133,55.6562125 C152.848007,55.6562125 152.184695,53.9154888 152.184695,51.2634967 C152.184695,44.7147001 156.411268,32.8606608 160.63784,32.8606608 C162.878251,32.8606608 163.788261,33.6901163 164.120547,34.5195718 L163.788261,37.9179479 C162.047537,47.2005493 158.070179,55.6562125 154.42133,55.6562125 M158.980188,69.3327884 C155.002829,85.1654451 150.027355,89.8073752 145.055657,89.8073752 C140.496798,89.8073752 137.264565,85.8274991 137.264565,81.3517119 C137.264565,75.7167009 142.401147,69.2509756 156.573634,69.249717 C157.136254,69.2522343 157.71272,69.2673382 158.295478,69.2912527 C158.522037,69.3038393 158.744819,69.3088739 158.980188,69.3327884" id="Fill-9" fill="#24466E" mask="url(#mask-2)"></path>
                    </g>
                </g>
                <polygon id="Fill-13" fill="#FEFEFE" points="197.975295 127.917898 195.892217 137.63096 186.18293 139.720332 195.892217 141.798376 197.975295 151.517732 200.064667 141.798376 209.778988 139.720332 200.064667 137.63096"></polygon>
                <polygon id="Fill-14" fill="#FEFEFE" points="204.050837 133.647812 197.979071 137.571048 191.913599 133.64907 195.835577 139.714542 191.909823 145.788825 197.986623 141.865588 204.050837 145.786308 200.130118 139.722094"></polygon>
            </g>
        </g>
    </g>
</svg>