<?xml version="1.0" encoding="UTF-8"?>
<svg width="280px" height="171px" viewBox="0 0 280 171" version="1.1" xmlns="http://www.w3.org/2000/svg" xmlns:xlink="http://www.w3.org/1999/xlink">
    <!-- Generator: Sketch 52.4 (67378) - http://www.bohemiancoding.com/sketch -->
    <title>day 2</title>
    <desc>Created with Sketch.</desc>
    <g id="Mobile" stroke="none" stroke-width="1" fill="none" fill-rule="evenodd">
        <g id="Holiday-LP---Slide-3" transform="translate(-30.000000, -16.000000)">
            <g id="day-2" transform="translate(30.000000, 15.000000)">
                <path d="M0.451805797,83.9228014 L21.7220304,84.0318667 C39.2251174,84.1221275 48.9356826,91.7052942 49.499813,111.871077 L49.3731971,136.464657 C48.6034725,156.622917 38.8151826,164.105794 21.3120957,164.015533 L0.0418710145,163.906468 L0.451805797,83.9228014 Z M15.4000087,150.471388 L20.7166246,150.497714 C29.135958,150.541591 34.0313565,146.577635 34.0927841,134.613055 L34.2005957,113.565975 C34.2595159,102.265816 30.5161971,97.5923087 20.9874072,97.544671 L15.6720449,97.5170913 L15.4000087,150.471388 Z" id="Fill-1" fill="#CEAA79"></path>
                <path d="M56.2040645,164.195052 L76.4425572,84.312929 L96.0492239,84.4144725 L114.914999,164.495922 L100.292738,164.420704 L96.5005283,147.563233 L75.3431297,147.454168 L70.934137,164.27027 L56.2040645,164.195052 Z M78.1788254,133.952646 L93.3576949,134.031625 L86.1004703,101.645523 L85.878579,101.64427 L78.1788254,133.952646 Z" id="Fill-3" fill="#CEAA79"></path>
                <polygon id="Fill-4" fill="#CEAA79" points="141.527163 116.88557 154.655105 84.7138377 170.93967 84.7978304 148.870888 132.321432 148.705409 164.668671 133.417475 164.590946 133.582953 132.242454 112.003083 84.4957072 128.287649 84.5797"></polygon>
                <g id="Group-11" transform="translate(0.000000, 0.226906)">
                    <path d="M227.948185,163.667653 L228.014627,150.707696 C260.074786,120.516689 265.200851,114.782617 265.243475,106.363283 C265.276069,99.9372109 261.755895,95.3765297 254.665402,95.3401746 C247.242699,95.3025659 243.231105,99.8243848 243.201018,105.805421 L243.185975,108.686247 L228.563714,108.61103 L228.582518,104.843892 C228.641438,93.1012036 238.112562,82.6259283 253.621134,82.7061601 C269.241279,82.786392 279.947221,90.8171022 279.868243,106.105037 C279.775475,124.606008 258.097822,138.78574 246.514344,151.133928 L278.419054,151.298153 L278.353866,163.925899 L227.948185,163.667653 Z" id="Fill-5" fill="#CEAA79"></path>
                    <path d="M213.052007,148.288078 L212.887783,148.288078 L212.887783,134.328984 L212.872739,134.328984 C212.873993,134.263796 212.877754,134.199861 212.877754,134.135926 C212.877754,125.379368 205.779739,118.281354 197.023181,118.281354 C188.267877,118.281354 181.169862,125.379368 181.169862,134.135926 C181.169862,134.199861 181.173623,134.263796 181.174877,134.328984 L181.15858,134.328984 L181.15858,148.288078 L180.995609,148.288078 C179.841022,148.288078 178.897043,149.232057 178.897043,150.386643 L178.897043,157.369325 C178.897043,158.523912 179.841022,159.46789 180.995609,159.46789 L189.818609,159.46789 L189.818609,171.745875 L191.434529,171.745875 L191.434529,159.46789 L202.613087,159.46789 L202.613087,171.745875 L204.229007,171.745875 L204.229007,159.46789 L213.052007,159.46789 C214.206594,159.46789 215.150572,158.523912 215.150572,157.369325 L215.150572,150.386643 C215.150572,149.232057 214.206594,148.288078 213.052007,148.288078" id="Fill-7" fill="#24466E"></path>
                    <path d="M193.589883,81.4048993 C190.764217,75.4226094 187.145007,71.5288558 179.415166,68.5891094 C174.915912,66.8779138 170.06063,66.0041384 165.148934,65.5854283 C166.451449,56.4126674 167.359072,46.7810804 168.912311,39.500037 C169.574224,38.095979 170.317622,35.9497761 170.317622,33.9690514 C170.317622,30.9139717 168.830825,28.1058558 163.959246,28.1058558 L163.628289,31.6561167 C162.473702,30.0878341 160.24476,28.850508 157.106941,28.850508 C150.848854,28.850508 146.221731,37.5920225 144.983151,46.1016167 C143.439941,50.3714572 140.694507,54.3604862 138.119564,54.3604862 C136.054847,54.3604862 135.311449,52.1315442 135.311449,49.1592036 C135.311449,46.3523413 135.890622,42.8848196 136.634021,39.8297399 C137.458905,37.5193123 138.036825,35.4545949 138.036825,33.8035732 C138.036825,30.9139717 136.634021,29.0974717 132.339108,28.6022906 C128.046702,45.6089428 124.414956,54.2777471 121.772318,54.2777471 C120.450999,54.2777471 120.039811,52.7922036 120.039811,50.5632616 C120.039811,45.774421 122.268753,38.2614572 123.42334,34.5457181 C123.506079,34.2160152 123.588818,33.8035732 123.588818,33.5553558 C123.588818,30.417537 118.882717,28.7677688 118.056579,28.7677688 L117.97384,28.7677688 C116.682608,31.6899645 114.220492,39.9839355 113.38934,47.2486819 C113.378057,47.2900514 113.359253,47.3151239 113.349224,47.3577471 C112.299941,51.7266239 108.216891,68.4361674 104.405876,63.6811746 C103.019369,60.6511674 102.453985,56.2572181 102.453985,51.2226674 L102.453985,48.9937254 C111.122789,37.0228775 115.993115,20.0162254 115.993115,9.77788478 C115.993115,4.49511667 114.426086,1.02759493 111.04005,1.02759493 C102.702202,1.02759493 94.941021,31.2436746 94.4458399,52.6267254 C91.1437964,55.5990659 87.3453181,57.6625297 83.2183906,58.2417036 C86.7673978,54.5247109 88.7506297,48.003363 88.7506297,42.141421 C88.7506297,40.4903993 88.6678906,39.0048558 88.3369341,37.5193123 C87.5935355,33.8863123 83.0529123,30.1705732 81.0721877,30.1705732 C77.6034123,30.1705732 75.0447674,33.7208341 73.0627891,38.0132399 L72.7330862,37.9305007 C73.3937457,34.4642326 73.9716659,32.2352906 73.9716659,32.1525514 C74.9620283,30.1705732 75.3744703,28.6022906 75.3744703,27.2809717 C75.3744703,22.9045732 71.1648036,21.5017688 69.7619993,21.5017688 C69.5137819,21.5017688 69.3483036,21.584508 69.3483036,21.6672471 C68.675108,29.1726891 67.0529196,37.5656964 65.3705572,45.7029645 C65.3442312,45.7017109 65.3316949,45.6916819 65.3028616,45.6916819 C65.3028616,45.6916819 62.4145138,55.8460297 57.6244196,55.8460297 C55.3152457,55.8460297 54.5718471,53.4516094 54.5718471,50.1495659 C54.5718471,43.4627399 57.7084123,33.4726167 57.7084123,33.308392 C57.7084123,31.491892 54.489108,28.3540732 52.7553471,28.3540732 C50.1954486,28.3540732 44.3335065,36.2807326 40.5362819,46.0226384 C40.3708036,46.0226384 40.206579,45.9386457 40.1238399,45.9386457 C41.1142022,39.4172978 42.1045645,33.3898775 42.1045645,32.5649935 C42.1045645,28.1885949 39.8756225,25.5472109 35.3349993,26.3733486 C31.948963,50.3150442 22.2070572,62.9465514 22.2070572,49.2419428 C22.2070572,45.1965007 23.5296297,39.8297399 23.5296297,39.8297399 C24.9324341,35.7842978 26.9958978,29.1802109 19.2359703,28.6022906 C18.7407891,30.417537 18.0801297,32.7292181 17.5862022,35.1236384 C14.6113543,46.1053775 10.7326442,54.2777471 8.66792681,54.2777471 C7.34786159,54.2777471 6.93541957,52.7922036 6.93541957,50.5632616 C6.93541957,45.774421 9.16436159,38.2614572 10.3189486,34.5457181 C10.4016877,34.2160152 10.4844268,33.8035732 10.4844268,33.5553558 C10.4844268,30.417537 5.77832536,28.7677688 4.9534413,28.7677688 L4.86944855,28.7677688 C3.30116594,32.3167761 0.000376086957,43.7924428 0.000376086957,51.7191022 C0.000376086957,56.5894283 1.5686587,60.5533848 5.77832536,60.5533848 C9.74228188,60.5533848 12.9628399,54.8556674 15.5202312,48.003363 L15.6857094,48.003363 C15.274521,55.1038848 16.5945862,60.9645732 22.2897964,60.9645732 C26.336492,60.9645732 31.4550355,54.9384065 34.3433833,42.0599355 L34.5088616,42.141421 C33.5172457,49.0764645 32.2799196,55.3508486 32.2799196,57.3328268 C32.2799196,61.5437471 34.3433833,62.9465514 36.4093543,62.9465514 C36.986021,62.9465514 37.5639413,62.8638123 38.1418616,62.5341094 C38.7210355,52.9576819 47.3885862,36.5276964 51.1043254,33.0601746 L51.26855,33.1429138 C50.0312239,35.867037 47.4713254,44.2061384 47.4713254,50.5632616 C47.4713254,56.9191312 49.289079,62.6168486 55.5609558,62.6168486 C58.6147819,62.6168486 61.2210645,59.8689065 63.1152891,56.5819065 C61.5658109,64.2064428 60.3485428,71.0650152 60.3485428,75.9917543 C60.3485428,84.246863 64.9719051,85.5681819 67.6145428,85.5681819 C68.6049051,85.5681819 69.3483036,85.3199645 69.3483036,85.3199645 C68.6049051,82.430363 68.3579413,78.797363 68.3579413,74.8359138 C68.3579413,66.5795514 69.596521,56.6721674 70.9165862,48.4170587 C73.3110065,40.7386167 77.274963,33.5553558 80.24605,33.5553558 C81.4833761,33.5553558 82.0612964,35.6200732 82.0612964,38.5096746 C82.0612964,43.6269645 79.9978326,53.2873848 77.0267457,57.2500877 C75.9536442,56.6721674 74.9620283,55.7632906 74.2198833,54.60745 C74.2198833,54.60745 72.3193906,56.2597254 72.3193906,58.5714065 C72.3193906,61.87345 76.4488254,63.6072109 79.9150935,63.6072109 C84.7866732,63.6072109 90.5658761,61.0473123 94.4458399,56.9191312 C94.7767964,66.4968123 97.5836587,73.927037 103.197383,73.927037 C105.578014,73.927037 108.142927,71.9300152 109.42413,69.8841022 C110.301666,68.8385804 111.063869,67.6200587 111.694441,66.254863 C112.979405,63.4743268 113.63505,60.4468268 114.146528,57.3704355 C115.039108,59.2997616 116.539695,60.5533848 118.882717,60.5533848 C122.76268,60.5533848 125.983238,54.8556674 128.541883,47.9206239 L128.790101,48.003363 C128.790101,48.7467616 128.707362,49.4901601 128.707362,50.2323051 C128.707362,56.1769862 130.275644,60.9645732 135.311449,60.9645732 C139.617644,60.9645732 142.805608,56.7523993 144.732427,52.5991457 C145.19376,58.001008 147.496666,62.285892 152.40084,62.285892 C156.694499,62.285892 159.66684,56.42395 161.482086,50.4805225 L161.730304,50.5632616 C160.986905,56.1769862 160.162021,60.9645732 159.253144,65.1754935 C158.427007,65.0927543 157.520637,65.0927543 156.777238,65.0927543 C145.714014,65.0927543 133.165246,68.7257543 133.165246,78.4676601 C133.165246,88.5392688 145.465796,95.888008 150.748564,95.888008 C158.858253,95.888008 162.251811,84.1866891 164.480753,70.4620225 L164.584804,69.7562326 C169.739702,70.6538268 174.923434,72.3123703 178.844767,74.7494138 C184.33313,78.1617761 186.919354,84.0675949 188.609238,89.523363 C192.561912,102.292769 193.380528,114.746262 193.22884,127.916827 C193.202514,130.16708 200.707956,130.205943 200.734282,127.916827 C200.908536,112.758015 200.298021,95.60845 193.589883,81.4048993 M111.61797,6.06339928 C112.114405,6.06339928 112.27863,6.97102246 112.27863,8.53930507 C112.27863,14.5667254 109.389028,30.6657543 102.784941,43.0502978 C104.187746,25.8769138 109.22355,6.06339928 111.61797,6.06339928 M153.803644,55.4335877 C152.236615,55.4335877 151.574702,53.6998268 151.574702,51.0584428 C151.574702,44.5358413 155.785622,32.7292181 159.996543,32.7292181 C162.225485,32.7292181 163.133108,33.5553558 163.464064,34.3814935 L163.133108,37.7662761 C161.399347,47.0130007 157.437898,55.4335877 153.803644,55.4335877 M158.344267,69.0554572 C154.382818,84.8247833 149.428499,89.4481457 144.475434,89.4481457 C139.934811,89.4481457 136.714253,85.4854428 136.714253,81.0263051 C136.714253,75.4125804 141.832796,68.9727181 155.952354,68.9727181 L155.957369,68.9727181 C156.512724,68.9752254 157.079362,68.9902688 157.654775,69.0140877 C157.882934,69.0266239 158.106079,69.0316384 158.344267,69.0554572" id="Fill-9" fill="#24466E"></path>
                </g>
                <path d="M201.107736,146.056128 L201.251903,147.82499 L199.786417,146.820838 L199.78391,145.594794 L200.4032,146.664135 L200.5762,146.662881 L200.663954,146.512446 L200.04341,145.445613 L201.107736,146.056128 Z M199.751316,133.087396 L201.213041,132.076975 L201.077649,133.844584 L200.014577,134.461367 L200.630106,133.390772 L200.542352,133.240338 L200.368099,133.240338 L199.755077,134.314693 L199.751316,133.087396 Z M193.621099,146.834628 L192.15812,147.848809 L192.294765,146.079946 L193.357838,145.463164 L192.742309,146.532504 L192.828809,146.682939 L193.003062,146.682939 L193.617338,145.609838 L193.621099,146.834628 Z M192.263425,133.867149 L192.119258,132.099541 L193.585997,133.103693 L193.589758,134.329736 L192.969214,133.259142 L192.794961,133.259142 L192.708461,133.41083 L193.330258,134.478917 L192.263425,133.867149 Z M189.024062,140.130251 L190.257628,140.128997 L189.195809,140.744526 L187.592425,139.986084 L189.195809,139.216359 L190.258881,139.828128 L189.022809,139.830635 L188.936309,139.98107 L189.024062,140.130251 Z M204.347099,139.793026 L203.11228,139.796787 L204.175352,139.180004 L205.778736,139.937193 L204.174099,140.706917 L203.11228,140.096403 L204.348352,140.092642 L204.436106,139.942207 L204.347099,139.793026 Z M205.187026,143.530077 L206.148555,143.239236 L205.803809,142.107214 L203.035809,142.927084 L202.628381,142.177417 L203.226359,141.841446 L202.525584,140.577794 L204.579019,141.219649 L206.304004,140.323309 L206.302751,140.037483 L206.301497,139.551077 L204.572751,138.664765 L202.523077,139.317903 L203.215077,138.049236 L202.618352,137.717026 L203.020765,136.964852 L205.79378,137.772186 L206.132258,136.636403 L205.169475,136.35183 L206.372954,135.593388 L206.504584,134.260787 L205.282301,133.714207 L204.026171,134.383642 L204.255584,133.405816 L203.102251,133.138794 L202.429055,135.945657 L201.576591,135.923091 L201.584113,135.238613 L200.138686,135.212287 L201.720758,133.75683 L201.808512,131.814968 L201.559041,131.670801 L201.139077,131.427599 L199.505606,132.483149 L199.04678,134.585475 L198.295859,133.349403 L197.706657,133.701671 L197.256606,132.977077 L199.342635,130.978801 L198.529033,130.118816 L197.801932,130.810816 L197.745519,129.387954 L196.657374,128.6082 L195.57299,129.392968 L195.524099,130.81583 L194.793236,130.127591 L193.983396,130.992591 L196.079454,132.979584 L195.634417,133.706686 L195.043961,133.358178 L194.299309,134.596758 L193.8292,132.498193 L192.190714,131.451417 L191.942497,131.595584 L191.941243,131.595584 L191.522533,131.837533 L191.619062,133.779396 L193.208657,135.229838 L191.765736,135.262432 L191.775765,135.94691 L190.923301,135.97449 L190.235062,133.167628 L189.084236,133.443425 L189.31741,134.419997 L188.060026,133.75683 L186.840251,134.308425 L186.978149,135.641026 L188.184135,136.394454 L187.222606,136.684041 L187.568606,137.816062 L190.336606,136.996193 L190.74278,137.745859 L190.147309,138.083084 L190.845577,139.346736 L188.793396,138.704881 L187.06841,139.598714 L187.069664,139.885794 L187.06841,139.887048 L187.069664,140.3722 L188.799664,141.259765 L190.848084,140.605374 L190.156084,141.874041 L190.754062,142.206251 L190.351649,142.958425 L187.577381,142.152345 L187.238903,143.286874 L188.202939,143.571446 L186.999461,144.329888 L186.86783,145.66249 L188.090113,146.20907 L189.34499,145.539635 L189.115577,146.518714 L190.26891,146.78699 L190.943359,143.97762 L191.795823,144.000186 L191.789555,144.684664 L193.233729,144.712243 L191.650403,146.1677 L191.563903,148.109562 L191.81212,148.252475 L192.233338,148.494425 L193.865555,147.440128 L194.325635,145.339055 L195.076555,146.57262 L195.664504,146.221606 L196.114555,146.947454 L194.02978,148.944475 L194.842128,149.804461 L195.570483,149.113714 L195.625642,150.535323 L196.713787,151.315077 L197.798171,150.530309 L197.845809,149.107446 L198.579178,149.794432 L199.387765,148.930686 L197.291707,146.943693 L197.737997,146.216591 L198.3272,146.565099 L199.074359,145.327772 L199.543214,147.425084 L201.180446,148.471859 L201.42741,148.328946 L201.849881,148.08449 L201.752099,146.143881 L200.162504,144.694693 L201.605425,144.660845 L201.596649,143.97762 L202.449113,143.948787 L203.136099,146.753142 L204.289432,146.479852 L204.053751,145.50328 L205.312388,146.166446 L206.532164,145.614852 L206.395519,144.282251 L205.187026,143.530077 Z" id="Fill-12" fill="#FEFEFE"></path>
            </g>
        </g>
    </g>
</svg>