<?xml version="1.0" encoding="UTF-8"?>
<svg width="280px" height="171px" viewBox="0 0 280 171" version="1.1" xmlns="http://www.w3.org/2000/svg" xmlns:xlink="http://www.w3.org/1999/xlink">
    <!-- Generator: Sketch 52.4 (67378) - http://www.bohemiancoding.com/sketch -->
    <title>Group 20</title>
    <desc>Created with Sketch.</desc>
    <defs>
        <polygon id="path-1" points="0.942909419 1.22622234 53.899529 1.22622234 53.899529 83.4249024 0.942909419 83.4249024"></polygon>
        <polygon id="path-3" points="0.000376086957 1.02671739 200.757194 1.02671739 200.757194 129.618587 0.000376086957 129.618587"></polygon>
    </defs>
    <g id="Mobile" stroke="none" stroke-width="1" fill="none" fill-rule="evenodd">
        <g id="Holiday-LP---Slide-10" transform="translate(-30.000000, -16.000000)">
            <g id="Group-20" transform="translate(30.000000, 15.000000)">
                <path d="M0.451555072,83.9231775 L21.7217797,84.0322428 C39.2248667,84.1225036 48.9354319,91.7056703 49.4983087,111.871453 L49.3729464,136.463779 C48.6032217,156.62204 38.8136783,164.10617 21.3118449,164.015909 L0.0416202899,163.906844 L0.451555072,83.9231775 Z M15.399758,150.470511 L20.7163739,150.498091 C29.1357072,150.540714 34.0311058,146.578011 34.0912797,134.612178 L34.1990913,113.566351 C34.2592652,102.266192 30.5146928,97.5926848 20.9871565,97.5437935 L15.6717942,97.5162138 L15.399758,150.470511 Z" id="Fill-1" fill="#CEAA79"></path>
                <path d="M56.2036884,164.194049 L76.4409275,84.3131797 L96.0488478,84.4147232 L114.914623,164.496172 L100.292362,164.420955 L96.5001522,147.56223 L75.3415,147.454419 L70.9337609,164.269267 L56.2036884,164.194049 Z M78.1784493,133.952897 L93.3573188,134.031875 L86.1000942,101.645774 L85.8782029,101.643267 L78.1784493,133.952897 Z" id="Fill-3" fill="#CEAA79"></path>
                <polygon id="Fill-4" fill="#CEAA79" points="141.526286 116.884692 154.654228 84.7142138 170.938793 84.7969529 148.87001 132.320554 148.704532 164.669047 133.416597 164.590069 133.582075 132.24283 112.002206 84.4948297 128.286771 84.5800761"></polygon>
                <g id="Group-19" transform="translate(0.000000, 0.226906)">
                    <g id="Group-7" transform="translate(225.652174, 81.485507)">
                        <mask id="mask-2" fill="white">
                            <use xlink:href="#path-1"></use>
                        </mask>
                        <g id="Clip-6"></g>
                        <path d="M16.8430543,61.3267449 C17.0361123,66.7586942 21.4463587,70.7677812 26.8758007,70.7966145 C35.0744964,70.8379841 39.0785688,67.0909043 39.1462645,54.1309478 L39.1851268,46.7082449 C34.180663,50.4503101 28.2974094,52.8572667 21.9829094,52.8246725 C8.02381522,52.7519623 0.878163043,41.8592304 0.943351449,29.0083391 C1.0273442,12.6122014 9.06432246,1.13277391 27.2330833,1.22679565 C44.514279,1.31454928 53.9854022,11.9991797 53.9001558,29.0597377 L53.7610036,55.8672159 C53.6745036,72.9290275 44.0930616,83.5121145 26.8118659,83.4243609 C12.9630906,83.354158 3.25252536,75.6594188 2.22079348,61.2527812 L16.8430543,61.3267449 Z M39.2666123,30.6443174 C39.3330543,17.6843609 35.365337,13.8971652 27.1678949,13.854542 C19.5233007,13.8144261 15.6182645,19.334129 15.5706268,28.5282014 C15.5254964,37.392571 20.2666993,41.5144841 27.0262355,41.5495855 C31.6771775,41.5734043 35.4618659,38.4919986 39.2440471,35.0758754 L39.2666123,30.6443174 Z" id="Fill-5" fill="#CEAA79" mask="url(#mask-2)"></path>
                    </g>
                    <path d="M213.050503,148.288078 L212.887532,148.288078 L212.887532,134.328984 L212.871235,134.328984 C212.872488,134.265049 212.876249,134.201114 212.876249,134.135926 C212.876249,125.379368 205.778235,118.281354 197.02293,118.281354 C188.266372,118.281354 181.168358,125.379368 181.168358,134.135926 C181.168358,134.201114 181.172119,134.265049 181.173372,134.328984 L181.158329,134.328984 L181.158329,148.288078 L180.994104,148.288078 C179.839517,148.288078 178.895539,149.232057 178.895539,150.386643 L178.895539,157.369325 C178.895539,158.523912 179.839517,159.46789 180.994104,159.46789 L189.817104,159.46789 L189.817104,171.745875 L191.433025,171.745875 L191.433025,159.46789 L202.611583,159.46789 L202.611583,171.745875 L204.227503,171.745875 L204.227503,159.46789 L213.050503,159.46789 C214.20509,159.46789 215.149068,158.523912 215.149068,157.369325 L215.149068,150.386643 C215.149068,149.232057 214.20509,148.288078 213.050503,148.288078" id="Fill-8" fill="#24466E"></path>
                    <g id="Group-12">
                        <mask id="mask-4" fill="white">
                            <use xlink:href="#path-3"></use>
                        </mask>
                        <g id="Clip-11"></g>
                        <path d="M193.58863,81.40515 C190.762963,75.4228601 187.142499,71.5291065 179.413912,68.5893601 C174.914659,66.8781645 170.059376,66.0043891 165.14768,65.5869326 C166.451449,56.4141717 167.356564,46.7825848 168.911057,39.4990341 C169.57297,38.0962297 170.315115,35.9500268 170.315115,33.9693022 C170.315115,30.9142225 168.828318,28.1061065 163.956738,28.1061065 L163.627036,31.657621 C162.469941,30.0880848 160.243507,28.8507587 157.105688,28.8507587 C150.847601,28.8507587 146.216717,37.5972877 144.978137,46.1093891 C143.434927,50.3754688 140.691999,54.360737 138.118311,54.360737 C136.053593,54.360737 135.310195,52.1317949 135.310195,49.160708 C135.310195,46.3513384 135.888115,42.8850703 136.632767,39.8299906 C137.456398,37.5183094 138.036825,35.4548457 138.036825,33.8038239 C138.036825,30.9142225 136.632767,29.0977225 132.339108,28.6025413 C128.044195,45.6091935 124.413702,54.2779978 121.771064,54.2779978 C120.450999,54.2779978 120.038557,52.7924543 120.038557,50.5635123 C120.038557,45.7746717 122.266246,38.261708 123.42334,34.5459688 C123.504825,34.2150123 123.586311,33.8038239 123.586311,33.5556065 C123.586311,30.4177877 118.881463,28.7680196 118.056579,28.7680196 L117.97384,28.7680196 C116.681354,31.6914688 114.216731,39.9904543 113.386833,47.2552007 C113.37555,47.294063 113.357999,47.3178819 113.34797,47.3579978 C112.298688,51.7281283 108.214383,68.440179 104.403369,63.6801717 C103.018115,60.6501645 102.452731,56.2574688 102.452731,51.2229181 L102.452731,48.9952297 C111.122789,37.0243819 115.993115,20.0152225 115.993115,9.77938913 C115.993115,4.49536739 114.426086,1.02659203 111.04005,1.02659203 C102.700949,1.02659203 94.941021,31.2439254 94.4458399,52.6269761 C91.1425428,55.5993167 87.3453181,57.6627804 83.2158833,58.2419543 C86.7673978,54.5249616 88.7493761,48.0036138 88.7493761,42.1416717 C88.7493761,40.49065 88.666637,39.0051065 88.3356804,37.5183094 C87.5935355,33.886563 83.0529123,30.1708239 81.0721877,30.1708239 C77.6034123,30.1708239 75.0447674,33.7210848 73.0627891,38.0134906 L72.7318326,37.9307514 C73.3937457,34.4632297 73.9704123,32.2342877 73.9704123,32.1515486 C74.9620283,30.1708239 75.3744703,28.6025413 75.3744703,27.2824761 C75.3744703,22.9048239 71.1622964,21.5020196 69.759492,21.5020196 C69.5125283,21.5020196 69.34705,21.5847587 69.34705,21.6674978 C68.6738543,29.1729399 67.0529196,37.5659471 65.3705572,45.7032152 C65.3429775,45.7019616 65.3316949,45.6919326 65.3028616,45.6919326 C65.3028616,45.6919326 62.4145138,55.8475341 57.6244196,55.8475341 C55.3127384,55.8475341 54.5718471,53.4531138 54.5718471,50.1498167 C54.5718471,43.4629906 57.7071587,33.4728674 57.7071587,33.3086428 C57.7071587,31.4921428 54.489108,28.3543239 52.7553471,28.3543239 C50.1941949,28.3543239 44.3335065,36.2809833 40.5362819,46.0228891 C40.3708036,46.0228891 40.2053254,45.94015 40.1225862,45.94015 C41.1129486,39.4188022 42.1045645,33.3901283 42.1045645,32.5652442 C42.1045645,28.1888457 39.8743688,25.5474616 35.332492,26.3735993 C31.948963,50.3152949 22.2070572,62.9455486 22.2070572,49.2409399 C22.2070572,45.1967514 23.5271225,39.8299906 23.5271225,39.8299906 C24.9311804,35.7845486 26.9958978,29.1804616 19.2347167,28.6025413 C18.7382819,30.4177877 18.0801297,32.7294688 17.5836949,35.1238891 C14.6113543,46.1056283 10.7326442,54.2779978 8.66792681,54.2779978 C7.34786159,54.2779978 6.93291232,52.7924543 6.93291232,50.5635123 C6.93291232,45.7746717 9.16436159,38.261708 10.3189486,34.5459688 C10.4016877,34.2150123 10.4844268,33.8038239 10.4844268,33.5556065 C10.4844268,30.4177877 5.77832536,28.7680196 4.95218768,28.7680196 L4.86944855,28.7680196 C3.30116594,32.3170268 0.000376086957,43.7939471 0.000376086957,51.7180993 C0.000376086957,56.589679 1.5686587,60.5536355 5.77832536,60.5536355 C9.73977464,60.5536355 12.9603326,54.8559181 15.5202312,48.0036138 L15.6857094,48.0036138 C15.2732674,55.1041355 16.5945862,60.9648239 22.2897964,60.9648239 C26.3339848,60.9648239 31.4537819,54.9386572 34.3433833,42.0589326 L34.5088616,42.1416717 C33.5172457,49.0767152 32.2799196,55.3498457 32.2799196,57.3330775 C32.2799196,61.5427442 34.3433833,62.9455486 36.4093543,62.9455486 C36.9847674,62.9455486 37.5639413,62.8628094 38.1418616,62.5343601 C38.7185283,52.9579326 47.3885862,36.5266935 51.1030717,33.0604254 L51.26855,33.1431645 C50.0312239,35.8672877 47.4688181,44.2051355 47.4688181,50.5635123 C47.4688181,56.9193819 49.2865717,62.6170993 55.5609558,62.6170993 C58.6135283,62.6170993 61.2198109,59.8704109 63.1140355,56.5821572 C61.5658109,64.2066935 60.3485428,71.0652659 60.3485428,75.9907514 C60.3485428,84.2471138 64.9719051,85.567179 67.6145428,85.567179 C68.6049051,85.567179 69.34705,85.3202152 69.34705,85.3202152 C68.6049051,82.4318674 68.3566877,78.7976138 68.3566877,74.8361645 C68.3566877,66.5798022 69.5940138,56.6724181 70.9165862,48.4173094 C73.3110065,40.7388674 77.2724558,33.5556065 80.2435428,33.5556065 C81.4833761,33.5556065 82.0612964,35.6203239 82.0612964,38.5099254 C82.0612964,43.6284688 79.9978326,53.2876355 77.025492,57.2503384 C75.951137,56.6724181 74.9620283,55.7647949 74.2173761,54.6077007 C74.2173761,54.6077007 72.3193906,56.2587225 72.3193906,58.5704036 C72.3193906,61.8737007 76.4475717,63.606208 79.9150935,63.606208 C84.7841659,63.606208 90.5646225,61.047563 94.4458399,56.9193819 C94.7767964,66.497063 97.5824051,73.9272877 103.19613,73.9272877 C105.57676,73.9272877 108.141673,71.9302659 109.42413,69.8843529 C110.300412,68.8388312 111.062615,67.6203094 111.693188,66.2551138 C112.978151,63.4758312 113.633796,60.4495848 114.145275,57.3731935 C115.037854,59.3000123 116.538441,60.5536355 118.881463,60.5536355 C122.76268,60.5536355 125.983238,54.8559181 128.54063,47.9208746 L128.788847,48.0036138 C128.788847,48.7457587 128.706108,49.4891572 128.706108,50.2325558 C128.706108,56.1759833 130.275644,60.9648239 135.310195,60.9648239 C139.616391,60.9648239 142.804354,56.7551572 144.72992,52.6019036 C145.192507,58.0012587 147.496666,62.2861428 152.399586,62.2861428 C156.691992,62.2861428 159.664333,56.4242007 161.480833,50.4807732 L161.72905,50.5635123 C160.984398,56.1759833 160.160767,60.9648239 159.251891,65.1744906 C158.425753,65.0917514 157.519383,65.0917514 156.774731,65.0917514 C145.71276,65.0917514 133.163992,68.7260051 133.163992,78.4679109 C133.163992,88.5395196 145.464543,95.8882587 150.748564,95.8882587 C158.855746,95.8882587 162.249304,84.1894471 164.479499,70.4672877 L164.58355,69.7564833 C169.738449,70.6553312 174.92218,72.312621 178.843514,74.7496645 C184.331876,78.1620268 186.918101,84.0678457 188.607985,89.5236138 C192.560659,102.29302 193.378021,114.746512 193.226333,127.915824 C193.20126,130.167331 200.706702,130.20494 200.733028,127.915824 C200.907282,112.758266 200.296767,95.6087007 193.58863,81.40515 M111.61797,6.06365 C112.111898,6.06365 112.277376,6.97127319 112.277376,8.5395558 C112.277376,14.5669761 109.387775,30.6660051 102.782434,43.0505486 C104.187746,25.8771645 109.222296,6.06365 111.61797,6.06365 M153.802391,55.4338384 C152.234108,55.4338384 151.573449,53.7013312 151.573449,51.0574399 C151.573449,44.536092 155.785622,32.7294688 159.995289,32.7294688 C162.224231,32.7294688 163.133108,33.5556065 163.464064,34.3804906 L163.133108,37.7665268 C161.398093,47.0119978 157.436644,55.4338384 153.802391,55.4338384 M158.343014,69.055708 C154.382818,84.8237804 149.427246,89.4471428 144.472927,89.4471428 C139.932304,89.4471428 136.714253,85.4844399 136.714253,81.0265558 C136.714253,75.4153384 141.829036,68.9779833 155.936057,68.9729688 C156.505202,68.9754761 157.088137,68.9905196 157.67734,69.015592 C157.897978,69.0268746 158.114854,69.0318891 158.343014,69.055708" id="Fill-10" fill="#24466E" mask="url(#mask-4)"></path>
                    </g>
                    <path d="M202.830591,140.701025 C200.758351,141.34288 200.903772,141.648764 198.918033,142.412221 C197.846185,142.823409 196.665272,143.096699 195.857938,142.195344 C195.608467,141.489554 196.057264,141.408069 197.419953,140.467851 C198.913018,139.43988 199.163743,138.621264 198.722467,138.064656 C198.281192,137.506793 197.526511,137.744982 196.779351,138.291562 C194.211931,140.165728 191.427634,141.084634 190.122612,141.44317 L190.061185,141.448185 L190.061185,146.709641 C190.116344,146.717163 190.171504,146.725938 190.22917,146.728446 C193.420895,146.89267 197.540301,146.621888 197.540301,146.621888 C198.190931,146.715909 198.808967,146.224489 198.808967,146.224489 C198.808967,146.224489 201.971859,143.190721 203.57775,142.368344 C205.183641,141.545967 205.083351,141.554743 205.172359,141.255127 C205.347866,140.655895 204.103018,140.306134 202.830591,140.701025" id="Fill-13" fill="#FEFEFE"></path>
                    <path d="M188.756288,140.474621 L186.265339,140.474621 L186.265339,147.511208 L188.698622,147.511208 C188.698622,147.511208 189.235172,147.454795 189.267767,147.008505 C189.300361,145.632027 189.267767,141.580317 189.267767,141.123998 C189.267767,140.568643 188.756288,140.474621 188.756288,140.474621" id="Fill-15" fill="#FEFEFE"></path>
                    <path d="M205.711542,130.957239 C203.62802,130.568616 203.018759,132.696014 203.018759,132.696014 C203.018759,132.696014 202.408245,130.568616 200.324723,130.957239 C198.965796,131.210471 198.229919,132.263514 198.223651,133.549732 C198.2061,136.866819 203.018759,139.232406 203.018759,139.232406 C203.018759,139.232406 207.830165,136.866819 207.813868,133.549732 C207.806346,132.263514 207.07047,131.210471 205.711542,130.957239" id="Fill-17" fill="#FEFEFE"></path>
                </g>
            </g>
        </g>
    </g>
</svg>