<?xml version="1.0" encoding="UTF-8"?>
<svg width="289px" height="171px" viewBox="0 0 289 171" version="1.1" xmlns="http://www.w3.org/2000/svg" xmlns:xlink="http://www.w3.org/1999/xlink">
    <!-- Generator: Sketch 52.4 (67378) - http://www.bohemiancoding.com/sketch -->
    <title>Group 17</title>
    <desc>Created with Sketch.</desc>
    <defs>
        <polygon id="path-1" points="0 1.02671739 200.759325 1.02671739 200.759325 129.619247 0 129.619247"></polygon>
    </defs>
    <g id="Mobile" stroke="none" stroke-width="1" fill="none" fill-rule="evenodd">
        <g id="Holiday-LP---Slide-12" transform="translate(-30.000000, -16.000000)">
            <g id="Group-17" transform="translate(30.000000, 15.000000)">
                <path d="M0.453310145,83.9233029 L21.7235348,84.0336217 C39.2266217,84.122629 48.9359333,91.7057957 49.5013174,111.871578 L49.3747014,136.463904 C48.6049768,156.622165 38.816687,164.106296 21.3136,164.016035 L0.0433753623,163.90697 L0.453310145,83.9233029 Z M15.401513,150.47189 L20.7156217,150.498216 C29.1349551,150.542093 34.0328609,146.578136 34.0930348,134.613557 L34.2021,113.566477 C34.2597667,102.266317 30.5164478,97.5928101 20.9889116,97.5439188 L15.671042,97.5163391 L15.401513,150.47189 Z" id="Fill-1" fill="#CEAA79"></path>
                <path d="M56.2036884,164.194551 L76.4434348,84.3136812 L96.0488478,84.413971 L114.91713,164.496674 L100.29487,164.421457 L96.5026594,147.562732 L75.3415,147.45492 L70.9337609,164.269768 L56.2036884,164.194551 Z M78.1809565,133.952145 L93.3573188,134.032377 L86.1000942,101.645022 L85.8807101,101.643768 L78.1809565,133.952145 Z" id="Fill-3" fill="#CEAA79"></path>
                <polygon id="Fill-4" fill="#CEAA79" points="141.528417 116.885193 154.653851 84.7147152 170.93967 84.7974543 148.872141 132.321056 148.706663 164.669549 133.418728 164.59057 133.584207 132.243331 112.003083 84.4953312 128.287649 84.5805775"></polygon>
                <g id="Group-16" transform="translate(0.000000, 0.226906)">
                    <path d="M237.611488,102.627612 L225.314699,102.56493 L225.359829,93.8121333 C237.115054,91.5468362 239.128372,87.5678362 242.920583,82.7138072 L251.67338,82.7589377 L251.257177,163.8483 L237.298083,163.779351 L237.611488,102.627612 Z" id="Fill-5" fill="#CEAA79"></path>
                    <path d="M274.830307,102.818288 L262.533517,102.755607 L262.578648,94.0028094 C274.333872,91.7375123 276.347191,87.7585123 280.136894,82.9044833 L288.889691,82.9496138 L288.474742,164.041483 L274.516901,163.970027 L274.830307,102.818288 Z" id="Fill-7" fill="#CEAA79"></path>
                    <path d="M213.052634,148.288204 L212.889663,148.288204 L212.889663,134.329109 L212.873366,134.329109 C212.87462,134.265175 212.87838,134.199986 212.87838,134.136051 C212.87838,125.379493 205.780366,118.281479 197.025062,118.281479 C188.268504,118.281479 181.170489,125.379493 181.170489,134.136051 C181.170489,134.199986 181.17425,134.265175 181.175504,134.329109 L181.159207,134.329109 L181.159207,148.288204 L180.996236,148.288204 C179.842902,148.288204 178.89767,149.232182 178.89767,150.386769 L178.89767,157.36945 C178.89767,158.524037 179.842902,159.468015 180.996236,159.468015 L189.819236,159.468015 L189.819236,171.746001 L191.435156,171.746001 L191.435156,159.468015 L202.614967,159.468015 L202.614967,171.746001 L204.229634,171.746001 L204.229634,159.468015 L213.052634,159.468015 C214.207221,159.468015 215.151199,158.524037 215.151199,157.36945 L215.151199,150.386769 C215.151199,149.232182 214.207221,148.288204 213.052634,148.288204" id="Fill-9" fill="#24466E"></path>
                    <g id="Group-13">
                        <mask id="mask-2" fill="white">
                            <use xlink:href="#path-1"></use>
                        </mask>
                        <g id="Clip-12"></g>
                        <path d="M193.590761,81.4050246 C190.765094,75.4227348 187.145884,71.5289812 179.416043,68.5892348 C174.91679,66.8780391 170.061507,66.0042638 165.149812,65.5855536 C166.451072,56.4140464 167.358696,46.7824594 168.913188,39.4989087 C169.573848,38.0961043 170.317246,35.9499014 170.317246,33.9691768 C170.317246,30.9140971 168.830449,28.1059812 163.95887,28.1059812 L163.629167,31.6574957 C162.473326,30.0879594 160.244384,28.8506333 157.107819,28.8506333 C150.848478,28.8506333 146.221355,37.5934014 144.981522,46.1029957 C143.439565,50.3715826 140.69413,54.3606116 138.119188,54.3606116 C136.055725,54.3606116 135.312326,52.1316696 135.312326,49.1605826 C135.312326,46.3524667 135.890246,42.8849449 136.633645,39.8298652 C137.458529,37.5181841 138.036449,35.4547203 138.036449,33.8036986 C138.036449,30.9140971 136.633645,29.0975971 132.341239,28.6024159 C128.046326,45.6090681 124.41458,54.2778725 121.773196,54.2778725 C120.45313,54.2778725 120.039435,52.792329 120.039435,50.563387 C120.039435,45.7745464 122.268377,38.2615826 123.425471,34.5470971 C123.506957,34.2161406 123.588442,33.8036986 123.588442,33.5554812 C123.588442,30.4176623 118.883594,28.7678942 118.05871,28.7678942 L117.975971,28.7678942 C116.683486,31.6913435 114.218862,39.9890754 113.388964,47.2538217 C113.377681,47.2926841 113.358877,47.3165029 113.350101,47.3578725 C112.300819,51.7280029 108.216514,68.4400536 104.4055,63.6800464 C103.020246,60.6500391 102.454862,56.2573435 102.454862,51.2240464 L102.454862,48.9951043 C111.123667,37.0242565 115.995246,20.0163507 115.995246,9.77926377 C115.995246,4.49524203 114.42571,1.02646667 111.042181,1.02646667 C102.70308,1.02646667 94.9418986,31.2438 94.447971,52.6268507 C91.1446739,55.5991913 87.3461957,57.6626551 83.2180145,58.241829 C86.769529,54.5248362 88.7502536,48.0034884 88.7502536,42.1415464 C88.7502536,40.4905246 88.6675145,39.0049812 88.3378116,37.5181841 C87.594413,33.8864377 83.0537899,30.1719522 81.0718116,30.1719522 C77.6055435,30.1719522 75.0443913,33.7209594 73.0636667,38.0133652 L72.7339638,37.9306261 C73.3933696,34.4631043 73.9725435,32.2354159 73.9725435,32.1526768 C74.9629058,30.1719522 75.3766014,28.6024159 75.3766014,27.2823507 C75.3766014,22.9046986 71.1644275,21.5018942 69.7616232,21.5018942 C69.5146594,21.5018942 69.3491812,21.5846333 69.3491812,21.6673725 C68.6759855,29.1728145 67.0550507,37.5658217 65.3714348,45.7030899 C65.3451087,45.7018362 65.3338261,45.6918072 65.3049928,45.6918072 C65.3049928,45.6918072 62.4153913,55.8474087 57.6265507,55.8474087 C55.3148696,55.8474087 54.571471,53.4529884 54.571471,50.1496913 C54.571471,43.4628652 57.7092899,33.472742 57.7092899,33.3085174 C57.7092899,31.4920174 54.4887319,28.3541986 52.754971,28.3541986 C50.1963261,28.3541986 44.3356377,36.280858 40.5371594,46.0227638 C40.3716812,46.0227638 40.2062029,45.9400246 40.1234638,45.9400246 C41.1150797,39.4186768 42.1066957,33.3900029 42.1066957,32.5663725 C42.1066957,28.1887203 39.8752464,25.5473362 35.3346232,26.3734739 C31.9510942,50.3151696 22.2091884,62.9466768 22.2091884,49.2408145 C22.2091884,45.1966261 23.5292536,39.8298652 23.5292536,39.8298652 C24.9333116,35.7844232 26.998029,29.1803362 19.2368478,28.6024159 C18.740413,30.4176623 18.0797536,32.7293435 17.5858261,35.1237638 C14.6134855,46.1055029 10.7335217,54.2778725 8.66880435,54.2778725 C7.34873913,54.2778725 6.93504348,52.792329 6.93504348,50.563387 C6.93504348,45.7745464 9.16398551,38.2615826 10.3210797,34.5470971 C10.4038188,34.2161406 10.4840507,33.8036986 10.4840507,33.5554812 C10.4840507,30.4176623 5.78045652,28.7678942 4.95431884,28.7678942 L4.87157971,28.7678942 C3.3032971,32.3181551 0,43.7938217 0,51.7179739 C0,56.5908072 1.56828261,60.5535101 5.78045652,60.5535101 C9.7419058,60.5535101 12.9624638,54.8557928 15.5223623,48.0034884 L15.6878406,48.0034884 C15.2741449,55.1040101 16.5942101,60.9659522 22.2919275,60.9659522 C26.3361159,60.9659522 31.455913,54.9385319 34.3455145,42.0588072 L34.5109928,42.1415464 C33.5193768,49.0778435 32.2820507,55.3509739 32.2820507,57.3329522 C32.2820507,61.5426188 34.3455145,62.9466768 36.4089783,62.9466768 C36.9868986,62.9466768 37.5660725,62.8639377 38.1427391,62.5342348 C38.7206594,52.9578072 47.3907174,36.5278217 51.1052029,33.0603 L51.2694275,33.1430391 C50.0308478,35.8671623 47.4709493,44.2050101 47.4709493,50.563387 C47.4709493,56.9192565 49.2887029,62.6169739 55.563087,62.6169739 C58.616913,62.6169739 61.2231957,59.8677783 63.1161667,56.578271 C61.567942,64.2040609 60.3506739,71.063887 60.3506739,75.9906261 C60.3506739,84.2469884 64.9740362,85.5670536 67.6154203,85.5670536 C68.6070362,85.5670536 69.3491812,85.3213435 69.3491812,85.3213435 C68.6070362,82.431742 68.3575652,78.7974884 68.3575652,74.8360391 C68.3575652,66.5796768 69.5961449,56.6735464 70.9187174,48.4171841 C73.3131377,40.738742 77.274587,33.5554812 80.2456739,33.5554812 C81.4855072,33.5554812 82.0634275,35.6201986 82.0634275,38.5098 C82.0634275,43.6283435 79.9999638,53.2875101 77.0276232,57.250213 C75.9532681,56.6735464 74.9629058,55.7646696 74.2195072,54.6075754 C74.2195072,54.6075754 72.3215217,56.2585971 72.3215217,58.5715319 C72.3215217,61.8735754 76.4484493,63.6060826 79.9172246,63.6060826 C84.7862971,63.6060826 90.5667536,61.0486913 94.447971,56.9192565 C94.7764203,66.4969377 97.5832826,73.9271623 103.198261,73.9271623 C105.578891,73.9271623 108.142551,71.9301406 109.423754,69.8854812 C110.302543,68.8399594 111.063493,67.6201841 111.695319,66.2549884 C112.980283,63.4757058 113.635928,60.4482058 114.147406,57.3730681 C115.039986,59.299887 116.540572,60.5535101 118.883594,60.5535101 C122.762304,60.5535101 125.982862,54.8557928 128.542761,47.9207493 L128.790978,48.0034884 C128.790978,48.746887 128.708239,49.4890319 128.708239,50.2324304 C128.708239,56.175858 130.277775,60.9659522 135.312326,60.9659522 C139.617268,60.9659522 142.805232,56.7550319 144.732051,52.6017783 C145.193384,58.0011333 147.497543,62.2860174 152.401717,62.2860174 C156.694123,62.2860174 159.666464,56.4240754 161.482964,50.4806478 L161.729928,50.563387 C160.986529,56.175858 160.162899,60.9659522 159.254022,65.1756188 C158.429138,65.0928797 157.520261,65.0928797 156.776862,65.0928797 C145.714891,65.0928797 133.16487,68.7271333 133.16487,78.4677855 C133.16487,88.5393942 145.466674,95.8881333 150.750696,95.8881333 C158.854116,95.8881333 162.248928,84.1968435 164.479123,70.4809522 L164.585681,69.756358 C169.74058,70.6552058 174.924312,72.3124957 178.845645,74.7495391 C184.334007,78.1619014 186.920232,84.0677203 188.610116,89.5234884 C192.56279,102.292894 193.380152,114.746387 193.229717,127.916952 C193.203391,130.167206 200.708833,130.206068 200.735159,127.916952 C200.909413,112.758141 200.298899,95.6085754 193.590761,81.4050246 M111.620101,6.06477826 C112.114029,6.06477826 112.279507,6.97114783 112.279507,8.53943043 C112.279507,14.5668507 109.389906,30.6658797 102.784565,43.0504232 C104.189877,25.8770391 109.224428,6.06477826 111.620101,6.06477826 M153.804522,55.433713 C152.236239,55.433713 151.57558,53.7012058 151.57558,51.0585681 C151.57558,44.5372203 155.7865,32.7293435 159.99742,32.7293435 C162.226362,32.7293435 163.135239,33.5554812 163.464942,34.3816188 L163.135239,37.7664014 C161.400225,47.0118725 157.437522,55.433713 153.804522,55.433713 M158.345145,69.0555826 C154.382442,84.8249087 149.429377,89.448271 144.475058,89.448271 C139.934435,89.448271 136.716384,85.4843145 136.716384,81.0264304 C136.716384,75.415213 141.83242,68.9753507 155.943203,68.9728435 C156.508587,68.9753507 157.085254,68.9903942 157.670696,69.0154667 C157.893841,69.0267493 158.113225,69.0317638 158.345145,69.0555826" id="Fill-11" fill="#24466E" mask="url(#mask-2)"></path>
                    </g>
                    <path d="M205.386979,148.761822 L205.389486,148.765583 C205.984957,149.357293 205.98245,150.318822 205.389486,150.910533 C204.79903,151.50475 203.837501,151.50475 203.245791,150.910533 L203.24203,150.906772 C201.772783,149.437525 199.066211,146.344837 196.770827,143.825054 C194.476696,146.38746 191.590856,149.468866 190.106566,150.950649 C190.106566,150.951902 190.105312,150.954409 190.105312,150.954409 C189.511095,151.548627 188.552073,151.548627 187.957856,150.954409 C187.366146,150.362699 187.366146,149.403678 187.957856,148.810714 C189.457189,147.313888 192.567428,144.493236 195.148638,142.182808 C194.208421,141.141047 193.48508,140.342489 193.224327,140.047888 C191.747559,140.776243 189.617653,140.271033 187.729696,138.381822 C185.480696,136.134076 184.810008,133.164243 186.226602,131.745141 C187.64445,130.328547 190.615537,131.000489 192.86203,133.246982 C194.752493,135.137446 195.260211,137.268605 194.528095,138.741612 C194.830218,139.016156 195.663878,139.765822 196.750769,140.746156 C197.677196,139.917511 198.434385,139.241808 198.868138,138.856946 C198.231298,137.702359 198.396776,136.225591 199.377109,135.245257 C199.377109,135.245257 204.824102,129.918612 205.405783,130.501547 C205.989972,131.085736 201.740189,134.916808 201.740189,134.916808 C201.449349,135.211409 201.376638,135.622598 201.58474,135.830699 C201.790334,136.036293 202.199015,135.963583 202.493617,135.668982 C202.493617,135.668982 206.334718,131.427975 206.911385,132.003388 C207.485544,132.578801 203.245791,136.419902 203.245791,136.419902 C202.952443,136.71325 202.878479,137.124438 203.08658,137.331286 C203.28716,137.53688 203.702109,137.46417 203.999218,137.169569 C203.999218,137.169569 207.919298,133.015062 208.410718,133.506482 C208.903392,133.997902 203.670769,139.537663 203.670769,139.537663 C202.690436,140.515489 201.209907,140.684728 200.057827,140.047888 C199.68174,140.465344 199.032363,141.194953 198.231298,142.088786 C200.772392,144.400467 203.898928,147.273772 205.386979,148.761822" id="Fill-14" fill="#FEFEFE"></path>
                </g>
            </g>
        </g>
    </g>
</svg>