<?xml version="1.0" encoding="UTF-8"?>
<svg width="616px" height="500px" viewBox="0 0 616 500" version="1.1" xmlns="http://www.w3.org/2000/svg" xmlns:xlink="http://www.w3.org/1999/xlink">
    <!-- Generator: Sketch 52.4 (67378) - http://www.bohemiancoding.com/sketch -->
    <title>Unplug_Day_2</title>
    <desc>Created with Sketch.</desc>
    <g id="Desktop" stroke="none" stroke-width="1" fill="none" fill-rule="evenodd">
        <g id="Artboard" transform="translate(-691.000000, -259.000000)">
            <g id="Unplug_Day_2" transform="translate(691.000000, 259.000000)">
                <path d="M398.36751,0 L374.468374,17.3007886 L373.405143,48.6287665 L357.275546,33.4569209 L339.448019,52.5173611 L385.644081,96.2835452 L375.820239,112.289607 L362.815539,104.60658 L346.404672,131.872352 L336.040378,85.6638418 L299.940593,62.6294727 L294.469813,65.7912547 L294.440361,65.8074388 L285.193785,71.1320033 L287.336446,113.883004 L322.371528,145.809793 L290.555591,146.529249 L290.782375,161.614289 L271.993227,162.223399 L256.839977,100.420786 L231.456441,106.488347 L236.60619,127.999941 L208.885607,113.391596 L182,125.53996 L185.040958,154.875824 L211.634987,171.452742 L190.43958,177.848399 L198.045658,202.779249 L259.075412,184.703096 L268.024519,201.232933 L254.885811,208.636417 L270.282044,236.478931 L225.062328,222.332568 L187.033412,242.031544 L187.064337,248.333039 L187.033412,248.363936 L187.064337,259.045433 L225.180138,278.597281 L270.336531,264.190501 L255.081669,292.113936 L268.266028,299.4365 L259.402334,316.006062 L198.263606,298.250647 L190.793009,323.221222 L212.026704,329.49182 L185.516614,346.192326 L182.6185,375.55173 L209.549759,387.585334 L237.223217,372.850459 L232.150044,394.385593 L257.574813,400.297199 L272.424705,338.432792 L291.227106,338.931556 L291.078371,354.00924 L322.903143,354.610993 L288.03005,386.671669 L286.108282,429.437382 L291.586425,432.58298 L300.871288,437.909016 L336.851791,414.687794 L346.974575,368.430732 L363.534177,395.587629 L376.48439,387.857521 L386.409843,403.82533 L340.456763,447.801907 L358.360866,466.752001 L374.412415,451.534546 L375.640579,482.83604 L399.625127,500 L423.516899,482.74335 L424.572767,451.400659 L440.725927,466.541608 L458.553454,447.497352 L412.348556,403.763536 L422.181234,387.74129 L435.185933,395.409605 L451.629199,368.173258 L461.977293,414.359699 L498.052044,437.399953 L503.515461,434.254355 L512.815051,428.88271 L510.666499,386.131709 L475.629945,354.235817 L507.438518,353.486935 L507.226461,338.432792 L526.031807,337.807498 L541.168859,399.561558 L566.575957,393.542549 L561.395283,372.045669 L589.133537,386.646657 L616,374.489466 L613.000275,345.138889 L586.35765,328.578154 L607.56042,322.183969 L599.946979,297.266361 L538.949622,315.311617 L529.978426,298.814148 L543.139224,291.395951 L527.695867,263.581391 L572.962706,277.714513 L610.96806,257.983169 L610.960697,251.683145 L610.9283,240.985464 L572.83017,221.448329 L527.639907,235.838924 L542.91244,207.909605 L529.74428,200.576742 L538.628591,184.032192 L599.736394,201.80379 L607.184902,176.793491 L585.982132,170.522893 L612.499584,153.820916 L615.400644,124.477695 L588.459077,112.445563 L560.76942,127.187794 L565.842593,105.645304 L540.419296,99.7660664 L525.578241,161.583392 L506.789093,161.083157 L506.96139,146.020186 L475.090966,145.436088 L509.978786,113.375412 L511.902027,70.6244115 L506.415048,67.4626295 L497.13902,62.1071681 L461.157044,85.3431026 L451.03426,131.62959 L434.482021,104.427083 L421.508247,112.157192 L411.582794,96.2188089 L457.552073,52.212806 L439.633243,33.278896 L423.596421,48.511064 L422.344695,17.177201 L398.36751,0 Z M466.571865,98.6567208 L498.786881,76.3874176 L495.785683,115.311617 L472.369566,128.90625 L485.929443,105.317208 L483.992949,101.997999 L480.162667,102.014183 L466.649914,125.656191 L466.571865,98.6567208 Z M301.544275,115.804496 L298.347219,76.8950094 L330.678572,99.0157133 L330.756621,125.993114 L317.089243,102.420257 L313.242762,102.434969 L311.351919,105.777719 L325.036968,129.281427 L301.544275,115.804496 Z M564.069559,232.793373 L599.409473,249.487994 L564.051888,266.431262 L540.646079,252.985228 L567.865971,252.908722 L569.805411,249.596869 L567.849772,246.3115 L540.646079,246.395363 L564.069559,232.793373 Z M198.584637,250.559087 L233.933386,233.614348 L257.362756,247.060381 L230.120775,247.122175 L228.197535,250.432556 L230.134029,253.737053 L257.331831,253.6885 L233.917187,267.252236 L198.584637,250.559087 Z M484.742512,397.579743 L486.665753,394.267891 L472.988066,370.765654 L496.457197,384.211688 L499.645418,423.166784 L467.321428,401.046081 L467.266941,374.052495 L480.929901,397.595927 L484.742512,397.579743 Z M302.223153,384.726636 L325.64516,371.140831 L312.086756,394.697505 L313.993797,398.016714 L317.822607,398.016714 L331.382484,374.396775 L331.460533,401.357992 L299.214592,423.674376 L302.223153,384.726636 Z" id="Fill-1" fill="#F2F1F2"></path>
                <g id="day-2" transform="translate(0.000000, 44.000000)">
                    <path d="M0.718188406,133.403297 L34.5292391,133.576667 C62.3520652,133.720145 77.7879348,145.774312 78.6846739,177.829746 L78.4834058,216.923587 C77.2598551,248.967065 61.7004348,260.861812 33.8776087,260.718333 L0.066557971,260.544964 L0.718188406,133.403297 Z M24.4797826,239.188623 L32.9310507,239.230471 C46.3143841,239.300217 54.096087,232.99913 54.1937319,213.98029 L54.3651087,180.523949 C54.4587681,162.561268 48.5084058,155.132283 33.3614855,155.056558 L24.9122101,155.012717 L24.4797826,239.188623 Z" id="Fill-1" fill="#CEAA79"></path>
                    <path d="M89.341721,261.003696 L121.512736,134.023442 L152.679402,134.184855 L182.668351,261.481957 L159.424873,261.362391 L153.396793,234.565833 L119.765091,234.392464 L112.756576,261.123261 L89.341721,261.003696 Z M124.272699,212.930507 L148.40096,213.056051 L136.864909,161.575254 L136.512192,161.573261 L124.272699,212.930507 Z" id="Fill-3" fill="#CEAA79"></path>
                    <polygon id="Fill-4" fill="#CEAA79" points="224.970924 185.800761 245.83904 134.660725 271.724909 134.794239 236.644475 210.337536 236.381431 261.756558 212.079801 261.633007 212.342844 210.211993 178.039583 134.313986 203.925453 134.4475"></polygon>
                    <g id="Group-11" transform="translate(0.000000, 0.360688)">
                        <path d="M362.34538,260.165344 L362.450996,239.564257 C413.413678,191.572772 421.562047,182.457917 421.629801,169.074583 C421.681612,158.859728 416.08596,151.610091 404.814946,151.552301 C393.015851,151.492518 386.63904,158.68038 386.591214,168.187808 L386.567301,172.767156 L363.323822,172.647591 L363.353714,166.659366 C363.447373,147.993243 378.502627,131.341793 403.154982,131.46933 C427.984692,131.596866 445.002808,144.362446 444.877264,168.664076 C444.729801,198.073134 410.271105,220.61317 391.858062,240.241793 L442.573641,240.502844 L442.470018,260.575851 L362.34538,260.165344 Z" id="Fill-5" fill="#CEAA79"></path>
                        <path d="M338.666486,235.718043 L338.405435,235.718043 L338.405435,213.528732 L338.381522,213.528732 C338.383514,213.425109 338.389493,213.323478 338.389493,213.221848 C338.389493,199.302464 327.106522,188.019493 313.187138,188.019493 C299.269746,188.019493 287.986775,199.302464 287.986775,213.221848 C287.986775,213.323478 287.992754,213.425109 287.994746,213.528732 L287.968841,213.528732 L287.968841,235.718043 L287.709783,235.718043 C285.874457,235.718043 284.373913,237.218587 284.373913,239.053913 L284.373913,250.153551 C284.373913,251.988877 285.874457,253.48942 287.709783,253.48942 L301.734783,253.48942 L301.734783,273.006449 L304.303442,273.006449 L304.303442,253.48942 L322.072826,253.48942 L322.072826,273.006449 L324.641486,273.006449 L324.641486,253.48942 L338.666486,253.48942 C340.501812,253.48942 342.002355,251.988877 342.002355,250.153551 L342.002355,239.053913 C342.002355,237.218587 340.501812,235.718043 338.666486,235.718043" id="Fill-7" fill="#24466E"></path>
                        <path d="M307.729583,129.400851 C303.237917,119.891431 297.484837,113.701938 285.197518,109.028931 C278.045525,106.308822 270.327591,104.919873 262.519982,104.254293 C264.590453,89.6733152 266.033207,74.3629891 268.502228,62.7890761 C269.554402,60.557192 270.736105,57.1455978 270.736105,53.9970471 C270.736105,49.1407065 268.372699,44.6769384 260.628859,44.6769384 L260.102772,50.3204167 C258.267446,47.8274819 254.72433,45.8606341 249.736467,45.8606341 C239.788641,45.8606341 232.433388,59.7561051 230.464547,73.2829167 C228.011467,80.0702355 223.647337,86.4111775 219.554221,86.4111775 C216.272156,86.4111775 215.090453,82.8680616 215.090453,78.1432428 C215.090453,73.6814674 216.011105,68.1695109 217.192808,63.3131703 C218.50404,59.6405254 219.422699,56.3584601 219.422699,53.7340036 C219.422699,49.1407065 217.192808,46.2532065 210.365634,45.4660688 C203.542446,72.4997645 197.769438,86.2796558 193.568714,86.2796558 C191.468351,86.2796558 190.814728,83.9182428 190.814728,80.3751268 C190.814728,72.762808 194.357844,60.8202355 196.19317,54.9137138 C196.324692,54.3896196 196.456214,53.7340036 196.456214,53.3394384 C196.456214,48.3515761 188.975417,45.7291123 187.662192,45.7291123 L187.53067,45.7291123 C185.478134,50.374221 181.564366,63.558279 180.24317,75.1062862 C180.225236,75.1720471 180.195344,75.2119022 180.179402,75.2796558 C178.511467,82.2244022 172.021069,108.785815 165.963098,101.227301 C163.759112,96.4108152 162.86038,89.4262138 162.86038,81.4233152 L162.86038,77.8801993 C176.640272,58.8513949 184.38212,31.8176993 184.38212,15.5428804 C184.38212,7.14541667 181.891178,1.63346014 176.50875,1.63346014 C163.254946,1.63346014 150.917808,49.6648007 150.13067,83.6551993 C144.881757,88.3800181 138.843714,91.6600906 132.283569,92.5807428 C137.925054,86.6722283 141.077591,76.3059239 141.077591,66.987808 C141.077591,64.3633514 140.946069,62.0019384 140.419982,59.6405254 C139.238279,53.8655254 132.020525,47.9590036 128.871975,47.9590036 C123.358025,47.9590036 119.290815,53.6024819 116.140272,60.4256703 L115.616178,60.2941486 C116.666359,54.7841848 117.585018,51.2410688 117.585018,51.1095471 C119.159293,47.9590036 119.814909,45.4660688 119.814909,43.3657065 C119.814909,36.4090036 113.123243,34.1791123 110.893351,34.1791123 C110.498786,34.1791123 110.235743,34.3106341 110.235743,34.4421558 C109.165634,46.3727717 106.587011,59.7142572 103.912736,72.649221 C103.870888,72.6472283 103.85096,72.6312862 103.805127,72.6312862 C103.805127,72.6312862 99.2138225,88.7725906 91.5995109,88.7725906 C87.9288587,88.7725906 86.7471558,84.9664312 86.7471558,79.7175181 C86.7471558,69.0881703 91.7330254,53.2079167 91.7330254,52.9468659 C91.7330254,50.0593659 86.6156341,45.0715036 83.8596558,45.0715036 C79.7904529,45.0715036 70.472337,57.6716848 64.4362862,73.1573732 C64.1732428,73.1573732 63.912192,73.0238587 63.7806703,73.0238587 C65.3549457,62.6575543 66.929221,53.0763949 66.929221,51.765163 C66.929221,44.8084601 63.3861051,40.6097283 56.1683514,41.9229529 C50.7859239,79.9805616 35.3002355,100.059547 35.3002355,78.2747645 C35.3002355,71.8441486 37.4025906,63.3131703 37.4025906,63.3131703 C39.6324819,56.8825543 42.9125543,46.3847283 30.5774094,45.4660688 C29.7902717,48.3515761 28.7400906,52.0262138 27.9549457,55.8323732 C23.2261413,73.2888949 17.0605616,86.2796558 13.7784964,86.2796558 C11.6801268,86.2796558 11.0245109,83.9182428 11.0245109,80.3751268 C11.0245109,72.762808 14.5676268,60.8202355 16.4029529,54.9137138 C16.5344746,54.3896196 16.6659964,53.7340036 16.6659964,53.3394384 C16.6659964,48.3515761 9.18519928,45.7291123 7.87396739,45.7291123 L7.7404529,45.7291123 C5.24751812,51.3705978 0.000597826087,69.6122645 0.000597826087,82.2124457 C0.000597826087,89.9542935 2.49353261,96.2553804 9.18519928,96.2553804 C15.4862862,96.2553804 20.6056703,87.1983152 24.6708877,76.3059239 L24.9339312,76.3059239 C24.280308,87.5928804 26.3786775,96.9090036 35.4317572,96.9090036 C41.8643659,96.9090036 50.000779,87.329837 54.5920833,66.858279 L54.8551268,66.987808 C53.2788587,78.011721 51.3120109,87.9854529 51.3120109,91.1359964 C51.3120109,97.8296558 54.5920833,100.059547 57.8761413,100.059547 C58.792808,100.059547 59.7114674,99.9280254 60.6301268,99.4039312 C61.550779,84.1812862 75.3286775,58.0642572 81.2351993,52.5523007 L81.49625,52.6838225 C79.5294022,57.0140761 75.4601993,70.2698732 75.4601993,80.3751268 C75.4601993,90.4783877 78.349692,99.5354529 88.3194384,99.5354529 C93.1737862,99.5354529 97.316721,95.167337 100.327772,89.942337 C97.8647283,102.062264 95.9297645,112.96462 95.9297645,120.796141 C95.9297645,133.918424 103.27904,136.018786 107.479764,136.018786 C109.05404,136.018786 110.235743,135.624221 110.235743,135.624221 C109.05404,131.030924 108.661467,125.255924 108.661467,118.958822 C108.661467,105.834547 110.630308,90.0858152 112.728678,76.9635326 C116.534837,64.7579167 122.835924,53.3394384 127.55875,53.3394384 C129.525598,53.3394384 130.444257,56.6215036 130.444257,61.2148007 C130.444257,69.349221 127.164185,84.7053804 122.441359,91.0044746 C120.735562,90.0858152 119.159293,88.6410688 117.979583,86.80375 C117.979583,86.80375 114.958569,89.4301993 114.958569,93.104837 C114.958569,98.35375 121.522699,101.109728 127.032663,101.109728 C134.776504,101.109728 143.963098,97.0405254 150.13067,90.4783877 C150.656757,105.703025 155.118533,117.514076 164.042083,117.514076 C167.826322,117.514076 171.903496,114.33962 173.940091,111.087446 C175.335018,109.425489 176.546612,107.488533 177.548967,105.318424 C179.59154,100.898496 180.63375,96.0859964 181.446793,91.195779 C182.865634,94.2626268 185.25096,96.2553804 188.975417,96.2553804 C195.142989,96.2553804 200.262373,87.1983152 204.329583,76.1744022 L204.724149,76.3059239 C204.724149,77.4876268 204.592627,78.6693297 204.592627,79.8490399 C204.592627,89.2986775 207.085562,96.9090036 215.090453,96.9090036 C221.935562,96.9090036 227.003134,90.2133514 230.065996,83.6113587 C230.79933,92.1981341 234.460018,99.0093659 242.25567,99.0093659 C249.080851,99.0093659 253.80567,89.69125 256.691178,80.2436051 L257.085743,80.3751268 C255.90404,89.2986775 254.592808,96.9090036 253.148062,103.602663 C251.834837,103.471141 250.394076,103.471141 249.212373,103.471141 C231.626322,103.471141 211.678859,109.246141 211.678859,124.73183 C211.678859,140.741612 231.231757,152.423134 239.629221,152.423134 C252.520344,152.423134 257.914728,133.822772 261.457844,112.006105 L261.623243,110.884185 C269.817446,112.310996 278.057482,114.947409 284.290815,118.821322 C293.015091,124.245598 297.126141,133.63346 299.812373,142.305924 C306.095525,162.604112 307.396793,182.400127 307.15567,203.335996 C307.113822,206.912989 319.044438,206.974764 319.086286,203.335996 C319.363279,179.23962 318.392808,151.97875 307.729583,129.400851 M177.427409,9.63835145 C178.21654,9.63835145 178.477591,11.0811051 178.477591,13.5740399 C178.477591,23.1551993 173.884293,48.7461413 163.386467,68.4325543 C165.616359,41.1338225 173.62125,9.63835145 177.427409,9.63835145 M244.485562,88.1169746 C241.99462,88.1169746 240.942446,85.3609964 240.942446,81.1622645 C240.942446,70.7939674 247.636105,52.0262138 254.329764,52.0262138 C257.87288,52.0262138 259.315634,53.3394384 259.841721,54.652663 L259.315634,60.0330978 C256.559656,74.7316486 250.262554,88.1169746 244.485562,88.1169746 M251.703315,109.770236 C245.406214,134.837083 237.530851,142.186359 229.657482,142.186359 C222.439728,142.186359 217.320344,135.887264 217.320344,128.79904 C217.320344,119.875489 225.456757,109.638714 247.901141,109.638714 L247.909112,109.638714 C248.791902,109.642699 249.692627,109.666612 250.607301,109.704475 C250.969982,109.724402 251.324692,109.732373 251.703315,109.770236" id="Fill-9" fill="#24466E"></path>
                    </g>
                    <path d="M319.679928,232.170145 L319.909094,234.98192 L317.579565,233.385725 L317.57558,231.436812 L318.56,233.13663 L318.835,233.134638 L318.974493,232.895507 L317.98808,231.199674 L319.679928,232.170145 Z M317.523768,211.555109 L319.847319,209.948949 L319.632101,212.758732 L317.942246,213.739167 L318.920688,212.037355 L318.781196,211.798225 L318.504203,211.798225 L317.529746,213.506014 L317.523768,211.555109 Z M307.779203,233.407645 L305.453659,235.019783 L305.67087,232.208007 L307.360725,231.227572 L306.382283,232.927391 L306.519783,233.166522 L306.796775,233.166522 L307.773225,231.460725 L307.779203,233.407645 Z M305.621051,212.794601 L305.391884,209.984819 L307.723406,211.581014 L307.729384,213.529928 L306.742971,211.828116 L306.465978,211.828116 L306.328478,212.069239 L307.316884,213.767065 L305.621051,212.794601 Z M300.471775,222.750399 L302.432645,222.748406 L300.744783,223.726848 L298.196051,222.521232 L300.744783,221.297681 L302.434638,222.270145 L300.469783,222.27413 L300.332283,222.513261 L300.471775,222.750399 Z M324.829203,222.214348 L322.866341,222.220326 L324.556196,221.239891 L327.104928,222.443514 L324.554203,223.667065 L322.866341,222.696594 L324.831196,222.690616 L324.970688,222.451486 L324.829203,222.214348 Z M326.164348,228.154746 L327.69279,227.692428 L327.144783,225.892971 L322.744783,227.196232 L322.097138,226.004565 L323.047681,225.470507 L321.933732,223.461812 L325.197862,224.482101 L327.939891,223.057283 L327.937899,222.602935 L327.935906,221.829746 L325.187899,220.42087 L321.929746,221.459094 L323.029746,219.442428 L322.081196,218.914348 L322.72087,217.718696 L327.128841,219.002029 L327.666884,217.196594 L326.136449,216.744239 L328.049493,215.538623 L328.258732,213.420326 L326.315797,212.551486 L324.319058,213.615616 L324.683732,212.061268 L322.850399,211.636812 L321.78029,216.098587 L320.425217,216.062717 L320.437174,214.974674 L318.139529,214.932826 L320.654384,212.619239 L320.793877,209.532464 L320.397319,209.303297 L319.729746,208.916703 L317.133188,210.594601 L316.403841,213.936449 L315.210181,211.971594 L314.273587,212.531558 L313.558188,211.379746 L316.87413,208.203297 L315.580833,206.836268 L314.425036,207.936268 L314.335362,205.674493 L312.605652,204.435 L310.88192,205.682464 L310.804203,207.944239 L309.642428,206.850217 L308.355109,208.225217 L311.686993,211.383732 L310.979565,212.539529 L310.040978,211.985543 L308.857283,213.954384 L308.11,210.618514 L305.505471,208.954565 L305.110906,209.183732 L305.108913,209.183732 L304.443333,209.568333 L304.596775,212.655109 L307.123587,214.960725 L304.829928,215.012536 L304.84587,216.10058 L303.490797,216.14442 L302.396775,211.682645 L300.567428,212.121051 L300.93808,213.673406 L298.939348,212.619239 L297.000399,213.496051 L297.219601,215.614348 L299.13663,216.811993 L297.608188,217.272319 L298.158188,219.071775 L302.558188,217.768514 L303.203841,218.960181 L302.257283,219.496232 L303.367246,221.504928 L300.105109,220.484638 L297.36308,221.905471 L297.365072,222.361812 L297.36308,222.363804 L297.365072,223.135 L300.115072,224.54587 L303.371232,223.505652 L302.271232,225.522319 L303.221775,226.050399 L302.582101,227.246051 L298.172138,225.96471 L297.634094,227.768152 L299.166522,228.220507 L297.253478,229.426123 L297.044239,231.54442 L298.987174,232.413261 L300.98192,231.34913 L300.617246,232.905471 L302.45058,233.33192 L303.522681,228.866159 L304.877754,228.902029 L304.86779,229.990072 L307.163442,230.033913 L304.646594,232.3475 L304.509094,235.434275 L304.903659,235.661449 L305.573225,236.046051 L308.16779,234.370145 L308.89913,231.03029 L310.09279,232.991159 L311.027391,232.433188 L311.74279,233.586993 L308.428841,236.761449 L309.720145,238.128478 L310.877935,237.030471 L310.965616,239.290254 L312.695326,240.529746 L314.419058,239.282283 L314.494783,237.020507 L315.660543,238.112536 L316.94587,236.739529 L313.613986,233.581014 L314.323406,232.425217 L315.26,232.979203 L316.447681,231.012355 L317.192971,234.346232 L319.795507,236.010181 L320.18808,235.783007 L320.859638,235.39442 L320.704203,232.309638 L318.177391,230.006014 L320.471051,229.95221 L320.457101,228.866159 L321.812174,228.820326 L322.904203,233.278116 L324.737536,232.843696 L324.362899,231.291341 L326.363623,232.345507 L328.302572,231.468696 L328.085362,229.350399 L326.164348,228.154746 Z" id="Fill-12" fill="#FEFEFE"></path>
                </g>
            </g>
        </g>
    </g>
</svg>