<?xml version="1.0" encoding="UTF-8"?>
<svg width="592px" height="500px" viewBox="0 0 592 500" version="1.1" xmlns="http://www.w3.org/2000/svg" xmlns:xlink="http://www.w3.org/1999/xlink">
    <!-- Generator: Sketch 52.4 (67378) - http://www.bohemiancoding.com/sketch -->
    <title>Unplug_Day_8</title>
    <desc>Created with Sketch.</desc>
    <defs>
        <polygon id="path-1" points="0 1.63346014 318.849535 1.63346014 318.849535 206.041458 0 206.041458"></polygon>
    </defs>
    <g id="Desktop" stroke="none" stroke-width="1" fill="none" fill-rule="evenodd">
        <g id="Artboard" transform="translate(-522.000000, -259.000000)">
            <g id="Unplug_Day_8" transform="translate(522.000000, 259.000000)">
                <path d="M336.959731,456.112691 L333.875641,455.440682 L291.524253,436.30137 C287.756244,434.608426 286.065802,430.14991 287.756244,426.350478 C289.033754,423.571982 291.782336,421.930731 294.634151,421.930731 C295.640674,421.930731 296.698813,422.137503 297.679528,422.60274 L340.04382,441.742052 C343.824733,443.447919 345.502271,447.906436 343.811829,451.692944 C342.560127,454.484363 339.850258,456.112691 336.959731,456.112691 Z M466.02694,456.112691 C463.162221,456.112691 460.452352,454.484363 459.20065,451.692944 C457.4844,447.906436 459.174842,443.447919 462.955755,441.742052 L505.307143,422.60274 C506.300762,422.137503 507.345997,421.930731 508.378328,421.930731 C511.230143,421.930731 513.978725,423.571982 515.230427,426.350478 C516.933773,430.14991 515.256235,434.608426 511.475322,436.30137 L469.11103,455.440682 L466.02694,456.112691 Z M255.031345,192.271905 L251.353665,191.289739 C247.740506,189.286637 246.462996,184.685965 248.476042,181.067459 L268.219376,145.799948 C269.587215,143.33161 272.142235,141.935901 274.774679,141.935901 C276.013477,141.935901 277.278082,142.258982 278.452359,142.918067 C282.065518,144.947015 283.343028,149.508917 281.317078,153.15327 L261.586648,188.407857 C260.205905,190.889119 257.650885,192.271905 255.031345,192.271905 Z M547.981135,192.271905 C545.34869,192.271905 542.806574,190.889119 541.425831,188.407857 L521.656689,153.15327 C519.669451,149.508917 520.934057,144.947015 524.56012,142.918067 C525.721493,142.258982 526.986099,141.935901 528.224896,141.935901 C530.857341,141.935901 533.425264,143.33161 534.767295,145.799948 L554.523534,181.067459 C556.536579,184.685965 555.246165,189.286637 551.633006,191.289739 L547.981135,192.271905 Z M401.50624,133.923494 C412.38443,133.923494 422.372234,128.922202 428.927538,120.186095 C430.385705,118.221763 432.64393,117.174981 434.927963,117.174981 C436.502268,117.174981 438.076573,117.678987 439.405699,118.699922 C442.734967,121.194107 443.405983,125.885242 440.928388,129.206513 C431.482557,141.767899 417.146058,148.953218 401.50624,148.953218 C385.853518,148.953218 371.517018,141.767899 362.071187,129.206513 C359.593592,125.885242 360.251704,121.194107 363.580972,118.699922 C364.923002,117.678987 366.497307,117.174981 368.071613,117.174981 C370.355645,117.174981 372.61387,118.221763 374.072038,120.186095 C380.627341,128.922202 390.62805,133.923494 401.50624,133.923494 Z M371.233127,95.0762471 C364.768153,95.0762471 359.529072,89.81649 359.529072,83.3419488 C359.529072,76.8544844 364.768153,71.5947273 371.233127,71.5947273 C377.711005,71.5947273 382.96299,76.8544844 382.96299,83.3419488 C382.96299,89.81649 377.711005,95.0762471 371.233127,95.0762471 Z M431.766448,95.0762471 C425.275666,95.0762471 420.023681,89.81649 420.023681,83.3419488 C420.023681,76.8544844 425.275666,71.5947273 431.766448,71.5947273 C438.231423,71.5947273 443.483408,76.8544844 443.483408,83.3419488 C443.483408,89.81649 438.231423,95.0762471 431.766448,95.0762471 Z M345.799067,73.1584389 L343.966679,72.7319721 C341.811687,71.7239597 340.934206,69.1780822 341.940729,67.032825 C345.553888,59.4468855 351.760779,53.4375808 359.451647,50.1163091 C363.82615,48.2295167 368.484545,47.2861204 373.155844,47.2861204 C376.730291,47.2861204 380.291833,47.8418196 383.750143,48.9273714 C386.034176,49.6898423 387.234261,52.0935642 386.524533,54.3551305 C385.956751,56.1773068 384.2405,57.340398 382.421016,57.340398 C381.99518,57.340398 381.569343,57.2757819 381.143507,57.1336263 C378.53687,56.2936159 375.827001,55.8800724 373.14294,55.8800724 C369.620109,55.8800724 366.135992,56.5908503 362.85834,57.9994831 C357.103093,60.4936676 352.393082,65.0168002 349.683213,70.7288705 L345.799067,73.1584389 Z M420.565655,57.340398 C418.759075,57.340398 417.055729,56.1773068 416.462138,54.3551305 C415.75241,52.0935642 416.978304,49.6898423 419.236528,48.9273714 C422.694838,47.8418196 426.269285,47.2861204 429.830827,47.2861204 C434.527934,47.2861204 439.186329,48.2165934 443.535024,50.1163091 C451.225892,53.4375808 457.445687,59.4468855 461.071751,67.032825 C462.065369,69.1780822 461.174984,71.7239597 459.032896,72.7319721 L457.200509,73.1584389 L453.316362,70.7288705 C450.606493,65.0168002 445.92229,60.4936676 440.141235,57.9994831 C436.863584,56.5908503 433.366562,55.8800724 429.843731,55.8800724 C427.15967,55.8800724 424.462705,56.2936159 421.856069,57.1336263 C421.430232,57.2757819 421.004395,57.340398 420.565655,57.340398 Z M401.50624,0 C352.083383,0 311.874082,40.2558801 311.874082,89.7518739 C311.874082,117.226674 324.623373,143.202378 345.824875,160.118894 L279.523403,123.055053 C272.580975,119.139312 264.877204,117.149134 257.108911,117.149134 C252.902162,117.149134 248.682508,117.717757 244.540279,118.880848 C232.720087,122.240889 222.887132,129.994831 216.860898,140.73404 C204.46002,162.923236 212.383162,191.070044 234.53957,203.502197 L307.03503,244.313776 C307.989936,244.985784 316.326011,250.852934 316.184065,260.118894 C312.338631,297.815973 294.982563,353.864048 264.515888,426.738175 C253.45704,453.889894 266.541838,484.996123 293.679245,496.084259 C300.182931,498.746446 306.970509,500 313.616141,500 C334.598273,500 354.496457,487.490308 362.897052,466.838976 L399.338344,376.247092 L400.615854,375.471698 L402.383721,375.471698 L403.661231,376.247092 L440.128331,466.748514 C448.528926,487.412768 468.452919,499.948307 489.409242,499.948307 C496.054875,499.948307 502.816644,498.668907 509.333235,496.00672 C536.457737,484.918584 549.503823,453.851124 538.432071,426.634789 C508.017012,353.812355 490.660944,297.80305 486.81551,260.118894 C486.673565,250.801241 494.970927,244.985784 495.964546,244.313776 L568.472909,203.502197 C590.616414,191.070044 598.539556,162.923236 586.138677,140.73404 C577.699369,125.67847 562.007935,117.162057 545.864856,117.162057 C538.277221,117.162057 530.547641,119.061773 523.463268,123.055053 L457.1747,160.118894 C478.376203,143.202378 491.125493,117.226674 491.125493,89.7518739 C491.125493,40.2558801 450.916192,0 401.50624,0 Z" id="Fill-1" fill="#F2F1F2"></path>
                <g id="Group-15" transform="translate(0.000000, 71.000000)">
                    <path d="M0.719956951,133.403098 L34.5017865,133.57846 C62.3005668,133.719946 77.7211049,145.774112 78.615078,177.829547 L78.4159749,216.923388 C77.1914906,248.966866 61.6494996,260.861612 33.8507193,260.718134 L0.0688896861,260.544764 L0.719956951,133.403098 Z M24.4590242,239.188424 L32.9009973,239.230272 C46.2727641,239.300018 54.0517238,232.998931 54.1472933,213.980091 L54.320513,180.52375 C54.4121004,162.561069 48.4648897,155.132083 33.3330511,155.056359 L24.889087,155.012518 L24.4590242,239.188424 Z" id="Fill-1" fill="#CEAA79"></path>
                    <path d="M89.2645076,261.003496 L121.405727,134.023243 L152.547449,134.184656 L182.510481,261.481757 L159.287091,261.362192 L153.264221,234.565634 L119.659593,234.392264 L112.659126,261.123062 L89.2645076,261.003496 Z M124.165297,212.930308 L148.272705,213.055851 L136.746624,161.575054 L136.394212,161.573062 L124.165297,212.930308 Z" id="Fill-3" fill="#CEAA79"></path>
                    <polygon id="Fill-4" fill="#CEAA79" points="224.776095 185.800761 245.626176 134.660725 271.489674 134.794239 236.439557 210.337536 236.176741 261.756558 211.896113 261.633007 212.158929 210.213986 177.885315 134.313986 203.748813 134.4475"></polygon>
                    <g id="Group-14" transform="translate(0.000000, 0.360688)">
                        <path d="M400.970228,262.141359 C376.866802,262.017808 358.455735,249.244257 358.585152,224.06183 C358.65882,209.797699 363.642371,198.729946 377.217223,193.516902 C367.214282,188.357663 361.993797,176.883388 362.051537,165.789728 C362.170999,142.19154 379.646282,131.364909 401.641205,131.478496 C423.634138,131.592083 440.995932,142.596069 440.874479,166.194257 C440.816739,177.287917 435.480775,188.708388 425.426066,193.764004 C438.94517,199.114547 443.817223,210.236105 443.743555,224.500236 C443.614138,249.68067 425.073654,262.264909 400.970228,262.141359 M401.266891,204.03067 C389.477995,203.968895 381.874246,211.678859 381.812524,223.47596 C381.758766,234.394257 386.821959,241.99462 401.073761,242.068351 C415.325564,242.140091 420.466407,234.593533 420.520165,223.675236 C420.581887,211.876141 413.053797,204.090453 401.266891,204.03067 M401.539663,151.551504 C392.038461,151.503678 385.312757,158.864909 385.266963,167.84625 C385.22117,176.827591 392.394856,183.907844 401.370425,183.953678 C410.342013,183.999511 417.593349,176.992989 417.639143,168.013641 C417.684936,159.032301 411.038874,151.601322 401.539663,151.551504" id="Fill-5" fill="#CEAA79"></path>
                        <path d="M338.374192,235.718043 L338.115358,235.718043 L338.115358,213.528732 L338.089474,213.528732 C338.091465,213.427101 338.097439,213.325471 338.097439,213.221848 C338.097439,199.302464 326.824219,188.019493 312.918856,188.019493 C299.011501,188.019493 287.738282,199.302464 287.738282,213.221848 C287.738282,213.325471 287.744255,213.427101 287.746246,213.528732 L287.720362,213.528732 L287.720362,235.718043 L287.461528,235.718043 C285.627788,235.718043 284.128542,237.218587 284.128542,239.053913 L284.128542,250.153551 C284.128542,251.988877 285.627788,253.48942 287.461528,253.48942 L301.474407,253.48942 L301.474407,273.006449 L304.040847,273.006449 L304.040847,253.48942 L321.796865,253.48942 L321.796865,273.006449 L324.361313,273.006449 L324.361313,253.48942 L338.374192,253.48942 C340.207932,253.48942 341.707178,251.988877 341.707178,250.153551 L341.707178,239.053913 C341.707178,237.218587 340.207932,235.718043 338.374192,235.718043" id="Fill-7" fill="#24466E"></path>
                        <g id="Group-11">
                            <mask id="mask-2" fill="white">
                                <use xlink:href="#path-1"></use>
                            </mask>
                            <g id="Clip-10"></g>
                            <path d="M307.464226,129.400851 C302.976441,119.891431 297.228334,113.703931 284.951634,109.028931 C277.805822,106.308822 270.094558,104.919873 262.291706,104.254293 C264.362378,89.675308 265.803885,74.3649819 268.272764,62.7890761 C269.322038,60.557192 270.500728,57.1455978 270.500728,53.9970471 C270.500728,49.1407065 268.141356,44.6769384 260.404208,44.6769384 L259.878576,50.3204167 C258.042845,47.8274819 254.502791,45.8606341 249.523222,45.8606341 C239.582002,45.8606341 232.233105,59.7561051 230.263975,73.2809239 C227.815006,80.0682428 223.454648,86.4111775 219.365069,86.4111775 C216.087831,86.4111775 214.905159,82.8680616 214.905159,78.1432428 C214.905159,73.6814674 215.825015,68.1695109 217.003706,63.3131703 C218.315796,59.6405254 219.233661,56.3584601 219.233661,53.7340036 C219.233661,49.1407065 217.003706,46.2532065 210.184423,45.4660688 C203.367132,72.4997645 197.597123,86.2796558 193.400029,86.2796558 C191.303473,86.2796558 190.648423,83.9182428 190.648423,80.3751268 C190.648423,72.762808 194.188477,60.8202355 196.024208,54.9137138 C196.155616,54.3896196 196.287024,53.7340036 196.287024,53.3394384 C196.287024,48.3515761 188.810701,45.7291123 187.502594,45.7291123 L187.371186,45.7291123 C185.320423,50.3762138 181.406056,63.5622645 180.087993,75.1102717 C180.070074,75.1740399 180.040208,75.2138949 180.02428,75.2796558 C178.357787,82.2263949 171.871006,108.795779 165.81628,101.223315 C163.618181,96.4068297 162.720226,89.424221 162.720226,81.4233152 L162.720226,77.8801993 C176.488208,58.8513949 184.223365,31.8176993 184.223365,15.5448732 C184.223365,7.14541667 181.734576,1.63346014 176.360782,1.63346014 C163.11445,1.63346014 150.787975,49.6648007 150.003509,83.6551993 C144.759132,88.3800181 138.724316,91.6600906 132.16984,92.5807428 C137.810432,86.6722283 140.956262,76.3059239 140.956262,66.987808 C140.956262,64.3633514 140.822863,62.0019384 140.301213,59.6405254 C139.11854,53.8655254 131.907024,47.9590036 128.761195,47.9590036 C123.254002,47.9590036 119.188316,53.6024819 116.042486,60.4256703 L115.516854,60.2941486 C116.566127,54.7841848 117.482002,51.2410688 117.482002,51.1095471 C119.056908,47.9590036 119.711957,45.4660688 119.711957,43.3657065 C119.711957,36.4109964 113.026074,34.1791123 110.796118,34.1791123 C110.401894,34.1791123 110.139078,34.3106341 110.139078,34.4421558 C109.069894,46.3727717 106.495491,59.7142572 103.823526,72.649221 C103.779724,72.6472283 103.761804,72.6312862 103.716011,72.6312862 C103.716011,72.6312862 99.1286744,88.7725906 91.5209435,88.7725906 C87.8534637,88.7725906 86.6727821,84.9664312 86.6727821,79.7175181 C86.6727821,69.0881703 91.6523516,53.2079167 91.6523516,52.9468659 C91.6523516,50.0593659 86.541374,45.0715036 83.7857865,45.0715036 C79.7201004,45.0715036 70.4120287,57.6716848 64.3831857,73.1573732 C64.1203695,73.1573732 63.8575534,73.0258514 63.7261453,73.0258514 C65.2970691,62.6575543 66.8739659,53.0763949 66.8739659,51.765163 C66.8739659,44.8084601 63.3319211,40.6097283 56.1204054,41.9229529 C50.7426296,79.9805616 35.2743067,100.059547 35.2743067,78.2747645 C35.2743067,71.8441486 37.3708628,63.3131703 37.3708628,63.3131703 C39.5988269,56.8825543 42.8800466,46.3847283 30.5535713,45.4660688 C29.7651229,48.3515761 28.7158493,52.0262138 27.9293919,55.8343659 C23.2106475,73.2888949 17.0464143,86.2796558 13.7691767,86.2796558 C11.6726206,86.2796558 11.0155803,83.9182428 11.0155803,80.3751268 C11.0155803,72.762808 14.5556341,60.8202355 16.3933561,54.9137138 C16.5247641,54.3896196 16.6521901,53.7340036 16.6521901,53.3394384 C16.6521901,48.3515761 9.17984933,45.7291123 7.86576861,45.7291123 L7.73436054,45.7291123 C5.24358027,51.3705978 -0.000796412556,69.6122645 -0.000796412556,82.2124457 C-0.000796412556,89.9542935 2.49197489,96.2553804 9.17984933,96.2553804 C15.4715085,96.2553804 20.5864682,87.1983152 24.6501632,76.3059239 L24.9129794,76.3059239 C24.25793,87.5928804 26.3564771,96.9090036 35.4037238,96.9090036 C41.826791,96.9090036 49.9601543,87.329837 54.5474906,66.858279 L54.8103067,66.987808 C53.2334099,78.011721 51.2682619,87.9854529 51.2682619,91.1359964 C51.2682619,97.8296558 54.5474906,100.059547 57.8247283,100.059547 C58.7425937,100.059547 59.6624502,99.9280254 60.5763336,99.4039312 C61.4981812,84.1812862 75.2641722,58.0642572 81.1675803,52.5523007 L81.4264143,52.6838225 C79.4612664,57.0140761 75.3955803,70.2698732 75.3955803,80.3751268 C75.3955803,90.4783877 78.2805848,99.5354529 88.2476879,99.5354529 C93.0938583,99.5354529 97.2332126,95.1693297 100.23967,89.942337 C97.7807462,102.062264 95.8474547,112.96462 95.8474547,120.796141 C95.8474547,133.918424 103.190378,136.018786 107.387473,136.018786 C108.962378,136.018786 110.139078,135.624221 110.139078,135.624221 C108.962378,131.032917 108.568154,125.255924 108.568154,118.958822 C108.568154,105.834547 110.533302,90.0858152 112.631849,76.9635326 C116.43671,64.7579167 122.72837,53.3394384 127.449105,53.3394384 C129.414253,53.3394384 130.334109,56.6215036 130.334109,61.2148007 C130.334109,69.349221 127.054881,84.7053804 122.334145,91.0044746 C120.631813,90.0858152 119.056908,88.6430616 117.876226,86.80375 C117.876226,86.80375 114.859813,89.4301993 114.859813,93.104837 C114.859813,98.35375 121.41628,101.109728 126.923473,101.109728 C134.660621,101.109728 143.839275,97.0405254 150.003509,90.4783877 C150.52715,105.703025 154.985069,117.514076 163.902899,117.514076 C167.681876,117.514076 171.751544,114.341612 173.78837,111.091431 C175.184083,109.427482 176.39463,107.488533 177.396118,105.318424 C179.436926,100.900489 180.478235,96.0879891 181.290576,91.1977717 C182.70819,94.2626268 185.091455,96.2553804 188.810701,96.2553804 C194.974935,96.2553804 200.089894,87.1983152 204.15558,76.1744022 L204.549804,76.3059239 C204.549804,77.4876268 204.418396,78.6693297 204.418396,79.8490399 C204.418396,89.2986775 206.909177,96.9090036 214.905159,96.9090036 C221.742361,96.9090036 226.807544,90.2153442 229.86776,83.6133514 C230.600459,92.1981341 234.259975,99.0093659 242.04889,99.0093659 C248.866181,99.0093659 253.586917,89.69125 256.471921,80.2436051 L256.864154,80.3751268 C255.683473,89.2986775 254.375365,96.9090036 252.929876,103.602663 C251.619778,103.471141 250.178271,103.471141 248.997589,103.471141 C231.424746,103.471141 211.496513,109.246141 211.496513,124.73183 C211.496513,140.741612 231.030522,152.423134 239.42471,152.423134 C252.288764,152.423134 257.680477,133.858641 261.224513,112.06788 L261.397733,110.884185 C269.584854,112.312989 277.817769,114.947409 284.045715,118.823315 C292.76245,124.245598 296.869948,133.63346 299.553858,142.305924 C305.83158,162.604112 307.131724,182.400127 306.890809,203.334004 C306.848997,206.912989 318.769302,206.974764 318.811114,203.334004 C319.087867,179.23962 318.120226,151.97875 307.464226,129.400851 M177.274665,9.63835145 C178.063114,9.63835145 178.32593,11.0811051 178.32593,13.5740399 C178.32593,23.1551993 173.736603,48.7461413 163.243867,68.4325543 C165.473822,41.1338225 173.473787,9.63835145 177.274665,9.63835145 M244.276854,88.1169746 C241.786074,88.1169746 240.734809,85.3609964 240.734809,81.1622645 C240.734809,70.7939674 247.422683,52.0262138 254.112549,52.0262138 C257.648621,52.0262138 259.0961,53.3394384 259.617751,54.652663 L259.0961,60.0330978 C256.340513,74.7316486 250.046863,88.1169746 244.276854,88.1169746 M251.48837,109.770236 C245.194719,134.837083 237.328154,142.186359 229.459598,142.186359 C222.248083,142.186359 217.133123,135.887264 217.133123,128.79904 C217.133123,119.875489 225.264495,109.638714 247.6855,109.638714 C248.5735,109.642699 249.479419,109.666612 250.397284,109.704475 C250.757661,109.724402 251.112065,109.734366 251.48837,109.770236" id="Fill-9" fill="#24466E" mask="url(#mask-2)"></path>
                        </g>
                        <path d="M308.052775,232.421232 L307.823806,232.371413 L304.660057,230.942609 C304.377331,230.817065 304.251896,230.484275 304.379322,230.201304 C304.474891,229.994058 304.679968,229.870507 304.891017,229.870507 C304.968667,229.870507 305.046317,229.886449 305.119986,229.920326 L308.283735,231.34913 C308.566461,231.476667 308.691896,231.809457 308.56447,232.090435 C308.470891,232.299674 308.267806,232.421232 308.052775,232.421232 Z M317.689367,232.421232 C317.474335,232.421232 317.27125,232.299674 317.177672,232.090435 C317.050246,231.809457 317.175681,231.476667 317.458407,231.34913 L320.620165,229.920326 C320.695824,229.886449 320.773474,229.870507 320.849134,229.870507 C321.062174,229.870507 321.26725,229.994058 321.360829,230.201304 C321.488255,230.484275 321.36282,230.817065 321.082084,230.942609 L317.918335,232.371413 L317.689367,232.421232 Z M312.871071,223.555471 C312.243896,223.555471 311.734192,223.047319 311.734192,222.419601 C311.734192,221.791884 312.243896,221.281739 312.871071,221.281739 C313.498246,221.281739 314.005959,221.791884 314.005959,222.419601 C314.005959,223.047319 313.498246,223.555471 312.871071,223.555471 Z M312.871071,219.585906 C312.243896,219.585906 311.734192,219.075761 311.734192,218.448043 C311.734192,217.822319 312.243896,217.312174 312.871071,217.312174 C313.498246,217.312174 314.005959,217.822319 314.005959,218.448043 C314.005959,219.075761 313.498246,219.585906 312.871071,219.585906 Z M312.871071,215.614348 C312.243896,215.614348 311.734192,215.108188 311.734192,214.480471 C311.734192,213.850761 312.243896,213.342609 312.871071,213.342609 C313.498246,213.342609 314.005959,213.850761 314.005959,214.480471 C314.005959,215.108188 313.498246,215.614348 312.871071,215.614348 Z M301.936326,212.734819 L301.663555,212.66308 C301.392775,212.513623 301.297205,212.17087 301.446533,211.899855 L302.921887,209.26942 C303.02343,209.086087 303.212578,208.982464 303.40969,208.982464 C303.503268,208.982464 303.596847,209.004384 303.684452,209.054203 C303.955232,209.205652 304.048811,209.546413 303.899483,209.817428 L302.42612,212.447862 C302.322587,212.631196 302.131448,212.734819 301.936326,212.734819 Z M323.805815,212.734819 C323.610694,212.734819 323.419555,212.631196 323.316022,212.447862 L321.842658,209.817428 C321.693331,209.546413 321.786909,209.205652 322.05769,209.054203 C322.145295,209.004384 322.238874,208.982464 322.332452,208.982464 C322.527573,208.982464 322.718712,209.086087 322.820255,209.26942 L324.295609,211.899855 C324.444936,212.17087 324.349367,212.513623 324.078587,212.66308 L323.805815,212.734819 Z M312.871071,208.382645 C313.683412,208.382645 314.428057,208.01 314.917851,207.35837 C315.027358,207.210906 315.196596,207.135181 315.365833,207.135181 C315.483304,207.135181 315.600775,207.171051 315.702317,207.246775 C315.949205,207.434094 315.998981,207.784819 315.813815,208.03192 C315.10899,208.968514 314.037815,209.504565 312.871071,209.504565 C311.702335,209.504565 310.631161,208.968514 309.926335,208.03192 C309.74117,207.784819 309.790945,207.434094 310.039824,207.246775 C310.139376,207.171051 310.258838,207.135181 310.374317,207.135181 C310.545546,207.135181 310.714784,207.210906 310.824291,207.35837 C311.312093,208.01 312.05873,208.382645 312.871071,208.382645 Z M310.61125,205.485181 C310.129421,205.485181 309.737187,205.092609 309.737187,204.610362 C309.737187,204.126123 310.129421,203.733551 310.61125,203.733551 C311.095071,203.733551 311.487304,204.126123 311.487304,204.610362 C311.487304,205.092609 311.095071,205.485181 310.61125,205.485181 Z M315.1289,205.485181 C314.64508,205.485181 314.252847,205.092609 314.252847,204.610362 C314.252847,204.126123 314.64508,203.733551 315.1289,203.733551 C315.612721,203.733551 316.004954,204.126123 316.004954,204.610362 C316.004954,205.092609 315.612721,205.485181 315.1289,205.485181 Z M308.711806,203.84913 L308.576416,203.819239 C308.415143,203.743514 308.349439,203.55221 308.423107,203.39279 C308.693887,202.826848 309.157797,202.378478 309.733205,202.129384 C310.057743,201.989891 310.406174,201.920145 310.754604,201.920145 C311.021403,201.920145 311.288201,201.96 311.547035,202.041703 C311.714282,202.0975 311.805869,202.278841 311.754102,202.446232 C311.7103,202.581739 311.582874,202.66942 311.447483,202.66942 C311.415627,202.66942 311.38377,202.665435 311.349923,202.653478 C311.156793,202.591703 310.953708,202.559819 310.754604,202.559819 C310.491788,202.559819 310.230963,202.613623 309.986066,202.719239 C309.556004,202.904565 309.205582,203.243333 309.002497,203.66779 L308.711806,203.84913 Z M314.294658,202.66942 C314.159268,202.66942 314.031842,202.581739 313.988039,202.446232 C313.934282,202.278841 314.025869,202.0975 314.195107,202.041703 C314.45195,201.96 314.720739,201.920145 314.985546,201.920145 C315.335968,201.920145 315.684398,201.989891 316.008936,202.129384 C316.584344,202.378478 317.048255,202.826848 317.317044,203.39279 C317.392703,203.55221 317.326999,203.743514 317.165726,203.819239 L317.030335,203.84913 L316.737654,203.66779 C316.53656,203.243333 316.188129,202.904565 315.756075,202.719239 C315.511178,202.613623 315.250353,202.559819 314.987537,202.559819 C314.786443,202.559819 314.585349,202.591703 314.390228,202.653478 C314.358371,202.665435 314.326515,202.66942 314.294658,202.66942 Z M312.871071,198.390978 C309.18169,198.390978 306.179214,201.394058 306.179214,205.088623 C306.179214,207.137174 307.132918,209.076123 308.713797,210.337536 L303.766084,207.571594 C303.246425,207.280652 302.671017,207.131196 302.089636,207.131196 C301.777044,207.131196 301.462461,207.175036 301.153851,207.260725 C300.271824,207.511812 299.537134,208.08971 299.087161,208.890797 C298.161331,210.546775 298.752667,212.647138 300.407214,213.573768 L305.818838,216.618696 C305.890515,216.670507 306.511717,217.10692 306.501761,217.798406 C306.215053,220.612174 304.918891,224.792971 302.643143,230.229203 C301.818856,232.255833 302.796452,234.575399 304.821331,235.402391 C305.307143,235.601667 305.812865,235.695326 306.310622,235.695326 C307.875573,235.695326 309.360883,234.760725 309.990048,233.222319 L312.709797,226.462899 L312.805367,226.405109 L312.936775,226.405109 L313.032344,226.462899 L315.754084,233.214348 C316.381259,234.754746 317.86856,235.691341 319.43351,235.691341 C319.931268,235.691341 320.434999,235.597681 320.920811,235.398406 C322.94569,234.571413 323.921295,232.251848 323.095017,230.221232 C320.82325,224.788986 319.527089,220.610181 319.24038,217.798406 C319.228434,217.102935 319.849636,216.670507 319.923304,216.618696 L325.336918,213.573768 C326.989474,212.647138 327.580811,210.546775 326.65299,208.890797 C326.025815,207.766884 324.853098,207.133188 323.650515,207.133188 C323.08108,207.133188 322.505672,207.274674 321.976057,207.571594 L317.028344,210.337536 C318.609223,209.076123 319.562927,207.137174 319.562927,205.088623 C319.562927,201.394058 316.560452,198.390978 312.871071,198.390978 Z" id="Fill-12" fill="#FEFEFE"></path>
                    </g>
                </g>
            </g>
        </g>
    </g>
</svg>