<?xml version="1.0" encoding="UTF-8"?>
<svg width="662px" height="520px" viewBox="0 0 662 520" version="1.1" xmlns="http://www.w3.org/2000/svg" xmlns:xlink="http://www.w3.org/1999/xlink">
    <!-- Generator: Sketch 52.4 (67378) - http://www.bohemiancoding.com/sketch -->
    <title>Unplug_Day_7</title>
    <desc>Created with Sketch.</desc>
    <g id="Desktop" stroke="none" stroke-width="1" fill="none" fill-rule="evenodd">
        <g id="Artboard" transform="translate(-693.000000, -375.000000)">
            <g id="Unplug_Day_7" transform="translate(693.000000, 375.000000)">
                <g id="Group-9" transform="translate(227.000000, 0.000000)" fill="#F2F1F2">
                    <path d="M192.493933,164.012588 C204.068915,170.096588 192.812525,148.654235 209.330271,123.11 C225.831169,97.5657647 210.961521,74.1443529 201.448194,69.6738824 C204.804127,84.7447059 191.389585,93.1258824 184.115588,111.550706 C174.554778,135.801059 179.734954,157.307647 192.493933,164.012588" id="Fill-1"></path>
                    <path d="M155.607312,150.602094 C169.021854,146.691388 154.487646,118.782682 172.379319,92.5670353 C198.664653,54.0442118 171.820252,10.4728 151.385974,-0.000611764706 C155.031396,35.0458588 141.456026,29.7433882 119.51916,70.8386824 C97.5976109,111.933976 142.175921,154.514329 155.607312,150.602094" id="Fill-3"></path>
                    <path d="M367.017005,279.123459 C361.323713,279.123459 355.904593,280.050282 350.627921,281.374753 C350.580438,281.391576 350.56359,281.374753 350.516107,281.391576 C334.333801,285.638753 329.905685,278.629459 329.170474,265.458165 C329.570245,256.836871 329.856671,248.120753 329.856671,239.178282 C329.856671,198.0524 226.855104,189.684988 164.928871,189.684988 C103.002639,189.684988 -0.000459507042,198.0524 -0.000459507042,239.178282 C-0.000459507042,404.132988 69.8246989,519.754988 125.562903,519.754988 L139.505879,519.754988 L190.350333,519.754988 L204.293308,519.754988 C235.184435,519.754988 270.345914,484.153341 295.608079,424.425224 C310.653871,398.035224 319.992586,397.460165 336.44447,406.049341 C336.44447,406.049341 336.461319,406.049341 336.476636,406.064635 C345.685157,410.790518 355.968924,413.713224 367.017005,413.713224 C404.175808,413.713224 434.411371,383.522635 434.411371,346.417576 C434.411371,309.314047 404.175808,279.123459 367.017005,279.123459 M164.928871,272.066753 C157.797322,272.066753 151.209523,271.860282 144.63704,271.652282 C142.318062,273.983106 139.441548,278.660047 139.441548,287.712635 L139.441548,334.875106 L153.991072,334.875106 C159.108449,334.875106 163.280773,339.042753 163.280773,344.150988 L163.280773,412.116518 C163.280773,417.224753 159.108449,421.3924 153.991072,421.3924 L100.34822,421.3924 C95.2461602,421.3924 91.075368,417.224753 91.075368,412.116518 L91.075368,344.150988 C91.075368,339.042753 95.2461602,334.875106 100.34822,334.875106 L114.882428,334.875106 L114.882428,287.712635 C114.882428,280.958753 115.905597,275.148518 117.567481,270.199341 C71.5524454,266.446165 44.0815827,257.682635 37.510632,250.769694 C46.1126039,241.749224 90.1149982,229.487929 164.928871,229.487929 C239.758062,229.487929 283.743607,241.749224 292.345579,250.769694 C283.760456,259.805459 239.773379,272.066753 164.928871,272.066753 M367.017005,372.841224 C352.418467,372.841224 340.555526,360.995929 340.555526,346.417576 C340.555526,331.840753 352.418467,319.995459 367.017005,319.995459 C381.598695,319.995459 393.478484,331.840753 393.478484,346.417576 C393.478484,360.995929 381.598695,372.841224 367.017005,372.841224" id="Fill-6"></path>
                </g>
                <g id="Group-17" transform="translate(-0.000000, 90.000000)">
                    <path d="M0.718188406,133.403098 L34.5292391,133.57846 C62.3520652,133.719946 77.7879348,145.774112 78.6826812,177.829547 L78.4834058,216.923388 C77.2598551,248.966866 61.698442,260.861612 33.8776087,260.718134 L0.066557971,260.544764 L0.718188406,133.403098 Z M24.4797826,239.188424 L32.9310507,239.230272 C46.3143841,239.300018 54.096087,232.998931 54.1917391,213.980091 L54.3631159,180.52375 C54.4587681,162.561069 48.506413,155.132083 33.3614855,155.056359 L24.9122101,155.012518 L24.4797826,239.188424 Z" id="Fill-1" fill="#CEAA79"></path>
                    <path d="M89.341721,261.003496 L121.510743,134.023243 L152.679402,134.184656 L182.668351,261.481757 L159.424873,261.362192 L153.396793,234.565634 L119.763098,234.392264 L112.756576,261.123062 L89.341721,261.003496 Z M124.272699,212.930308 L148.40096,213.055851 L136.864909,161.575054 L136.512192,161.573062 L124.272699,212.930308 Z" id="Fill-3" fill="#CEAA79"></path>
                    <polygon id="Fill-4" fill="#CEAA79" points="224.970525 185.800761 245.838641 134.660725 271.724511 134.794239 236.644076 210.337536 236.381033 261.756558 212.079402 261.633007 212.342446 210.213986 178.039185 134.313986 203.925054 134.4475"></polygon>
                    <polygon id="Fill-5" fill="#CEAA79" points="358.200652 153.450598 414.025652 153.737554 378.255725 260.620888 403.613514 260.752409 438.544493 145.409837 438.608261 133.786105 358.302283 133.373605"></polygon>
                    <g id="Group-16" transform="translate(0.000000, 0.360688)">
                        <path d="M338.666486,235.718043 L338.407428,235.718043 L338.407428,213.528732 L338.381522,213.528732 C338.383514,213.427101 338.389493,213.325471 338.389493,213.221848 C338.389493,199.302464 327.106522,188.019493 313.18913,188.019493 C299.269746,188.019493 287.986775,199.302464 287.986775,213.221848 C287.986775,213.325471 287.992754,213.427101 287.994746,213.528732 L287.968841,213.528732 L287.968841,235.718043 L287.709783,235.718043 C285.874457,235.718043 284.373913,237.218587 284.373913,239.053913 L284.373913,250.153551 C284.373913,251.988877 285.874457,253.48942 287.709783,253.48942 L301.734783,253.48942 L301.734783,273.006449 L304.301449,273.006449 L304.301449,253.48942 L322.072826,253.48942 L322.072826,273.006449 L324.641486,273.006449 L324.641486,253.48942 L338.666486,253.48942 C340.501812,253.48942 342.002355,251.988877 342.002355,250.153551 L342.002355,239.053913 C342.002355,237.218587 340.501812,235.718043 338.666486,235.718043" id="Fill-6" fill="#24466E"></path>
                        <path d="M307.729583,129.400851 C303.237917,119.891431 297.482844,113.703931 285.197518,109.028931 C278.045525,106.308822 270.327591,104.919873 262.519982,104.254293 C264.590453,89.675308 266.033207,74.3649819 268.502228,62.7890761 C269.554402,60.557192 270.736105,57.1455978 270.736105,53.9970471 C270.736105,49.1407065 268.372699,44.6769384 260.628859,44.6769384 L260.102772,50.3204167 C258.267446,47.8274819 254.72433,45.8606341 249.736467,45.8606341 C239.790634,45.8606341 232.433388,59.7561051 230.464547,73.2809239 C228.011467,80.0682428 223.647337,86.4111775 219.554221,86.4111775 C216.270163,86.4111775 215.090453,82.8680616 215.090453,78.1432428 C215.090453,73.6814674 216.011105,68.1695109 217.192808,63.3131703 C218.50404,59.6405254 219.422699,56.3584601 219.422699,53.7340036 C219.422699,49.1407065 217.192808,46.2532065 210.365634,45.4660688 C203.542446,72.4997645 197.769438,86.2796558 193.566721,86.2796558 C191.468351,86.2796558 190.814728,83.9182428 190.814728,80.3751268 C190.814728,72.762808 194.357844,60.8202355 196.19317,54.9137138 C196.324692,54.3896196 196.456214,53.7340036 196.456214,53.3394384 C196.456214,48.3515761 188.975417,45.7291123 187.662192,45.7291123 L187.53067,45.7291123 C185.478134,50.374221 181.562373,63.5602717 180.24317,75.108279 C180.225236,75.1720471 180.195344,75.2119022 180.179402,75.2796558 C178.511467,82.2263949 172.019076,108.789801 165.961105,101.227301 C163.759112,96.4108152 162.86038,89.4262138 162.86038,81.4233152 L162.86038,77.8801993 C176.640272,58.8513949 184.38212,31.8176993 184.38212,15.5448732 C184.38212,7.14541667 181.891178,1.63346014 176.50875,1.63346014 C163.254946,1.63346014 150.917808,49.6648007 150.13067,83.6551993 C144.881757,88.3800181 138.843714,91.6600906 132.283569,92.5807428 C137.925054,86.6722283 141.077591,76.3059239 141.077591,66.987808 C141.077591,64.3633514 140.946069,62.0019384 140.419982,59.6405254 C139.238279,53.8655254 132.020525,47.9590036 128.871975,47.9590036 C123.358025,47.9590036 119.290815,53.6024819 116.140272,60.4256703 L115.616178,60.2941486 C116.666359,54.7841848 117.585018,51.2410688 117.585018,51.1095471 C119.159293,47.9590036 119.814909,45.4660688 119.814909,43.3657065 C119.814909,36.4109964 113.123243,34.1791123 110.893351,34.1791123 C110.498786,34.1791123 110.235743,34.3106341 110.235743,34.4421558 C109.163641,46.3727717 106.587011,59.7142572 103.912736,72.649221 C103.868895,72.6472283 103.85096,72.6312862 103.805127,72.6312862 C103.805127,72.6312862 99.2138225,88.7725906 91.5995109,88.7725906 C87.9288587,88.7725906 86.7471558,84.9664312 86.7471558,79.7175181 C86.7471558,69.0881703 91.7330254,53.2079167 91.7330254,52.9468659 C91.7330254,50.0593659 86.6156341,45.0715036 83.8596558,45.0715036 C79.7904529,45.0715036 70.472337,57.6716848 64.4362862,73.1573732 C64.1732428,73.1573732 63.912192,73.0258514 63.7806703,73.0258514 C65.3549457,62.6575543 66.929221,53.0763949 66.929221,51.765163 C66.929221,44.8084601 63.3861051,40.6097283 56.1683514,41.9229529 C50.7859239,79.9805616 35.3002355,100.059547 35.3002355,78.2747645 C35.3002355,71.8441486 37.4025906,63.3131703 37.4025906,63.3131703 C39.6324819,56.8825543 42.9125543,46.3847283 30.5774094,45.4660688 C29.7902717,48.3515761 28.7400906,52.0262138 27.9549457,55.8343659 C23.2261413,73.2888949 17.0605616,86.2796558 13.7784964,86.2796558 C11.6801268,86.2796558 11.0245109,83.9182428 11.0245109,80.3751268 C11.0245109,72.762808 14.5676268,60.8202355 16.4029529,54.9137138 C16.5344746,54.3896196 16.6659964,53.7340036 16.6659964,53.3394384 C16.6659964,48.3515761 9.18519928,45.7291123 7.87396739,45.7291123 L7.7404529,45.7291123 C5.24751812,51.3705978 0.000597826087,69.6122645 0.000597826087,82.2124457 C0.000597826087,89.9542935 2.49353261,96.2553804 9.18519928,96.2553804 C15.4862862,96.2553804 20.6056703,87.1983152 24.6708877,76.3059239 L24.9339312,76.3059239 C24.280308,87.5928804 26.3786775,96.9090036 35.4317572,96.9090036 C41.8643659,96.9090036 50.000779,87.329837 54.5920833,66.858279 L54.8551268,66.987808 C53.2788587,78.011721 51.3120109,87.9854529 51.3120109,91.1359964 C51.3120109,97.8296558 54.5920833,100.059547 57.8761413,100.059547 C58.792808,100.059547 59.7114674,99.9280254 60.6301268,99.4039312 C61.550779,84.1812862 75.3286775,58.0642572 81.2332065,52.5523007 L81.49625,52.6838225 C79.5294022,57.0140761 75.4601993,70.2698732 75.4601993,80.3751268 C75.4601993,90.4783877 78.3476993,99.5354529 88.3194384,99.5354529 C93.1737862,99.5354529 97.316721,95.167337 100.325779,89.942337 C97.8647283,102.062264 95.9297645,112.96462 95.9297645,120.796141 C95.9297645,133.918424 103.27904,136.018786 107.479764,136.018786 C109.05404,136.018786 110.235743,135.624221 110.235743,135.624221 C109.05404,131.032917 108.661467,125.255924 108.661467,118.958822 C108.661467,105.834547 110.630308,90.0858152 112.728678,76.9635326 C116.534837,64.7579167 122.835924,53.3394384 127.55875,53.3394384 C129.525598,53.3394384 130.444257,56.6215036 130.444257,61.2148007 C130.444257,69.349221 127.164185,84.7053804 122.439366,91.0044746 C120.735562,90.0858152 119.159293,88.6430616 117.979583,86.80375 C117.979583,86.80375 114.958569,89.4301993 114.958569,93.104837 C114.958569,98.35375 121.522699,101.109728 127.032663,101.109728 C134.776504,101.109728 143.963098,97.0405254 150.13067,90.4783877 C150.656757,105.703025 155.118533,117.514076 164.042083,117.514076 C167.82433,117.514076 171.901504,114.33962 173.938098,111.089438 C175.335018,109.425489 176.546612,107.488533 177.548967,105.318424 C179.59154,100.900489 180.63375,96.0859964 181.446793,91.195779 C182.865634,94.2626268 185.25096,96.2553804 188.975417,96.2553804 C195.142989,96.2553804 200.262373,87.1983152 204.329583,76.1744022 L204.724149,76.3059239 C204.724149,77.4876268 204.592627,78.6693297 204.592627,79.8490399 C204.592627,89.2986775 207.085562,96.9090036 215.090453,96.9090036 C221.935562,96.9090036 227.003134,90.2133514 230.065996,83.6093659 C230.797337,92.1961413 234.460018,99.0093659 242.25567,99.0093659 C249.080851,99.0093659 253.80567,89.69125 256.691178,80.2436051 L257.085743,80.3751268 C255.90404,89.2986775 254.590815,96.9090036 253.148062,103.602663 C251.834837,103.471141 250.394076,103.471141 249.212373,103.471141 C231.626322,103.471141 211.678859,109.246141 211.678859,124.73183 C211.678859,140.741612 231.231757,152.423134 239.629221,152.423134 C252.52433,152.423134 257.918714,133.808822 261.46183,111.978207 L261.623243,110.884185 C269.817446,112.312989 278.057482,114.947409 284.290815,118.823315 C293.015091,124.245598 297.126141,133.63346 299.812373,142.305924 C306.095525,162.604112 307.396793,182.400127 307.15567,203.334004 C307.113822,206.912989 319.044438,206.974764 319.086286,203.334004 C319.363279,179.23962 318.392808,151.97875 307.729583,129.400851 M177.427409,9.63835145 C178.21654,9.63835145 178.477591,11.0811051 178.477591,13.5740399 C178.477591,23.1551993 173.884293,48.7461413 163.386467,68.4325543 C165.616359,41.1338225 173.62125,9.63835145 177.427409,9.63835145 M244.485562,88.1169746 C241.99462,88.1169746 240.942446,85.3609964 240.942446,81.1622645 C240.942446,70.7939674 247.636105,52.0262138 254.329764,52.0262138 C257.87288,52.0262138 259.315634,53.3394384 259.841721,54.652663 L259.315634,60.0330978 C256.559656,74.7316486 250.262554,88.1169746 244.485562,88.1169746 M251.703315,109.770236 C245.406214,134.837083 237.530851,142.186359 229.657482,142.186359 C222.439728,142.186359 217.320344,135.887264 217.320344,128.79904 C217.320344,119.875489 225.456757,109.640707 247.899149,109.638714 C248.785924,109.642699 249.692627,109.666612 250.611286,109.704475 C250.973967,109.724402 251.328678,109.734366 251.703315,109.770236" id="Fill-8" fill="#24466E"></path>
                        <path d="M313.860888,202.550652 C314.107989,203.664601 313.119583,204.282355 312.583533,205.643406 C311.878098,207.434891 312.260707,209.023116 313.201286,209.517319 C313.298931,209.56913 313.376649,209.595036 313.436431,209.595036 C313.888786,209.595036 313.366685,208.164239 314.440779,206.498297 C315.658351,204.611159 314.562337,202.881449 313.860888,202.550652" id="Fill-10" fill="#FEFEFE"></path>
                        <path d="M310.16971,197.406957 C310.438732,199.995543 309.43837,199.602971 307.820254,202.637935 C306.273877,205.54337 309.217174,208.544457 310.341087,208.544457 C310.390906,208.544457 310.438732,208.538478 310.48058,208.526522 C311.470978,208.237572 310.398877,206.179058 311.71808,204.242101 C313.655036,201.396449 311.676232,198.180145 310.16971,197.406957" id="Fill-12" fill="#FEFEFE"></path>
                        <path d="M326.068297,224.937047 C324.99221,224.937047 324.117391,224.062228 324.117391,222.986141 C324.117391,221.910054 324.99221,221.035236 326.068297,221.035236 C327.144384,221.035236 328.019203,221.910054 328.019203,222.986141 C328.019203,224.062228 327.144384,224.937047 326.068297,224.937047 Z M306.40779,228.522011 C306.031159,228.522011 305.724275,228.215127 305.724275,227.836504 L305.724275,222.81875 C305.724275,222.44212 306.031159,222.135236 306.40779,222.135236 L307.477899,222.135236 L307.477899,218.649909 C307.477899,218.151721 307.553623,217.723279 307.677174,217.358605 C304.283514,217.07962 302.258877,216.433967 301.774638,215.923822 C302.408333,215.25625 305.652536,214.35154 311.168478,214.35154 C316.686413,214.35154 319.928623,215.25625 320.562319,215.923822 C319.930616,216.591395 316.686413,217.496105 311.168478,217.496105 C310.642391,217.496105 310.158152,217.480163 309.67192,217.466214 C309.502536,217.637591 309.289312,217.982337 309.289312,218.649909 L309.289312,222.135236 L310.361413,222.135236 C310.740036,222.135236 311.04692,222.44212 311.04692,222.81875 L311.04692,227.836504 C311.04692,228.215127 310.740036,228.522011 310.361413,228.522011 L306.40779,228.522011 Z M311.168478,211.412228 C306.60308,211.412228 299.008696,212.031975 299.008696,215.066938 C299.008696,227.246649 304.155978,235.785598 308.267029,235.785598 L309.293297,235.785598 L313.041667,235.785598 L314.07192,235.785598 C316.347645,235.785598 318.940217,233.157156 320.803442,228.745199 C321.518841,227.487772 322.058877,227.025453 322.678623,227.025453 C323.019384,227.025453 323.384058,227.164946 323.814493,227.388134 L323.816486,227.388134 C324.496014,227.738859 325.253261,227.954076 326.068297,227.954076 C328.806341,227.954076 331.036232,225.726178 331.036232,222.986141 C331.036232,220.246105 328.806341,218.016214 326.068297,218.016214 C325.647826,218.016214 325.249275,218.083967 324.860688,218.183605 L324.850725,218.183605 C324.61558,218.24538 324.414312,218.275272 324.240942,218.275272 C323.541486,218.275272 323.322283,217.78904 323.278442,217.00788 C323.306341,216.370199 323.328261,215.728533 323.328261,215.066938 C323.328261,212.031975 315.733877,211.412228 311.168478,211.412228 Z" id="Fill-14" fill="#FEFEFE"></path>
                    </g>
                </g>
            </g>
        </g>
    </g>
</svg>