<?xml version="1.0" encoding="UTF-8"?>
<svg width="649px" height="496px" viewBox="0 0 649 496" version="1.1" xmlns="http://www.w3.org/2000/svg" xmlns:xlink="http://www.w3.org/1999/xlink">
    <!-- Generator: Sketch 52.4 (67378) - http://www.bohemiancoding.com/sketch -->
    <title>Unplug_Day_1</title>
    <desc>Created with Sketch.</desc>
    <defs>
        <polygon id="path-1" points="1.45550725 1.95210145 43.3543478 1.95210145 43.3543478 130.923116 1.45550725 130.923116"></polygon>
        <polygon id="path-3" points="0.000398550725 1.63206522 319.124501 1.63206522 319.124501 206.041106 0.000398550725 206.041106"></polygon>
    </defs>
    <g id="Desktop" stroke="none" stroke-width="1" fill="none" fill-rule="evenodd">
        <g id="Artboard" transform="translate(-631.000000, -132.000000)">
            <g id="Unplug_Day_1" transform="translate(631.000000, 132.000000)">
                <g id="Group-11" transform="translate(115.000000, 0.000000)" fill="#F2F1F2">
                    <polygon id="Fill-4" points="233.909867 496 300.695467 496 300.695467 116.857143 233.909867 116.857143"></polygon>
                    <path d="M57.9625067,49.2821429 L66.14544,26.3892857 C79.2953067,24.9607143 116.63664,24.4607143 189.10384,48.3178571 C237.057973,64.1392857 257.747573,85.5678571 258.212107,86.0678571 C258.390773,86.2821429 258.605173,86.425 258.819573,86.6035714 C258.855307,86.6392857 258.89104,86.675 258.926773,86.7107143 C258.99824,86.7821429 259.069707,86.8178571 259.141173,86.8892857 C259.677173,87.3535714 260.213173,87.7821429 260.784907,88.1392857 C260.892107,88.2107143 261.03504,88.2821429 261.14224,88.3535714 C261.713973,88.675 262.32144,88.9607143 262.96464,89.2107143 C263.07184,89.2464286 263.214773,89.2821429 263.321973,89.3178571 C263.965173,89.5321429 264.608373,89.7107143 265.251573,89.8178571 C265.394507,89.8535714 265.501707,89.8535714 265.608907,89.8535714 C266.28784,89.9607143 266.966773,89.9964286 267.609973,89.9964286 C267.752907,89.9964286 267.860107,89.9607143 267.967307,89.9607143 C268.64624,89.925 269.28944,89.8535714 269.93264,89.7107143 C270.075573,89.675 270.218507,89.6392857 270.36144,89.6035714 C270.968907,89.4607143 271.576373,89.2464286 272.148107,88.9964286 C272.326773,88.925 272.541173,88.8178571 272.71984,88.7107143 C273.220107,88.4964286 273.68464,88.2107143 274.184907,87.8892857 C274.43504,87.7464286 274.685173,87.5321429 274.935307,87.3535714 C275.149707,87.1392857 275.435573,86.9964286 275.649973,86.8178571 C275.792907,86.675 275.900107,86.5321429 276.007307,86.3892857 C276.114507,86.2821429 276.25744,86.2107143 276.36464,86.0678571 C276.57904,85.8535714 297.197173,64.2464286 345.50864,48.3178571 C418.154507,24.3892857 455.49584,24.9607143 468.431307,26.3535714 L476.61424,49.2821429 C482.224373,48.9964286 487.477173,48.8535714 492.05104,48.8535714 C495.945973,48.8535714 499.44784,48.925 502.806773,49.0678571 L489.335307,11.3535714 C488.048907,7.74642857 485.19024,4.96071429 481.54544,3.74642857 C477.47184,2.38928571 438.77264,-8.46785714 337.754507,24.8535714 C301.306507,36.8892857 278.72304,51.9964286 267.288373,61.1392857 C255.88944,51.9964286 233.305973,36.8892857 196.857973,24.8535714 C95.8041067,-8.46785714 57.1049067,2.38928571 53.0313067,3.74642857 C49.42224,4.96071429 46.5635733,7.74642857 45.2771733,11.3535714 L31.7699733,49.0678571 C35.1289067,48.925 38.6665067,48.8535714 42.56144,48.8535714 C47.0995733,48.8535714 52.3523733,48.9964286 57.9625067,49.2821429" id="Fill-1"></path>
                    <path d="M50.02256,61.4892857 C27.4390933,61.4892857 14.8252267,64.3107143 13.46736,64.6321429 C6.17776,66.3821429 0.996426667,72.8821429 0.996426667,80.4178571 L0.996426667,422.739286 C0.996426667,427.239286 2.89029333,431.560714 6.21349333,434.596429 C9.53669333,437.667857 13.9676267,439.203571 18.50576,438.882143 C18.82736,438.846429 21.6502933,438.667857 26.86736,438.667857 C41.87536,438.667857 83.68336,440.382143 147.57456,456.132143 C172.12336,462.203571 186.952693,472.739286 201.28176,482.882143 C206.64176,486.703571 211.751627,490.310714 217.25456,493.667857 C217.290293,493.667857 217.36176,493.703571 217.397493,493.703571 L217.397493,108.525 C201.246027,98.5964286 176.94736,84.8107143 158.044427,79.0607143 C110.26896,64.525 72.9276267,61.4892857 50.02256,61.4892857" id="Fill-5"></path>
                    <path d="M521.11296,64.6428571 C519.755093,64.3214286 507.141227,61.5 484.55776,61.5 C461.652693,61.5 424.347093,64.5357143 376.571627,79.0714286 C356.703893,85.1071429 333.012693,98.5714286 317.182827,108.357143 L317.182827,493.75 C317.182827,493.75 317.182827,493.75 317.21856,493.714286 C322.79296,490.428571 328.117227,486.714286 333.72736,482.821429 C348.592427,472.5 363.922027,461.857143 387.00576,456.142857 C450.932693,440.357143 492.70496,438.678571 507.71296,438.678571 C512.930027,438.678571 515.75296,438.857143 516.038827,438.892857 C520.57696,439.214286 525.043627,437.714286 528.366827,434.642857 C531.690027,431.571429 533.583893,427.25 533.583893,422.714286 L533.583893,80.3928571 C533.583893,72.8928571 528.438293,66.3571429 521.11296,64.6428571" id="Fill-8"></path>
                </g>
                <g id="day-1" transform="translate(0.000000, 81.000000)">
                    <path d="M0.719384058,133.403696 L34.5304348,133.579058 C62.3552536,133.720543 77.7871377,145.77471 78.6838768,177.830145 L78.4826087,216.921993 C77.259058,248.969457 61.7016304,260.86221 33.8788043,260.718732 L0.0677536232,260.545362 L0.719384058,133.403696 Z M24.4789855,239.189022 L32.9302536,239.23087 C46.313587,239.300616 54.0972826,232.999529 54.1949275,213.982681 L54.3663043,180.524348 C54.457971,162.561667 48.5076087,155.134674 33.3626812,155.054964 L24.911413,155.015109 L24.4789855,239.189022 Z" id="Fill-1" fill="#CEAA79"></path>
                    <path d="M89.3411232,261.0025 L121.510145,134.024239 L152.678804,134.183659 L182.667754,261.482754 L159.424275,261.363188 L153.396196,234.56663 L119.764493,234.393261 L112.755978,261.122065 L89.3411232,261.0025 Z M124.272101,212.931304 L148.400362,213.056848 L136.864312,161.576051 L136.513587,161.576051 L124.272101,212.931304 Z" id="Fill-3" fill="#CEAA79"></path>
                    <polygon id="Fill-4" fill="#CEAA79" points="224.969728 185.802754 245.837844 134.662717 271.723714 134.796232 236.643279 210.339529 236.380236 261.756558 212.078605 261.631014 212.341649 210.213986 178.038388 134.315978 203.924257 134.4475"></polygon>
                    <g id="Group-15" transform="translate(0.000000, 0.360688)">
                        <g id="Group-7" transform="translate(356.702899, 129.528986)">
                            <mask id="mask-2" fill="white">
                                <use xlink:href="#path-1"></use>
                            </mask>
                            <g id="Clip-6"></g>
                            <path d="M21.0024275,33.6069928 L1.45550725,33.5093478 L1.52923913,19.5939493 C20.2113043,15.9950362 23.4136594,9.67202899 29.4417391,1.95210145 L43.3551449,2.02384058 L42.691558,130.923116 L20.5022464,130.811522 L21.0024275,33.6069928 Z" id="Fill-5" fill="#CEAA79" mask="url(#mask-2)"></path>
                        </g>
                        <path d="M338.665688,235.718043 L338.40663,235.718043 L338.40663,213.528732 L338.380725,213.528732 C338.382717,213.427101 338.388696,213.325471 338.388696,213.221848 C338.388696,199.302464 327.105725,188.019493 313.188333,188.019493 C299.268949,188.019493 287.985978,199.302464 287.985978,213.221848 C287.985978,213.325471 287.991957,213.427101 287.993949,213.528732 L287.970036,213.528732 L287.970036,235.718043 L287.708986,235.718043 C285.873659,235.718043 284.373116,237.218587 284.373116,239.053913 L284.373116,250.153551 C284.373116,251.988877 285.873659,253.48942 287.708986,253.48942 L301.733986,253.48942 L301.733986,273.006449 L304.302645,273.006449 L304.302645,253.48942 L322.072029,253.48942 L322.072029,273.006449 L324.640688,273.006449 L324.640688,253.48942 L338.665688,253.48942 C340.501014,253.48942 342.001558,251.988877 342.001558,250.153551 L342.001558,239.053913 C342.001558,237.218587 340.501014,235.718043 338.665688,235.718043" id="Fill-8" fill="#24466E"></path>
                        <g id="Group-12">
                            <mask id="mask-4" fill="white">
                                <use xlink:href="#path-3"></use>
                            </mask>
                            <g id="Clip-11"></g>
                            <path d="M307.729384,129.40125 C303.237717,119.89183 297.482645,113.70433 285.197319,109.02933 C278.045326,106.309221 270.327391,104.920272 262.51779,104.254692 C264.590254,89.6757065 266.031014,74.3653804 268.500036,62.7874819 C269.554203,60.5575906 270.733913,57.1459964 270.733913,53.9974457 C270.733913,49.1411051 268.3725,44.677337 260.628659,44.677337 L260.102572,50.322808 C258.265254,47.8278804 254.722138,45.8610326 249.734275,45.8610326 C239.788442,45.8610326 232.433188,59.7565036 230.462355,73.2833152 C228.011268,80.0686413 223.647138,86.4115761 219.554022,86.4115761 C216.269964,86.4115761 215.090254,82.8684601 215.090254,78.1436413 C215.090254,73.6798732 216.010906,68.1699094 217.190616,63.3135688 C218.503841,59.6389312 219.4225,56.3588587 219.4225,53.7344022 C219.4225,49.1411051 217.190616,46.2536051 210.365435,45.4664674 C203.542246,72.500163 197.767246,86.2800543 193.566522,86.2800543 C191.468152,86.2800543 190.812536,83.9186413 190.812536,80.3755254 C190.812536,72.7632065 194.355652,60.8206341 196.192971,54.9141123 C196.324493,54.3880254 196.456014,53.7344022 196.456014,53.339837 C196.456014,48.3519746 188.973225,45.7295109 187.661993,45.7295109 L187.530471,45.7295109 C185.475942,50.3766123 181.562174,63.562663 180.242971,75.1106703 C180.225036,75.1744384 180.195145,75.2142935 180.179203,75.2820471 C178.511268,82.2267935 172.018877,108.792192 165.960906,101.227699 C163.758913,96.409221 162.860181,89.4266123 162.860181,81.4257065 L162.860181,77.8805978 C176.640072,58.8537862 184.38192,31.8161051 184.38192,15.5452717 C184.38192,7.14581522 181.890978,1.63186594 176.508551,1.63186594 C163.254746,1.63186594 150.917609,49.6651993 150.130471,83.6555978 C144.879565,88.3804167 138.843514,91.6604891 132.28337,92.5811413 C137.924855,86.6726268 141.077391,76.3063225 141.077391,66.9882065 C141.077391,64.36375 140.94587,62.0003442 140.419783,59.6389312 C139.23808,53.8659239 132.020326,47.9594022 128.871775,47.9594022 C123.357826,47.9594022 119.290616,53.6028804 116.140072,60.4260688 L115.615978,60.2945471 C116.666159,54.7825906 117.584819,51.2394746 117.584819,51.1079529 C119.159094,47.9594022 119.81471,45.4664674 119.81471,43.3680978 C119.81471,36.4094022 113.123043,34.1795109 110.891159,34.1795109 C110.496594,34.1795109 110.233551,34.3110326 110.233551,34.4425543 C109.165435,46.3731703 106.586812,59.7146558 103.912536,72.6496196 C103.870688,72.6476268 103.850761,72.6316848 103.804928,72.6316848 C103.804928,72.6316848 99.2136232,88.7749819 91.5993116,88.7749819 C87.9286594,88.7749819 86.7469565,84.9688225 86.7469565,79.7179167 C86.7469565,69.0885688 91.7328261,53.2083152 91.7328261,52.9472645 C91.7328261,50.0597645 86.6154348,45.0719022 83.8594565,45.0719022 C79.7902536,45.0719022 70.4721377,57.6720833 64.436087,73.1577717 C64.1730435,73.1577717 63.9119928,73.02625 63.780471,73.02625 C65.3527536,62.6599457 66.9290217,53.0767935 66.9290217,51.7655616 C66.9290217,44.8088587 63.3859058,40.6101268 56.1681522,41.9233514 C50.7857246,79.9809601 35.302029,100.057953 35.302029,78.2731703 C35.302029,71.8445471 37.4023913,63.3135688 37.4023913,63.3135688 C39.6322826,56.8829529 42.9143478,46.3851268 30.5772101,45.4664674 C29.7900725,48.3519746 28.7398913,52.0266123 27.9547464,55.8327717 C23.2279348,73.2892935 17.0603623,86.2800543 13.7802899,86.2800543 C11.6799275,86.2800543 11.0243116,83.9186413 11.0243116,80.3755254 C11.0243116,72.7632065 14.5674275,60.8206341 16.4047464,54.9141123 C16.5362681,54.3880254 16.6657971,53.7344022 16.6657971,53.339837 C16.6657971,48.3519746 9.18699275,45.7295109 7.87376812,45.7295109 L7.74224638,45.7295109 C5.24931159,51.3709964 0.000398550725,69.6146558 0.000398550725,82.2108514 C0.000398550725,89.954692 2.49333333,96.255779 9.18699275,96.255779 C15.486087,96.255779 20.605471,87.1987138 24.6726812,76.3063225 L24.9357246,76.3063225 C24.2801087,87.593279 26.3784783,96.9094022 35.4335507,96.9094022 C41.8641667,96.9094022 50.0005797,87.3302355 54.5918841,66.8566848 L54.8549275,66.9882065 C53.2806522,78.0121196 51.3118116,87.9858514 51.3118116,91.1363949 C51.3118116,97.8280616 54.5918841,100.057953 57.875942,100.057953 C58.7926087,100.057953 59.7112681,99.9264312 60.6299275,99.4043297 C61.5505797,84.1816848 75.3284783,58.062663 81.2330072,52.5526993 L81.4960507,52.684221 C79.5292029,57.0144746 75.46,70.268279 75.46,80.3755254 C75.46,90.4787862 78.3475,99.5358514 88.3192391,99.5358514 C93.173587,99.5358514 97.3165217,95.1697283 100.32558,89.9427355 C97.864529,102.062663 95.9295652,112.963025 95.9295652,120.794547 C95.9295652,133.918822 103.278841,136.017192 107.479565,136.017192 C109.053841,136.017192 110.233551,135.62462 110.233551,135.62462 C109.053841,131.033315 108.661268,125.256322 108.661268,118.959221 C108.661268,105.834946 110.630109,90.0862138 112.728478,76.9639312 C116.534638,64.7583152 122.833732,53.339837 127.558551,53.339837 C129.525399,53.339837 130.444058,56.6219022 130.444058,61.2151993 C130.444058,69.3516123 127.163986,84.705779 122.439167,91.0048732 C120.735362,90.0862138 119.159094,88.6434601 117.979384,86.8041486 C117.979384,86.8041486 114.95837,89.4286051 114.95837,93.1032428 C114.95837,98.3541486 121.5225,101.108134 127.032464,101.108134 C134.776304,101.108134 143.962899,97.0409239 150.130471,90.4787862 C150.656558,105.703424 155.118333,117.514475 164.039891,117.514475 C167.82413,117.514475 171.899312,114.342011 173.937899,111.09183 C175.334819,109.42788 176.54442,107.490924 177.548768,105.318822 C179.591341,100.900888 180.633551,96.0883877 181.446594,91.1981703 C182.865435,94.2630254 185.250761,96.255779 188.973225,96.255779 C195.14279,96.255779 200.262174,87.1987138 204.327391,76.1748007 L204.723949,76.3063225 C204.723949,77.4860326 204.590435,78.6677355 204.590435,79.8494384 C204.590435,89.2970833 207.085362,96.9094022 215.090254,96.9094022 C221.935362,96.9094022 227.002935,90.21375 230.065797,83.6117572 C230.79913,92.1965399 234.459819,99.0097645 242.253478,99.0097645 C249.080652,99.0097645 253.803478,89.6916486 256.688986,80.2440036 L257.083551,80.3755254 C255.903841,89.2970833 254.590616,96.9094022 253.14587,103.601069 C251.834638,103.469547 250.393877,103.469547 249.212174,103.469547 C231.62413,103.469547 211.678659,109.24654 211.678659,124.732228 C211.678659,140.742011 231.229565,152.423533 239.629022,152.423533 C252.528116,152.423533 257.920507,133.799257 261.463623,111.962663 L261.623043,110.884583 C269.817246,112.313388 278.057283,114.947808 284.290616,118.823714 C293.014891,124.245996 297.125942,133.633859 299.812174,142.306322 C306.095326,162.604511 307.394601,182.400525 307.153478,203.334402 C307.113623,206.913388 319.044239,206.97317 319.086087,203.334402 C319.36308,179.240018 318.392609,151.979149 307.729384,129.40125 M177.42721,9.63875 C178.216341,9.63875 178.475399,11.0815036 178.475399,13.5744384 C178.475399,23.1555978 173.884094,48.7465399 163.386268,68.4329529 C165.616159,41.134221 173.621051,9.63875 177.42721,9.63875 M244.485362,88.1173732 C241.99442,88.1173732 240.942246,85.3633877 240.942246,81.1606703 C240.942246,70.7943659 247.635906,52.0266123 254.327572,52.0266123 C257.870688,52.0266123 259.315435,53.339837 259.841522,54.6510688 L259.315435,60.0334964 C256.559457,74.7300543 250.260362,88.1173732 244.485362,88.1173732 M251.703116,109.770634 C245.406014,134.835489 237.528659,142.184764 229.657283,142.184764 C222.439529,142.184764 217.320145,135.88567 217.320145,128.799438 C217.320145,119.879873 225.45058,109.647083 247.875036,109.639112 C248.781739,109.643098 249.706377,109.667011 250.644964,109.706866 C250.995688,109.724801 251.338442,109.732772 251.703116,109.770634" id="Fill-10" fill="#24466E" mask="url(#mask-4)"></path>
                        </g>
                        <path d="M301.624185,209.014149 L302.080525,207.736793 C302.813859,207.657083 304.896286,207.629185 308.937591,208.960344 C311.611866,209.843134 312.76567,211.038786 312.791576,211.066685 C312.80154,211.078641 312.813496,211.086612 312.825453,211.096576 C312.827446,211.098569 312.829438,211.100562 312.831431,211.102554 C312.835417,211.10654 312.839402,211.108533 312.843388,211.112518 C312.873279,211.138424 312.90317,211.162337 312.935054,211.182264 C312.941033,211.18625 312.949004,211.190236 312.954982,211.194221 C312.986866,211.212156 313.020743,211.228098 313.056612,211.242047 C313.062591,211.24404 313.070562,211.246033 313.07654,211.248025 C313.112409,211.259982 313.148279,211.269946 313.184149,211.275924 C313.19212,211.277917 313.198098,211.277917 313.204076,211.277917 C313.241938,211.283895 313.279801,211.285888 313.31567,211.285888 C313.323641,211.285888 313.32962,211.283895 313.335598,211.283895 C313.37346,211.281902 313.40933,211.277917 313.445199,211.269946 C313.45317,211.267953 313.461141,211.26596 313.469112,211.263967 C313.502989,211.255996 313.536866,211.24404 313.56875,211.230091 C313.578714,211.226105 313.59067,211.220127 313.600634,211.214149 C313.628533,211.202192 313.654438,211.18625 313.682337,211.168315 C313.696286,211.160344 313.710236,211.148388 313.724185,211.138424 C313.736141,211.126467 313.752083,211.118496 313.76404,211.108533 C313.772011,211.100562 313.777989,211.092591 313.783967,211.08462 C313.789946,211.078641 313.797917,211.074656 313.803895,211.066685 C313.815851,211.054728 314.96567,209.849112 317.659873,208.960344 C321.711141,207.625199 323.793569,207.657083 324.514946,207.734801 L324.971286,209.014149 C325.284149,208.998207 325.577083,208.990236 325.832156,208.990236 C326.049366,208.990236 326.244656,208.994221 326.431975,209.002192 L325.680707,206.897844 C325.608967,206.696576 325.449547,206.541141 325.246286,206.473388 C325.019112,206.397663 322.86096,205.791866 317.227446,207.651105 C315.194837,208.322663 313.935417,209.165598 313.297736,209.675743 C312.662047,209.165598 311.402627,208.322663 309.370018,207.651105 C303.734511,205.791866 301.576359,206.397663 301.349185,206.473388 C301.147917,206.541141 300.988496,206.696576 300.916757,206.897844 L300.163496,209.002192 C300.350815,208.994221 300.548098,208.990236 300.765308,208.990236 C301.018388,208.990236 301.311322,208.998207 301.624185,209.014149" id="Fill-13" fill="#FEFEFE"></path>
                    </g>
                    <polygon id="Fill-16" fill="#FEFEFE" points="311.435507 234.3 315.159964 234.3 315.159964 213.144928 311.435507 213.144928"></polygon>
                    <g id="Group-21" transform="translate(296.920290, 209.599819)" fill="#FEFEFE">
                        <path d="M4.26130435,0.456141304 C3.00188406,0.456141304 2.29844203,0.613568841 2.22271739,0.631503623 C1.81619565,0.729148551 1.52724638,1.09182971 1.52724638,1.51230072 L1.52724638,20.6128442 C1.52724638,20.8639312 1.63286232,21.1050543 1.81818841,21.2744384 C2.00351449,21.4458152 2.25061594,21.5315036 2.50369565,21.5135688 C2.52163043,21.5115761 2.67905797,21.5016123 2.97,21.5016123 C3.80695652,21.5016123 6.13847826,21.5972645 9.70152174,22.4760688 C11.0705435,22.814837 11.8975362,23.4026993 12.6966304,23.9686413 C12.9955435,24.1818659 13.2805072,24.3831341 13.5873913,24.5684601 C13.5893841,24.5704529 13.5933696,24.5724457 13.5953623,24.5724457 L13.5953623,3.08059783 C12.6946377,2.52661232 11.3395652,1.75740942 10.2853986,1.43657609 C7.62108696,0.625525362 5.53865942,0.456141304 4.26130435,0.456141304" id="Fill-17"></path>
                        <path d="M30.5327717,0.632101449 C30.4570471,0.614166667 29.7536051,0.45673913 28.4941848,0.45673913 C27.2168297,0.45673913 25.1363949,0.626123188 22.4720833,1.43717391 C21.3641123,1.77394928 20.0429167,2.52521739 19.1601268,3.07123188 L19.1601268,24.5750362 C19.1601268,24.5750362 19.1601268,24.5750362 19.1621196,24.5730435 C19.4729891,24.3897101 19.7699094,24.1824638 20.0827717,23.9652536 C20.9117572,23.3893478 21.7666486,22.7955072 23.0539674,22.4766667 C26.6190036,21.5958696 28.9485326,21.5022101 29.7854891,21.5022101 C30.0764312,21.5022101 30.2338587,21.5121739 30.2498007,21.5141667 C30.5028804,21.5321014 30.7519746,21.4484058 30.9373007,21.277029 C31.1226268,21.1056522 31.2282428,20.864529 31.2282428,20.6114493 L31.2282428,1.5109058 C31.2282428,1.09242754 30.9412862,0.727753623 30.5327717,0.632101449" id="Fill-19"></path>
                    </g>
                </g>
            </g>
        </g>
    </g>
</svg>