<?xml version="1.0" encoding="UTF-8"?>
<svg width="655px" height="500px" viewBox="0 0 655 500" version="1.1" xmlns="http://www.w3.org/2000/svg" xmlns:xlink="http://www.w3.org/1999/xlink">
    <!-- Generator: Sketch 52.4 (67378) - http://www.bohemiancoding.com/sketch -->
    <title>Unplug_Day_3</title>
    <desc>Created with Sketch.</desc>
    <defs>
        <polygon id="path-1" points="0 1.6386197 320.406325 1.6386197 320.406325 206.869434 0 206.869434"></polygon>
    </defs>
    <g id="Desktop" stroke="none" stroke-width="1" fill="none" fill-rule="evenodd">
        <g id="Artboard" transform="translate(-694.000000, -259.000000)">
            <g id="Unplug_Day_3" transform="translate(694.000000, 259.000000)">
                <g id="Group-3" transform="translate(155.000000, 0.000000)" fill="#F2F1F2">
                    <polygon id="Fill-1" points="249.7275 -5.68434189e-14 205.606912 205.694118 -0.000441176471 249.939706 205.606912 293.927941 249.7275 499.764706 293.971618 293.927941 499.676029 249.939706 293.971618 205.694118"></polygon>
                    <polygon id="Fill-2" points="378.383824 121.336029 249.802941 204.413971 121.363235 121.372794 204.407353 249.811029 121.291176 378.428676 249.966176 295.369853 378.385294 378.396324 295.363235 249.974265"></polygon>
                </g>
                <g id="day-3" transform="translate(-0.000000, 52.000000)">
                    <path d="M0.723473605,133.938453 L34.6703117,134.11452 C62.6028753,134.256573 78.1007363,146.35915 78.999076,178.543322 L78.7969996,217.794166 C77.568535,249.966333 61.9486278,261.908849 34.0160643,261.764795 L0.0692261801,261.590729 L0.723473605,133.938453 Z M24.5764944,240.14862 L33.0617033,240.190636 C46.498785,240.260662 54.3137405,233.93427 54.4117775,214.839048 L54.5838426,181.248345 C54.6758774,163.213524 48.7016181,155.754704 33.4958675,155.678675 L25.0106586,155.634658 L24.5764944,240.14862 Z" id="Fill-1" fill="#CEAA79"></path>
                    <path d="M89.6999229,262.051503 L121.998137,134.561289 L153.291972,134.721349 L183.401359,262.531685 L160.064533,262.411639 L154.012245,235.507465 L120.243474,235.333399 L113.208814,262.171549 L89.6999229,262.051503 Z M124.771186,213.78525 L148.996348,213.911297 L137.413967,162.22375 L137.059834,162.221749 L124.771186,213.78525 Z" id="Fill-3" fill="#CEAA79"></path>
                    <polygon id="Fill-4" fill="#CEAA79" points="225.873421 186.546549 246.825345 135.201131 272.815174 135.335181 237.593854 211.181865 237.329754 262.807389 212.930526 262.683342 213.194626 211.057818 178.753601 134.852999 204.74343 134.98705"></polygon>
                    <g id="Group-12" transform="translate(0.000000, 0.362137)">
                        <path d="M386.26908,223.842053 C386.203055,236.925001 392.005249,242.967286 405.090198,243.035312 C417.112744,243.097335 423.695234,235.172338 423.753256,224.210192 C423.827284,209.888776 415.718217,204.368689 398.037531,204.100587 L398.14157,183.944965 C414.58779,184.028996 420.974205,179.46327 421.036228,167.61679 C421.082246,158.777447 415.282052,152.206962 404.670039,152.150941 C396.010764,152.106924 389.610344,158.263252 389.212193,166.926529 L365.875367,166.804482 C366.17348,143.29159 383.562056,131.887277 404.952146,131.997319 C427.938839,132.115364 444.4951,144.221942 444.379056,166.854501 C444.323035,177.992714 438.959006,189.457049 428.855185,194.53497 C442.438322,199.907001 447.160108,211.071223 447.084079,225.392639 C446.952029,250.676201 428.324985,263.308979 405.340292,263.190934 C376.695459,263.044879 362.808207,247.767101 362.932254,223.722008 L386.26908,223.842053 Z" id="Fill-5" fill="#CEAA79"></path>
                        <path d="M340.026592,236.664702 L339.766494,236.664702 L339.766494,214.386277 L339.740484,214.386277 C339.742484,214.284238 339.748487,214.180199 339.748487,214.07816 C339.748487,200.102875 328.420203,188.774591 314.446918,188.774591 C300.471633,188.774591 289.143349,200.102875 289.143349,214.07816 C289.143349,214.180199 289.149351,214.284238 289.151352,214.386277 L289.125342,214.386277 L289.125342,236.664702 L288.865244,236.664702 C287.024547,236.664702 285.515977,238.171272 285.515977,240.013969 L285.515977,251.158183 C285.515977,253.00088 287.024547,254.50745 288.865244,254.50745 L302.946569,254.50745 L302.946569,274.102861 L305.523543,274.102861 L305.523543,254.50745 L323.368292,254.50745 L323.368292,274.102861 L325.945267,274.102861 L325.945267,254.50745 L340.026592,254.50745 C341.869289,254.50745 343.375859,253.00088 343.375859,251.158183 L343.375859,240.013969 C343.375859,238.171272 341.869289,236.664702 340.026592,236.664702" id="Fill-7" fill="#24466E"></path>
                        <g id="Group-11">
                            <mask id="mask-2" fill="white">
                                <use xlink:href="#path-1"></use>
                            </mask>
                            <g id="Clip-10"></g>
                            <path d="M308.965445,129.920534 C304.45574,120.372923 298.679555,114.158573 286.34289,109.466798 C279.162174,106.735766 271.413244,105.341238 263.57628,104.674986 C265.653065,90.0354498 267.101613,74.6616357 269.57855,63.0412411 C270.63695,60.8003936 271.821398,57.3750982 271.821398,54.211902 C271.821398,49.3380588 269.450501,44.8563639 261.675561,44.8563639 L261.149362,50.5225067 C259.302664,48.0195601 255.745318,46.0448133 250.737424,46.0448133 C240.751648,46.0448133 233.364854,59.9980902 231.388107,73.5792263 C228.927176,80.3918027 224.543518,86.7582104 220.435965,86.7582104 C217.138718,86.7582104 215.956271,83.2008651 215.956271,78.457071 C215.956271,73.9773769 216.87862,68.443284 218.063067,63.5674401 C219.381566,59.8780448 220.303915,56.5847993 220.303915,53.9478021 C220.303915,49.3380588 218.063067,46.4389624 211.212477,45.6486635 C204.359885,72.7909282 198.561692,86.6261604 194.348099,86.6261604 C192.239301,86.6261604 191.579052,84.2532631 191.579052,80.6979185 C191.579052,73.0550281 195.136397,61.0644935 196.983095,55.1342508 C197.115145,54.6080518 197.245195,53.9478021 197.245195,53.553653 C197.245195,48.5457591 189.736355,45.9127634 188.415855,45.9127634 L188.283806,45.9127634 C186.221025,50.5765271 182.291539,63.8195354 180.965038,75.4139202 C180.949032,75.4779444 180.91902,75.5159588 180.903014,75.5819837 C179.228381,82.5546207 172.711917,109.220705 166.629616,101.635837 C164.41878,96.800008 163.516439,89.7873559 163.516439,81.7503165 L163.516439,78.1929712 C177.34967,59.0877459 185.124611,31.9454812 185.124611,15.6053016 C185.124611,7.17411312 182.621664,1.63801947 177.21762,1.63801947 C163.912589,1.63801947 151.525904,49.8642578 150.733605,83.9911639 C145.461611,88.7349579 139.40332,92.0282034 132.814828,92.9505522 C138.47897,87.0203095 141.642166,76.6123734 141.642166,67.2568353 C141.642166,64.6218388 141.510117,62.2509422 140.981917,59.8780448 C139.79947,54.079852 132.552729,48.1516101 129.389533,48.1516101 C123.853439,48.1516101 119.769895,53.8177529 116.606699,60.6683437 L116.0805,60.5362937 C117.134898,55.0042016 118.059248,51.4468563 118.059248,51.3148063 C119.637845,48.1516101 120.298095,45.6486635 120.298095,43.539866 C120.298095,36.5552245 113.577553,34.3163778 111.336706,34.3163778 C110.944557,34.3163778 110.680457,34.4484278 110.680457,34.5804777 C109.606051,46.5590078 107.017072,59.9540735 104.332056,72.940985 C104.28804,72.9389842 104.270033,72.9229781 104.226016,72.9229781 C104.226016,72.9229781 99.6142723,89.129107 91.9713819,89.129107 C88.2819866,89.129107 87.0955379,85.3076618 87.0955379,80.0376688 C87.0955379,69.3656328 92.1034318,53.4216031 92.1034318,53.159504 C92.1034318,50.2604076 86.963488,45.2525137 84.1944408,45.2525137 C80.1128972,45.2525137 70.7573591,57.9012972 64.6950665,73.4491771 C64.4309666,73.4491771 64.1688675,73.3171272 64.0368176,73.3171272 C65.6194161,62.9091911 67.1980131,53.2895531 67.1980131,51.9730553 C67.1980131,44.9884138 63.6406677,40.7728195 56.3939272,42.0913182 C50.9918842,80.3017687 35.4420035,100.461393 35.4420035,78.5871202 C35.4420035,72.1326793 37.5528018,63.5674401 37.5528018,63.5674401 C39.7916485,57.1109983 43.0848939,46.5710123 30.6982095,45.6486635 C29.9099114,48.5457591 28.8555126,52.2351544 28.0652138,56.0565996 C23.319419,73.5812271 17.1290779,86.6261604 13.8338317,86.6261604 C11.7250342,86.6261604 11.068786,84.2532631 11.068786,80.6979185 C11.068786,73.0550281 14.6261313,61.0644935 16.4688282,55.1342508 C16.6008782,54.6080518 16.7329281,53.9478021 16.7329281,53.553653 C16.7329281,48.5457591 9.22208763,45.9127634 7.90759051,45.9127634 L7.77554057,45.9127634 C5.27059324,51.5769054 -0.00140052965,69.8918318 -0.00140052965,82.5426161 C-0.00140052965,90.3155557 2.5035468,96.6399475 9.22208763,96.6399475 C15.5464794,96.6399475 20.6864232,87.5485093 24.7719683,76.6123734 L25.0360682,76.6123734 C24.3758185,87.9446591 26.484616,97.2981964 35.5740535,97.2981964 C42.0304952,97.2981964 50.1995846,87.6805592 54.8113286,67.1267861 L55.0754285,67.2568353 C53.4968315,78.3250211 51.520084,88.3388081 51.520084,91.5020044 C51.520084,98.2205452 54.8113286,100.461393 58.1065749,100.461393 C59.0289237,100.461393 59.9512725,100.329343 60.8756221,99.801143 C61.7979709,84.5193637 75.6332031,58.297447 81.5594443,52.7633541 L81.8235442,52.8954041 C79.8487974,57.2430483 75.7632523,70.5520815 75.7632523,80.6979185 C75.7632523,90.8417547 78.6623487,99.9331929 88.6741349,99.9331929 C93.5479781,99.9331929 97.709552,95.5455336 100.732695,90.2955481 C98.2597601,102.468152 96.3170253,113.416292 96.3170253,121.281266 C96.3170253,134.456249 103.697817,136.563046 107.91141,136.563046 C109.492008,136.563046 110.680457,136.168897 110.680457,136.168897 C109.492008,131.557153 109.097859,125.75896 109.097859,119.436569 C109.097859,106.259585 111.072606,90.4476056 113.183404,77.2706223 C117.002848,65.0179886 123.32724,53.553653 128.071034,53.553653 C130.049782,53.553653 130.96813,56.8488992 130.96813,61.4606433 C130.96813,69.6277319 127.676885,85.0455627 122.935092,91.3699545 C121.220443,90.4476056 119.637845,88.9970571 118.451396,87.1523594 C118.451396,87.1523594 115.422251,89.7893567 115.422251,93.478752 C115.422251,98.748745 122.008741,101.513791 127.544835,101.513791 C135.317775,101.513791 144.543264,97.4302463 150.733605,90.8417547 C151.261804,106.127536 155.741499,117.98602 164.698886,117.98602 C168.498323,117.98602 172.58987,114.798815 174.638645,111.535581 C176.039175,109.864949 177.255635,107.920213 178.262015,105.741389 C180.312791,101.305712 181.359187,96.4738847 182.175495,91.5640279 C183.600034,94.6411916 185.996941,96.6399475 189.736355,96.6399475 C195.926696,96.6399475 201.06664,87.5485093 205.148183,76.4803235 L205.544333,76.6123734 C205.544333,77.7988221 205.412283,78.9852708 205.412283,80.1697187 C205.412283,89.6573068 207.917231,97.2981964 215.956271,97.2981964 C222.826869,97.2981964 227.914793,90.5756541 230.989956,83.9451465 C231.726235,92.5664069 235.401625,99.4069939 243.226584,99.4069939 C250.081176,99.4069939 254.822969,90.0514558 257.720065,80.5658685 L258.118216,80.6979185 C256.931767,89.6573068 255.613268,97.2981964 254.166721,104.018738 C252.846222,103.886688 251.399675,103.886688 250.213226,103.886688 C232.558549,103.886688 212.528975,109.684881 212.528975,125.232761 C212.528975,141.30684 232.1624,153.035275 240.591587,153.035275 C253.548487,153.035275 258.964536,134.318197 262.51988,112.3799 L262.675939,111.329503 C270.903051,112.762045 279.174179,115.409046 285.432545,119.298517 C294.191858,124.744576 298.319419,134.170141 301.016439,142.877434 C307.324825,163.257141 308.631319,183.132657 308.389227,204.152607 C308.347211,207.743965 320.325741,207.805988 320.367757,204.152607 C320.645862,179.959457 319.671494,152.589106 308.965445,129.920534 M178.14197,9.67705969 C178.932269,9.67705969 179.192367,11.1256075 179.192367,13.6285541 C179.192367,23.248192 174.580623,48.9419089 164.040637,68.7073839 C166.283485,41.2990185 174.318524,9.67705969 178.14197,9.67705969 M245.467431,88.4708581 C242.966486,88.4708581 241.912087,85.7038116 241.912087,81.4882174 C241.912087,71.0782805 248.630628,52.2351544 255.349168,52.2351544 C258.910515,52.2351544 260.357062,53.553653 260.885262,54.8721517 L260.357062,60.2741946 C257.590016,75.0297749 251.267625,88.4708581 245.467431,88.4708581 M252.714172,110.21108 C246.391781,135.378598 238.48279,142.757388 230.579801,142.757388 C223.333061,142.757388 218.195117,136.430996 218.195117,129.316305 C218.195117,120.358918 226.360205,110.081031 248.888725,110.07903 C249.783063,110.083031 250.69941,110.10704 251.62576,110.145055 C251.985896,110.165062 252.34003,110.173065 252.714172,110.21108" id="Fill-9" fill="#24466E" mask="url(#mask-2)"></path>
                        </g>
                    </g>
                    <polygon id="Fill-13" fill="#FEFEFE" points="314.700614 203.337699 311.389362 218.777538 295.955525 222.098794 311.389362 225.402043 314.700614 240.851886 318.02187 225.402043 333.46371 222.098794 318.02187 218.777538"></polygon>
                    <polygon id="Fill-14" fill="#FEFEFE" points="324.358266 212.445943 314.706616 218.682302 305.06497 212.447944 311.299328 222.08959 305.058968 231.745242 314.718621 225.508883 324.358266 231.74124 318.125909 222.101595"></polygon>
                </g>
            </g>
        </g>
    </g>
</svg>