<?xml version="1.0" encoding="UTF-8"?>
<svg width="632px" height="520px" viewBox="0 0 632 520" version="1.1" xmlns="http://www.w3.org/2000/svg" xmlns:xlink="http://www.w3.org/1999/xlink">
    <!-- Generator: Sketch 52.4 (67378) - http://www.bohemiancoding.com/sketch -->
    <title>Unplug_Day_6</title>
    <desc>Created with Sketch.</desc>
    <defs>
        <polygon id="path-1" points="1.16878592 1.94862558 85.3436594 1.94862558 85.3436594 132.613284 1.16878592 132.613284"></polygon>
        <polygon id="path-3" points="0 1.63326087 319.125298 1.63326087 319.125298 206.041259 0 206.041259"></polygon>
    </defs>
    <g id="Desktop" stroke="none" stroke-width="1" fill="none" fill-rule="evenodd">
        <g id="Artboard" transform="translate(-624.000000, -315.000000)">
            <g id="Unplug_Day_6" transform="translate(624.000000, 315.000000)">
                <g id="Group-7" transform="translate(173.000000, 0.000000)" fill="#F2F1F2">
                    <path d="M251.149761,472.922614 L251.149761,307.294783 L206.620495,307.294783 L206.620495,472.922614 C162.048932,475.972133 134.632689,491.487554 134.632689,497.920205 C134.632689,504.987193 140.397604,519.210446 147.456491,519.210446 L228.884345,519.210446 L310.32473,519.210446 C317.372652,519.210446 323.137567,504.987193 323.137567,497.920205 C323.137567,491.487554 295.722891,475.972133 251.149761,472.922614" id="Fill-1"></path>
                    <path d="M454.149639,242.021783 L378.594792,186.757687 C372.775048,182.524072 362.084891,179.032867 354.864649,179.032867 L101.817792,179.032867 C94.5865843,179.032867 88.6806799,184.925157 88.6806799,192.166 L88.6806799,307.369494 C88.6806799,314.610337 94.5865843,320.52612 101.817792,320.52612 L354.864649,320.52612 C362.084891,320.52612 372.775048,317.034916 378.594792,312.746482 L454.149639,257.537205 C459.967816,253.248771 459.967816,246.288289 454.149639,242.021783" id="Fill-3"></path>
                    <path d="M356.695793,0.000313253012 L103.661469,0.000313253012 C96.4286939,0.000313253012 85.7495027,3.46959036 79.9313253,7.73609639 L4.36394642,62.9673012 C-1.45423106,67.2353735 -1.45423106,74.2162169 4.36394642,78.4827229 L79.9313253,133.746819 C85.7495027,138.013325 96.4286939,141.50453 103.661469,141.50453 L356.695793,141.50453 C363.927001,141.50453 369.832905,135.588747 369.832905,128.369831 L369.832905,13.1130843 C369.832905,5.90513253 363.927001,0.000313253012 356.695793,0.000313253012 M228.885441,99.1699518 C213.204247,99.1699518 200.435274,86.4236867 200.435274,70.725012 C200.435274,55.0592289 213.204247,42.2800723 228.885441,42.2800723 C244.576035,42.2800723 257.324643,55.0592289 257.324643,70.725012 C257.324643,86.4236867 244.576035,99.1699518 228.885441,99.1699518" id="Fill-5"></path>
                </g>
                <g id="Group-20" transform="translate(0.000000, 54.000000)">
                    <path d="M0.72057971,133.402899 L34.5316304,133.578261 C62.3544565,133.719746 77.7883333,145.773913 78.6830797,177.829348 L78.4818116,216.923188 C77.2582609,248.966667 61.7028261,260.861413 33.88,260.717935 L0.0689492754,260.544565 L0.72057971,133.402899 Z M24.4801812,239.188225 L32.9294565,239.230072 C46.3127899,239.299819 54.0984783,232.998732 54.1941304,213.979891 L54.3655072,180.523551 C54.4591667,162.56087 48.5068116,155.131884 33.3618841,155.056159 L24.9106159,155.012319 L24.4801812,239.188225 Z" id="Fill-1" fill="#CEAA79"></path>
                    <path d="M89.3411232,261.003496 L121.510145,134.023243 L152.678804,134.184656 L182.669746,261.481757 L159.424275,261.362192 L153.396196,234.565634 L119.7625,234.392264 L112.755978,261.123062 L89.3411232,261.003496 Z M124.274094,212.930308 L148.400362,213.055851 L136.864312,161.575054 L136.513587,161.573062 L124.274094,212.930308 Z" id="Fill-3" fill="#CEAA79"></path>
                    <polygon id="Fill-4" fill="#CEAA79" points="224.970525 185.800761 245.838641 134.660725 271.724511 134.794239 236.644076 210.337536 236.381033 261.756558 212.079402 261.633007 212.342446 210.213986 178.039185 134.313986 203.925054 134.4475"></polygon>
                    <g id="Group-19" transform="translate(0.000000, 0.360688)">
                        <g id="Group-7" transform="translate(360.688406, 129.528986)">
                            <mask id="mask-2" fill="white">
                                <use xlink:href="#path-1"></use>
                            </mask>
                            <g id="Clip-6"></g>
                            <path d="M60.071558,37.0737862 C59.7646739,28.4431703 52.7541667,22.0663587 44.1255435,22.0225181 C31.0929348,21.9547645 24.7221014,27.9111051 24.6164855,48.5141848 L24.5567029,60.313279 C32.5117754,54.3669022 41.8657609,50.5408152 51.9032609,50.5926268 C74.0925725,50.7062138 85.4492754,68.02125 85.3436594,88.4489674 C85.2081522,114.512192 72.4405797,132.76183 43.5596014,132.612373 C16.0894928,132.470888 1.03025362,115.488641 1.16974638,88.3692572 L1.38695652,45.754221 C1.52644928,18.634837 16.7570652,1.80802536 44.2291667,1.94951087 C66.2391304,2.06110507 81.675,14.2906341 83.3190217,37.1933514 L60.071558,37.0737862 Z M24.4251812,85.8464312 C24.3195652,106.449511 30.6306159,112.471612 43.6632246,112.537373 C55.8130435,112.601141 62.0184783,103.827047 62.0961957,89.212192 C62.1679348,75.1234239 54.6293478,68.5672645 43.8884058,68.5134601 C36.4913043,68.4755978 30.4791667,73.375779 24.4630435,78.8040399 L24.4251812,85.8464312 Z" id="Fill-5" fill="#CEAA79" mask="url(#mask-2)"></path>
                        </g>
                        <path d="M338.666884,235.717844 L338.405833,235.717844 L338.405833,213.528533 L338.38192,213.528533 C338.383913,213.426902 338.389891,213.325272 338.389891,213.221649 C338.389891,199.302264 327.10692,188.019293 313.187536,188.019293 C299.270145,188.019293 287.987174,199.302264 287.987174,213.221649 C287.987174,213.325272 287.993152,213.426902 287.995145,213.528533 L287.969239,213.528533 L287.969239,235.717844 L287.710181,235.717844 C285.874855,235.717844 284.374312,237.218388 284.374312,239.053714 L284.374312,250.153351 C284.374312,251.988678 285.874855,253.489221 287.710181,253.489221 L301.735181,253.489221 L301.735181,273.00625 L304.301848,273.00625 L304.301848,253.489221 L322.073225,253.489221 L322.073225,273.00625 L324.641884,273.00625 L324.641884,253.489221 L338.666884,253.489221 C340.500217,253.489221 342.002754,251.988678 342.002754,250.153351 L342.002754,239.053714 C342.002754,237.218388 340.500217,235.717844 338.666884,235.717844" id="Fill-8" fill="#24466E"></path>
                        <g id="Group-12">
                            <mask id="mask-4" fill="white">
                                <use xlink:href="#path-3"></use>
                            </mask>
                            <g id="Clip-11"></g>
                            <path d="M307.730181,129.400652 C303.238514,119.891232 297.483442,113.703732 285.198116,109.028732 C278.046123,106.308623 270.328188,104.919674 262.518587,104.254094 C264.591051,89.6751087 266.031812,74.3647826 268.500833,62.7888768 C269.555,60.5569928 270.73471,57.1453986 270.73471,53.9968478 C270.73471,49.1405072 268.373297,44.6767391 260.629457,44.6767391 L260.10337,50.3202174 C258.266051,47.8272826 254.722935,45.8604348 249.735072,45.8604348 C239.789239,45.8604348 232.433986,59.7559058 230.463152,73.2807246 C228.012065,80.0680435 223.647935,86.4109783 219.554819,86.4109783 C216.270761,86.4109783 215.089058,82.8678623 215.089058,78.1430435 C215.089058,73.6812681 216.011703,68.1693116 217.191413,63.312971 C218.504638,59.6403261 219.423297,56.3582609 219.423297,53.7338043 C219.423297,49.1405072 217.191413,46.2530072 210.366232,45.4658696 C203.543043,72.4995652 197.768043,86.2794565 193.567319,86.2794565 C191.468949,86.2794565 190.813333,83.9180435 190.813333,80.3749275 C190.813333,72.7626087 194.356449,60.8200362 196.193768,54.9135145 C196.323297,54.3894203 196.456812,53.7338043 196.456812,53.3392391 C196.456812,48.3513768 188.974022,45.728913 187.66279,45.728913 L187.531268,45.728913 C185.476739,50.3760145 181.562971,63.5620652 180.241775,75.1100725 C180.223841,75.1738406 180.195942,75.2136957 180.18,75.2794565 C178.512065,82.2261957 172.019674,108.793587 165.961703,101.225109 C163.75971,96.4086232 162.858986,89.4260145 162.858986,81.4231159 L162.858986,77.88 C176.64087,58.8511957 184.382717,31.8175 184.382717,15.5446739 C184.382717,7.14521739 181.891775,1.63326087 176.509348,1.63326087 C163.253551,1.63326087 150.916413,49.6646014 150.131268,83.655 C144.880362,88.3798188 138.844312,91.6598913 132.284167,92.5805435 C137.925652,86.672029 141.076196,76.3057246 141.076196,66.9876087 C141.076196,64.3631522 140.944674,62.0017391 140.418587,59.6403261 C139.238877,53.8653261 132.01913,47.9588043 128.872572,47.9588043 C123.358623,47.9588043 119.291413,53.6022826 116.138877,60.425471 L115.616775,60.2939493 C116.666957,54.7839855 117.583623,51.2408696 117.583623,51.1093478 C119.159891,47.9588043 119.815507,45.4658696 119.815507,43.3655072 C119.815507,36.4107971 113.123841,34.178913 110.891957,34.178913 C110.497391,34.178913 110.234348,34.3104348 110.234348,34.4419565 C109.164239,46.3725725 106.587609,59.714058 103.911341,72.6490217 C103.869493,72.647029 103.851558,72.631087 103.805725,72.631087 C103.805725,72.631087 99.2124275,88.7723913 91.6001087,88.7723913 C87.9274638,88.7723913 86.7477536,84.9662319 86.7477536,79.7173188 C86.7477536,69.087971 91.7316304,53.2077174 91.7316304,52.9466667 C91.7316304,50.0591667 86.6162319,45.0713043 83.8582609,45.0713043 C79.789058,45.0713043 70.4729348,57.6714855 64.4348913,73.1571739 C64.1718478,73.1571739 63.9127899,73.0256522 63.7812681,73.0256522 C65.3535507,62.6573551 66.9298188,53.0761957 66.9298188,51.7649638 C66.9298188,44.8082609 63.3867029,40.609529 56.1689493,41.9227536 C50.7865217,79.9803623 35.3008333,100.059348 35.3008333,78.2745652 C35.3008333,71.8439493 37.4031884,63.312971 37.4031884,63.312971 C39.6330797,56.8823551 42.9131522,46.384529 30.5760145,45.4658696 C29.7888768,48.3513768 28.7406884,52.0260145 27.9535507,55.8341667 C23.2267391,73.2886957 17.0611594,86.2794565 13.7790942,86.2794565 C11.6787319,86.2794565 11.0251087,83.9180435 11.0251087,80.3749275 C11.0251087,72.7626087 14.5662319,60.8200362 16.4035507,54.9135145 C16.5350725,54.3894203 16.6665942,53.7338043 16.6665942,53.3392391 C16.6665942,48.3513768 9.1857971,45.728913 7.87257246,45.728913 L7.74105072,45.728913 C5.24811594,51.3703986 -0.000797101449,69.6120652 -0.000797101449,82.2122464 C-0.000797101449,89.9540942 2.49413043,96.2551812 9.1857971,96.2551812 C15.4848913,96.2551812 20.6042754,87.1981159 24.6714855,76.3057246 L24.934529,76.3057246 C24.278913,87.5926812 26.3792754,96.9088043 35.4323551,96.9088043 C41.862971,96.9088043 49.9993841,87.3296377 54.5926812,66.8580797 L54.8557246,66.9876087 C53.2794565,78.0115217 51.3126087,87.9852536 51.3126087,91.1357971 C51.3126087,97.8294565 54.5926812,100.059348 57.8747464,100.059348 C58.7934058,100.059348 59.7120652,99.9278261 60.6287319,99.4037319 C61.5493841,84.181087 75.3292754,58.064058 81.2338043,52.5521014 L81.4968478,52.6836232 C79.53,57.0138768 75.4607971,70.2696739 75.4607971,80.3749275 C75.4607971,90.4781884 78.3482971,99.5352536 88.3200362,99.5352536 C93.1723913,99.5352536 97.3173188,95.1671377 100.326377,89.9421377 C97.8633333,102.062065 95.9303623,112.96442 95.9303623,120.795942 C95.9303623,133.918225 103.279638,136.018587 107.480362,136.018587 C109.054638,136.018587 110.234348,135.624022 110.234348,135.624022 C109.054638,131.032717 108.662065,125.255725 108.662065,118.958623 C108.662065,105.834348 110.628913,90.0856159 112.729275,76.9633333 C116.535435,64.7577174 122.834529,53.3392391 127.559348,53.3392391 C129.526196,53.3392391 130.444855,56.6213043 130.444855,61.2146014 C130.444855,69.3490217 127.164783,84.7051812 122.439964,91.0042754 C120.736159,90.0856159 119.159891,88.6428623 117.978188,86.8035507 C117.978188,86.8035507 114.959167,89.43 114.959167,93.1046377 C114.959167,98.3535507 121.521304,101.109529 127.033261,101.109529 C134.777101,101.109529 143.961703,97.0403261 150.131268,90.4781884 C150.657355,105.702826 155.11913,117.513877 164.040688,117.513877 C167.824928,117.513877 171.900109,114.341413 173.936703,111.091232 C175.333623,109.427283 176.545217,107.488333 177.549565,105.318225 C179.590145,100.90029 180.634348,96.0877899 181.447391,91.1975725 C182.864239,94.2624275 185.251558,96.2551812 188.974022,96.2551812 C195.143587,96.2551812 200.262971,87.1981159 204.328188,76.1742029 L204.722754,76.3057246 C204.722754,77.4874275 204.591232,78.6691304 204.591232,79.8488406 C204.591232,89.2984783 207.086159,96.9088043 215.089058,96.9088043 C221.936159,96.9088043 227.003732,90.2131522 230.066594,83.6091667 C230.797935,92.195942 234.460616,99.0091667 242.254275,99.0091667 C249.081449,99.0091667 253.804275,89.6910507 256.689783,80.2434058 L257.084348,80.3749275 C255.904638,89.2984783 254.591413,96.9088043 253.146667,103.602464 C251.835435,103.470942 250.394674,103.470942 249.212971,103.470942 C231.624928,103.470942 211.679457,109.245942 211.679457,124.73163 C211.679457,140.741413 231.230362,152.422935 239.629819,152.422935 C252.530906,152.422935 257.921304,133.794674 261.466413,111.954094 L261.623841,110.883986 C269.818043,112.31279 278.05808,114.94721 284.28942,118.823116 C293.015688,124.245399 297.126739,133.633261 299.812971,142.305725 C306.096123,162.603913 307.395399,182.399928 307.154275,203.333804 C307.11442,206.91279 319.045036,206.974565 319.086884,203.333804 C319.363877,179.23942 318.393406,151.978551 307.730181,129.400652 M177.428007,9.63815217 C178.217138,9.63815217 178.476196,11.0809058 178.476196,13.5738406 C178.476196,23.155 173.882899,48.745942 163.385072,68.4323551 C165.616957,41.1336232 173.619855,9.63815217 177.428007,9.63815217 M244.486159,88.1167754 C241.995217,88.1167754 240.943043,85.3607971 240.943043,81.1620652 C240.943043,70.7937681 247.636703,52.0260145 254.32837,52.0260145 C257.871486,52.0260145 259.316232,53.3392391 259.842319,54.6524638 L259.316232,60.0328986 C256.560254,74.7314493 250.261159,88.1167754 244.486159,88.1167754 M251.703913,109.770036 C245.406812,134.836884 237.529457,142.186159 229.65808,142.186159 C222.440326,142.186159 217.320942,135.887065 217.320942,128.798841 C217.320942,119.87529 225.457355,109.638514 247.899746,109.638514 C248.786522,109.6425 249.691232,109.666413 250.609891,109.704275 C250.972572,109.724203 251.327283,109.732174 251.703913,109.770036" id="Fill-10" fill="#24466E" mask="url(#mask-4)"></path>
                        </g>
                        <path d="M314.297899,240.159692 L314.297899,227.902264 L311.231051,227.902264 L311.231051,240.159692 C308.160217,240.384873 306.27308,241.532699 306.27308,242.008967 C306.27308,242.533062 306.669638,243.585236 307.15587,243.585236 L312.763478,243.585236 L318.37308,243.585236 C318.859312,243.585236 319.25587,242.533062 319.25587,242.008967 C319.25587,241.532699 317.368732,240.384873 314.297899,240.159692" id="Fill-13" fill="#FEFEFE"></path>
                        <path d="M328.279656,223.073025 L323.076576,218.983895 C322.67404,218.671033 321.938714,218.411975 321.440525,218.411975 L304.011902,218.411975 C303.513714,218.411975 303.107192,218.848388 303.107192,219.384438 L303.107192,227.909438 C303.107192,228.445489 303.513714,228.881902 304.011902,228.881902 L321.440525,228.881902 C321.938714,228.881902 322.67404,228.624837 323.076576,228.305996 L328.279656,224.220851 C328.680199,223.904004 328.680199,223.38788 328.279656,223.073025 M312.764076,225.751286 C311.684004,225.751286 310.805199,224.806721 310.805199,223.646938 C310.805199,222.485163 311.684004,221.542591 312.764076,221.542591 C313.846141,221.542591 314.722953,222.485163 314.722953,223.646938 C314.722953,224.806721 313.846141,225.751286 312.764076,225.751286" id="Fill-15" fill="#FEFEFE"></path>
                        <path d="M321.567464,205.163551 L304.138841,205.163551 C303.640652,205.163551 302.905326,205.420616 302.504783,205.735471 L297.29971,209.822609 C296.899167,210.139457 296.899167,210.65558 297.29971,210.970435 L302.504783,215.061558 C302.905326,215.376413 303.640652,215.635471 304.138841,215.635471 L321.567464,215.635471 C322.065652,215.635471 322.472174,215.197065 322.472174,214.663007 L322.472174,206.134022 C322.472174,205.599964 322.065652,205.163551 321.567464,205.163551 M312.763478,212.502862 C311.685399,212.502862 310.804601,211.558297 310.804601,210.396522 C310.804601,209.238732 311.685399,208.292174 312.763478,208.292174 C313.845543,208.292174 314.722355,209.238732 314.722355,210.396522 C314.722355,211.558297 313.845543,212.502862 312.763478,212.502862" id="Fill-17" fill="#FEFEFE"></path>
                    </g>
                </g>
            </g>
        </g>
    </g>
</svg>