<?xml version="1.0" encoding="UTF-8"?>
<svg width="816px" height="515px" viewBox="0 0 816 515" version="1.1" xmlns="http://www.w3.org/2000/svg" xmlns:xlink="http://www.w3.org/1999/xlink">
    <!-- Generator: Sketch 52.4 (67378) - http://www.bohemiancoding.com/sketch -->
    <title>Unplug_Day_12</title>
    <desc>Created with Sketch.</desc>
    <defs>
        <polygon id="path-1" points="0 1.63027174 319.129682 1.63027174 319.129682 206.041505 0 206.041505"></polygon>
    </defs>
    <g id="Desktop" stroke="none" stroke-width="1" fill="none" fill-rule="evenodd">
        <g id="Artboard" transform="translate(-615.000000, -416.000000)">
            <g id="Unplug_Day_12" transform="translate(615.000000, 416.000000)">
                <g id="Group-5" transform="translate(220.000000, 0.000000)" fill="#F2F1F2">
                    <path d="M590.6329,144.8343 C557.5869,120.3553 449.7129,48.1793 297.6649,48.1793 C267.0109,48.1793 238.2809,51.2213 211.5139,56.1613 C202.1279,57.8903 198.5399,69.4343 205.2869,76.1813 L449.0369,319.6973 C454.0029,324.6633 462.1799,324.1953 466.5869,318.7223 L592.7129,161.6433 C596.8989,156.4173 596.0149,148.8123 590.6329,144.8343" id="Fill-1"></path>
                    <path d="M518.804,455.4693 L70.954,7.6193 C60.801,-2.5337 44.33,-2.5337 34.19,7.6193 C24.037,17.7723 24.037,34.2303 34.19,44.3833 L81.731,91.9243 L86.125,96.2403 L76.375,101.3493 C76.323,101.3753 76.297,101.4403 76.245,101.4663 C42.237,118.4313 17.745,135.3183 4.745,144.9253 C-0.624,148.8903 -1.573,156.5473 2.6,161.7603 C2.6,161.7603 282.126,507.9373 285.259,511.1743 C289.913,515.9583 297.622,515.8673 302.237,511.0313 L306.007,507.0793 L396.617,406.8363 L482.04,492.2333 C487.11,497.3163 493.766,499.8513 500.422,499.8513 C507.078,499.8513 513.721,497.3163 518.804,492.2333 C528.957,482.0803 528.957,465.6223 518.804,455.4693" id="Fill-3"></path>
                </g>
                <g id="Group-19" transform="translate(0.000000, 80.000000)">
                    <path d="M0.72057971,133.404692 L34.5316304,133.580054 C62.3544565,133.72154 77.7923188,145.775707 78.6830797,177.831141 L78.4838043,216.924982 C77.2602536,248.96846 61.7028261,260.865199 33.88,260.721721 L0.0689492754,260.546359 L0.72057971,133.404692 Z M24.4801812,239.190018 L32.933442,239.233859 C46.3167754,239.301612 54.0984783,233.002518 54.1961232,213.981685 L54.3675,180.525344 C54.4611594,162.562663 48.5068116,155.133678 33.3618841,155.05596 L24.9146014,155.014112 L24.4801812,239.190018 Z" id="Fill-1" fill="#CEAA79"></path>
                    <path d="M89.3451087,261.004891 L121.512138,134.024638 L152.68279,134.186051 L182.671739,261.485145 L159.426268,261.36558 L153.398188,234.567029 L119.766486,234.395652 L112.759964,261.124457 L89.3451087,261.004891 Z M124.274094,212.931703 L148.404348,213.057246 L136.868297,161.576449 L136.513587,161.572464 L124.274094,212.931703 Z" id="Fill-3" fill="#CEAA79"></path>
                    <polygon id="Fill-4" fill="#CEAA79" points="224.972518 185.801159 245.842627 134.663116 271.730489 134.794638 236.646069 210.337935 236.383025 261.758949 212.081395 261.633406 212.344438 210.214384 178.04317 134.314384 203.931033 134.447899"></polygon>
                    <g id="Group-18" transform="translate(0.000000, 0.362681)">
                        <path d="M377.709909,163.13538 L358.162989,163.035743 L358.234728,149.122337 C376.920779,145.521431 380.121141,139.196431 386.149221,131.480489 L400.062627,131.552228 L399.401033,260.453496 L377.211721,260.341902 L377.709909,163.13538 Z" id="Fill-5" fill="#CEAA79"></path>
                        <path d="M419.643025,260.559312 L419.748641,239.958225 C470.70933,191.964746 478.857699,182.849891 478.925453,169.466558 C478.977264,159.251703 473.381612,152.002065 462.110598,151.944275 C450.311504,151.884493 443.934692,159.072355 443.884873,168.579783 L443.862953,173.15913 L420.621467,173.041558 L420.649366,167.053333 C420.747011,148.38721 435.800272,131.735761 460.452627,131.861304 C485.280344,131.988841 502.29846,144.756413 502.172917,169.056051 C502.025453,198.465109 467.566757,221.005145 449.153714,240.635761 L499.869293,240.894819 L499.76567,260.967826 L419.643025,260.559312 Z" id="Fill-7" fill="#CEAA79"></path>
                        <path d="M338.67087,235.718043 L338.411812,235.718043 L338.411812,213.528732 L338.385906,213.528732 C338.387899,213.427101 338.393877,213.323478 338.393877,213.219855 C338.393877,199.302464 327.110906,188.019493 313.191522,188.019493 C299.27413,188.019493 287.991159,199.302464 287.991159,213.219855 C287.991159,213.323478 287.997138,213.427101 287.99913,213.528732 L287.973225,213.528732 L287.973225,235.718043 L287.714167,235.718043 C285.878841,235.718043 284.378297,237.218587 284.378297,239.053913 L284.378297,250.153551 C284.378297,251.988877 285.878841,253.48942 287.714167,253.48942 L301.739167,253.48942 L301.739167,273.006449 L304.307826,273.006449 L304.307826,253.48942 L322.079203,253.48942 L322.079203,273.006449 L324.64587,273.006449 L324.64587,253.48942 L338.67087,253.48942 C340.506196,253.48942 342.006739,251.988877 342.006739,250.153551 L342.006739,239.053913 C342.006739,237.218587 340.506196,235.718043 338.67087,235.718043" id="Fill-9" fill="#24466E"></path>
                        <g id="Group-13">
                            <mask id="mask-2" fill="white">
                                <use xlink:href="#path-1"></use>
                            </mask>
                            <g id="Clip-12"></g>
                            <path d="M307.734565,129.399656 C303.242899,119.890236 297.487826,113.700743 285.2025,109.027736 C278.050507,106.307627 270.332572,104.918678 262.524964,104.253098 C264.593442,89.6741123 266.036196,74.3637862 268.50721,62.7858877 C269.557391,60.5559964 270.737101,57.1444022 270.737101,53.9958514 C270.737101,49.1395109 268.375688,44.6757428 260.631848,44.6757428 L260.107754,50.319221 C258.268442,47.8262862 254.725326,45.8594384 249.741449,45.8594384 C239.79163,45.8594384 232.434384,59.7569022 230.465543,73.2837138 C228.014457,80.0690399 223.648333,86.4099819 219.555217,86.4099819 C216.275145,86.4099819 215.095435,82.8668659 215.095435,78.1420471 C215.095435,73.678279 216.012101,68.1683152 217.193804,63.3119746 C218.507029,59.637337 219.425688,56.3572645 219.425688,53.7308152 C219.425688,49.1395109 217.193804,46.2500181 210.370616,45.4648732 C203.545435,72.4985688 197.770435,86.2784601 193.571703,86.2784601 C191.473333,86.2784601 190.815725,83.9170471 190.815725,80.3739312 C190.815725,72.7616123 194.358841,60.8190399 196.198152,54.9125181 C196.329674,54.3864312 196.45721,53.7308152 196.45721,53.3382428 C196.45721,48.3503804 188.978406,45.7279167 187.667174,45.7279167 L187.535652,45.7279167 C185.481123,50.3750181 181.56337,63.5630616 180.244167,75.1130616 C180.226232,75.174837 180.198333,75.2126993 180.182391,75.2784601 C178.516449,82.2232065 172.022065,108.790598 165.964094,101.224112 C163.762101,96.4076268 162.86337,89.4250181 162.86337,81.4221196 L162.86337,77.8790036 C176.643261,58.8501993 184.387101,31.8145109 184.387101,15.5416848 C184.387101,7.14422101 181.892174,1.63027174 176.513732,1.63027174 C163.259928,1.63027174 150.920797,49.6616123 150.135652,83.6540036 C144.884746,88.3788225 138.848696,91.6588949 132.284565,92.5795471 C137.930036,86.6710326 141.078587,76.3047283 141.078587,66.9866123 C141.078587,64.3621558 140.947065,61.99875 140.422971,59.637337 C139.243261,53.8643297 132.023514,47.957808 128.872971,47.957808 C123.363007,47.957808 119.291812,53.6012862 116.143261,60.4244746 L115.617174,60.2929529 C116.667355,54.7809964 117.588007,51.2378804 117.588007,51.1063587 C119.16029,47.957808 119.817899,45.4648732 119.817899,43.3645109 C119.817899,36.407808 113.124239,34.1759239 110.892355,34.1759239 C110.501775,34.1759239 110.238732,34.3074457 110.238732,34.4389674 C109.168623,46.3715761 106.591993,59.7130616 103.915725,72.6480254 C103.873877,72.6460326 103.853949,72.6300906 103.810109,72.6300906 C103.810109,72.6300906 99.2168116,88.7733877 91.6044928,88.7733877 C87.9298551,88.7733877 86.7481522,84.9672283 86.7481522,79.7163225 C86.7481522,69.0869746 91.7360145,53.2047283 91.7360145,52.9456703 C91.7360145,50.0561775 86.6166304,45.070308 83.8606522,45.070308 C79.793442,45.070308 70.4753261,57.6704891 64.4392754,73.1561775 C64.1762319,73.1561775 63.9131884,73.0246558 63.7816667,73.0246558 C65.3579348,62.6563587 66.9322101,53.0732065 66.9322101,51.7639674 C66.9322101,44.8072645 63.3871014,40.6085326 56.1693478,41.9217572 C50.788913,79.9793659 35.3032246,100.058351 35.3032246,78.2715761 C35.3032246,71.8429529 37.403587,63.3119746 37.403587,63.3119746 C39.6334783,56.8813587 42.9175362,46.3815399 30.5803986,45.4648732 C29.7892754,48.3503804 28.741087,52.0250181 27.9539493,55.8311775 C23.2291304,73.2876993 17.061558,86.2784601 13.7814855,86.2784601 C11.6831159,86.2784601 11.0235145,83.9170471 11.0235145,80.3739312 C11.0235145,72.7616123 14.5686232,60.8190399 16.405942,54.9125181 C16.5374638,54.3864312 16.6669928,53.7308152 16.6669928,53.3382428 C16.6669928,48.3503804 9.18818841,45.7279167 7.87496377,45.7279167 L7.74344203,45.7279167 C5.25050725,51.3694022 -0.000398550725,69.6130616 -0.000398550725,82.2092572 C-0.000398550725,89.9530978 2.49452899,96.2541848 9.18818841,96.2541848 C15.4852899,96.2541848 20.6046739,87.1971196 24.6738768,76.3047283 L24.9369203,76.3047283 C24.2793116,87.5916848 26.3796739,96.907808 35.4347464,96.907808 C41.8653623,96.907808 50.0037681,87.3286413 54.5950725,66.8550906 L54.8601087,66.9866123 C53.2838406,78.0105254 51.315,87.9842572 51.315,91.1348007 C51.315,97.8264674 54.5950725,100.058351 57.8751449,100.058351 C58.7938043,100.058351 59.7144565,99.924837 60.6331159,99.4027355 C61.5517754,84.1800906 75.3316667,58.0610688 81.2381884,52.5511051 L81.4972464,52.6826268 C79.5303986,57.0128804 75.4611957,70.2666848 75.4611957,80.3739312 C75.4611957,90.477192 78.3486957,99.5342572 88.3244203,99.5342572 C93.1767754,99.5342572 97.3217029,95.1641486 100.330761,89.935163 C97.8697101,102.057083 95.9347464,112.961431 95.9347464,120.792953 C95.9347464,133.917228 103.284022,136.015598 107.482754,136.015598 C109.057029,136.015598 110.238732,135.625018 110.238732,135.625018 C109.057029,131.031721 108.662464,125.254728 108.662464,118.957627 C108.662464,105.833351 110.631304,90.0846196 112.731667,76.962337 C116.537826,64.756721 122.834928,53.3382428 127.559746,53.3382428 C129.53058,53.3382428 130.449239,56.620308 130.449239,61.2136051 C130.449239,69.3500181 127.169167,84.7041848 122.444348,91.003279 C120.736558,90.0846196 119.16029,88.6418659 117.98058,86.8025543 C117.98058,86.8025543 114.963551,89.4270109 114.963551,93.1016486 C114.963551,98.3525543 121.523696,101.10654 127.037645,101.10654 C134.7775,101.10654 143.966087,97.0393297 150.135652,90.477192 C150.659746,105.70183 155.119529,117.51288 164.045072,117.51288 C167.829312,117.51288 171.904493,114.338424 173.94308,111.088243 C175.338007,109.424293 176.549601,107.487337 177.551957,105.317228 C179.594529,100.899293 180.636739,96.0867935 181.449783,91.1985688 C182.868623,94.2614312 185.253949,96.2541848 188.978406,96.2541848 C195.145978,96.2541848 200.26337,87.1971196 204.334565,76.1732065 L204.72913,76.3047283 C204.72913,77.4844384 204.597609,78.6661413 204.597609,79.8478442 C204.597609,89.2954891 207.090543,96.907808 215.095435,96.907808 C221.938551,96.907808 227.00413,90.2161413 230.068986,83.6121558 C230.802319,92.1969384 234.465,99.0081703 242.260652,99.0081703 C249.083841,99.0081703 253.806667,89.6900543 256.696159,80.2424094 L257.086739,80.3739312 C255.907029,89.2954891 254.59779,96.907808 253.153043,103.601467 C251.839819,103.469946 250.397065,103.469946 249.215362,103.469946 C231.629312,103.469946 211.679855,109.244946 211.679855,124.730634 C211.679855,140.740417 231.234746,152.421938 239.634203,152.421938 C252.515362,152.421938 257.913732,133.837518 261.458841,112.034801 L261.628225,110.882989 C269.822428,112.309801 278.062464,114.946214 284.293804,118.820127 C293.020072,124.244402 297.131123,133.632264 299.817355,142.304728 C306.100507,162.602917 307.399783,182.398931 307.158659,203.334801 C307.118804,206.913786 319.04942,206.973569 319.091268,203.334801 C319.368261,179.238424 318.39779,151.977554 307.734565,129.399656 M177.432391,9.6371558 C178.217536,9.6371558 178.48058,11.0779167 178.48058,13.5728442 C178.48058,23.1520109 173.889275,48.7449457 163.387464,68.4313587 C165.621341,41.1326268 173.626232,9.6371558 177.432391,9.6371558 M244.490543,88.115779 C241.997609,88.115779 240.947428,85.3617935 240.947428,81.1590761 C240.947428,70.7927717 247.639094,52.0250181 254.334746,52.0250181 C257.877862,52.0250181 259.320616,53.3382428 259.84471,54.6494746 L259.320616,60.0319022 C256.564638,74.7284601 250.263551,88.115779 244.490543,88.115779 M251.708297,109.76904 C245.409203,134.835888 237.535833,142.185163 229.660471,142.185163 C222.440725,142.185163 217.325326,135.884076 217.325326,128.797844 C217.325326,119.878279 225.459746,109.641504 247.888188,109.637518 C248.78692,109.641504 249.703587,109.665417 250.634203,109.703279 C250.988913,109.723207 251.337645,109.731178 251.708297,109.76904" id="Fill-11" fill="#24466E" mask="url(#mask-2)"></path>
                        </g>
                        <path d="M331.039221,212.689384 C329.110236,211.26058 322.815127,207.049891 313.941395,207.049891 C312.151902,207.049891 310.475996,207.225254 308.913678,207.514203 C308.36567,207.615833 308.156431,208.289384 308.550996,208.681957 L322.775272,222.894275 C323.066214,223.183225 323.542482,223.157319 323.799547,222.838478 L331.160779,213.669819 C331.405888,213.364928 331.354076,212.922536 331.039221,212.689384" id="Fill-14" fill="#FEFEFE"></path>
                        <path d="M326.846866,230.818062 L300.709909,204.681105 C300.118062,204.089257 299.157554,204.089257 298.565707,204.681105 C297.971866,205.272953 297.971866,206.235453 298.565707,206.827301 L301.33962,209.601214 L301.596685,209.854293 L301.026757,210.151214 C301.022772,210.153207 301.022772,210.157192 301.018786,210.157192 C299.034004,211.149583 297.605199,212.134004 296.84596,212.693967 C296.533098,212.92712 296.477301,213.373496 296.722409,213.676395 C296.722409,213.676395 313.035091,233.880924 313.216431,234.068243 C313.489438,234.349221 313.939801,234.343243 314.20683,234.060272 L314.428025,233.829112 L319.714801,227.98038 L324.70067,232.964257 C324.997591,233.259185 325.386178,233.408641 325.774764,233.408641 C326.161359,233.408641 326.549946,233.259185 326.846866,232.964257 C327.438714,232.370417 327.438714,231.409909 326.846866,230.818062" id="Fill-16" fill="#FEFEFE"></path>
                    </g>
                </g>
            </g>
        </g>
    </g>
</svg>