<?xml version="1.0" encoding="UTF-8"?>
<svg width="606px" height="500px" viewBox="0 0 606 500" version="1.1" xmlns="http://www.w3.org/2000/svg" xmlns:xlink="http://www.w3.org/1999/xlink">
    <!-- Generator: Sketch 52.4 (67378) - http://www.bohemiancoding.com/sketch -->
    <title>Unplug_Day_10</title>
    <desc>Created with Sketch.</desc>
    <defs>
        <polygon id="path-1" points="1.13829654 0.331904567 86.5871377 0.331904567 86.5871377 130.996537 1.13829654 130.996537"></polygon>
        <polygon id="path-3" points="0.000597826087 1.63206522 319.12513 1.63206522 319.12513 206.042156 0.000597826087 206.042156"></polygon>
    </defs>
    <g id="Desktop" stroke="none" stroke-width="1" fill="none" fill-rule="evenodd">
        <g id="Artboard" transform="translate(-772.000000, -430.000000)">
            <g id="Unplug_Day_10" transform="translate(772.000000, 430.000000)">
                <path d="M370.719642,250.022069 C370.719642,258.128825 364.149463,264.731933 355.999264,264.731933 C347.8932,264.731933 341.278887,258.128825 341.278887,250.022069 C341.278887,241.913842 347.8932,235.310734 355.999264,235.310734 C364.149463,235.310734 370.719642,241.913842 370.719642,250.022069 Z M606,250.022069 C606,388.078213 494.065696,500 355.999264,500 C217.9549,500 106,388.078213 106,250.022069 C106,111.954155 217.9549,0 355.999264,0 C382.878739,0 408.734289,4.37411723 432.968626,12.1925024 L517.852802,245.444915 L498.354113,287.229284 L494.620321,285.404896 C488.79749,282.566796 481.693282,285.042961 478.899558,290.87806 L447.965581,354.967043 C445.171857,360.791843 447.644869,367.852519 453.448576,370.647952 L497.990738,392.131591 C503.794444,394.927024 510.876585,392.452331 513.670308,386.627531 L544.604286,322.581215 C547.440673,316.734346 544.96619,309.694268 539.121291,306.878237 L535.771471,305.256886 L559.109875,255.173023 C561.413704,250.180968 561.669684,244.463571 559.792491,239.321445 L486.108218,36.8452801 C557.937364,80.7409369 606,159.669256 606,250.022069 Z M191.886033,184.67367 C209.847365,139.678967 245.665577,103.804732 290.657912,85.8933616 L272.011022,40.494056 C214.903725,63.3960099 169.400899,108.913018 146.447937,166.02666 L191.886033,184.67367 Z M259.2973,212.366113 C269.835184,185.281309 291.275797,163.840337 318.346522,153.300082 L298.571255,105.106815 C258.722078,120.956921 226.956898,152.735111 211.106673,192.577389 L259.2973,212.366113 Z M437.021658,250.022069 C437.021658,205.271598 400.756215,168.992761 355.999264,168.992761 C311.264381,168.992761 274.976871,205.271598 274.976871,250.022069 C274.976871,294.718103 311.264381,331.049906 355.999264,331.049906 C400.756215,331.049906 437.021658,294.718103 437.021658,250.022069 Z" id="Fill-1" fill="#F2F1F2"></path>
                <g id="Group-18" transform="translate(0.000000, 53.000000)">
                    <path d="M0.72057971,133.404094 L34.5316304,133.579457 C62.3544565,133.720942 77.7883333,145.775109 78.6830797,177.830543 L78.4818116,216.922391 C77.2582609,248.96587 61.7008333,260.862609 33.88,260.71913 L0.0689492754,260.545761 L0.72057971,133.404094 Z M24.4801812,239.18942 L32.9294565,239.231268 C46.3127899,239.301014 54.0984783,232.999928 54.1941304,213.981087 L54.3655072,180.524746 C54.4571739,162.562065 48.5068116,155.13308 33.3618841,155.055362 L24.9106159,155.013514 L24.4801812,239.18942 Z" id="Fill-1" fill="#CEAA79"></path>
                    <path d="M89.3411232,261.002899 L121.510145,134.024638 L152.678804,134.184058 L182.667754,261.483152 L159.424275,261.363587 L153.396196,234.565036 L119.7625,234.393659 L112.755978,261.122464 L89.3411232,261.002899 Z M124.272101,212.92971 L148.400362,213.057246 L136.864312,161.574457 L136.511594,161.572464 L124.272101,212.92971 Z" id="Fill-3" fill="#CEAA79"></path>
                    <polygon id="Fill-4" fill="#CEAA79" points="224.969928 185.800163 245.838043 134.66212 271.723913 134.793641 236.643478 210.336938 236.380435 261.757953 212.078804 261.632409 212.341848 210.213388 178.038587 134.313388 203.924457 134.448895"></polygon>
                    <g id="Group-17" transform="translate(0.000000, 0.360688)">
                        <path d="M377.706123,163.136377 L358.159203,163.036739 L358.230942,149.123333 C376.916993,145.522428 380.117355,139.197428 386.145435,131.481486 L400.058841,131.553225 L399.397246,260.4525 L377.207935,260.342899 L377.706123,163.136377 Z" id="Fill-5" fill="#CEAA79"></path>
                        <g id="Group-9" transform="translate(414.492754, 131.521739)">
                            <mask id="mask-2" fill="white">
                                <use xlink:href="#path-1"></use>
                            </mask>
                            <g id="Clip-8"></g>
                            <path d="M1.35646739,44.1375 C1.49596014,17.0181159 16.7285688,0.191304348 44.1966848,0.332789855 C71.6667935,0.472282609 86.7220471,17.4565217 86.5865399,44.5759058 L86.3653442,87.190942 C86.2278442,114.310326 70.9952355,131.137138 43.5231341,130.995652 C16.0550181,130.854167 0.999764493,113.87192 1.13925725,86.7525362 L1.35646739,44.1375 Z M24.394692,84.2317029 C24.2890761,104.83279 30.5941486,110.854891 43.6267572,110.920652 C56.6573732,110.986413 63.0282065,105.032065 63.1318297,84.4289855 L63.3251268,47.0967391 C63.4307428,26.4936594 57.1236775,20.4735507 44.0930616,20.4077899 C31.0604529,20.3380435 24.6916123,26.2963768 24.5859964,46.8974638 L24.394692,84.2317029 Z" id="Fill-7" fill="#CEAA79" mask="url(#mask-2)"></path>
                        </g>
                        <path d="M338.666486,235.718243 L338.407428,235.718243 L338.407428,213.528931 L338.381522,213.528931 C338.383514,213.427301 338.389493,213.323678 338.389493,213.222047 C338.389493,199.302663 327.106522,188.019692 313.18913,188.019692 C299.269746,188.019692 287.986775,199.302663 287.986775,213.222047 C287.986775,213.323678 287.992754,213.427301 287.994746,213.528931 L287.968841,213.528931 L287.968841,235.718243 L287.709783,235.718243 C285.874457,235.718243 284.373913,237.218786 284.373913,239.054112 L284.373913,250.15375 C284.373913,251.989076 285.874457,253.48962 287.709783,253.48962 L301.734783,253.48962 L301.734783,273.006649 L304.303442,273.006649 L304.303442,253.48962 L322.074819,253.48962 L322.074819,273.006649 L324.641486,273.006649 L324.641486,253.48962 L338.666486,253.48962 C340.501812,253.48962 342.002355,251.989076 342.002355,250.15375 L342.002355,239.054112 C342.002355,237.218786 340.501812,235.718243 338.666486,235.718243" id="Fill-10" fill="#24466E"></path>
                        <g id="Group-14">
                            <mask id="mask-4" fill="white">
                                <use xlink:href="#path-3"></use>
                            </mask>
                            <g id="Clip-13"></g>
                            <path d="M307.729583,129.401051 C303.237917,119.89163 297.484837,113.702138 285.197518,109.02913 C278.045525,106.309022 270.327591,104.920072 262.521975,104.254493 C264.590453,89.6755072 266.033207,74.3651812 268.504221,62.7872826 C269.554402,60.5573913 270.734112,57.1457971 270.734112,53.9972464 C270.734112,49.1409058 268.372699,44.6771377 260.628859,44.6771377 L260.104764,50.3226087 C258.265453,47.8276812 254.722337,45.8608333 249.73846,45.8608333 C239.788641,45.8608333 232.431395,59.7582971 230.462554,73.2851087 C228.011467,80.0704348 223.645344,86.4113768 219.554221,86.4113768 C216.274149,86.4113768 215.092446,82.8682609 215.092446,78.1454348 C215.092446,73.6816667 216.011105,68.1697101 217.190815,63.3133696 C218.50404,59.6387319 219.422699,56.3586594 219.422699,53.7342029 C219.422699,49.1409058 217.190815,46.2534058 210.367627,45.4662681 C203.542446,72.4999638 197.767446,86.2798551 193.570707,86.2798551 C191.470344,86.2798551 190.812736,83.918442 190.812736,80.3753261 C190.812736,72.7630072 194.355851,60.8204348 196.195163,54.9159058 C196.326685,54.3898188 196.456214,53.7342029 196.456214,53.3396377 C196.456214,48.3517754 188.977409,45.7293116 187.664185,45.7293116 L187.532663,45.7293116 C185.480127,50.376413 181.562373,63.5644565 180.241178,75.110471 C180.225236,75.1742391 180.195344,75.2140942 180.179402,75.2798551 C178.51346,82.2265942 172.021069,108.786014 165.963098,101.2275 C163.761105,96.4110145 162.862373,89.426413 162.862373,81.4255072 L162.862373,77.8823913 C176.640272,58.853587 184.384112,31.8178986 184.384112,15.5450725 C184.384112,7.14561594 181.891178,1.63166667 176.512736,1.63166667 C163.256938,1.63166667 150.919801,49.665 150.132663,83.6553986 C144.88375,88.3802174 138.845707,91.6602899 132.283569,92.580942 C137.92904,86.6724275 141.077591,76.3061232 141.077591,66.9880072 C141.077591,64.3635507 140.944076,62.0021377 140.421975,59.6387319 C139.240272,53.8657246 132.022518,47.9611957 128.871975,47.9611957 C123.360018,47.9611957 119.290815,53.6026812 116.142264,60.4258696 L115.616178,60.2943478 C116.666359,54.7823913 117.587011,51.2412681 117.587011,51.1097464 C119.159293,47.9611957 119.816902,45.4662681 119.816902,43.3678986 C119.816902,36.4092029 113.123243,34.1793116 110.891359,34.1793116 C110.500779,34.1793116 110.237736,34.3108333 110.237736,34.4423551 C109.167627,46.372971 106.590996,59.7144565 103.914728,72.6494203 C103.87288,72.6474275 103.852953,72.6314855 103.809112,72.6314855 C103.809112,72.6314855 99.2158152,88.7747826 91.6034964,88.7747826 C87.9288587,88.7747826 86.7471558,84.9686232 86.7471558,79.7177174 C86.7471558,69.0883696 91.7350181,53.2081159 91.7350181,52.9470652 C91.7350181,50.0595652 86.6156341,45.0717029 83.8596558,45.0717029 C79.7924457,45.0717029 70.4743297,57.6718841 64.438279,73.1575725 C64.1752355,73.1575725 63.912192,73.0260507 63.7806703,73.0260507 C65.3569384,62.6597464 66.9312138,53.0765942 66.9312138,51.7673551 C66.9312138,44.8086594 63.3861051,40.6099275 56.1683514,41.9231522 C50.7899094,79.9807609 35.304221,100.059746 35.304221,78.272971 C35.304221,71.8443478 37.4025906,63.3133696 37.4025906,63.3133696 C39.6324819,56.8827536 42.9165399,46.3849275 30.5794022,45.4662681 C29.7902717,48.3517754 28.7400906,52.026413 27.9549457,55.8325725 C23.2301268,73.2890942 17.0605616,86.2798551 13.7804891,86.2798551 C11.6821196,86.2798551 11.0245109,83.918442 11.0245109,80.3753261 C11.0245109,72.7630072 14.5676268,60.8204348 16.4069384,54.9159058 C16.5384601,54.3898188 16.6659964,53.7342029 16.6659964,53.3396377 C16.6659964,48.3517754 9.18918478,45.7293116 7.87596014,45.7293116 L7.74443841,45.7293116 C5.24951087,51.3727899 0.000597826087,69.6144565 0.000597826087,82.2106522 C0.000597826087,89.9564855 2.49353261,96.2555797 9.18918478,96.2555797 C15.4842935,96.2555797 20.6036775,87.1985145 24.6728804,76.3061232 L24.9359239,76.3061232 C24.2783152,87.5930797 26.3786775,96.9111957 35.43375,96.9111957 C41.8623732,96.9111957 50.0027717,87.3300362 54.5940761,66.8564855 L54.8571196,66.9880072 C53.2828442,78.013913 51.3140036,87.9856522 51.3140036,91.1361957 C51.3140036,97.8278623 54.5940761,100.059746 57.8761413,100.059746 C58.792808,100.059746 59.7134601,99.9282246 60.6321196,99.4041304 C61.550779,84.1814855 75.3306703,58.0644565 81.237192,52.5525 L81.49625,52.6840217 C79.5294022,57.0142754 75.4601993,70.2680797 75.4601993,80.3753261 C75.4601993,90.478587 78.3476993,99.5356522 88.3234239,99.5356522 C93.175779,99.5356522 97.3207065,95.1655435 100.329764,89.936558 C97.866721,102.058478 95.93375,112.962826 95.93375,120.794348 C95.93375,133.918623 103.283025,136.016993 107.479764,136.016993 C109.056033,136.016993 110.237736,135.626413 110.237736,135.626413 C109.056033,131.033116 108.661467,125.256123 108.661467,118.959022 C108.661467,105.834746 110.628315,90.0880072 112.73067,76.9637319 C116.53683,64.7581159 122.833931,53.3396377 127.55875,53.3396377 C129.529583,53.3396377 130.44625,56.6217029 130.44625,61.215 C130.44625,69.351413 127.166178,84.7055797 122.443351,91.0046739 C120.735562,90.0880072 119.159293,88.6432609 117.979583,86.8039493 C117.979583,86.8039493 114.960562,89.4284058 114.960562,93.1050362 C114.960562,98.3539493 121.520707,101.107935 127.034656,101.107935 C134.776504,101.107935 143.965091,97.0427174 150.132663,90.478587 C150.656757,105.703225 155.118533,117.514275 164.044076,117.514275 C167.828315,117.514275 171.903496,114.339819 173.942083,111.087645 C175.337011,109.423696 176.546612,107.486739 177.548967,105.318623 C179.59154,100.900688 180.63375,96.0881884 181.446793,91.197971 C182.865634,94.2628261 185.252953,96.2555797 188.977409,96.2555797 C195.142989,96.2555797 200.262373,87.1985145 204.331576,76.1746014 L204.726141,76.3061232 C204.726141,77.4878261 204.59462,78.6675362 204.59462,79.8492391 C204.59462,89.2968841 207.087554,96.9111957 215.092446,96.9111957 C221.935562,96.9111957 227.001141,90.2175362 230.065996,83.6155435 C230.79933,92.1983333 234.462011,99.0095652 242.257663,99.0095652 C249.080851,99.0095652 253.803678,89.6914493 256.69317,80.2438043 L257.085743,80.3753261 C255.90404,89.2968841 254.594801,96.9111957 253.150054,103.602862 C251.83683,103.471341 250.394076,103.471341 249.212373,103.471341 C231.628315,103.471341 211.678859,109.248333 211.678859,124.732029 C211.678859,140.741812 231.23375,152.423333 239.631214,152.423333 C252.506395,152.423333 257.904764,133.858841 261.449873,112.070072 L261.623243,110.884384 C269.819438,112.313188 278.057482,114.947609 284.290815,118.821522 C293.015091,124.245797 297.126141,133.633659 299.812373,142.306123 C306.097518,162.604312 307.396793,182.400326 307.153678,203.336196 C307.113822,206.913188 319.044438,206.974964 319.086286,203.336196 C319.365272,179.239819 318.392808,151.978949 307.729583,129.401051 M177.429402,9.64054348 C178.21654,9.64054348 178.479583,11.0813043 178.479583,13.5742391 C178.479583,23.1553986 173.886286,48.7463406 163.384475,68.4327536 C165.618351,41.1340217 173.623243,9.64054348 177.429402,9.64054348 M244.487554,88.1171739 C241.99462,88.1171739 240.944438,85.3631884 240.944438,81.1624638 C240.944438,70.7961594 247.636105,52.026413 254.331757,52.026413 C257.874873,52.026413 259.317627,53.3396377 259.841721,54.6528623 L259.317627,60.0332971 C256.561649,74.7298551 250.262554,88.1171739 244.487554,88.1171739 M251.705308,109.770435 C245.406214,134.837283 237.532844,142.186558 229.657482,142.186558 C222.439728,142.186558 217.322337,135.885471 217.322337,128.799239 C217.322337,119.879674 225.456757,109.642899 247.885199,109.638913 C248.783931,109.642899 249.702591,109.666812 250.631214,109.706667 C250.987917,109.724601 251.334656,109.732572 251.705308,109.770435" id="Fill-12" fill="#24466E" mask="url(#mask-4)"></path>
                        </g>
                        <path d="M313.648659,222.080236 C313.648659,222.556504 313.262065,222.945091 312.781812,222.945091 C312.305543,222.945091 311.916957,222.556504 311.916957,222.080236 C311.916957,221.603967 312.305543,221.21538 312.781812,221.21538 C313.262065,221.21538 313.648659,221.603967 313.648659,222.080236 Z M327.490326,222.080236 C327.490326,230.200707 320.904275,236.784764 312.781812,236.784764 C304.661341,236.784764 298.07529,230.200707 298.07529,222.080236 C298.07529,213.959764 304.661341,207.373714 312.781812,207.373714 C314.364058,207.373714 315.884529,207.630779 317.311341,208.091105 L322.303188,221.811214 L321.157355,224.268279 L320.938152,224.16067 C320.595399,223.995272 320.17692,224.140743 320.011522,224.483496 L318.192138,228.253786 C318.028732,228.59654 318.174203,229.011033 318.514964,229.176431 L321.135435,230.439837 C321.476196,230.603243 321.892681,230.457772 322.05808,230.115018 L323.877464,226.348714 C324.044855,226.003967 323.899384,225.589475 323.554638,225.424076 L323.357355,225.328424 L324.730362,222.383134 C324.86587,222.090199 324.881812,221.753424 324.770217,221.450525 L320.435978,209.54183 C324.662609,212.122446 327.490326,216.765562 327.490326,222.080236 Z M303.128913,218.236214 C304.185072,215.589837 306.291413,213.479511 308.939783,212.425344 L307.841775,209.755054 C304.481993,211.102156 301.805725,213.780417 300.454638,217.140199 L303.128913,218.236214 Z M307.094493,219.864293 C307.714239,218.272083 308.975652,217.01067 310.567862,216.390924 L309.404094,213.555236 C307.060616,214.487844 305.191413,216.357047 304.258804,218.700525 L307.094493,219.864293 Z M317.548478,222.080236 C317.548478,219.447808 315.416232,217.313569 312.781812,217.313569 C310.151377,217.313569 308.017138,219.447808 308.017138,222.080236 C308.017138,224.708678 310.151377,226.846902 312.781812,226.846902 C315.416232,226.846902 317.548478,224.708678 317.548478,222.080236 Z" id="Fill-15" fill="#FEFEFE"></path>
                    </g>
                </g>
            </g>
        </g>
    </g>
</svg>