<?xml version="1.0" encoding="UTF-8"?>
<svg width="715px" height="450px" viewBox="0 0 715 450" version="1.1" xmlns="http://www.w3.org/2000/svg" xmlns:xlink="http://www.w3.org/1999/xlink">
    <!-- Generator: Sketch 52.4 (67378) - http://www.bohemiancoding.com/sketch -->
    <title>Unplug_Day_5</title>
    <desc>Created with Sketch.</desc>
    <defs>
        <polygon id="path-1" points="0 1.63286232 319.125298 1.63286232 319.125298 206.042103 0 206.042103"></polygon>
    </defs>
    <g id="Desktop" stroke="none" stroke-width="1" fill="none" fill-rule="evenodd">
        <g id="Artboard" transform="translate(-835.000000, -196.000000)">
            <g id="Unplug_Day_5" transform="translate(835.000000, 196.000000)">
                <g id="Group-10" transform="translate(88.000000, 0.000000)" fill="#F2F1F2">
                    <path d="M625.258105,419.929563 C626.061556,416.782985 626.534375,413.513213 626.534375,410.128802 L626.534375,42.0322243 L411.4374,261.979563 L625.258105,419.929563 Z" id="Fill-1"></path>
                    <path d="M0,42.070038 L0,410.127262 C0,413.503118 0.472819672,416.783156 1.26256557,419.909202 L215.074705,261.998555 L0,42.070038 Z" id="Fill-3"></path>
                    <path d="M313.258965,282.876673 C332.502383,282.85443 349.732891,275.00424 362.223211,262.267357 L610.731063,8.15252852 C604.029358,3.05709125 595.68135,-0.000513307985 586.61726,-0.000513307985 L39.9006697,-0.000513307985 C30.8194484,-0.000513307985 22.4885713,3.05709125 15.7680221,8.16108365 L264.269022,262.267357 C276.761055,275.00424 293.998416,282.85443 313.258965,282.876673" id="Fill-5"></path>
                    <path d="M386.69043,287.238593 C368.015766,306.087262 341.971282,317.838593 313.32629,317.838593 L313.259479,317.838593 C284.573372,317.859125 258.496339,306.104373 239.81311,287.238593 L23.9469459,446.653232 C28.8498803,448.788593 34.2204951,449.991445 39.9011836,449.991445 L586.617774,449.991445 C592.293323,449.991445 597.67079,448.795437 602.561733,446.653232 L386.69043,287.238593 Z" id="Fill-8"></path>
                </g>
                <g id="Group-21" transform="translate(0.000000, 22.000000)">
                    <path d="M0.72057971,133.403098 L34.5276449,133.57846 C62.3544565,133.719946 77.7883333,145.774112 78.6830797,177.829547 L78.4818116,216.923388 C77.2582609,248.966866 61.7028261,260.861612 33.8760145,260.720127 L0.0689492754,260.544764 L0.72057971,133.403098 Z M24.4801812,239.188424 L32.9294565,239.230272 C46.3127899,239.300018 54.0944928,232.998931 54.1921377,213.980091 L54.3635145,180.52375 C54.4571739,162.561069 48.5068116,155.132083 33.3618841,155.056359 L24.9106159,155.012518 L24.4801812,239.188424 Z" id="Fill-1" fill="#CEAA79"></path>
                    <path d="M89.3411232,261.003696 L121.510145,134.023442 L152.678804,134.182862 L182.669746,261.481957 L159.424275,261.362391 L153.396196,234.565833 L119.7625,234.392464 L112.755978,261.123261 L89.3411232,261.003696 Z M124.274094,212.930507 L148.400362,213.056051 L136.864312,161.575254 L136.513587,161.573261 L124.274094,212.930507 Z" id="Fill-3" fill="#CEAA79"></path>
                    <polygon id="Fill-4" fill="#CEAA79" points="224.970924 185.80096 245.83904 134.660924 271.724909 134.794438 236.644475 210.337736 236.381431 261.756757 212.079801 261.633207 212.342844 210.214185 178.039583 134.314185 203.925453 134.447699"></polygon>
                    <g id="Group-20" transform="translate(0.000000, 0.360688)">
                        <path d="M384.896775,223.829475 C384.30692,235.624583 391.496775,242.001395 402.941159,242.061178 C418.08808,242.136902 422.715254,232.30067 422.804928,214.513351 C422.884638,198.840344 417.649674,190.010453 404.43971,189.940707 C396.516522,189.900851 390.155652,193.74288 385.723768,199.705199 L366.527572,199.607554 L366.872319,133.041612 L440.30529,133.420236 L440.201667,153.495236 L386.843696,153.222228 L386.706196,179.634185 C393.423768,174.915344 400.482101,171.960091 409.814167,172.005924 C436.935543,172.147409 446.18192,189.099764 446.046413,215.160996 C445.894964,244.570054 433.655471,262.291612 403.190254,262.136178 C371.493514,261.972772 361.551667,242.904112 361.649312,223.709909 L384.896775,223.829475 Z" id="Fill-5" fill="#CEAA79"></path>
                        <path d="M338.666884,235.718043 L338.407826,235.718043 L338.407826,213.528732 L338.38192,213.528732 C338.383913,213.427101 338.389891,213.323478 338.389891,213.221848 C338.389891,199.302464 327.10692,188.019493 313.187536,188.019493 C299.270145,188.019493 287.987174,199.302464 287.987174,213.221848 C287.987174,213.323478 287.993152,213.427101 287.995145,213.528732 L287.969239,213.528732 L287.969239,235.718043 L287.710181,235.718043 C285.874855,235.718043 284.374312,237.218587 284.374312,239.053913 L284.374312,250.153551 C284.374312,251.988877 285.874855,253.48942 287.710181,253.48942 L301.735181,253.48942 L301.735181,273.006449 L304.301848,273.006449 L304.301848,253.48942 L322.073225,253.48942 L322.073225,273.006449 L324.641884,273.006449 L324.641884,253.48942 L338.666884,253.48942 C340.500217,253.48942 342.002754,251.988877 342.002754,250.153551 L342.002754,239.053913 C342.002754,237.218587 340.500217,235.718043 338.666884,235.718043" id="Fill-7" fill="#24466E"></path>
                        <g id="Group-11">
                            <mask id="mask-2" fill="white">
                                <use xlink:href="#path-1"></use>
                            </mask>
                            <g id="Clip-10"></g>
                            <path d="M307.730181,129.400254 C303.238514,119.890833 297.483442,113.703333 285.198116,109.030326 C278.046123,106.308225 270.326196,104.919275 262.52058,104.253696 C264.591051,89.6747101 266.033804,74.3643841 268.502826,62.7884783 C269.555,60.558587 270.73471,57.145 270.73471,53.9964493 C270.73471,49.1401087 268.373297,44.6783333 260.629457,44.6783333 L260.10337,50.3218116 C258.266051,47.8268841 254.722935,45.8600362 249.737065,45.8600362 C239.789239,45.8600362 232.433986,59.7555072 230.463152,73.2823188 C228.012065,80.0676449 223.647935,86.4105797 219.554819,86.4105797 C216.270761,86.4105797 215.091051,82.8674638 215.091051,78.1446377 C215.091051,73.6808696 216.011703,68.168913 217.191413,63.3125725 C218.504638,59.6399275 219.423297,56.3578623 219.423297,53.7334058 C219.423297,49.1401087 217.191413,46.2526087 210.366232,45.465471 C203.543043,72.4991667 197.768043,86.279058 193.567319,86.279058 C191.468949,86.279058 190.813333,83.9176449 190.813333,80.374529 C190.813333,72.7622101 194.356449,60.8216304 196.193768,54.9131159 C196.32529,54.3890217 196.456812,53.7334058 196.456812,53.3388406 C196.456812,48.352971 188.974022,45.7285145 187.66279,45.7285145 L187.531268,45.7285145 C185.476739,50.3736232 181.562971,63.5596739 180.243768,75.1076812 C180.225833,75.1714493 180.195942,75.2113043 180.18,75.279058 C178.512065,82.2257971 172.019674,108.791196 165.95971,101.22471 C163.75971,96.4082246 162.860978,89.4256159 162.860978,81.4227174 L162.860978,77.8796014 C176.64087,58.8527899 184.382717,31.8171014 184.382717,15.5442754 C184.382717,7.14481884 181.891775,1.63286232 176.509348,1.63286232 C163.255543,1.63286232 150.918406,49.6642029 150.131268,83.6565942 C144.880362,88.3794203 138.844312,91.6594928 132.284167,92.5801449 C137.925652,86.6736232 141.078188,76.3053261 141.078188,66.9872101 C141.078188,64.3647464 140.944674,62.0013406 140.42058,59.6399275 C139.238877,53.8649275 132.021123,47.9584058 128.872572,47.9584058 C123.358623,47.9584058 119.291413,53.6018841 116.14087,60.4270652 L115.616775,60.2955435 C116.666957,54.783587 117.583623,51.240471 117.583623,51.1089493 C119.159891,47.9584058 119.815507,45.465471 119.815507,43.3671014 C119.815507,36.4103986 113.123841,34.1785145 110.891957,34.1785145 C110.497391,34.1785145 110.234348,34.3100362 110.234348,34.441558 C109.164239,46.3741667 106.587609,59.7156522 103.913333,72.6486232 C103.869493,72.6486232 103.851558,72.6306884 103.805725,72.6306884 C103.805725,72.6306884 99.2124275,88.7739855 91.6001087,88.7739855 C87.9294565,88.7739855 86.7477536,84.9678261 86.7477536,79.718913 C86.7477536,69.0875725 91.7316304,53.2073188 91.7316304,52.9462681 C91.7316304,50.0587681 86.6162319,45.0728986 83.8582609,45.0728986 C79.789058,45.0728986 70.4729348,57.671087 64.4348913,73.1567754 C64.1718478,73.1567754 63.9127899,73.0252536 63.7812681,73.0252536 C65.3535507,62.6589493 66.9298188,53.0757971 66.9298188,51.7645652 C66.9298188,44.8098551 63.3867029,40.6091304 56.1689493,41.9223551 C50.7865217,79.9819565 35.3008333,100.058949 35.3008333,78.2741667 C35.3008333,71.8435507 37.4031884,63.3125725 37.4031884,63.3125725 C39.6330797,56.8819565 42.9131522,46.3841304 30.5760145,45.465471 C29.7908696,48.352971 28.7406884,52.0276087 27.9535507,55.8337681 C23.2267391,73.2882971 17.0611594,86.279058 13.7790942,86.279058 C11.6787319,86.279058 11.0251087,83.9176449 11.0251087,80.374529 C11.0251087,72.7622101 14.5682246,60.8216304 16.4035507,54.9131159 C16.5350725,54.3890217 16.6665942,53.7334058 16.6665942,53.3388406 C16.6665942,48.352971 9.1857971,45.7285145 7.87257246,45.7285145 L7.74105072,45.7285145 C5.24811594,51.37 -0.000797101449,69.6136594 -0.000797101449,82.2118478 C-0.000797101449,89.9536957 2.49413043,96.2547826 9.1857971,96.2547826 C15.4848913,96.2547826 20.6042754,87.1997101 24.6714855,76.3053261 L24.934529,76.3053261 C24.278913,87.5922826 26.3792754,96.9084058 35.4323551,96.9084058 C41.862971,96.9084058 49.9993841,87.3292391 54.5926812,66.8576812 L54.8557246,66.9872101 C53.2794565,78.0131159 51.3126087,87.9848551 51.3126087,91.1353986 C51.3126087,97.829058 54.5926812,100.058949 57.8747464,100.058949 C58.7934058,100.058949 59.7120652,99.9274275 60.6287319,99.4033333 C61.5513768,84.1806884 75.3292754,58.0636594 81.2338043,52.5517029 L81.4968478,52.6832246 C79.53,57.0134783 75.4607971,70.2692754 75.4607971,80.374529 C75.4607971,90.4797826 78.3482971,99.5348551 88.3200362,99.5348551 C93.1723913,99.5348551 97.3173188,95.1687319 100.326377,89.9417391 C97.8653261,102.061667 95.9303623,112.964022 95.9303623,120.795543 C95.9303623,133.919819 103.279638,136.018188 107.480362,136.018188 C109.054638,136.018188 110.234348,135.625616 110.234348,135.625616 C109.054638,131.032319 108.662065,125.257319 108.662065,118.958225 C108.662065,105.833949 110.628913,90.0852174 112.729275,76.9629348 C116.535435,64.7573188 122.834529,53.3388406 127.559348,53.3388406 C129.526196,53.3388406 130.444855,56.6209058 130.444855,61.2142029 C130.444855,69.3506159 127.164783,84.7047826 122.439964,91.0038768 C120.736159,90.0852174 119.159891,88.6424638 117.978188,86.8051449 C117.978188,86.8051449 114.959167,89.4296014 114.959167,93.1042391 C114.959167,98.3531522 121.521304,101.10913 127.033261,101.10913 C134.777101,101.10913 143.963696,97.0419203 150.131268,90.4797826 C150.657355,105.702428 155.11913,117.513478 164.040688,117.513478 C167.824928,117.513478 171.902101,114.341014 173.938696,111.088841 C175.335616,109.424891 176.545217,107.487935 177.547572,105.317826 C179.590145,100.899891 180.634348,96.0873913 181.447391,91.1971739 C182.864239,94.262029 185.251558,96.2547826 188.974022,96.2547826 C195.143587,96.2547826 200.262971,87.1997101 204.330181,76.1738043 L204.724746,76.3053261 C204.724746,77.487029 204.593225,78.6687319 204.593225,79.848442 C204.593225,89.2980797 207.086159,96.9084058 215.091051,96.9084058 C221.936159,96.9084058 227.003732,90.2127536 230.066594,83.6087681 C230.797935,92.1955435 234.460616,99.0107609 242.256268,99.0107609 C249.081449,99.0107609 253.806268,89.6906522 256.691775,80.2430072 L257.086341,80.374529 C255.904638,89.2980797 254.591413,96.9084058 253.148659,103.602065 C251.835435,103.470543 250.394674,103.470543 249.212971,103.470543 C231.624928,103.470543 211.679457,109.245543 211.679457,124.731232 C211.679457,140.743007 231.230362,152.422536 239.629819,152.422536 C252.52692,152.422536 257.919312,133.806232 261.462428,111.975616 L261.623841,110.883587 C269.818043,112.312391 278.05808,114.946812 284.291413,118.822717 C293.015688,124.246993 297.126739,133.632862 299.812971,142.307319 C306.096123,162.603514 307.395399,182.399529 307.154275,203.335399 C307.11442,206.914384 319.045036,206.974167 319.086884,203.335399 C319.363877,179.239022 318.393406,151.978152 307.730181,129.400254 M177.428007,9.63775362 C178.217138,9.63775362 178.476196,11.0805072 178.476196,13.5754348 C178.476196,23.1546014 173.884891,48.7475362 163.385072,68.4319565 C165.616957,41.1332246 173.621848,9.63775362 177.428007,9.63775362 M244.486159,88.1163768 C241.995217,88.1163768 240.943043,85.3623913 240.943043,81.1616667 C240.943043,70.7933696 247.636703,52.0276087 254.32837,52.0276087 C257.871486,52.0276087 259.316232,53.3388406 259.842319,54.6520652 L259.316232,60.0325 C256.560254,74.7310507 250.263152,88.1163768 244.486159,88.1163768 M251.703913,109.77163 C245.406812,134.836486 237.531449,142.185761 229.65808,142.185761 C222.440326,142.185761 217.320942,135.886667 217.320942,128.800435 C217.320942,119.876884 225.457355,109.640109 247.899746,109.640109 C247.907717,109.640109 247.913696,109.640109 247.921667,109.640109 C248.798478,109.644094 249.693225,109.668007 250.60192,109.703877 C250.966594,109.723804 251.32529,109.733768 251.703913,109.77163" id="Fill-9" fill="#24466E" mask="url(#mask-2)"></path>
                        </g>
                        <path d="M328.515797,231.937391 C328.555652,231.777971 328.579565,231.614565 328.579565,231.443188 L328.579565,212.866739 L317.738986,223.966377 L328.515797,231.937391 Z" id="Fill-12" fill="#FEFEFE"></path>
                        <path d="M297,212.868333 L297,231.44279 C297,231.612174 297.023913,231.779565 297.063768,231.936993 L307.84058,223.967971 L297,212.868333 Z" id="Fill-14" fill="#FEFEFE"></path>
                        <path d="M312.789783,225.020942 C313.760254,225.018949 314.629094,224.624384 315.256812,223.980725 L327.783261,211.157355 C327.446486,210.90029 327.026014,210.744855 326.567681,210.744855 L299.011884,210.744855 C298.553551,210.744855 298.13308,210.90029 297.794312,211.157355 L310.320761,223.980725 C310.950471,224.624384 311.819312,225.018949 312.789783,225.020942" id="Fill-16" fill="#FEFEFE"></path>
                        <path d="M316.490924,225.241141 C315.550344,226.191685 314.23712,226.785525 312.792373,226.785525 L312.79038,226.785525 C311.343641,226.785525 310.028424,226.193678 309.087844,225.241141 L298.207409,233.285888 C298.454511,233.393496 298.725525,233.455272 299.010489,233.455272 L326.568279,233.455272 C326.855236,233.455272 327.12625,233.393496 327.371359,233.285888 L316.490924,225.241141 Z" id="Fill-18" fill="#FEFEFE"></path>
                    </g>
                </g>
            </g>
        </g>
    </g>
</svg>