<?xml version="1.0" encoding="UTF-8"?>
<svg width="647px" height="542px" viewBox="0 0 647 542" version="1.1" xmlns="http://www.w3.org/2000/svg" xmlns:xlink="http://www.w3.org/1999/xlink">
    <!-- Generator: Sketch 52.4 (67378) - http://www.bohemiancoding.com/sketch -->
    <title>Unplug_Day_9</title>
    <desc>Created with Sketch.</desc>
    <defs>
        <polygon id="path-1" points="1.49884445 1.94919736 85.678442 1.94919736 85.678442 132.611839 1.49884445 132.611839"></polygon>
        <polygon id="path-3" points="0.000597826087 1.63206522 319.122707 1.63206522 319.122707 206.041106 0.000597826087 206.041106"></polygon>
    </defs>
    <g id="Desktop" stroke="none" stroke-width="1" fill="none" fill-rule="evenodd">
        <g id="Artboard" transform="translate(-665.000000, -296.000000)">
            <g id="Unplug_Day_9" transform="translate(665.000000, 294.000000)">
                <g id="Group-9" transform="translate(0.000000, 45.000000)" fill="#F2F1F2">
                    <path d="M497.382448,294.10839 C435.155768,313.406336 439.534144,322.565582 379.919427,345.502226 C347.711493,357.875514 312.278829,366.051884 288.006059,339.003938 C280.541596,317.789897 293.989953,315.360103 334.928964,287.113527 C379.751686,256.224829 387.277768,231.647774 374.043366,214.902911 C360.800406,198.15976 338.138289,205.327568 315.6713,221.748801 C238.59443,278.038185 154.98594,305.649486 115.825324,316.385788 L113.976752,316.558733 L113.976752,474.594692 C115.630197,474.837842 117.278506,475.084418 119.020956,475.171747 C214.840287,480.074144 338.521697,471.949144 338.521697,471.949144 C358.056647,474.800171 376.633078,460.003938 376.633078,460.003938 C376.633078,460.003938 471.584607,368.908048 519.816916,344.205993 C568.047514,319.500514 565.016199,319.743664 567.681223,310.738527 C572.977038,292.769349 535.569141,282.259075 497.382448,294.10839" id="Fill-1"></path>
                    <path d="M74.7916595,287.306849 L-0.00017116402,287.306849 L-0.00017116402,498.675 L73.0594796,498.675 C73.0594796,498.675 89.1762839,496.964384 90.1639003,483.560274 C91.1446701,442.228082 90.1639003,320.536301 90.1639003,306.805137 C90.1639003,290.130479 74.7916595,287.306849 74.7916595,287.306849" id="Fill-3"></path>
                    <path d="M583.883952,1.42585616 C521.318367,-10.2556507 503.014087,53.6672945 503.014087,53.6672945 C503.014087,53.6672945 484.718365,-10.2556507 422.151068,1.42585616 C381.335296,9.04743151 359.239732,40.6518836 359.037759,79.3008562 C358.529402,178.948116 503.014087,249.990925 503.014087,249.990925 C503.014087,249.990925 647.510753,178.948116 646.998973,79.3008562 C646.796999,40.6518836 624.698013,9.04743151 583.883952,1.42585616" id="Fill-6"></path>
                </g>
                <g id="Group-20" transform="translate(101.000000, 0.000000)">
                    <path d="M0.717789855,133.403895 L34.5288406,133.577264 C62.3516667,133.720743 77.7875362,145.774909 78.6822826,177.830344 L78.4830072,216.922192 C77.2594565,248.96567 61.6980435,260.862409 33.8772101,260.718931 L0.0661594203,260.545562 L0.717789855,133.403895 Z M24.4793841,239.187228 L32.9306522,239.231069 C46.3139855,239.298822 54.0956884,232.999728 54.1913406,213.978895 L54.3627174,180.524547 C54.4583696,162.561866 48.5060145,155.13288 33.361087,155.055163 L24.9118116,155.011322 L24.4793841,239.187228 Z" id="Fill-1" fill="#CEAA79"></path>
                    <path d="M89.3411232,261.002101 L121.510145,134.023841 L152.678804,134.185254 L182.667754,261.482355 L159.424275,261.36279 L153.396196,234.564239 L119.7625,234.392862 L112.755978,261.121667 L89.3411232,261.002101 Z M124.272101,212.930906 L148.400362,213.056449 L136.864312,161.575652 L136.511594,161.571667 L124.272101,212.930906 Z" id="Fill-3" fill="#CEAA79"></path>
                    <polygon id="Fill-4" fill="#CEAA79" points="224.969529 185.799366 245.837645 134.661322 271.723514 134.792844 236.64308 210.336141 236.380036 261.757156 212.078406 261.631612 212.341449 210.212591 178.038188 134.312591 203.924058 134.448098"></polygon>
                    <g id="Group-19" transform="translate(0.000000, 0.360688)">
                        <g id="Group-7" transform="translate(358.695652, 129.528986)">
                            <mask id="mask-2" fill="white">
                                <use xlink:href="#path-1"></use>
                            </mask>
                            <g id="Clip-6"></g>
                            <path d="M26.7736413,97.4847101 C27.0805254,106.119312 34.0910326,112.492138 42.7216486,112.537971 C55.7542572,112.603732 62.1191123,106.647391 62.226721,86.0463043 L62.2884964,74.2472101 C54.3334239,80.1955797 44.9814312,84.0216667 34.9439312,83.9698551 C12.7546196,83.8542754 1.39592391,66.5392391 1.4995471,46.1115217 C1.63306159,20.0482971 14.4086051,1.80065217 43.2895833,1.9501087 C70.759692,2.08960145 85.8149457,19.0738406 85.6794384,46.1932246 L85.4582428,88.8062681 C85.3207428,115.927645 70.0901268,132.750471 42.6200181,132.610978 C20.6060688,132.499384 5.17019928,120.267862 3.53016304,97.3671377 L26.7736413,97.4847101 Z M62.4180254,48.7120652 C62.5236413,28.1109783 56.2165761,22.0908696 43.1859601,22.0231159 C31.0341486,21.9593478 24.826721,30.733442 24.7509964,45.3482971 C24.6792572,59.439058 32.2158514,65.9912319 42.960779,66.047029 C50.3538949,66.0848913 56.3700181,61.1867029 62.3821558,55.7564493 L62.4180254,48.7120652 Z" id="Fill-5" fill="#CEAA79" mask="url(#mask-2)"></path>
                        </g>
                        <path d="M338.664094,235.718043 L338.405036,235.718043 L338.405036,213.528732 L338.37913,213.528732 C338.381123,213.427101 338.387101,213.325471 338.387101,213.221848 C338.387101,199.302464 327.10413,188.019493 313.186739,188.019493 C299.267355,188.019493 287.984384,199.302464 287.984384,213.221848 C287.984384,213.325471 287.990362,213.427101 287.992355,213.528732 L287.968442,213.528732 L287.968442,235.718043 L287.707391,235.718043 C285.872065,235.718043 284.371522,237.218587 284.371522,239.053913 L284.371522,250.153551 C284.371522,251.988877 285.872065,253.48942 287.707391,253.48942 L301.732391,253.48942 L301.732391,273.006449 L304.301051,273.006449 L304.301051,253.48942 L322.070435,253.48942 L322.070435,273.006449 L324.639094,273.006449 L324.639094,253.48942 L338.664094,253.48942 C340.49942,253.48942 341.999964,251.988877 341.999964,250.153551 L341.999964,239.053913 C341.999964,237.218587 340.49942,235.718043 338.664094,235.718043" id="Fill-8" fill="#24466E"></path>
                        <g id="Group-12">
                            <mask id="mask-4" fill="white">
                                <use xlink:href="#path-3"></use>
                            </mask>
                            <g id="Clip-11"></g>
                            <path d="M307.727591,129.40125 C303.235924,119.89183 297.480851,113.702337 285.195525,109.02933 C278.043533,106.309221 270.325598,104.920272 262.517989,104.256685 C264.590453,89.6757065 266.029221,74.3653804 268.500236,62.7874819 C269.552409,60.5575906 270.73212,57.1459964 270.73212,53.9974457 C270.73212,49.1411051 268.368714,44.677337 260.624873,44.677337 L260.100779,50.322808 C258.261467,47.8278804 254.722337,45.8610326 249.734475,45.8610326 C239.786649,45.8610326 232.425417,59.7644746 230.456576,73.2952717 C228.003496,80.0766123 223.643351,86.4115761 219.552228,86.4115761 C216.270163,86.4115761 215.08846,82.8684601 215.08846,78.1456341 C215.08846,73.6798732 216.00712,68.1699094 217.190815,63.3135688 C218.500054,59.6389312 219.422699,56.3588587 219.422699,53.7344022 C219.422699,49.1411051 217.190815,46.2536051 210.365634,45.4664674 C203.53846,72.500163 197.767446,86.2800543 193.566721,86.2800543 C191.468351,86.2800543 190.812736,83.9186413 190.812736,80.3755254 C190.812736,72.7632065 194.353859,60.8206341 196.19317,54.9141123 C196.322699,54.3880254 196.452228,53.7344022 196.452228,53.339837 C196.452228,48.3519746 188.973424,45.7295109 187.662192,45.7295109 L187.53067,45.7295109 C185.476141,50.3766123 181.558388,63.5686413 180.239185,75.1166486 C180.22125,75.1784239 180.193351,75.2162862 180.177409,75.2800543 C178.509475,82.2267935 172.017083,108.792192 165.959112,101.225707 C163.75712,96.409221 162.858388,89.4266123 162.858388,81.4237138 L162.858388,77.8825906 C176.640272,58.8537862 184.38212,31.8161051 184.38212,15.5452717 C184.38212,7.14581522 181.891178,1.63186594 176.50875,1.63186594 C163.252953,1.63186594 150.917808,49.6651993 150.13067,83.6555978 C144.879764,88.3804167 138.843714,91.6604891 132.279583,92.5811413 C137.925054,86.6726268 141.075598,76.3063225 141.075598,66.9882065 C141.075598,64.36375 140.944076,62.002337 140.417989,59.6389312 C139.238279,53.8659239 132.020525,47.9594022 128.871975,47.9594022 C123.358025,47.9594022 119.290815,53.6028804 116.140272,60.4260688 L115.614185,60.2945471 C116.666359,54.7825906 117.583025,51.2394746 117.583025,51.1079529 C119.159293,47.9594022 119.814909,45.4664674 119.814909,43.3680978 C119.814909,36.4094022 113.119257,34.1795109 110.889366,34.1795109 C110.496793,34.1795109 110.23375,34.3110326 110.23375,34.4425543 C109.163641,46.3731703 106.587011,59.7146558 103.912736,72.6496196 C103.868895,72.6476268 103.85096,72.6316848 103.805127,72.6316848 C103.805127,72.6316848 99.2138225,88.7749819 91.5995109,88.7749819 C87.9248732,88.7749819 86.7471558,84.9688225 86.7471558,79.7179167 C86.7471558,69.0885688 91.7310326,53.2083152 91.7310326,52.9472645 C91.7310326,50.0597645 86.6156341,45.0719022 83.8596558,45.0719022 C79.7884601,45.0719022 70.472337,57.6720833 64.4362862,73.1577717 C64.1732428,73.1577717 63.9101993,73.02625 63.7786775,73.02625 C65.3529529,62.6599457 66.929221,53.0767935 66.929221,51.7655616 C66.929221,44.8088587 63.3841123,40.6101268 56.1643659,41.9233514 C50.7859239,79.9809601 35.3002355,100.057953 35.3002355,78.2731703 C35.3002355,71.8445471 37.3986051,63.3135688 37.3986051,63.3135688 C39.6304891,56.8829529 42.9125543,46.3851268 30.5754167,45.4664674 C29.7862862,48.3519746 28.7400906,52.0266123 27.9509601,55.8327717 C23.2261413,73.2892935 17.0605616,86.2800543 13.7784964,86.2800543 C11.6801268,86.2800543 11.0205254,83.9186413 11.0205254,80.3755254 C11.0205254,72.7632065 14.5676268,60.8206341 16.4029529,54.9141123 C16.5344746,54.3880254 16.6659964,53.7344022 16.6659964,53.339837 C16.6659964,48.3519746 9.18519928,45.7295109 7.87197464,45.7295109 L7.7404529,45.7295109 C5.24751812,51.3709964 0.000597826087,69.6146558 0.000597826087,82.2108514 C0.000597826087,89.954692 2.49353261,96.255779 9.18519928,96.255779 C15.4823007,96.255779 20.6016848,87.1987138 24.6708877,76.3063225 L24.9339312,76.3063225 C24.2783152,87.593279 26.3786775,96.9094022 35.4317572,96.9094022 C41.8603804,96.9094022 49.9987862,87.3302355 54.5920833,66.8566848 L54.8551268,66.9882065 C53.2788587,78.0121196 51.3120109,87.9838587 51.3120109,91.1363949 C51.3120109,97.8280616 54.5920833,100.057953 57.8761413,100.057953 C58.7908152,100.057953 59.7114674,99.9264312 60.6301268,99.4043297 C61.5467935,84.1816848 75.3286775,58.062663 81.2332065,52.5526993 L81.49625,52.684221 C79.5294022,57.0144746 75.4562138,70.268279 75.4562138,80.3755254 C75.4562138,90.4787862 78.3457065,99.5358514 88.3194384,99.5358514 C93.1717935,99.5358514 97.3147283,95.1697283 100.325779,89.9427355 C97.8647283,102.062663 95.9297645,112.965018 95.9297645,120.794547 C95.9297645,133.918822 103.27904,136.017192 107.479764,136.017192 C109.05404,136.017192 110.23375,135.62462 110.23375,135.62462 C109.05404,131.033315 108.659475,125.256322 108.659475,118.959221 C108.659475,105.834946 110.626322,90.0862138 112.728678,76.9639312 C116.534837,64.7583152 122.831938,53.339837 127.554764,53.339837 C129.525598,53.339837 130.444257,56.6219022 130.444257,61.2151993 C130.444257,69.3516123 127.164185,84.705779 122.439366,91.0048732 C120.731576,90.0862138 119.159293,88.6434601 117.975598,86.8041486 C117.975598,86.8041486 114.958569,89.4286051 114.958569,93.1032428 C114.958569,98.3541486 121.520707,101.108134 127.032663,101.108134 C134.772518,101.108134 143.961105,97.0409239 150.13067,90.4787862 C150.656757,105.703424 155.11654,117.514475 164.040091,117.514475 C167.82433,117.514475 171.901504,114.340018 173.940091,111.087844 C175.333025,109.425888 176.54462,107.488931 177.546975,105.318822 C179.589547,100.900888 180.631757,96.0903804 181.444801,91.200163 C182.863641,94.2630254 185.248967,96.255779 188.973424,96.255779 C195.142989,96.255779 200.262373,87.1987138 204.327591,76.1748007 L204.722156,76.3063225 C204.722156,77.4860326 204.590634,78.6677355 204.590634,79.8494384 C204.590634,89.2970833 207.085562,96.9094022 215.08846,96.9094022 C221.933569,96.9094022 227.001141,90.2177355 230.062011,83.6157428 C230.797337,92.1985326 234.460018,99.0097645 242.253678,99.0097645 C249.076866,99.0097645 253.801685,89.6916486 256.689185,80.2440036 L257.08375,80.3755254 C255.900054,89.2970833 254.590815,96.9094022 253.146069,103.601069 C251.832844,103.469547 250.392083,103.469547 249.208388,103.469547 C231.62433,103.469547 211.676866,109.24654 211.676866,124.732228 C211.676866,140.742011 231.229764,152.423533 239.629221,152.423533 C252.516359,152.423533 257.910743,133.827156 261.455851,112.014475 L261.62125,110.884583 C269.815453,112.313388 278.055489,114.947808 284.288822,118.821721 C293.013098,124.245996 297.124149,133.633859 299.81038,142.306322 C306.093533,162.604511 307.392808,182.400525 307.151685,203.334402 C307.11183,206.913388 319.042446,206.97317 319.084293,203.334402 C319.361286,179.240018 318.390815,151.979149 307.727591,129.40125 M177.427409,9.63875 C178.212554,9.63875 178.475598,11.0815036 178.475598,13.5744384 C178.475598,23.1555978 173.882301,48.7465399 163.382482,68.4329529 C165.616359,41.134221 173.619257,9.63875 177.427409,9.63875 M244.483569,88.1173732 C241.990634,88.1173732 240.940453,85.3633877 240.940453,81.1606703 C240.940453,70.7943659 247.636105,52.0266123 254.327772,52.0266123 C257.870888,52.0266123 259.315634,53.339837 259.841721,54.6510688 L259.315634,60.0334964 C256.557663,74.7300543 250.260562,88.1173732 244.483569,88.1173732 M251.701322,109.770634 C245.406214,134.835489 237.528859,142.184764 229.653496,142.184764 C222.435743,142.184764 217.320344,135.88567 217.320344,128.799438 C217.320344,119.879873 225.450779,109.647083 247.875236,109.639112 C248.779946,109.643098 249.706576,109.667011 250.64317,109.706866 C250.993895,109.724801 251.338641,109.732772 251.701322,109.770634" id="Fill-10" fill="#24466E" mask="url(#mask-4)"></path>
                        </g>
                        <path d="M322.418569,223.657699 C319.124547,224.677989 319.355707,225.164221 316.199185,226.377808 C314.49538,227.031431 312.618207,227.465851 311.334873,226.033062 C310.938315,224.911141 311.651721,224.781612 313.817844,223.287047 C316.191214,221.652989 316.589764,220.351721 315.888315,219.466938 C315.186866,218.580163 313.987228,218.958786 312.799547,219.827627 C308.718388,222.806793 304.292482,224.267482 302.218025,224.837409 L302.12038,224.84538 L302.12038,233.208967 C302.208062,233.220924 302.295743,233.234873 302.387409,233.238859 C307.46096,233.499909 314.009149,233.069475 314.009149,233.069475 C315.043388,233.218931 316.025815,232.437772 316.025815,232.437772 C316.025815,232.437772 321.053533,227.615308 323.60625,226.308062 C326.158967,225.000815 325.999547,225.014764 326.141033,224.538496 C326.420018,223.58596 324.441214,223.029982 322.418569,223.657699" id="Fill-13" fill="#FEFEFE"></path>
                        <path d="M300.046123,223.297808 L296.086522,223.297808 L296.086522,234.483134 L299.954457,234.483134 C299.954457,234.483134 300.807355,234.39346 300.859167,233.68404 C300.910978,231.495996 300.859167,225.055417 300.859167,224.330054 C300.859167,223.447264 300.046123,223.297808 300.046123,223.297808" id="Fill-15" fill="#FEFEFE"></path>
                        <path d="M326.998116,208.169022 C323.686159,207.551268 322.717681,210.932971 322.717681,210.932971 C322.717681,210.932971 321.74721,207.551268 318.435254,208.169022 C316.275109,208.571558 315.105362,210.245471 315.095399,212.290036 C315.0675,217.562862 322.717681,221.323188 322.717681,221.323188 C322.717681,221.323188 330.36587,217.562862 330.339964,212.290036 C330.328007,210.245471 329.158261,208.571558 326.998116,208.169022" id="Fill-17" fill="#FEFEFE"></path>
                    </g>
                </g>
            </g>
        </g>
    </g>
</svg>