<?xml version="1.0" encoding="UTF-8"?>
<svg width="633px" height="500px" viewBox="0 0 633 500" version="1.1" xmlns="http://www.w3.org/2000/svg" xmlns:xlink="http://www.w3.org/1999/xlink">
    <!-- Generator: Sketch 52.4 (67378) - http://www.bohemiancoding.com/sketch -->
    <title>Unplug_Day_4</title>
    <desc>Created with Sketch.</desc>
    <defs>
        <polygon id="path-1" points="0 1.63346014 319.125728 1.63346014 319.125728 206.040708 0 206.040708"></polygon>
    </defs>
    <g id="Desktop" stroke="none" stroke-width="1" fill="none" fill-rule="evenodd">
        <g id="Artboard" transform="translate(-730.000000, -471.000000)">
            <g id="Unplug_Day_4" transform="translate(730.000000, 471.000000)">
                <path d="M562.708919,128.863778 L433.007577,4.11195612 C427.30591,-1.38186123 418.239766,-1.35943138 412.496229,4.11195612 L282.727598,129.334805 C156.541761,261.775579 240.018178,355.563744 240.761353,356.371218 C261.688401,379.737138 285.194881,391.6115 310.494254,391.6115 C347.611166,391.6115 380.511267,365.690072 404.171765,339.867336 C392.657777,414.361346 348.047801,473.380257 347.524437,474.035208 C343.808559,478.918934 343.132673,485.49387 345.842199,491.053481 C348.550229,496.548794 354.186102,500 360.324404,500 L485.526318,500 C491.68705,500 497.279558,496.548794 500.011514,491.053481 C502.719544,485.49387 502.107957,478.918934 498.306845,474.035208 C497.802921,473.380257 453.21687,414.581159 441.680452,339.867336 C465.318521,365.690072 498.220117,391.6115 535.356468,391.6115 C560.65584,391.6115 584.098022,379.737138 604.915911,356.492339 C605.790675,355.563744 689.37326,261.775579 562.708919,128.863778" id="Fill-1" fill="#F2F1F2"></path>
                <g id="Group-14" transform="translate(-0.000000, 12.000000)">
                    <path d="M0.720978261,133.403297 L34.532029,133.576667 C62.3528623,133.720145 77.7887319,145.774312 78.6834783,177.829746 L78.4822101,216.923587 C77.2586594,248.967065 61.7012319,260.861812 33.8803986,260.718333 L0.0693478261,260.544964 L0.720978261,133.403297 Z M24.478587,239.188623 L32.9298551,239.230471 C46.3131884,239.300217 54.0988768,232.99913 54.194529,213.98029 L54.3659058,180.523949 C54.4575725,162.561268 48.5072101,155.132283 33.3622826,155.056558 L24.9110145,155.012717 L24.478587,239.188623 Z" id="Fill-1" fill="#CEAA79"></path>
                    <path d="M89.341721,261.003496 L121.510743,134.023243 L152.679402,134.184656 L182.668351,261.481757 L159.424873,261.362192 L153.396793,234.565634 L119.763098,234.392264 L112.756576,261.123062 L89.341721,261.003496 Z M124.272699,212.930308 L148.40096,213.055851 L136.864909,161.575054 L136.512192,161.573062 L124.272699,212.930308 Z" id="Fill-3" fill="#CEAA79"></path>
                    <polygon id="Fill-4" fill="#CEAA79" points="224.970525 185.800761 245.838641 134.660725 271.724511 134.794239 236.644076 210.337536 236.381033 261.756558 212.079402 261.633007 212.342446 210.213986 178.039185 134.313986 203.925054 134.4475"></polygon>
                    <path d="M358.505543,206.603913 L358.403913,227.03163 L414.224928,227.318587 L414.053551,260.77692 L436.242862,260.888514 L436.414239,227.432174 L454.197572,227.523841 L454.289239,209.905906 L454.289239,209.561159 L436.509891,209.469493 L436.894493,133.746848 L412.770217,133.623297 L358.505543,206.603913 Z M377.865145,209.168587 L414.218949,159.694493 L414.575652,159.696486 L414.316594,209.357899 L377.865145,209.168587 Z" id="Fill-5" fill="#CEAA79"></path>
                    <g id="Group-13" transform="translate(0.000000, 0.360688)">
                        <path d="M338.667482,235.718043 L338.408424,235.718043 L338.408424,213.528732 L338.382518,213.528732 C338.384511,213.427101 338.390489,213.323478 338.390489,213.221848 C338.390489,199.302464 327.107518,188.019493 313.188134,188.019493 C299.270743,188.019493 287.987772,199.302464 287.987772,213.221848 C287.987772,213.323478 287.99375,213.427101 287.995743,213.528732 L287.969837,213.528732 L287.969837,235.718043 L287.710779,235.718043 C285.875453,235.718043 284.374909,237.218587 284.374909,239.053913 L284.374909,250.153551 C284.374909,251.988877 285.875453,253.48942 287.710779,253.48942 L301.735779,253.48942 L301.735779,273.006449 L304.302446,273.006449 L304.302446,253.48942 L322.073822,253.48942 L322.073822,273.006449 L324.642482,273.006449 L324.642482,253.48942 L338.667482,253.48942 C340.502808,253.48942 342.003351,251.988877 342.003351,250.153551 L342.003351,239.053913 C342.003351,237.218587 340.502808,235.718043 338.667482,235.718043" id="Fill-6" fill="#24466E"></path>
                        <g id="Group-10">
                            <mask id="mask-2" fill="white">
                                <use xlink:href="#path-1"></use>
                            </mask>
                            <g id="Clip-9"></g>
                            <path d="M307.730181,129.400851 C303.238514,119.891431 297.485435,113.701938 285.198116,109.028931 C278.046123,106.308822 270.328188,104.919873 262.522572,104.256286 C264.591051,89.675308 266.033804,74.3629891 268.504819,62.7890761 C269.555,60.557192 270.73471,57.1455978 270.73471,53.9970471 C270.73471,49.1407065 268.373297,44.6769384 260.629457,44.6769384 L260.105362,50.3204167 C258.266051,47.8274819 254.722935,45.8606341 249.739058,45.8606341 C239.789239,45.8606341 232.431993,59.7580978 230.463152,73.2849094 C228.012065,80.0722283 223.645942,86.4111775 219.554819,86.4111775 C216.274746,86.4111775 215.093043,82.8680616 215.093043,78.1432428 C215.093043,73.6814674 216.011703,68.1695109 217.191413,63.3131703 C218.504638,59.6405254 219.423297,56.3584601 219.423297,53.7340036 C219.423297,49.1407065 217.191413,46.2532065 210.368225,45.4660688 C203.543043,72.4997645 197.768043,86.2796558 193.571304,86.2796558 C191.470942,86.2796558 190.813333,83.9182428 190.813333,80.3751268 C190.813333,72.762808 194.356449,60.8202355 196.195761,54.9137138 C196.327283,54.3896196 196.456812,53.7340036 196.456812,53.3394384 C196.456812,48.3535688 188.978007,45.7291123 187.664783,45.7291123 L187.533261,45.7291123 C185.480725,50.374221 181.562971,63.5622645 180.241775,75.1102717 C180.225833,75.1740399 180.195942,75.2138949 180.18,75.2796558 C178.514058,82.2244022 172.021667,108.785815 165.963696,101.229293 C163.761703,96.412808 162.862971,89.4282065 162.862971,81.4233152 L162.862971,77.8801993 C176.64087,58.8513949 184.38471,31.8176993 184.38471,15.5448732 C184.38471,7.14541667 181.891775,1.63346014 176.513333,1.63346014 C163.257536,1.63346014 150.920399,49.6648007 150.133261,83.6551993 C144.884348,88.3800181 138.846304,91.6600906 132.284167,92.5807428 C137.929638,86.6722283 141.078188,76.3059239 141.078188,66.987808 C141.078188,64.3633514 140.944674,62.0019384 140.422572,59.6405254 C139.24087,53.8655254 132.023116,47.9590036 128.872572,47.9590036 C123.360616,47.9590036 119.291413,53.6024819 116.142862,60.4256703 L115.616775,60.2941486 C116.666957,54.7841848 117.587609,51.2410688 117.587609,51.1095471 C119.159891,47.9590036 119.8175,45.4660688 119.8175,43.3657065 C119.8175,36.4109964 113.123841,34.1791123 110.891957,34.1791123 C110.501377,34.1791123 110.238333,34.3106341 110.238333,34.4421558 C109.168225,46.3727717 106.589601,59.7142572 103.915326,72.649221 C103.873478,72.6472283 103.853551,72.6312862 103.80971,72.6312862 C103.80971,72.6312862 99.216413,88.7745833 91.6040942,88.7745833 C87.9294565,88.7745833 86.7477536,84.9664312 86.7477536,79.7175181 C86.7477536,69.0881703 91.7356159,53.2079167 91.7356159,52.9468659 C91.7356159,50.0593659 86.6162319,45.0715036 83.8582609,45.0715036 C79.7930435,45.0715036 70.4749275,57.6716848 64.4388768,73.1573732 C64.1758333,73.1573732 63.9127899,73.0238587 63.7812681,73.0238587 C65.3575362,62.6575543 66.9318116,53.0763949 66.9318116,51.765163 C66.9318116,44.8084601 63.3867029,40.6097283 56.1689493,41.9229529 C50.7905072,79.9805616 35.3048188,100.059547 35.3048188,78.2747645 C35.3048188,71.8441486 37.4031884,63.3131703 37.4031884,63.3131703 C39.6330797,56.8825543 42.9171377,46.3847283 30.58,45.4660688 C29.7908696,48.3535688 28.7406884,52.0262138 27.9535507,55.8343659 C23.2307246,73.2888949 17.0611594,86.2796558 13.781087,86.2796558 C11.6827174,86.2796558 11.0251087,83.9182428 11.0251087,80.3751268 C11.0251087,72.762808 14.5682246,60.8202355 16.4075362,54.9137138 C16.539058,54.3896196 16.6665942,53.7340036 16.6665942,53.3394384 C16.6665942,48.3535688 9.18978261,45.7291123 7.87655797,45.7291123 L7.74503623,45.7291123 C5.2501087,51.3705978 -0.000797101449,69.6122645 -0.000797101449,82.2124457 C-0.000797101449,89.9542935 2.49413043,96.2553804 9.18978261,96.2553804 C15.4848913,96.2553804 20.6042754,87.200308 24.6734783,76.3059239 L24.9365217,76.3059239 C24.278913,87.5928804 26.3792754,96.9090036 35.4343478,96.9090036 C41.862971,96.9090036 50.0033696,87.329837 54.5946739,66.858279 L54.8577174,66.987808 C53.283442,78.011721 51.3146014,87.9854529 51.3146014,91.1359964 C51.3146014,97.8296558 54.5946739,100.059547 57.8747464,100.059547 C58.7934058,100.059547 59.714058,99.9280254 60.6327174,99.4039312 C61.5513768,84.1812862 75.3312681,58.0642572 81.2377899,52.5523007 L81.4968478,52.6838225 C79.53,57.0140761 75.4607971,70.2698732 75.4607971,80.3751268 C75.4607971,90.4783877 78.3482971,99.5354529 88.3240217,99.5354529 C93.1763768,99.5354529 97.3213043,95.1653442 100.330362,89.9363587 C97.8673188,102.058279 95.9343478,112.962627 95.9343478,120.796141 C95.9343478,133.918424 103.283623,136.018786 107.480362,136.018786 C109.05663,136.018786 110.238333,135.624221 110.238333,135.624221 C109.05663,131.030924 108.662065,125.255924 108.662065,118.958822 C108.662065,105.834547 110.628913,90.0858152 112.731268,76.9635326 C116.537428,64.7579167 122.834529,53.3394384 127.559348,53.3394384 C129.530181,53.3394384 130.446848,56.6215036 130.446848,61.2148007 C130.446848,69.3512138 127.166775,84.7053804 122.443949,91.0044746 C120.736159,90.0858152 119.159891,88.6430616 117.978188,86.80375 C117.978188,86.80375 114.961159,89.4301993 114.961159,93.104837 C114.961159,98.35375 121.521304,101.109728 127.035254,101.109728 C134.777101,101.109728 143.965688,97.0405254 150.133261,90.4783877 C150.657355,105.703025 155.11913,117.514076 164.044674,117.514076 C167.828913,117.514076 171.904094,114.33962 173.940688,111.087446 C175.337609,109.425489 176.54721,107.488533 177.549565,105.318424 C179.592138,100.900489 180.636341,96.0879891 181.447391,91.1977717 C182.866232,94.2626268 185.253551,96.2553804 188.978007,96.2553804 C195.143587,96.2553804 200.262971,87.200308 204.332174,76.1744022 L204.726739,76.3059239 C204.726739,77.4876268 204.595217,78.6693297 204.595217,79.8490399 C204.595217,89.2986775 207.088152,96.9090036 215.093043,96.9090036 C221.936159,96.9090036 227.003732,90.2153442 230.066594,83.6133514 C230.799928,92.2001268 234.462609,99.0093659 242.258261,99.0093659 C249.081449,99.0093659 253.806268,89.69125 256.693768,80.2436051 L257.086341,80.3751268 C255.904638,89.2986775 254.595399,96.9090036 253.150652,103.602663 C251.837428,103.471141 250.394674,103.471141 249.212971,103.471141 C231.628913,103.471141 211.679457,109.246141 211.679457,124.73183 C211.679457,140.741612 231.234348,152.423134 239.631812,152.423134 C252.506993,152.423134 257.907355,133.856649 261.450471,112.063895 L261.623841,110.884185 C269.818043,112.310996 278.05808,114.947409 284.291413,118.821322 C293.015688,124.245598 297.126739,133.63346 299.812971,142.305924 C306.098116,162.604112 307.397391,182.400127 307.156268,203.334004 C307.11442,206.912989 319.047029,206.972772 319.086884,203.334004 C319.36587,179.23962 318.393406,151.97875 307.730181,129.400851 M177.43,9.63835145 C178.217138,9.63835145 178.480181,11.0811051 178.480181,13.5760326 C178.480181,23.1551993 173.886884,48.7461413 163.385072,68.4325543 C165.618949,41.1338225 173.623841,9.63835145 177.43,9.63835145 M244.488152,88.1169746 C241.995217,88.1169746 240.945036,85.3609964 240.945036,81.1622645 C240.945036,70.7939674 247.636703,52.0262138 254.332355,52.0262138 C257.875471,52.0262138 259.318225,53.3394384 259.842319,54.652663 L259.318225,60.0330978 C256.562246,74.7316486 250.263152,88.1169746 244.488152,88.1169746 M251.705906,109.770236 C245.406812,134.837083 237.533442,142.186359 229.65808,142.186359 C222.440326,142.186359 217.322935,135.887264 217.322935,128.79904 C217.322935,119.875489 225.459348,109.640707 247.899746,109.640707 C248.788514,109.642699 249.693225,109.666612 250.613877,109.704475 C250.974565,109.724402 251.329275,109.734366 251.705906,109.770236" id="Fill-8" fill="#24466E" mask="url(#mask-2)"></path>
                        </g>
                        <path d="M322.671848,212.63558 L313.963514,204.246087 C313.578913,203.875435 312.971123,203.877428 312.584529,204.246087 L303.87221,212.667464 C295.399022,221.575072 301.004638,227.882138 301.054457,227.937935 C302.459348,229.508225 304.037609,230.307319 305.735435,230.307319 C308.22837,230.307319 310.438333,228.563659 312.026558,226.825978 C311.25337,231.837754 308.258261,235.807319 308.222391,235.851159 C307.973297,236.179964 307.927464,236.620362 308.108804,236.995 C308.292138,237.365652 308.670761,237.596812 309.081268,237.596812 L317.488696,237.596812 C317.903188,237.596812 318.277826,237.365652 318.461159,236.995 C318.644493,236.620362 318.602645,236.179964 318.347572,235.851159 C318.313696,235.807319 315.32058,231.851703 314.545399,226.825978 C316.13163,228.563659 318.341594,230.307319 320.834529,230.307319 C322.534348,230.307319 324.108623,229.508225 325.505543,227.945906 C325.565326,227.882138 331.17692,221.575072 322.671848,212.63558" id="Fill-11" fill="#FEFEFE"></path>
                    </g>
                </g>
            </g>
        </g>
    </g>
</svg>