<?xml version="1.0" encoding="UTF-8"?>
<svg width="699px" height="500px" viewBox="0 0 699 500" version="1.1" xmlns="http://www.w3.org/2000/svg" xmlns:xlink="http://www.w3.org/1999/xlink">
    <!-- Generator: Sketch 52.4 (67378) - http://www.bohemiancoding.com/sketch -->
    <title>Unplug_Day_11</title>
    <desc>Created with Sketch.</desc>
    <defs>
        <polygon id="path-1" points="0 1.63206522 319.126095 1.63206522 319.126095 206.042156 0 206.042156"></polygon>
    </defs>
    <g id="Desktop" stroke="none" stroke-width="1" fill="none" fill-rule="evenodd">
        <g id="Artboard" transform="translate(-592.000000, -206.000000)">
            <g id="Unplug_Day_11" transform="translate(592.000000, 206.000000)">
                <path d="M626.042343,437.021168 L626.087941,437.112387 C640.302754,451.232252 640.258627,474.178318 626.087941,488.317309 C612.002569,502.491611 589.065298,502.491611 574.941682,488.317309 L574.850486,488.227561 C539.781203,453.153742 475.187942,379.308779 420.404138,319.16878 C365.623276,380.323961 296.758512,453.915864 261.327386,489.278054 C261.327386,489.314836 261.281788,489.369274 261.281788,489.369274 C247.112574,503.543575 224.216488,503.543575 210.045803,489.369274 C195.920716,475.230283 195.920716,452.338653 210.045803,438.199662 C245.838771,402.437284 320.063508,335.10126 381.660538,279.944482 C359.217491,255.09458 341.957908,236.007678 335.733044,228.974965 C300.487252,246.375781 249.658708,234.321592 204.596106,189.207765 C150.902241,135.554635 134.91499,64.6286895 168.711942,30.7701464 C202.55155,-3.07074124 273.459399,12.9706134 327.103253,66.6222725 C372.211453,111.739042 384.339053,162.634996 366.85148,197.798563 C374.073617,204.341341 393.97053,222.25122 419.905502,245.650441 C442.027892,225.87498 460.106768,209.743877 470.4634,200.535142 C455.246902,172.983972 459.196279,137.729185 482.591,114.329964 C482.591,114.329964 612.596814,-12.8400336 626.495382,1.0620814 C640.439548,15.0186337 539.006036,106.482162 539.006036,106.482162 C532.057488,113.513405 530.330647,123.338606 535.281708,128.286517 C540.188643,133.199117 549.956914,131.458594 556.996658,124.425881 C556.996658,124.425881 648.661899,23.1930597 662.425144,36.9156787 C676.142791,50.6721371 574.941682,142.369599 574.941682,142.369599 C567.941652,149.365531 566.169213,159.173076 571.121745,164.138643 C575.937484,169.033588 585.841077,167.31072 592.924949,160.278007 C592.924949,160.278007 686.499423,61.077022 698.218112,72.8031154 C709.983869,84.5306801 585.070324,216.794246 585.070324,216.794246 C561.675602,240.140501 526.335673,244.182104 498.854781,228.974965 C489.857264,238.962006 474.368649,256.362823 455.246902,277.715494 C515.887845,332.889927 590.520022,401.495666 626.042343,437.021168" id="Fill-1" fill="#F2F1F2"></path>
                <g id="Group-17" transform="translate(-0.000000, 82.000000)">
                    <path d="M0.72057971,133.404094 L34.5316304,133.579457 C62.3544565,133.720942 77.7883333,145.775109 78.6870652,177.830543 L78.4857971,216.922391 C77.2622464,248.96587 61.7028261,260.862609 33.88,260.71913 L0.0689492754,260.545761 L0.72057971,133.404094 Z M24.4821739,239.18942 L32.9294565,239.231268 C46.3127899,239.301014 54.0984783,232.999928 54.1941304,213.981087 L54.3675,180.524746 C54.4591667,162.562065 48.5088043,155.13308 33.3638768,155.055362 L24.9106159,155.011522 L24.4821739,239.18942 Z" id="Fill-1" fill="#CEAA79"></path>
                    <path d="M89.3411232,261.002899 L121.51413,134.024638 L152.678804,134.184058 L182.671739,261.483152 L159.428261,261.363587 L153.400181,234.565036 L119.7625,234.393659 L112.755978,261.122464 L89.3411232,261.002899 Z M124.276087,212.92971 L148.400362,213.057246 L136.864312,161.574457 L136.51558,161.572464 L124.276087,212.92971 Z" id="Fill-3" fill="#CEAA79"></path>
                    <polygon id="Fill-4" fill="#CEAA79" points="224.972917 185.800163 245.837047 134.66212 271.724909 134.793641 236.646467 210.336938 236.383424 261.757953 212.081793 261.632409 212.344837 210.213388 178.039583 134.313388 203.925453 134.448895"></polygon>
                    <g id="Group-16" transform="translate(0.000000, 0.360688)">
                        <path d="M377.706123,163.136377 L358.159203,163.036739 L358.230942,149.123333 C376.916993,145.522428 380.117355,139.197428 386.145435,131.481486 L400.058841,131.553225 L399.397246,260.4525 L377.207935,260.342899 L377.706123,163.136377 Z" id="Fill-5" fill="#CEAA79"></path>
                        <path d="M436.868986,163.439475 L417.322065,163.339837 L417.393804,149.426431 C436.079855,145.825525 439.280217,139.500525 445.304312,131.784583 L459.217717,131.856322 L458.558116,260.759583 L436.370797,260.645996 L436.868986,163.439475 Z" id="Fill-7" fill="#CEAA79"></path>
                        <path d="M338.667482,235.718243 L338.408424,235.718243 L338.408424,213.528931 L338.382518,213.528931 C338.384511,213.427301 338.390489,213.323678 338.390489,213.222047 C338.390489,199.302663 327.107518,188.019692 313.190127,188.019692 C299.270743,188.019692 287.987772,199.302663 287.987772,213.222047 C287.987772,213.323678 287.99375,213.427301 287.995743,213.528931 L287.969837,213.528931 L287.969837,235.718243 L287.710779,235.718243 C285.877446,235.718243 284.374909,237.218786 284.374909,239.054112 L284.374909,250.15375 C284.374909,251.989076 285.877446,253.48962 287.710779,253.48962 L301.735779,253.48962 L301.735779,273.006649 L304.304438,273.006649 L304.304438,253.48962 L322.075815,253.48962 L322.075815,273.006649 L324.642482,273.006649 L324.642482,253.48962 L338.667482,253.48962 C340.502808,253.48962 342.003351,251.989076 342.003351,250.15375 L342.003351,239.054112 C342.003351,237.218786 340.502808,235.718243 338.667482,235.718243" id="Fill-9" fill="#24466E"></path>
                        <g id="Group-13">
                            <mask id="mask-2" fill="white">
                                <use xlink:href="#path-1"></use>
                            </mask>
                            <g id="Clip-12"></g>
                            <path d="M307.730978,129.401051 C303.239312,119.89163 297.486232,113.702138 285.198913,109.02913 C278.04692,106.309022 270.328986,104.920072 262.521377,104.254493 C264.589855,89.6755072 266.032609,74.3651812 268.503623,62.7872826 C269.553804,60.5573913 270.735507,57.1457971 270.735507,53.9972464 C270.735507,49.1409058 268.372101,44.6771377 260.628261,44.6771377 L260.104167,50.3226087 C258.266848,47.8276812 254.723732,45.8608333 249.737862,45.8608333 C239.788043,45.8608333 232.43279,59.7582971 230.461957,73.2851087 C228.01087,80.0704348 223.646739,86.4113768 219.553623,86.4113768 C216.273551,86.4113768 215.091848,82.8682609 215.091848,78.1454348 C215.091848,73.6816667 216.010507,68.1697101 217.19221,63.3133696 C218.503442,59.6387319 219.422101,56.3586594 219.422101,53.7342029 C219.422101,49.1409058 217.19221,46.2534058 210.369022,45.4662681 C203.541848,72.4999638 197.768841,86.2798551 193.570109,86.2798551 C191.471739,86.2798551 190.81413,83.918442 190.81413,80.3753261 C190.81413,72.7630072 194.357246,60.8204348 196.196558,54.9159058 C196.326087,54.3898188 196.455616,53.7342029 196.455616,53.3396377 C196.455616,48.3517754 188.976812,45.7293116 187.66558,45.7293116 L187.534058,45.7293116 C185.479529,50.376413 181.561775,63.5664493 180.242572,75.1144565 C180.224638,75.1762319 180.194746,75.2140942 180.180797,75.2798551 C178.512862,82.2265942 172.020471,108.791993 165.9625,101.225507 C163.760507,96.4090217 162.861775,89.426413 162.861775,81.4255072 L162.861775,77.8823913 C176.641667,58.853587 184.385507,31.8178986 184.385507,15.5450725 C184.385507,7.14561594 181.89058,1.63166667 176.512138,1.63166667 C163.256341,1.63166667 150.919203,49.665 150.134058,83.6553986 C144.883152,88.3802174 138.845109,91.6602899 132.282971,92.580942 C137.928442,86.6724275 141.076993,76.3061232 141.076993,66.9880072 C141.076993,64.3635507 140.945471,62.0021377 140.421377,59.6387319 C139.239674,53.8657246 132.02192,47.9611957 128.871377,47.9611957 C123.361413,47.9611957 119.290217,53.6026812 116.141667,60.4258696 L115.617572,60.2943478 C116.665761,54.7823913 117.586413,51.2412681 117.586413,51.1097464 C119.160688,47.9611957 119.818297,45.4662681 119.818297,43.3678986 C119.818297,36.4092029 113.122645,34.1793116 110.892754,34.1793116 C110.500181,34.1793116 110.237138,34.3108333 110.237138,34.4423551 C109.167029,46.372971 106.590399,59.7144565 103.91413,72.6494203 C103.872283,72.6474275 103.854348,72.6314855 103.808514,72.6314855 C103.808514,72.6314855 99.2152174,88.7747826 91.6028986,88.7747826 C87.9282609,88.7747826 86.746558,84.9686232 86.746558,79.7177174 C86.746558,69.0883696 91.7344203,53.2081159 91.7344203,52.9470652 C91.7344203,50.0595652 86.6150362,45.0717029 83.859058,45.0717029 C79.7918478,45.0717029 70.4757246,57.6718841 64.4376812,73.1575725 C64.1746377,73.1575725 63.9115942,73.0260507 63.7800725,73.0260507 C65.3563406,62.6597464 66.9326087,53.0765942 66.9326087,51.7673551 C66.9326087,44.8086594 63.3855072,40.6099275 56.1677536,41.9231522 C50.7893116,79.9807609 35.3036232,100.059746 35.3036232,78.272971 C35.3036232,71.8443478 37.4019928,63.3133696 37.4019928,63.3133696 C39.6338768,56.8827536 42.915942,46.3849275 30.5788043,45.4662681 C29.7896739,48.3517754 28.7394928,52.026413 27.9543478,55.8325725 C23.229529,73.2890942 17.0619565,86.2798551 13.7798913,86.2798551 C11.6815217,86.2798551 11.023913,83.918442 11.023913,80.3753261 C11.023913,72.7630072 14.567029,60.8204348 16.4063406,54.9159058 C16.5378623,54.3898188 16.6653986,53.7342029 16.6653986,53.3396377 C16.6653986,48.3517754 9.18858696,45.7293116 7.87536232,45.7293116 L7.74384058,45.7293116 C5.2509058,51.3727899 0,69.6144565 0,82.2106522 C0,89.9564855 2.49293478,96.2555797 9.18858696,96.2555797 C15.4856884,96.2555797 20.6050725,87.1985145 24.6742754,76.3061232 L24.9373188,76.3061232 C24.2797101,87.5930797 26.3780797,96.9111957 35.4351449,96.9111957 C41.8637681,96.9111957 50.0021739,87.3300362 54.595471,66.8564855 L54.8585145,66.9880072 C53.2822464,78.013913 51.3153986,87.9856522 51.3153986,91.1361957 C51.3153986,97.8278623 54.595471,100.059746 57.8755435,100.059746 C58.7942029,100.059746 59.7148551,99.9282246 60.6315217,99.4041304 C61.5501812,84.1814855 75.3320652,58.0644565 81.2365942,52.5525 L81.4976449,52.6840217 C79.5288043,57.0142754 75.4596014,70.2680797 75.4596014,80.3753261 C75.4596014,90.478587 78.3490942,99.5356522 88.3228261,99.5356522 C93.1771739,99.5356522 97.3201087,95.1655435 100.329167,89.936558 C97.8681159,102.058478 95.9331522,112.962826 95.9331522,120.794348 C95.9331522,133.918623 103.282428,136.016993 107.481159,136.016993 C109.057428,136.016993 110.237138,135.626413 110.237138,135.626413 C109.057428,131.033116 108.66087,125.256123 108.66087,118.959022 C108.66087,105.834746 110.62971,90.0880072 112.732065,76.9637319 C116.538225,64.7581159 122.835326,53.3396377 127.558152,53.3396377 C129.528986,53.3396377 130.447645,56.6217029 130.447645,61.215 C130.447645,69.351413 127.167572,84.7055797 122.442754,91.0046739 C120.734964,90.0880072 119.160688,88.6432609 117.978986,86.8039493 C117.978986,86.8039493 114.961957,89.4284058 114.961957,93.1050362 C114.961957,98.3539493 121.522101,101.107935 127.036051,101.107935 C134.775906,101.107935 143.964493,97.0427174 150.134058,90.478587 C150.656159,105.703225 155.117935,117.514275 164.043478,117.514275 C167.827717,117.514275 171.902899,114.339819 173.939493,111.089638 C175.336413,109.427681 176.546014,107.488732 177.550362,105.318623 C179.592935,100.900688 180.635145,96.0881884 181.448188,91.1999638 C182.867029,94.2628261 185.252355,96.2555797 188.976812,96.2555797 C195.142391,96.2555797 200.261775,87.1985145 204.330978,76.1746014 L204.725543,76.3061232 C204.725543,77.4878261 204.594022,78.6675362 204.594022,79.8492391 C204.594022,89.2968841 207.088949,96.9111957 215.091848,96.9111957 C221.934964,96.9111957 227.002536,90.2175362 230.065399,83.6155435 C230.798732,92.1983333 234.461413,99.0095652 242.257065,99.0095652 C249.080254,99.0095652 253.805072,89.6914493 256.692572,80.2438043 L257.085145,80.3753261 C255.903442,89.2968841 254.594203,96.9111957 253.149457,103.602862 C251.838225,103.471341 250.393478,103.471341 249.211775,103.471341 C231.627717,103.471341 211.678261,109.248333 211.678261,124.732029 C211.678261,140.741812 231.233152,152.423333 239.632609,152.423333 C252.513768,152.423333 257.910145,133.838913 261.455254,112.036196 L261.624638,110.884384 C269.818841,112.313188 278.058877,114.947609 284.29221,118.821522 C293.016486,124.245797 297.127536,133.633659 299.813768,142.306123 C306.09692,162.604312 307.396196,182.400326 307.157065,203.336196 C307.115217,206.913188 319.045833,206.974964 319.087681,203.336196 C319.364674,179.239819 318.394203,151.978949 307.730978,129.401051 M177.430797,9.64054348 C178.215942,9.64054348 178.478986,11.0813043 178.478986,13.5742391 C178.478986,23.1553986 173.885688,48.7463406 163.38587,68.4327536 C165.619746,41.1340217 173.622645,9.64054348 177.430797,9.64054348 M244.486957,88.1171739 C241.994022,88.1171739 240.943841,85.3631884 240.943841,81.1624638 C240.943841,70.7961594 247.6375,52.026413 254.331159,52.026413 C257.874275,52.026413 259.319022,53.3396377 259.843116,54.6528623 L259.319022,60.0332971 C256.561051,74.7298551 250.261957,88.1171739 244.486957,88.1171739 M251.70471,109.770435 C245.405616,134.837283 237.532246,142.186558 229.656884,142.186558 C222.43913,142.186558 217.323732,135.885471 217.323732,128.799239 C217.323732,119.879674 225.456159,109.642899 247.886594,109.638913 C248.785326,109.642899 249.701993,109.666812 250.632609,109.706667 C250.987319,109.724601 251.336051,109.732572 251.70471,109.770435" id="Fill-11" fill="#24466E" mask="url(#mask-2)"></path>
                        </g>
                        <path d="M326.482192,236.471105 L326.486178,236.477083 C327.432736,237.417663 327.42875,238.946105 326.486178,239.886685 C325.547591,240.83125 324.019149,240.83125 323.078569,239.886685 L323.072591,239.880707 C320.737083,237.545199 316.434728,232.629076 312.785996,228.623641 C309.139257,232.69683 304.551938,237.595018 302.192518,239.950453 C302.192518,239.952446 302.190525,239.956431 302.190525,239.956431 C301.24596,240.900996 299.721504,240.900996 298.776938,239.956431 C297.836359,239.015851 297.836359,237.491395 298.776938,236.548822 C301.160272,234.169475 306.104293,229.685779 310.207373,226.013134 C308.712808,224.357156 307.562989,223.087772 307.148496,222.619475 C304.801033,223.777264 301.415344,222.974185 298.414257,219.971105 C294.839257,216.398098 293.773134,211.677264 296.024946,209.421467 C298.27875,207.169656 303.001576,208.237772 306.572591,211.808786 C309.577663,214.813859 310.384728,218.20154 309.22096,220.543025 C309.701214,220.979438 311.026395,222.171105 312.754112,223.729438 C314.226757,222.412228 315.43038,221.338134 316.119873,220.726359 C315.107554,218.891033 315.370598,216.543569 316.928931,214.985236 C316.928931,214.985236 325.587446,206.518025 326.512083,207.444656 C327.440707,208.373279 320.685272,214.463134 320.685272,214.463134 C320.222953,214.931431 320.107373,215.585054 320.43817,215.915851 C320.764982,216.242663 321.41462,216.127083 321.882917,215.658786 C321.882917,215.658786 327.988714,208.917301 328.90538,209.831975 C329.818062,210.746649 323.078569,216.852446 323.078569,216.852446 C322.612264,217.31875 322.494692,217.972373 322.825489,218.301178 C323.14433,218.627989 323.803931,218.512409 324.276214,218.044112 C324.276214,218.044112 330.507554,211.440127 331.288714,212.221286 C332.071866,213.002446 323.754112,221.808424 323.754112,221.808424 C322.195779,223.362772 319.842337,223.631793 318.010996,222.619475 C317.41317,223.283062 316.380924,224.442844 315.107554,225.863678 C319.146866,229.538315 324.116793,234.105707 326.482192,236.471105" id="Fill-14" fill="#FEFEFE"></path>
                    </g>
                </g>
            </g>
        </g>
    </g>
</svg>